<svg width="36" height="36" viewBox="0 0 36 36" fill="none" xmlns="http://www.w3.org/2000/svg">
<path d="M17.5697 19.4635C19.9963 19.4635 21.9635 17.4963 21.9635 15.0697C21.9635 12.643 19.9963 10.6758 17.5697 10.6758C15.143 10.6758 13.1758 12.643 13.1758 15.0697C13.1758 17.4963 15.143 19.4635 17.5697 19.4635Z" stroke="black" stroke-width="2" stroke-linecap="round" stroke-linejoin="round"/>
<path d="M17.5725 3.35352C14.4649 3.35352 11.4847 4.58798 9.2873 6.78535C7.08994 8.98271 5.85547 11.963 5.85547 15.0705C5.85547 17.8416 6.44425 19.6548 8.05241 21.6613L17.5725 32.646L27.0925 21.6613C28.7007 19.6548 29.2895 17.8416 29.2895 15.0705C29.2895 11.963 28.055 8.98271 25.8577 6.78535C23.6603 4.58798 20.68 3.35352 17.5725 3.35352V3.35352Z" stroke="black" stroke-width="2" stroke-linecap="round" stroke-linejoin="round"/>
</svg>
