<svg width="36" height="36" viewBox="0 0 36 36" fill="none" xmlns="http://www.w3.org/2000/svg">
<g clip-path="url(#clip0_2345_14882)">
<path d="M24.1693 2.236C24.7519 2.236 25.3107 2.46746 25.7227 2.87947C26.1347 3.29148 26.3662 3.85028 26.3662 4.43294V30.7962C26.3662 31.3789 26.1347 31.9377 25.7227 32.3497C25.3107 32.7617 24.7519 32.9931 24.1693 32.9931H10.9876C10.405 32.9931 9.84616 32.7617 9.43416 32.3497C9.02215 31.9377 8.79069 31.3789 8.79069 30.7962V4.43294C8.79069 3.85028 9.02215 3.29148 9.43416 2.87947C9.84616 2.46746 10.405 2.236 10.9876 2.236H24.1693ZM10.9876 0.0390625C9.8223 0.0390625 8.7047 0.501988 7.88069 1.326C7.05667 2.15001 6.59375 3.26761 6.59375 4.43294V30.7962C6.59375 31.9615 7.05667 33.0791 7.88069 33.9031C8.7047 34.7272 9.8223 35.1901 10.9876 35.1901H24.1693C25.3346 35.1901 26.4522 34.7272 27.2762 33.9031C28.1002 33.0791 28.5631 31.9615 28.5631 30.7962V4.43294C28.5631 3.26761 28.1002 2.15001 27.2762 1.326C26.4522 0.501988 25.3346 0.0390625 24.1693 0.0390625L10.9876 0.0390625Z" fill="black"/>
<path d="M17.5798 30.7962C18.1624 30.7962 18.7212 30.5648 19.1332 30.1528C19.5452 29.7407 19.7767 29.1819 19.7767 28.5993C19.7767 28.0166 19.5452 27.4578 19.1332 27.0458C18.7212 26.6338 18.1624 26.4023 17.5798 26.4023C16.9971 26.4023 16.4383 26.6338 16.0263 27.0458C15.6143 27.4578 15.3828 28.0166 15.3828 28.5993C15.3828 29.1819 15.6143 29.7407 16.0263 30.1528C16.4383 30.5648 16.9971 30.7962 17.5798 30.7962Z" fill="black"/>
</g>
<defs>
<clipPath id="clip0_2345_14882">
<rect width="35.151" height="35.151" fill="white" transform="translate(0 0.0390625)"/>
</clipPath>
</defs>
</svg>
