<svg width="20" height="20" viewBox="0 0 20 20" fill="none" xmlns="http://www.w3.org/2000/svg">
<path d="M15.5865 4H4.41317C3.44851 4 2.6665 4.78201 2.6665 5.74667V15.5867C2.6665 16.5513 3.44851 17.3333 4.41317 17.3333H15.5865C16.5512 17.3333 17.3332 16.5513 17.3332 15.5867V5.74667C17.3332 4.78201 16.5512 4 15.5865 4Z" stroke="#727272" stroke-width="1.33333" stroke-linecap="round" stroke-linejoin="round"/>
<path d="M6.00016 12.6673C6.36835 12.6673 6.66683 12.3688 6.66683 12.0007C6.66683 11.6325 6.36835 11.334 6.00016 11.334C5.63197 11.334 5.3335 11.6325 5.3335 12.0007C5.3335 12.3688 5.63197 12.6673 6.00016 12.6673Z" fill="#727272"/>
<path d="M8.66667 12.6673C9.03486 12.6673 9.33333 12.3688 9.33333 12.0007C9.33333 11.6325 9.03486 11.334 8.66667 11.334C8.29848 11.334 8 11.6325 8 12.0007C8 12.3688 8.29848 12.6673 8.66667 12.6673Z" fill="#727272"/>
<path d="M11.3332 12.6673C11.7014 12.6673 11.9998 12.3688 11.9998 12.0007C11.9998 11.6325 11.7014 11.334 11.3332 11.334C10.965 11.334 10.6665 11.6325 10.6665 12.0007C10.6665 12.3688 10.965 12.6673 11.3332 12.6673Z" fill="#727272"/>
<path d="M14.0002 12.6673C14.3684 12.6673 14.6668 12.3688 14.6668 12.0007C14.6668 11.6325 14.3684 11.334 14.0002 11.334C13.632 11.334 13.3335 11.6325 13.3335 12.0007C13.3335 12.3688 13.632 12.6673 14.0002 12.6673Z" fill="#727272"/>
<path d="M11.3332 9.99935C11.7014 9.99935 11.9998 9.70087 11.9998 9.33268C11.9998 8.96449 11.7014 8.66602 11.3332 8.66602C10.965 8.66602 10.6665 8.96449 10.6665 9.33268C10.6665 9.70087 10.965 9.99935 11.3332 9.99935Z" fill="#727272"/>
<path d="M14.0002 9.99935C14.3684 9.99935 14.6668 9.70087 14.6668 9.33268C14.6668 8.96449 14.3684 8.66602 14.0002 8.66602C13.632 8.66602 13.3335 8.96449 13.3335 9.33268C13.3335 9.70087 13.632 9.99935 14.0002 9.99935Z" fill="#727272"/>
<path d="M6.00016 15.3333C6.36835 15.3333 6.66683 15.0349 6.66683 14.6667C6.66683 14.2985 6.36835 14 6.00016 14C5.63197 14 5.3335 14.2985 5.3335 14.6667C5.3335 15.0349 5.63197 15.3333 6.00016 15.3333Z" fill="#727272"/>
<path d="M8.66667 15.3333C9.03486 15.3333 9.33333 15.0349 9.33333 14.6667C9.33333 14.2985 9.03486 14 8.66667 14C8.29848 14 8 14.2985 8 14.6667C8 15.0349 8.29848 15.3333 8.66667 15.3333Z" fill="#727272"/>
<path d="M11.3332 15.3333C11.7014 15.3333 11.9998 15.0349 11.9998 14.6667C11.9998 14.2985 11.7014 14 11.3332 14C10.965 14 10.6665 14.2985 10.6665 14.6667C10.6665 15.0349 10.965 15.3333 11.3332 15.3333Z" fill="#727272"/>
<path d="M6.6665 2.66602V5.99935M13.3332 2.66602V5.99935" stroke="#727272" stroke-width="1.33333" stroke-linecap="round" stroke-linejoin="round"/>
</svg>
