<svg width="25" height="25" viewBox="0 0 25 25" fill="none" xmlns="http://www.w3.org/2000/svg">
<g clip-path="url(#clip0_1922_6006)">
<path d="M21.2174 18.4144L18.7684 15.4929C18.692 15.4015 18.5508 15.2321 18.3129 15.1792C17.9962 15.1118 17.7451 15.3059 17.6375 15.3887L15.8521 16.7585C15.5595 16.981 15.2295 17.197 14.9926 17.1133C14.8581 17.0663 14.7376 16.9196 14.5936 16.7325L11.8257 13.1325L9.17617 9.46387C9.04323 9.27983 8.9326 9.11621 8.92555 8.97286C8.91262 8.72083 9.21422 8.46721 9.51042 8.25267L11.3335 6.93109C11.444 6.85121 11.7019 6.66371 11.7277 6.34393C11.7467 6.10657 11.6244 5.92034 11.5585 5.81964L9.45684 2.6369C9.21966 2.27819 8.8949 1.78724 8.3483 1.59199C7.69431 1.35849 7.00815 1.65862 6.59908 1.83955C5.70637 2.23262 4.92101 2.61471 4.35145 3.3105C3.3826 4.49615 3.40564 6.16169 3.50323 7.63004C3.5949 9.01126 4.02363 10.5969 4.7773 12.3429C5.41386 13.8191 6.25525 15.2285 7.2801 16.5348C8.23794 17.8869 9.3465 19.0949 10.5784 20.1268C12.0581 21.365 13.4163 22.2041 14.7311 22.693C15.858 23.1126 17.1254 23.5219 18.3221 23.3355C18.5902 23.2938 18.8547 23.2229 19.1134 23.1147C19.9434 22.7673 20.5332 22.1243 21.1646 21.3811C21.4539 21.0395 21.9391 20.4682 21.902 19.7756C21.8698 19.194 21.4926 18.7438 21.2174 18.4144ZM20.5737 20.8798C20.0086 21.5458 19.4865 22.1189 18.8145 22.3996C17.6612 22.8825 16.2404 22.4283 15.0009 21.9678C13.7871 21.5158 12.4664 20.6967 11.0753 19.5327C9.9568 18.5961 8.94321 17.5062 8.0576 16.2893C8.04376 16.258 8.026 16.2287 8.00475 16.2019C7.96992 16.1587 7.9354 16.1153 7.90121 16.0716C7.86783 16.0247 7.8348 15.9775 7.80213 15.9301C7.78237 15.9017 7.75892 15.8761 7.73238 15.8539C6.81984 14.6574 6.06565 13.3751 5.48826 12.036C4.76972 10.3711 4.36158 8.87174 4.27599 7.57857C4.18803 6.25802 4.16069 4.76773 4.95111 3.80072C5.41168 3.23766 6.1112 2.90053 6.91086 2.54876C7.3223 2.36746 7.75296 2.20233 8.08774 2.32145C8.36841 2.42172 8.5813 2.71675 8.81045 3.06381L10.9231 6.27117C10.9111 6.2802 10.8966 6.29156 10.879 6.30437L9.05581 7.62548C8.75105 7.84662 8.11659 8.30659 8.15176 9.01158C8.17091 9.39561 8.38917 9.69745 8.54833 9.91764L11.2215 13.6185L13.9798 17.2051C14.1458 17.4204 14.3727 17.7161 14.7352 17.8442C15.3955 18.0782 16.0227 17.6017 16.3221 17.3742L18.1085 16.0042C18.1709 15.9562 18.199 15.9404 18.1732 15.9894L20.6234 18.9126C20.8901 19.2308 21.112 19.5187 21.1279 19.8176C21.1477 20.1724 20.8648 20.537 20.5737 20.8798Z" fill="white" stroke="white" stroke-width="0.5"/>
</g>
<defs>
<clipPath id="clip0_1922_6006">
<rect width="24" height="24" fill="white" transform="translate(0.5 0.5)"/>
</clipPath>
</defs>
</svg>
