<svg width="30" height="30" viewBox="0 0 30 30" fill="none" xmlns="http://www.w3.org/2000/svg">
<rect x="0.5" y="0.5" width="29" height="29" rx="14.5" stroke="black"/>
<path d="M19.1602 16.6614L19.1602 16.6614L15.3297 20.4902L19.1602 16.6614ZM19.1602 16.6614C19.1623 16.6592 19.164 16.6571 19.1653 16.6554C21.4582 14.3568 21.456 10.6346 19.1594 8.33864C16.8611 6.04108 13.1354 6.04164 10.8379 8.33987C8.54032 10.6381 8.54088 14.3638 10.8392 16.6614L10.8745 16.626M19.1602 16.6614L10.8745 16.626M10.8745 16.626L10.8392 16.6614L14.6697 20.4902L10.8745 16.626ZM14.9997 20.627C14.8759 20.6272 14.7571 20.578 14.6697 20.4903L14.9997 20.627ZM14.9997 20.627L14.9997 20.577L14.9997 20.627ZM14.9997 15.05H14.9997C16.4074 15.0485 17.5481 13.9078 17.5497 12.5001V12.5C17.5497 11.0917 16.408 9.95002 14.9997 9.95002C13.5913 9.95002 12.4497 11.0917 12.4497 12.5C12.4497 13.9084 13.5913 15.05 14.9997 15.05ZM14.9996 7.55247L14.9997 7.55247C16.3143 7.55131 17.5753 8.07338 18.5043 9.00346C20.4352 10.9366 20.4334 14.0689 18.5003 15.9998L18.5003 15.9998L14.9997 19.5004L11.4991 16.0006L11.499 16.0006C10.5689 15.0715 10.0466 13.8104 10.0478 12.4957C10.0502 9.7633 12.2672 7.5501 14.9996 7.55247ZM14.9996 10.8834C15.892 10.8845 16.6152 11.6076 16.6163 12.5001C16.6163 13.3929 15.8925 14.1167 14.9997 14.1167C14.1068 14.1167 13.383 13.3929 13.383 12.5C13.383 11.6072 14.1068 10.8834 14.9996 10.8834ZM8.74967 22.45C8.49196 22.45 8.28301 22.659 8.28301 22.9167C8.28301 23.1744 8.49196 23.3834 8.74967 23.3834H21.2497C21.5074 23.3834 21.7163 23.1744 21.7163 22.9167C21.7163 22.659 21.5074 22.45 21.2497 22.45H8.74967ZM19.1734 16.6381L19.1736 16.6375L19.1736 16.6372C19.1736 16.6373 19.1735 16.6378 19.1734 16.6381Z" fill="black" stroke="black" stroke-width="0.1"/>
</svg>
