<svg width="30" height="30" viewBox="0 0 30 30" fill="none" xmlns="http://www.w3.org/2000/svg">
<rect x="0.5" y="0.5" width="29" height="29" rx="14.5" stroke="black"/>
<path d="M12.6776 12.9244C12.5261 12.9244 12.4033 13.0473 12.4033 13.1987V17.3609C12.4033 17.5124 12.5261 17.6352 12.6776 17.6352H15.4523H18.227H21.0016C21.1531 17.6352 21.2758 17.5124 21.2758 17.3609V13.1987C21.2758 13.0473 21.1531 12.9244 21.0016 12.9244C20.8501 12.9244 20.7273 13.0473 20.7273 13.1987V17.0866H18.5013V13.1987C18.5013 13.0473 18.3785 12.9244 18.2271 12.9244H15.4523C15.3009 12.9244 15.1781 13.0473 15.1781 13.1987V17.0866H12.952V13.1987C12.9519 13.0473 12.8291 12.9244 12.6776 12.9244ZM15.7265 13.473H17.9527V17.0866H15.7265V13.473Z" fill="black" stroke="black" stroke-width="0.3"/>
<path d="M11.1479 13.3927L16.8398 7.70083L22.532 13.3927C22.5855 13.4463 22.6557 13.473 22.7259 13.473C22.7961 13.473 22.8663 13.4462 22.9199 13.3927C23.027 13.2856 23.027 13.1119 22.9199 13.0048L20.0572 10.1423V7.31294C20.0572 7.16145 19.9344 7.03864 19.7829 7.03864C19.6314 7.03864 19.5087 7.16145 19.5087 7.31294V9.5938L17.0337 7.119C16.9265 7.01189 16.7529 7.01189 16.6458 7.119L10.76 13.0048C10.6529 13.1119 10.6529 13.2856 10.76 13.3927C10.8671 13.4998 11.0408 13.4998 11.1479 13.3927Z" fill="black" stroke="black" stroke-width="0.3"/>
<path d="M21.7551 19.9614C21.6199 19.9614 21.5103 20.0704 21.5103 20.2049V21.2179H11.4898V20.2049C11.4898 20.0704 11.3802 19.9614 11.2449 19.9614C11.1097 19.9614 11 20.0704 11 20.2049V22.7178C11 22.8523 11.1097 22.9614 11.2449 22.9614C11.3802 22.9614 11.4898 22.8523 11.4898 22.7178V21.705H21.5103V22.7178C21.5103 22.8523 21.6199 22.9614 21.7551 22.9614C21.8904 22.9614 22 22.8523 22 22.7178V20.2049C22.0001 20.0704 21.8904 19.9614 21.7551 19.9614Z" fill="black" stroke="black" stroke-width="0.3"/>
<path d="M9.75644 8.2193C9.89095 8.2193 10 8.10965 10 7.9744C10 7.83915 9.89095 7.72955 9.75644 7.72955H7.24356C7.10905 7.72955 7.00005 7.83921 7.00005 7.97446C7.00005 8.1097 7.10911 8.21936 7.24361 8.21936H8.25644V18.2397H7.24356C7.10905 18.2397 7 18.3494 7 18.4847C7 18.6199 7.10905 18.7296 7.24356 18.7296H9.75644C9.89095 18.7296 10 18.6199 10 18.4847C10 18.3494 9.89095 18.2397 9.75644 18.2397H8.7435V8.2193H9.75644Z" fill="black" stroke="black" stroke-width="0.3"/>
</svg>
