<svg width="27" height="28" viewBox="0 0 27 28" fill="none" xmlns="http://www.w3.org/2000/svg">
<path d="M1.91183 17.5875L2.43374 17.0656L1.91183 17.5875C2.02122 17.6969 2.08268 17.8452 2.08268 18V23.3333C2.08268 23.8858 2.30218 24.4157 2.69288 24.8064C3.08358 25.1971 3.61348 25.4166 4.16602 25.4166H22.8327C23.3852 25.4166 23.9151 25.1971 24.3058 24.8064L23.7755 24.2761L24.3058 24.8064C24.6965 24.4157 24.916 23.8858 24.916 23.3333V18C24.916 17.8452 24.9775 17.6969 25.0869 17.5875L24.5877 17.0883L25.0869 17.5875C25.1963 17.4781 25.3446 17.4166 25.4993 17.4166C25.6541 17.4166 25.8024 17.4781 25.9118 17.5875C26.0212 17.6969 26.0827 17.8452 26.0827 18V23.3333C26.0827 24.1952 25.7403 25.0219 25.1308 25.6314C24.5213 26.2409 23.6946 26.5833 22.8327 26.5833H4.16602C3.30406 26.5833 2.47741 26.2409 1.86792 25.6314C1.25843 25.0219 0.916016 24.1952 0.916016 23.3333V18C0.916016 17.8452 0.977474 17.6969 1.08687 17.5875C1.19627 17.4781 1.34464 17.4166 1.49935 17.4166C1.65406 17.4166 1.80243 17.4781 1.91183 17.5875ZM13.2959 18.5406L13.28 18.5336L13.2638 18.5273C13.1942 18.5004 13.1305 18.4603 13.0761 18.4093L7.74968 13.083C7.695 13.0283 7.65163 12.9634 7.62205 12.8919C7.59246 12.8205 7.57723 12.7439 7.57723 12.6666C7.57723 12.5893 7.59246 12.5127 7.62205 12.4413C7.65163 12.3699 7.695 12.305 7.74968 12.2503C7.80435 12.1956 7.86926 12.1522 7.94069 12.1227C8.01213 12.0931 8.08869 12.0778 8.16602 12.0778C8.24334 12.0778 8.3199 12.0931 8.39133 12.1227L8.67835 11.4297L8.39134 12.1227C8.46253 12.1521 8.52724 12.1953 8.5818 12.2497C8.58198 12.2499 8.58217 12.2501 8.58235 12.2503L11.6345 15.3158L12.916 16.6029V14.7866V1.99996C12.916 1.84525 12.9775 1.69688 13.0869 1.58748C13.1963 1.47808 13.3446 1.41663 13.4993 1.41663C13.6541 1.41663 13.8024 1.47808 13.9118 1.58748C14.0212 1.69688 14.0827 1.84525 14.0827 1.99996V14.7866V16.6029L15.3642 15.3158L18.4163 12.2503C18.4166 12.2501 18.4168 12.2498 18.417 12.2496C18.5274 12.1396 18.6768 12.0778 18.8327 12.0778C18.9888 12.0778 19.1386 12.1399 19.249 12.2503C19.3594 12.3607 19.4215 12.5105 19.4215 12.6666C19.4215 12.8228 19.3594 12.9725 19.249 13.083L13.9226 18.4093C13.8682 18.4603 13.8045 18.5004 13.7349 18.5273L13.7187 18.5336L13.7028 18.5406C13.6387 18.569 13.5694 18.5836 13.4993 18.5836C13.4293 18.5836 13.36 18.569 13.2959 18.5406Z" stroke="#727272" stroke-width="1.5"/>
</svg>
