<svg width="32" height="32" viewBox="0 0 32 32" fill="none" xmlns="http://www.w3.org/2000/svg">
<path d="M26.1118 4.89148H5.88816C4.155 4.89148 2.75 6.29648 2.75 8.02964V23.7204C2.75 25.4536 4.155 26.8586 5.88816 26.8586H26.1118C27.845 26.8586 29.25 25.4536 29.25 23.7204V8.02964C29.25 6.29648 27.845 4.89148 26.1118 4.89148Z" stroke="#727272" stroke-width="1.5"/>
<path d="M3.62109 25.6382L10.88 18.3793C11.4928 17.7665 12.4862 17.7665 13.099 18.3793L15.0642 20.3445C15.677 20.9573 16.6705 20.9573 17.2832 20.3445L24.653 12.9747C25.2658 12.3619 26.2593 12.3619 26.872 12.9747L29.075 15.1777" stroke="#727272" stroke-width="1.5" stroke-linecap="round"/>
<path d="M11.1175 13.9573C12.2729 13.9573 13.2096 13.0206 13.2096 11.8652C13.2096 10.7097 12.2729 9.77307 11.1175 9.77307C9.96206 9.77307 9.02539 10.7097 9.02539 11.8652C9.02539 13.0206 9.96206 13.9573 11.1175 13.9573Z" stroke="#727272" stroke-width="1.5"/>
</svg>
