<svg width="50" height="50" viewBox="0 0 50 50" fill="none" xmlns="http://www.w3.org/2000/svg">
<path d="M47.2222 0H2.77778C1.24365 0 0 1.24365 0 2.77778V47.2222C0 48.7563 1.24365 50 2.77778 50H47.2222C48.7563 50 50 48.7563 50 47.2222V2.77778C50 1.24365 48.7563 0 47.2222 0Z" fill="#117EB8"/>
<path fill-rule="evenodd" clip-rule="evenodd" d="M9.12431 19.3388H15.8069V40.8402H9.12431V19.3388ZM12.4667 8.6506C14.6035 8.6506 16.3396 10.3867 16.3396 12.5235C16.3396 14.6624 14.6035 16.3992 12.4667 16.3992C11.9517 16.409 11.44 16.316 10.9614 16.1256C10.4828 15.9353 10.047 15.6515 9.67933 15.2908C9.31171 14.93 9.01969 14.4996 8.82034 14.0247C8.62099 13.5498 8.51831 13.0399 8.51831 12.5249C8.51831 12.0099 8.62099 11.5 8.82034 11.0251C9.01969 10.5502 9.31171 10.1198 9.67933 9.75905C10.047 9.39832 10.4828 9.1145 10.9614 8.92417C11.44 8.73385 11.9517 8.64085 12.4667 8.6506ZM19.9986 19.3381H26.4083V22.2763H26.4972C27.3896 20.586 29.5694 18.8041 32.8201 18.8041C39.5868 18.8041 40.8368 23.2575 40.8368 29.0471V40.8402H34.1583V30.3839C34.1583 27.8909 34.1125 24.6832 30.6861 24.6832C27.209 24.6832 26.675 27.3992 26.675 30.2041V40.8402H19.9979V19.3388L19.9986 19.3381Z" fill="white"/>
</svg>
