<svg width="32" height="32" viewBox="0 0 32 32" fill="none" xmlns="http://www.w3.org/2000/svg">
<path d="M15.9997 24.9239L15.9996 24.9739C16.1898 24.9742 16.3722 24.8986 16.5064 24.7639L22.6353 18.6376L22.5999 18.6023L22.6353 18.6376C22.6382 18.6348 22.6402 18.632 22.6416 18.6299C26.3003 14.964 26.2975 9.02621 22.634 5.36372C18.9685 1.69934 13.0264 1.70024 9.36202 5.36568C5.69764 9.03121 5.69854 14.9733 9.36406 18.6376L9.39941 18.6023L9.36407 18.6376L15.4929 24.7639C15.6271 24.8986 15.8096 24.9742 15.9997 24.9739L15.9997 24.9239ZM15.9997 24.9239C15.8228 24.9241 15.6532 24.8538 15.5283 24.7286H16.471C16.3462 24.8538 16.1765 24.9241 15.9997 24.9239ZM15.9997 16.0507H15.9997C18.2355 16.0482 20.0472 14.2365 20.0497 12.0008V12.0007C20.0497 9.76396 18.2364 7.95072 15.9997 7.95072C13.7629 7.95072 11.9497 9.76396 11.9497 12.0007C11.9497 14.2375 13.7629 16.0507 15.9997 16.0507ZM15.9996 4.05463L15.9997 4.05463C18.111 4.05277 20.1363 4.89124 21.6284 6.38502C24.7295 9.48974 24.7265 14.5205 21.6219 17.6216L21.6219 17.6216L15.9997 23.2438L10.3775 17.6229L10.3775 17.6229C8.88352 16.1307 8.0448 14.1053 8.04666 11.9938C8.05046 7.60537 11.6111 4.05083 15.9996 4.05463ZM15.9996 9.38406C17.4441 9.38589 18.6145 10.5563 18.6163 12.0008C18.6163 13.4459 17.4448 14.6174 15.9997 14.6174C14.5546 14.6174 13.383 13.4458 13.383 12.0007C13.383 10.5556 14.5545 9.38409 15.9996 9.38406ZM5.99967 27.9507C5.6039 27.9507 5.28301 28.2716 5.28301 28.6674C5.28301 29.0632 5.6039 29.3841 5.99967 29.3841H25.9997C26.3955 29.3841 26.7163 29.0632 26.7163 28.6674C26.7163 28.2716 26.3955 27.9507 25.9997 27.9507H5.99967Z" fill="#727272" stroke="#727272" stroke-width="0.1"/>
</svg>
