<svg width="32" height="32" viewBox="0 0 32 32" fill="none" xmlns="http://www.w3.org/2000/svg">
<path d="M27.8138 5.1687H4.18945C3.36094 5.16964 2.56663 5.49919 1.98079 6.08503C1.39494 6.67088 1.0654 7.46519 1.06445 8.2937V23.7062C1.0654 24.5347 1.39494 25.329 1.98079 25.9149C2.56663 26.5007 3.36094 26.8303 4.18945 26.8312H27.8137C28.6422 26.8303 29.4365 26.5007 30.0224 25.9149C30.6082 25.329 30.9378 24.5347 30.9387 23.7062V8.2937C30.9378 7.46519 30.6083 6.67087 30.0224 6.08502C29.4366 5.49917 28.6423 5.16963 27.8138 5.1687ZM22.2575 15.9957L29.6888 10.1633V23.2094L22.2575 15.9957ZM4.18945 6.4187H27.8137C28.3108 6.41926 28.7874 6.61699 29.1389 6.9685C29.4904 7.32001 29.6882 7.79659 29.6887 8.2937V8.57433L17.6631 18.0129C17.2234 18.3562 16.6815 18.5424 16.1237 18.542C15.5659 18.5415 15.0243 18.3544 14.5852 18.0104L2.31445 8.57195V8.2937C2.31502 7.79659 2.51274 7.32001 2.86425 6.9685C3.21576 6.61699 3.69235 6.41926 4.18945 6.4187ZM9.96683 16.0349L2.31445 23.2346V10.149L9.96683 16.0349ZM27.8138 25.5812H4.18945C3.86935 25.581 3.55463 25.4989 3.27524 25.3427C2.99585 25.1864 2.7611 24.9613 2.59333 24.6887L10.9705 16.8075L13.8193 18.9987C14.4782 19.5133 15.2903 19.7928 16.1263 19.7926C16.9623 19.7924 17.7742 19.5125 18.4328 18.9975L21.2653 16.7749L29.4131 24.6837C29.2456 24.9577 29.0106 25.1841 28.7306 25.3412C28.4506 25.4984 28.1349 25.581 27.8138 25.5812Z" fill="#727272"/>
</svg>
