<svg width="20" height="21" viewBox="0 0 20 21" fill="none" xmlns="http://www.w3.org/2000/svg">
<circle cx="10" cy="10.5" r="9.5" stroke="#727272"/>
<g clip-path="url(#clip0_3203_8545)">
<path fill-rule="evenodd" clip-rule="evenodd" d="M10.2221 10.7218C9.23675 10.7218 8.43586 9.92445 8.43586 8.944C8.43586 7.96356 9.23675 7.16623 10.2221 7.16623C11.2074 7.16623 12.0083 7.96356 12.0083 8.944C12.0083 9.92445 11.2074 10.7218 10.2221 10.7218ZM11.9003 11.0209C12.2675 10.7285 12.5507 10.344 12.7211 9.90657C12.8914 9.46915 12.9428 8.99439 12.8701 8.53065C12.6936 7.36487 11.7194 6.432 10.543 6.296C8.91986 6.108 7.54297 7.36578 7.54297 8.944C7.54297 9.784 7.93408 10.5324 8.54386 11.0209C7.04519 11.5813 5.95097 12.8973 5.77941 14.6733C5.77342 14.7356 5.78048 14.7985 5.80016 14.8579C5.81984 14.9173 5.85169 14.9719 5.89369 15.0183C5.93569 15.0647 5.9869 15.1018 6.04406 15.1273C6.10122 15.1527 6.16306 15.166 6.22564 15.1662C6.33533 15.1671 6.44138 15.127 6.52303 15.0538C6.60467 14.9805 6.65601 14.8794 6.66697 14.7702C6.84608 12.7867 8.37186 11.6107 10.2221 11.6107C12.0723 11.6107 13.5981 12.7867 13.7772 14.7702C13.7882 14.8794 13.8395 14.9805 13.9211 15.0538C14.0028 15.127 14.1088 15.1671 14.2185 15.1662C14.4834 15.1662 14.6896 14.936 14.6643 14.6733C14.4932 12.8973 13.399 11.5813 11.8999 11.0209" fill="#727272"/>
</g>
<defs>
<clipPath id="clip0_3203_8545">
<rect width="8.88889" height="8.88889" fill="white" transform="translate(5.77734 6.27734)"/>
</clipPath>
</defs>
</svg>
