<svg width="30" height="30" viewBox="0 0 30 30" fill="none" xmlns="http://www.w3.org/2000/svg">
<rect x="0.5" y="0.5" width="29" height="29" rx="14.5" stroke="black"/>
<rect x="0.5" y="0.5" width="29" height="29" rx="14.5" stroke="black" stroke-opacity="0.2"/>
<rect x="0.5" y="0.5" width="29" height="29" rx="14.5" stroke="black" stroke-opacity="0.2"/>
<rect x="0.5" y="0.5" width="29" height="29" rx="14.5" stroke="black" stroke-opacity="0.2"/>
<rect x="0.5" y="0.5" width="29" height="29" rx="14.5" stroke="black" stroke-opacity="0.2"/>
<rect x="0.5" y="0.5" width="29" height="29" rx="14.5" stroke="black" stroke-opacity="0.2"/>
<path fill-rule="evenodd" clip-rule="evenodd" d="M8.33268 22.5H19.166C19.166 22.96 19.5393 23.3334 19.9993 23.3334C20.4593 23.3334 20.8327 22.96 20.8327 22.5V20.8334C20.8327 20.3734 20.4593 20 19.9993 20C19.5393 20 19.166 20.3734 19.166 20.8334H8.33268C8.33268 20.3734 7.95935 20 7.49935 20C7.03935 20 6.66602 20.3734 6.66602 20.8334V22.5C6.66602 22.96 7.03935 23.3334 7.49935 23.3334C7.95935 23.3334 8.33268 22.96 8.33268 22.5ZM8.33268 13.6784V18.3334C8.33268 18.7934 8.70602 19.1667 9.16602 19.1667H17.4993C17.9593 19.1667 18.3327 18.7934 18.3327 18.3334V13.6784L18.5768 13.9225C18.9018 14.2475 19.4302 14.2475 19.7552 13.9225C20.0802 13.5975 20.0802 13.0692 19.7552 12.7442L13.9218 6.91088C13.5968 6.58505 13.0685 6.58505 12.7435 6.91088L6.91018 12.7442C6.58518 13.0692 6.58518 13.5975 6.91018 13.9225C7.23518 14.2475 7.76352 14.2475 8.08852 13.9225L8.33268 13.6784ZM22.4993 16.6667V9.16671C22.9593 9.16671 23.3327 8.79338 23.3327 8.33338C23.3327 7.87338 22.9593 7.50005 22.4993 7.50005H20.8327C20.3727 7.50005 19.9993 7.87338 19.9993 8.33338C19.9993 8.79338 20.3727 9.16671 20.8327 9.16671V16.6667C20.3727 16.6667 19.9993 17.04 19.9993 17.5C19.9993 17.96 20.3727 18.3334 20.8327 18.3334H22.4993C22.9593 18.3334 23.3327 17.96 23.3327 17.5C23.3327 17.04 22.9593 16.6667 22.4993 16.6667ZM9.99935 12.0117V17.5H16.666V12.0117L13.3327 8.67838L9.99935 12.0117Z" fill="black"/>
<path fill-rule="evenodd" clip-rule="evenodd" d="M8.33268 22.5H19.166C19.166 22.96 19.5393 23.3334 19.9993 23.3334C20.4593 23.3334 20.8327 22.96 20.8327 22.5V20.8334C20.8327 20.3734 20.4593 20 19.9993 20C19.5393 20 19.166 20.3734 19.166 20.8334H8.33268C8.33268 20.3734 7.95935 20 7.49935 20C7.03935 20 6.66602 20.3734 6.66602 20.8334V22.5C6.66602 22.96 7.03935 23.3334 7.49935 23.3334C7.95935 23.3334 8.33268 22.96 8.33268 22.5ZM8.33268 13.6784V18.3334C8.33268 18.7934 8.70602 19.1667 9.16602 19.1667H17.4993C17.9593 19.1667 18.3327 18.7934 18.3327 18.3334V13.6784L18.5768 13.9225C18.9018 14.2475 19.4302 14.2475 19.7552 13.9225C20.0802 13.5975 20.0802 13.0692 19.7552 12.7442L13.9218 6.91088C13.5968 6.58505 13.0685 6.58505 12.7435 6.91088L6.91018 12.7442C6.58518 13.0692 6.58518 13.5975 6.91018 13.9225C7.23518 14.2475 7.76352 14.2475 8.08852 13.9225L8.33268 13.6784ZM22.4993 16.6667V9.16671C22.9593 9.16671 23.3327 8.79338 23.3327 8.33338C23.3327 7.87338 22.9593 7.50005 22.4993 7.50005H20.8327C20.3727 7.50005 19.9993 7.87338 19.9993 8.33338C19.9993 8.79338 20.3727 9.16671 20.8327 9.16671V16.6667C20.3727 16.6667 19.9993 17.04 19.9993 17.5C19.9993 17.96 20.3727 18.3334 20.8327 18.3334H22.4993C22.9593 18.3334 23.3327 17.96 23.3327 17.5C23.3327 17.04 22.9593 16.6667 22.4993 16.6667ZM9.99935 12.0117V17.5H16.666V12.0117L13.3327 8.67838L9.99935 12.0117Z" fill="black" fill-opacity="0.2"/>
<path fill-rule="evenodd" clip-rule="evenodd" d="M8.33268 22.5H19.166C19.166 22.96 19.5393 23.3334 19.9993 23.3334C20.4593 23.3334 20.8327 22.96 20.8327 22.5V20.8334C20.8327 20.3734 20.4593 20 19.9993 20C19.5393 20 19.166 20.3734 19.166 20.8334H8.33268C8.33268 20.3734 7.95935 20 7.49935 20C7.03935 20 6.66602 20.3734 6.66602 20.8334V22.5C6.66602 22.96 7.03935 23.3334 7.49935 23.3334C7.95935 23.3334 8.33268 22.96 8.33268 22.5ZM8.33268 13.6784V18.3334C8.33268 18.7934 8.70602 19.1667 9.16602 19.1667H17.4993C17.9593 19.1667 18.3327 18.7934 18.3327 18.3334V13.6784L18.5768 13.9225C18.9018 14.2475 19.4302 14.2475 19.7552 13.9225C20.0802 13.5975 20.0802 13.0692 19.7552 12.7442L13.9218 6.91088C13.5968 6.58505 13.0685 6.58505 12.7435 6.91088L6.91018 12.7442C6.58518 13.0692 6.58518 13.5975 6.91018 13.9225C7.23518 14.2475 7.76352 14.2475 8.08852 13.9225L8.33268 13.6784ZM22.4993 16.6667V9.16671C22.9593 9.16671 23.3327 8.79338 23.3327 8.33338C23.3327 7.87338 22.9593 7.50005 22.4993 7.50005H20.8327C20.3727 7.50005 19.9993 7.87338 19.9993 8.33338C19.9993 8.79338 20.3727 9.16671 20.8327 9.16671V16.6667C20.3727 16.6667 19.9993 17.04 19.9993 17.5C19.9993 17.96 20.3727 18.3334 20.8327 18.3334H22.4993C22.9593 18.3334 23.3327 17.96 23.3327 17.5C23.3327 17.04 22.9593 16.6667 22.4993 16.6667ZM9.99935 12.0117V17.5H16.666V12.0117L13.3327 8.67838L9.99935 12.0117Z" fill="black" fill-opacity="0.2"/>
<path fill-rule="evenodd" clip-rule="evenodd" d="M8.33268 22.5H19.166C19.166 22.96 19.5393 23.3334 19.9993 23.3334C20.4593 23.3334 20.8327 22.96 20.8327 22.5V20.8334C20.8327 20.3734 20.4593 20 19.9993 20C19.5393 20 19.166 20.3734 19.166 20.8334H8.33268C8.33268 20.3734 7.95935 20 7.49935 20C7.03935 20 6.66602 20.3734 6.66602 20.8334V22.5C6.66602 22.96 7.03935 23.3334 7.49935 23.3334C7.95935 23.3334 8.33268 22.96 8.33268 22.5ZM8.33268 13.6784V18.3334C8.33268 18.7934 8.70602 19.1667 9.16602 19.1667H17.4993C17.9593 19.1667 18.3327 18.7934 18.3327 18.3334V13.6784L18.5768 13.9225C18.9018 14.2475 19.4302 14.2475 19.7552 13.9225C20.0802 13.5975 20.0802 13.0692 19.7552 12.7442L13.9218 6.91088C13.5968 6.58505 13.0685 6.58505 12.7435 6.91088L6.91018 12.7442C6.58518 13.0692 6.58518 13.5975 6.91018 13.9225C7.23518 14.2475 7.76352 14.2475 8.08852 13.9225L8.33268 13.6784ZM22.4993 16.6667V9.16671C22.9593 9.16671 23.3327 8.79338 23.3327 8.33338C23.3327 7.87338 22.9593 7.50005 22.4993 7.50005H20.8327C20.3727 7.50005 19.9993 7.87338 19.9993 8.33338C19.9993 8.79338 20.3727 9.16671 20.8327 9.16671V16.6667C20.3727 16.6667 19.9993 17.04 19.9993 17.5C19.9993 17.96 20.3727 18.3334 20.8327 18.3334H22.4993C22.9593 18.3334 23.3327 17.96 23.3327 17.5C23.3327 17.04 22.9593 16.6667 22.4993 16.6667ZM9.99935 12.0117V17.5H16.666V12.0117L13.3327 8.67838L9.99935 12.0117Z" fill="black" fill-opacity="0.2"/>
<path fill-rule="evenodd" clip-rule="evenodd" d="M8.33268 22.5H19.166C19.166 22.96 19.5393 23.3334 19.9993 23.3334C20.4593 23.3334 20.8327 22.96 20.8327 22.5V20.8334C20.8327 20.3734 20.4593 20 19.9993 20C19.5393 20 19.166 20.3734 19.166 20.8334H8.33268C8.33268 20.3734 7.95935 20 7.49935 20C7.03935 20 6.66602 20.3734 6.66602 20.8334V22.5C6.66602 22.96 7.03935 23.3334 7.49935 23.3334C7.95935 23.3334 8.33268 22.96 8.33268 22.5ZM8.33268 13.6784V18.3334C8.33268 18.7934 8.70602 19.1667 9.16602 19.1667H17.4993C17.9593 19.1667 18.3327 18.7934 18.3327 18.3334V13.6784L18.5768 13.9225C18.9018 14.2475 19.4302 14.2475 19.7552 13.9225C20.0802 13.5975 20.0802 13.0692 19.7552 12.7442L13.9218 6.91088C13.5968 6.58505 13.0685 6.58505 12.7435 6.91088L6.91018 12.7442C6.58518 13.0692 6.58518 13.5975 6.91018 13.9225C7.23518 14.2475 7.76352 14.2475 8.08852 13.9225L8.33268 13.6784ZM22.4993 16.6667V9.16671C22.9593 9.16671 23.3327 8.79338 23.3327 8.33338C23.3327 7.87338 22.9593 7.50005 22.4993 7.50005H20.8327C20.3727 7.50005 19.9993 7.87338 19.9993 8.33338C19.9993 8.79338 20.3727 9.16671 20.8327 9.16671V16.6667C20.3727 16.6667 19.9993 17.04 19.9993 17.5C19.9993 17.96 20.3727 18.3334 20.8327 18.3334H22.4993C22.9593 18.3334 23.3327 17.96 23.3327 17.5C23.3327 17.04 22.9593 16.6667 22.4993 16.6667ZM9.99935 12.0117V17.5H16.666V12.0117L13.3327 8.67838L9.99935 12.0117Z" fill="black" fill-opacity="0.2"/>
<path fill-rule="evenodd" clip-rule="evenodd" d="M8.33268 22.5H19.166C19.166 22.96 19.5393 23.3334 19.9993 23.3334C20.4593 23.3334 20.8327 22.96 20.8327 22.5V20.8334C20.8327 20.3734 20.4593 20 19.9993 20C19.5393 20 19.166 20.3734 19.166 20.8334H8.33268C8.33268 20.3734 7.95935 20 7.49935 20C7.03935 20 6.66602 20.3734 6.66602 20.8334V22.5C6.66602 22.96 7.03935 23.3334 7.49935 23.3334C7.95935 23.3334 8.33268 22.96 8.33268 22.5ZM8.33268 13.6784V18.3334C8.33268 18.7934 8.70602 19.1667 9.16602 19.1667H17.4993C17.9593 19.1667 18.3327 18.7934 18.3327 18.3334V13.6784L18.5768 13.9225C18.9018 14.2475 19.4302 14.2475 19.7552 13.9225C20.0802 13.5975 20.0802 13.0692 19.7552 12.7442L13.9218 6.91088C13.5968 6.58505 13.0685 6.58505 12.7435 6.91088L6.91018 12.7442C6.58518 13.0692 6.58518 13.5975 6.91018 13.9225C7.23518 14.2475 7.76352 14.2475 8.08852 13.9225L8.33268 13.6784ZM22.4993 16.6667V9.16671C22.9593 9.16671 23.3327 8.79338 23.3327 8.33338C23.3327 7.87338 22.9593 7.50005 22.4993 7.50005H20.8327C20.3727 7.50005 19.9993 7.87338 19.9993 8.33338C19.9993 8.79338 20.3727 9.16671 20.8327 9.16671V16.6667C20.3727 16.6667 19.9993 17.04 19.9993 17.5C19.9993 17.96 20.3727 18.3334 20.8327 18.3334H22.4993C22.9593 18.3334 23.3327 17.96 23.3327 17.5C23.3327 17.04 22.9593 16.6667 22.4993 16.6667ZM9.99935 12.0117V17.5H16.666V12.0117L13.3327 8.67838L9.99935 12.0117Z" fill="black" fill-opacity="0.2"/>
</svg>
