<svg width="32" height="32" viewBox="0 0 32 32" fill="none" xmlns="http://www.w3.org/2000/svg">
<path d="M16 0C19.2073 3.8247e-08 22.3406 0.963929 24.9933 2.76671L22.745 6.07503C20.7555 4.72295 18.4055 4 16 4V0Z" fill="#727272"/>
<path d="M25.4061 3.05687C28.0007 4.9424 29.9687 7.56417 31.0547 10.582L27.2911 11.9365C26.4765 9.67313 25.0005 7.7068 23.0546 6.29265L25.4061 3.05687Z" fill="#727272"/>
<path d="M31.1934 10.984C32.1989 14.0296 32.2659 17.3072 31.3856 20.3913L27.5392 19.2935C28.1994 16.9804 28.1492 14.5222 27.3951 12.238L31.1934 10.984Z" fill="#727272"/>
<path d="M31.2457 20.8548C30.2725 23.9109 28.4033 26.604 25.8806 28.5846L23.4105 25.4385C25.3025 23.953 26.7044 21.9332 27.4343 19.6411L31.2457 20.8548Z" fill="#727272"/>
<path d="M25.4839 28.8863C22.9007 30.7874 19.8058 31.8683 16.6008 31.9887L16.4506 27.9915C18.8544 27.9012 21.1756 27.0905 23.1129 25.6647L25.4839 28.8863Z" fill="#727272"/>
<path d="M16 32C12.7927 32 9.65938 31.0361 7.00667 29.2333L9.255 25.925C11.2445 27.2771 13.5945 28 16 28V32Z" fill="#727272"/>
<path d="M6.67933 29.0048C4.07242 27.1364 2.0872 24.5277 0.981268 21.517L4.73595 20.1378C5.5654 22.3957 7.05431 24.3523 9.0095 25.7536L6.67933 29.0048Z" fill="#727272"/>
<path d="M0.816424 21.0457C-0.195024 18.002 -0.268385 14.7246 0.605859 11.6388L4.45439 12.7291C3.79871 15.0435 3.85373 17.5015 4.61232 19.7843L0.816424 21.0457Z" fill="#727272"/>
<path d="M0.742254 11.1832C1.70781 8.12471 3.57029 5.42695 6.08804 3.44003L8.56603 6.58002C6.67772 8.07022 5.28086 10.0935 4.55669 12.3874L0.742254 11.1832Z" fill="#E2E2E2"/>
<path d="M6.50628 3.12097C9.08798 1.21788 12.1821 0.134623 15.387 0.0117463L15.5403 4.00881C13.1365 4.10097 10.816 4.91341 8.87971 6.34073L6.50628 3.12097Z" fill="#E2E2E2"/>
</svg>
