<svg width="1440" height="522" viewBox="0 0 1440 522" fill="none" xmlns="http://www.w3.org/2000/svg">
<path d="M1445 408H0V522H1445V408Z" fill="#D9D9D9"/>
<path d="M850.931 351.151C826.037 351.151 805.785 330.898 805.785 306.004C805.785 281.359 825.525 184.23 850.931 184.23C876.338 184.23 896.079 281.359 896.079 306.004C896.078 330.898 875.825 351.151 850.931 351.151ZM850.931 185.979C827.029 185.979 807.534 282.48 807.534 306.004C807.534 329.935 827.003 349.402 850.931 349.402C874.862 349.402 894.331 329.933 894.331 306.004C894.329 282.48 874.834 185.979 850.931 185.979Z" fill="#D9D9D9"/>
<path d="M832.472 315.924C833.263 315.132 834.544 315.132 835.337 315.924L848.906 329.494V270.374L833.607 255.074C832.817 254.284 832.817 253 833.607 252.21C834.398 251.417 835.679 251.417 836.472 252.21L848.906 264.644V220.296C848.906 219.176 849.812 218.27 850.932 218.27C852.051 218.27 852.957 219.176 852.957 220.296V290.187L866.455 276.689L867.803 275.341C868.594 274.548 869.878 274.548 870.668 275.341C871.459 276.131 871.459 277.413 870.668 278.205L854.066 294.808L854.061 294.811L852.955 295.917V407.605C852.955 408.725 852.048 409.631 850.93 409.631C849.811 409.631 848.905 408.725 848.905 407.605V335.223L832.47 318.789C831.681 317.997 831.682 316.715 832.472 315.924Z" fill="#D9D9D9"/>
<path d="M765.906 351.151C741.012 351.151 720.758 330.898 720.758 306.004C720.758 281.359 740.499 184.23 765.906 184.23C791.312 184.23 811.052 281.359 811.052 306.004C811.052 330.898 790.8 351.151 765.906 351.151ZM765.906 185.979C742.003 185.979 722.507 282.48 722.507 306.004C722.507 329.935 741.976 349.402 765.906 349.402C789.836 349.402 809.303 329.933 809.303 306.004C809.303 282.48 789.808 185.979 765.906 185.979Z" fill="#D9D9D9"/>
<path d="M747.45 315.924C748.24 315.132 749.522 315.132 750.315 315.924L763.884 329.494V270.374L748.585 255.074C747.794 254.284 747.794 253 748.585 252.21C749.375 251.417 750.657 251.417 751.45 252.21L763.884 264.644V220.296C763.884 219.176 764.79 218.27 765.91 218.27C767.029 218.27 767.935 219.176 767.935 220.296V290.187L781.433 276.689L782.781 275.341C783.572 274.548 784.854 274.548 785.646 275.341C786.437 276.131 786.437 277.413 785.646 278.205L769.044 294.808L769.038 294.811L767.933 295.917V407.605C767.933 408.725 767.025 409.631 765.908 409.631C764.789 409.631 763.883 408.725 763.883 407.605V335.223L747.448 318.789C746.658 317.997 746.658 316.715 747.45 315.924Z" fill="#D9D9D9"/>
<path d="M833.147 388.593C833.123 388.418 833.096 388.245 833.067 388.07C832.789 386.409 832.283 384.83 831.582 383.357C831.559 383.31 831.536 383.264 831.514 383.217C828.871 377.788 823.593 373.885 817.33 373.204C817.68 372.288 817.893 371.302 817.893 370.261C817.893 365.681 814.18 361.968 809.6 361.968C807.786 361.968 806.121 362.568 804.755 363.556C801.7 359.061 796.546 356.107 790.701 356.107C784.092 356.107 778.378 359.89 775.571 365.403C774.62 365.021 773.586 364.799 772.499 364.799C767.918 364.799 764.205 368.512 764.205 373.093C764.205 373.164 764.224 373.229 764.226 373.301C758.187 374.175 753.133 378.042 750.604 383.359C750.592 383.383 750.58 383.408 750.567 383.432C750.326 383.945 750.111 384.469 749.918 385.008C749.883 385.104 749.847 385.197 749.813 385.293C749.653 385.767 749.516 386.251 749.394 386.745C749.357 386.893 749.313 387.037 749.28 387.185C749.177 387.656 749.102 388.135 749.035 388.619C749.012 388.782 748.979 388.941 748.962 389.106C748.892 389.747 748.852 390.396 748.852 391.057C748.852 400.979 756.895 409.022 766.816 409.022H815.369C825.291 409.022 833.334 400.979 833.334 391.057C833.336 390.22 833.259 389.401 833.147 388.593Z" fill="#D9D9D9"/>
<path d="M749.728 409.897H701.175C690.788 409.897 682.336 401.446 682.336 391.057C682.336 390.365 682.378 389.683 682.451 389.011L682.528 388.501C682.598 387.993 682.677 387.49 682.785 386.998L682.861 386.694C683.03 386.017 683.174 385.51 683.343 385.011L683.413 384.819C683.655 384.148 683.882 383.598 684.134 383.06C686.773 377.516 691.796 373.661 697.704 372.559C697.98 367.751 701.98 363.923 706.856 363.923C707.749 363.923 708.64 364.06 709.512 364.327C712.683 358.696 718.572 355.231 725.058 355.231C730.69 355.231 735.964 357.882 739.336 362.363C740.744 361.529 742.327 361.092 743.957 361.092C749.011 361.092 753.125 365.205 753.125 370.258C753.125 370.992 753.029 371.736 752.836 372.477C758.84 373.47 763.956 377.281 766.658 382.832C767.473 384.544 767.997 386.208 768.286 387.923L768.368 388.471C768.503 389.45 768.566 390.272 768.566 391.056C768.568 401.446 760.117 409.897 749.728 409.897ZM684.174 385.295L685.003 385.576C684.849 386.028 684.72 386.488 684.604 386.954L684.496 387.376C684.398 387.822 684.326 388.278 684.263 388.737L684.192 389.205C684.127 389.81 684.087 390.43 684.087 391.059C684.087 400.482 691.754 408.15 701.177 408.15H749.73C759.153 408.15 766.82 400.482 766.82 391.059C766.82 390.358 766.763 389.613 766.64 388.716L766.565 388.217C766.304 386.661 765.829 385.153 765.152 383.735C762.495 378.273 757.451 374.712 751.596 374.076L750.472 373.953L750.874 372.895C751.21 372.014 751.379 371.129 751.379 370.263C751.379 366.172 748.051 362.846 743.96 362.846C742.409 362.846 740.912 363.337 739.63 364.268L738.901 364.796L738.394 364.051C735.384 359.628 730.401 356.985 725.062 356.985C718.979 356.985 713.48 360.364 710.71 365.803L710.348 366.515L709.607 366.218C708.708 365.859 707.783 365.676 706.859 365.676C702.768 365.676 699.44 369.004 699.44 373.094C699.451 373.142 699.459 373.21 699.461 373.282L699.479 374.056L698.711 374.168C693.057 374.987 688.212 378.563 685.752 383.736C685.487 384.293 685.283 384.795 685.097 385.305L684.174 385.295Z" fill="#D9D9D9"/>
<path d="M662.657 388.593C662.632 388.418 662.606 388.245 662.576 388.07C662.298 386.409 661.793 384.829 661.091 383.357C661.069 383.31 661.046 383.264 661.023 383.217C658.381 377.788 653.102 373.885 646.84 373.204C647.189 372.288 647.403 371.302 647.403 370.261C647.403 365.681 643.69 361.968 639.109 361.968C637.296 361.968 635.631 362.568 634.265 363.556C631.21 359.061 626.056 356.107 620.211 356.107C613.602 356.107 607.888 359.89 605.079 365.403C604.128 365.021 603.094 364.799 602.006 364.799C597.426 364.799 593.713 368.512 593.713 373.092C593.713 373.164 593.732 373.229 593.734 373.301C587.695 374.175 582.641 378.042 580.112 383.359C580.1 383.383 580.087 383.408 580.075 383.432C579.834 383.944 579.619 384.469 579.426 385.008C579.391 385.104 579.355 385.197 579.321 385.293C579.16 385.767 579.024 386.251 578.902 386.744C578.865 386.893 578.821 387.037 578.788 387.185C578.685 387.656 578.609 388.135 578.543 388.619C578.52 388.782 578.487 388.941 578.47 389.105C578.4 389.747 578.359 390.396 578.359 391.057C578.359 400.979 586.403 409.022 596.324 409.022H644.877C654.799 409.022 662.842 400.979 662.842 391.057C662.846 390.22 662.769 389.401 662.657 388.593Z" fill="#D9D9D9"/>
<path d="M579.244 409.896H530.691C520.304 409.896 511.852 401.446 511.852 391.057C511.852 390.365 511.894 389.683 511.967 389.011C511.979 388.897 511.998 388.787 512.016 388.679L512.044 388.5C512.114 387.993 512.193 387.489 512.301 386.998L512.378 386.694C512.548 386.017 512.691 385.511 512.859 385.013L512.938 384.794C513.17 384.147 513.398 383.596 513.649 383.059C516.289 377.515 521.311 373.661 527.219 372.559C527.496 367.751 531.495 363.923 536.371 363.923C537.265 363.923 538.155 364.059 539.028 364.327C542.2 358.695 548.087 355.231 554.576 355.231C560.207 355.231 565.48 357.882 568.852 362.363C570.262 361.529 571.843 361.091 573.474 361.091C578.529 361.091 582.642 365.205 582.642 370.257C582.642 370.992 582.546 371.735 582.354 372.477C588.358 373.47 593.473 377.281 596.175 382.832C596.992 384.546 597.515 386.209 597.803 387.923C597.835 388.102 597.861 388.285 597.886 388.471C598.02 389.45 598.081 390.272 598.081 391.055C598.083 401.446 589.631 409.896 579.244 409.896ZM536.373 365.674C532.282 365.674 528.954 369.002 528.954 373.092C528.965 373.143 528.973 373.21 528.975 373.28L528.993 374.054L528.227 374.166C522.574 374.985 517.73 378.561 515.269 383.734C515.005 384.291 514.8 384.793 514.615 385.303L514.515 385.578C514.363 386.026 514.234 386.487 514.118 386.954L514.01 387.376C513.912 387.822 513.84 388.278 513.777 388.736L513.705 389.202C513.639 389.81 513.6 390.429 513.6 391.057C513.6 400.48 521.268 408.148 530.691 408.148H579.244C588.667 408.148 596.334 400.48 596.334 391.057C596.334 390.354 596.277 389.609 596.152 388.71L596.079 388.219C595.818 386.659 595.343 385.151 594.666 383.733C592.009 378.271 586.965 374.71 581.11 374.074L579.984 373.951L580.386 372.893C580.722 372.012 580.891 371.127 580.891 370.261C580.891 366.17 577.563 362.844 573.473 362.844C571.921 362.844 570.424 363.335 569.141 364.266L568.409 364.794L567.902 364.049C564.892 359.626 559.91 356.983 554.572 356.983C548.489 356.983 542.991 360.362 540.221 365.801L539.857 366.513L539.115 366.216C538.223 365.855 537.298 365.674 536.373 365.674Z" fill="#D9D9D9"/>
<path d="M474.776 388.593C474.752 388.418 474.725 388.245 474.696 388.07C474.418 386.409 473.912 384.83 473.211 383.357C473.188 383.31 473.165 383.264 473.143 383.217C470.5 377.788 465.222 373.885 458.959 373.204C459.309 372.288 459.522 371.302 459.522 370.261C459.522 365.681 455.809 361.968 451.229 361.968C449.413 361.968 447.75 362.568 446.384 363.556C443.329 359.061 438.175 356.107 432.33 356.107C425.721 356.107 420.007 359.89 417.2 365.403C416.249 365.021 415.215 364.799 414.127 364.799C409.547 364.799 405.834 368.512 405.834 373.093C405.834 373.164 405.853 373.229 405.855 373.301C399.816 374.175 394.762 378.042 392.233 383.359C392.221 383.383 392.208 383.408 392.196 383.432C391.955 383.945 391.74 384.469 391.547 385.008C391.512 385.104 391.476 385.197 391.442 385.293C391.281 385.767 391.145 386.251 391.023 386.745C390.986 386.893 390.942 387.037 390.909 387.185C390.806 387.656 390.729 388.135 390.664 388.619C390.641 388.782 390.608 388.941 390.591 389.106C390.521 389.747 390.48 390.396 390.48 391.057C390.48 400.979 398.524 409.022 408.445 409.022H456.998C466.92 409.022 474.963 400.979 474.963 391.057C474.965 390.22 474.888 389.401 474.776 388.593Z" fill="#D9D9D9"/>
<path d="M391.363 409.897H342.808C332.421 409.897 323.969 401.446 323.969 391.057C323.969 390.365 324.011 389.683 324.084 389.011C324.096 388.897 324.116 388.787 324.133 388.679L324.161 388.501C324.231 387.993 324.31 387.49 324.418 386.998L324.493 386.694C324.663 386.017 324.806 385.51 324.976 385.011L325.058 384.786C325.287 384.147 325.515 383.597 325.767 383.06C328.406 377.516 333.429 373.661 339.336 372.559C339.613 367.751 343.612 363.923 348.488 363.923C349.382 363.923 350.272 364.06 351.145 364.327C354.316 358.696 360.204 355.231 366.693 355.231C372.324 355.231 377.599 357.882 380.969 362.363C382.379 361.529 383.96 361.092 385.592 361.092C390.646 361.092 394.759 365.205 394.759 370.258C394.759 370.992 394.663 371.736 394.471 372.477C400.475 373.47 405.59 377.281 408.292 382.832C409.109 384.546 409.632 386.209 409.921 387.923C409.95 388.102 409.978 388.285 410.003 388.471C410.137 389.443 410.2 390.263 410.2 391.056C410.2 401.446 401.75 409.897 391.363 409.897ZM348.492 365.674C344.401 365.674 341.073 369.002 341.073 373.093C341.084 373.14 341.092 373.208 341.094 373.28L341.112 374.055L340.346 374.166C334.691 374.985 329.847 378.561 327.386 383.735C327.122 384.291 326.917 384.793 326.732 385.303L326.634 385.571C326.48 386.028 326.349 386.486 326.234 386.954L326.125 387.376C326.027 387.822 325.956 388.278 325.893 388.737L325.821 389.202C325.754 389.81 325.716 390.43 325.716 391.057C325.716 400.481 333.383 408.148 342.806 408.148H391.359C400.783 408.148 408.448 400.481 408.448 391.057C408.448 390.347 408.39 389.602 408.268 388.71L408.193 388.219C407.932 386.659 407.456 385.151 406.78 383.733C404.123 378.271 399.079 374.71 393.224 374.074L392.097 373.951L392.5 372.893C392.835 372.012 393.005 371.127 393.005 370.261C393.005 366.17 389.677 362.844 385.586 362.844C384.035 362.844 382.538 363.335 381.254 364.266L380.525 364.794L380.018 364.049C377.01 359.626 372.027 356.983 366.688 356.983C360.605 356.983 355.106 360.362 352.338 365.801L351.974 366.513L351.232 366.216C350.341 365.856 349.415 365.674 348.492 365.674Z" fill="#D9D9D9"/>
<path d="M844.605 271.401H1207.02L1114.8 178.953H937.053L844.605 271.401Z" fill="#FC5988"/>
<path d="M1029.5 271.401L937.053 178.953L844.605 271.401H1029.5Z" fill="#9B4673"/>
<path d="M976.256 178.953H974L1066.45 271.401H1068.71L976.256 178.953Z" fill="#9B4673"/>
<path d="M997.07 178.953H994.812L1087.26 271.401H1089.52L997.07 178.953Z" fill="#9B4673"/>
<path d="M955.448 178.953H953.191L1045.64 271.401H1047.9L955.448 178.953Z" fill="#9B4673"/>
<path d="M1017.88 178.953H1015.62L1108.07 271.401H1110.33L1017.88 178.953Z" fill="#9B4673"/>
<path d="M1059.49 178.953H1057.24L1149.69 271.401H1151.94L1059.49 178.953Z" fill="#9B4673"/>
<path d="M1077.24 178.953H1074.98L1167.43 271.401H1169.68L1077.24 178.953Z" fill="#9B4673"/>
<path d="M1094.97 178.953H1092.71L1185.16 271.401H1187.42L1094.97 178.953Z" fill="#9B4673"/>
<path d="M1038.69 178.953H1036.43L1128.88 271.401H1131.13L1038.69 178.953Z" fill="#9B4673"/>
<path d="M1015.82 271.439L937.051 192.668L858.282 271.439H856.566V409.386H1048.62V271.439H1015.82Z" fill="#E1ECFF"/>
<path d="M961.256 257.199C964.301 243.832 955.933 230.527 942.566 227.482C929.199 224.437 915.894 232.805 912.849 246.172C909.804 259.539 918.172 272.844 931.539 275.889C944.906 278.934 958.211 270.566 961.256 257.199Z" fill="#6569BA"/>
<path d="M952.098 264.84C959.404 256.527 958.589 243.865 950.276 236.559C941.964 229.252 929.302 230.068 921.995 238.38C914.689 246.693 915.504 259.355 923.817 266.661C932.13 273.968 944.791 273.152 952.098 264.84Z" fill="#C3C3C3"/>
<path opacity="0.15" d="M940.38 231.907L917.305 254.982C917.675 257.178 918.384 259.261 919.409 261.154L946.552 234.011C944.659 232.986 942.576 232.278 940.38 231.907Z" fill="#727272"/>
<path opacity="0.15" d="M951.447 237.746L923.145 266.049C925.329 268.156 927.984 269.778 930.941 270.726L956.124 245.543C955.178 242.586 953.556 239.932 951.447 237.746Z" fill="#727272"/>
<path d="M957.633 254.336H916.807C915.49 254.336 914.414 253.259 914.414 251.944C914.414 250.627 915.491 249.551 916.807 249.551H957.633C958.95 249.551 960.026 250.629 960.026 251.944C960.026 253.259 958.948 254.336 957.633 254.336Z" fill="#6569BA"/>
<path d="M934.832 272.357V231.531C934.832 230.216 935.909 229.138 937.225 229.138C938.54 229.138 939.617 230.216 939.617 231.531V272.357C939.617 273.674 938.54 274.75 937.225 274.75C935.909 274.75 934.832 273.672 934.832 272.357Z" fill="#6569BA"/>
<path d="M1011.56 288.699H872.949V409.351H1011.56V288.699Z" fill="#6569BA"/>
<path d="M1007.63 409.352V292.632H876.882V409.352H1007.63Z" fill="#7981E0"/>
<path d="M940.29 299.694H883.027V322.533H940.29V299.694Z" fill="#6569BA"/>
<path d="M936.352 318.601V303.625H886.954V318.601H936.352Z" fill="#A4CDFF"/>
<path d="M936.352 318.601V303.625H886.954V318.601H936.352Z" fill="#A4CDFF"/>
<path d="M936.352 318.601V313.926H886.954V318.601H936.352Z" fill="#69A6E2"/>
<g opacity="0.5">
<path d="M889.043 318.6H905.913L920.889 303.626H904.019L889.043 318.6Z" fill="white"/>
<path d="M927.327 303.626L912.352 318.6H914.961L929.935 303.626H927.327Z" fill="white"/>
</g>
<path d="M1002.46 299.694H945.199V322.533H1002.46V299.694Z" fill="#6569BA"/>
<path d="M998.527 318.602V303.626H949.129V318.602H998.527Z" fill="#A4CDFF"/>
<path d="M998.527 318.602V303.626H949.129V318.602H998.527Z" fill="#A4CDFF"/>
<path d="M998.527 318.602V313.927H949.129V318.602H998.527Z" fill="#69A6E2"/>
<g opacity="0.5">
<path d="M951.215 318.6H968.083L983.059 303.626H966.191L951.215 318.6Z" fill="white"/>
<path d="M989.502 303.626L974.527 318.6H977.135L992.111 303.626H989.502Z" fill="white"/>
</g>
<path d="M1009.32 329.788H874.801V333.809H1009.32V329.788Z" fill="#6569BA"/>
<path d="M1009.32 344.685H874.801V348.706H1009.32V344.685Z" fill="#6569BA"/>
<path d="M1009.32 359.584H874.801V363.605H1009.32V359.584Z" fill="#6569BA"/>
<path d="M1009.32 374.481H874.801V378.502H1009.32V374.481Z" fill="#6569BA"/>
<path d="M1009.32 389.378H874.801V393.399H1009.32V389.378Z" fill="#6569BA"/>
<path d="M1009.32 401.253H874.801V405.274H1009.32V401.253Z" fill="#6569BA"/>
<path d="M1028.96 409.385H1048.62V271.438H1028.96V409.385Z" fill="#C3D4FC"/>
<path d="M1444.92 252.231H1048.62V409.416H1444.92V252.231Z" fill="#C3D4FC"/>
<path d="M1248.17 252.231H1048.62V409.384H1248.17V252.231Z" fill="#E1ECFF"/>
<path opacity="0.25" d="M1444.92 252.231H1048.62V262.186H1444.92V252.231Z" fill="#8E405C"/>
<path d="M1178.35 409.612H1117.02V317.075C1117.02 300.139 1130.75 286.408 1147.68 286.408C1164.62 286.408 1178.35 300.139 1178.35 317.075V409.612H1178.35Z" fill="#6569BA"/>
<path d="M1121.02 409.611V317.075C1121.02 302.374 1132.98 290.411 1147.68 290.411C1162.38 290.411 1174.35 302.372 1174.35 317.075V409.611H1121.02Z" fill="#7981E0"/>
<path d="M1147.69 326.897C1154.13 326.897 1159.36 321.67 1159.36 315.223C1159.36 308.776 1154.13 303.549 1147.69 303.549C1141.24 303.549 1136.01 308.776 1136.01 315.223C1136.01 321.67 1141.24 326.897 1147.69 326.897Z" fill="#6569BA"/>
<path d="M1147.68 322.894C1143.45 322.894 1140.01 319.454 1140.01 315.225C1140.01 310.996 1143.45 307.556 1147.68 307.556C1151.91 307.556 1155.35 310.996 1155.35 315.225C1155.35 319.452 1151.91 322.894 1147.68 322.894Z" fill="#A4CDFF"/>
<path d="M1147.69 313.894C1144.59 313.894 1141.94 315.746 1140.73 318.394C1141.94 321.04 1144.59 322.894 1147.69 322.894C1150.78 322.894 1153.44 321.042 1154.65 318.394C1153.44 315.746 1150.79 313.894 1147.69 313.894Z" fill="#69A6E2"/>
<path d="M1169.36 355.317C1169.36 357.067 1167.94 358.487 1166.19 358.487C1164.44 358.487 1163.02 357.067 1163.02 355.317C1163.02 353.566 1164.44 352.146 1166.19 352.146C1167.94 352.146 1169.36 353.566 1169.36 355.317Z" fill="#6569BA"/>
<path d="M1076.76 92.4472H1399.95L1307.73 0H1169.21L1076.76 92.4472Z" fill="#FC5988"/>
<path d="M1261.66 92.4472L1169.21 0L1076.76 92.4472H1261.66Z" fill="#9B4673"/>
<path d="M1241.43 92.4471L1168.98 16.9468L1102.33 86.3417V92.4471V120.596V200.872H1378.45V92.4471H1241.43Z" fill="#E1ECFF"/>
<path d="M1168.96 97.2321C1182.67 97.2321 1193.78 86.118 1193.78 72.4081C1193.78 58.6982 1182.67 47.5841 1168.96 47.5841C1155.25 47.5841 1144.13 58.6982 1144.13 72.4081C1144.13 86.118 1155.25 97.2321 1168.96 97.2321Z" fill="#6569BA"/>
<path d="M1168.95 92.4471C1180.02 92.4471 1188.99 83.4753 1188.99 72.4081C1188.99 61.3409 1180.02 52.3691 1168.95 52.3691C1157.89 52.3691 1148.91 61.3409 1148.91 72.4081C1148.91 83.4753 1157.89 92.4471 1168.95 92.4471Z" fill="#C3C3C3"/>
<path opacity="0.15" d="M1172.29 52.6719L1149.22 75.747C1149.59 77.9436 1150.3 80.0265 1151.32 81.9188L1178.47 54.7758C1176.57 53.7509 1174.49 53.0409 1172.29 52.6719Z" fill="#727272"/>
<path opacity="0.15" d="M1183.36 58.5115L1155.06 86.814C1157.24 88.9232 1159.9 90.5427 1162.86 91.4906L1188.04 66.3081C1187.09 63.3507 1185.47 60.6959 1183.36 58.5115Z" fill="#727272"/>
<path d="M1189.54 75.1016H1148.72C1147.4 75.1016 1146.32 74.0242 1146.32 72.7091C1146.32 71.3921 1147.4 70.3165 1148.72 70.3165H1189.54C1190.86 70.3165 1191.94 71.3939 1191.94 72.7091C1191.94 74.0242 1190.86 75.1016 1189.54 75.1016Z" fill="#6569BA"/>
<path d="M1166.74 93.1203V52.2939C1166.74 50.9787 1167.82 49.9014 1169.13 49.9014C1170.45 49.9014 1171.52 50.9787 1171.52 52.2939V93.1203C1171.52 94.4355 1170.45 95.5129 1169.13 95.5129C1167.82 95.5129 1166.74 94.4373 1166.74 93.1203Z" fill="#6569BA"/>
<path d="M1378.45 92.4471H1241.67V200.872H1378.45V92.4471Z" fill="#C3D4FC"/>
<path opacity="0.25" d="M1168.98 16.9468L1102.33 86.3417V87.8562V92.4471V95.7823L1110.28 87.8562L1168.98 26.7144L1238.37 98.535L1378.45 98.5735V92.4471H1241.43L1168.98 16.9468Z" fill="#8E405C"/>
<path d="M1208.42 0H1206.16L1298.61 92.4472H1300.87L1208.42 0Z" fill="#9B4673"/>
<path d="M1229.22 0H1226.97L1319.42 92.4472H1321.67L1229.22 0Z" fill="#9B4673"/>
<path d="M1187.61 0H1185.35L1277.8 92.4472H1280.06L1187.61 0Z" fill="#9B4673"/>
<path d="M1250.04 0H1247.78L1340.23 92.4472H1342.49L1250.04 0Z" fill="#9B4673"/>
<path d="M1291.66 0H1289.4L1381.85 92.4472H1384.1L1291.66 0Z" fill="#9B4673"/>
<path d="M1270.85 0H1268.59L1361.04 92.4472H1363.29L1270.85 0Z" fill="#9B4673"/>
<path d="M1297.36 111.818H1260.82V185.598H1297.36V111.818Z" fill="#6569BA"/>
<path d="M1291.77 180.011V117.405H1266.41V180.011H1291.77Z" fill="#C3C3C3"/>
<path opacity="0.15" d="M1291.77 124.854L1266.41 150.215V180.012H1269.78L1291.77 158.019V124.854Z" fill="#727272"/>
<path opacity="0.15" d="M1283.97 117.406L1266.41 134.963V142.412L1291.42 117.406H1283.97Z" fill="#727272"/>
<path d="M1223.22 111.818H1186.68V185.598H1223.22V111.818Z" fill="#6569BA"/>
<path d="M1217.63 180.011V117.406H1192.27V180.011H1217.63Z" fill="#C3C3C3"/>
<path opacity="0.15" d="M1217.63 124.854L1192.27 150.215V180.012H1195.64L1217.63 158.019V124.854Z" fill="#727272"/>
<path opacity="0.15" d="M1209.83 117.406L1192.27 134.963V142.412L1217.28 117.406H1209.83Z" fill="#727272"/>
<path d="M1155.47 111.818H1118.93V185.598H1155.47V111.818Z" fill="#6569BA"/>
<path d="M1149.88 180.01V117.404H1124.52V180.01H1149.88Z" fill="#C3C3C3"/>
<path opacity="0.15" d="M1149.88 124.854L1124.52 150.215V180.012H1127.89L1149.88 158.019V124.854Z" fill="#727272"/>
<path opacity="0.15" d="M1142.08 117.406L1124.52 134.963V142.412L1149.53 117.406H1142.08Z" fill="#727272"/>
<path d="M1356.6 111.818H1320.06V185.598H1356.6V111.818Z" fill="#6569BA"/>
<path d="M1351.01 180.011V117.406H1325.65V180.011H1351.01Z" fill="#C3C3C3"/>
<path opacity="0.15" d="M1351.01 124.854L1325.65 150.215V180.012H1329.02L1351.01 158.019V124.854Z" fill="#727272"/>
<path opacity="0.15" d="M1343.21 117.406L1325.65 134.963V142.412L1350.65 117.406H1343.21Z" fill="#727272"/>
<path d="M1221.21 200.872H1399.49L1451.34 252.719L1211.3 252.313L1221.21 200.872Z" fill="#FC5988"/>
<path d="M1411.04 252.65L1413.31 252.654L1361.52 200.872H1359.27L1411.04 252.65Z" fill="#9B4673"/>
<path d="M1390.2 252.615L1392.46 252.619L1340.71 200.872H1338.46L1390.2 252.615Z" fill="#9B4673"/>
<path d="M1380.07 200.872L1431.89 252.685L1434.15 252.689L1382.33 200.872H1380.07Z" fill="#9B4673"/>
<path d="M1327.67 252.511L1329.93 252.514L1278.29 200.872H1276.03L1327.67 252.511Z" fill="#9B4673"/>
<path d="M1369.36 252.58L1371.62 252.584L1319.91 200.872H1317.65L1369.36 252.58Z" fill="#9B4673"/>
<path d="M1307.06 252.475L1309.32 252.479L1257.71 200.872H1255.45L1307.06 252.475Z" fill="#9B4673"/>
<path d="M1348.51 252.546L1350.77 252.549L1299.09 200.872H1296.84L1348.51 252.546Z" fill="#9B4673"/>
<path d="M1229.25 280.654H1192.71V354.434H1229.25V280.654Z" fill="#6569BA"/>
<path d="M1223.66 348.849V286.241H1198.3V348.849H1223.66Z" fill="#C3C3C3"/>
<path opacity="0.15" d="M1223.67 293.69L1198.3 319.051V348.847H1201.67L1223.67 326.855V293.69Z" fill="#727272"/>
<path opacity="0.15" d="M1215.86 286.242L1198.3 303.799V311.248L1223.31 286.242H1215.86Z" fill="#727272"/>
<path d="M1313.91 280.654H1277.37V354.434H1313.91V280.654Z" fill="#6569BA"/>
<path d="M1308.32 348.848V286.241H1282.96V348.848H1308.32Z" fill="#C3C3C3"/>
<path opacity="0.15" d="M1308.32 293.69L1282.96 319.051V348.847H1286.33L1308.32 326.855V293.69Z" fill="#727272"/>
<path opacity="0.15" d="M1300.51 286.242L1282.96 303.799V311.248L1307.96 286.242H1300.51Z" fill="#727272"/>
<path d="M1369.71 280.654H1333.18V354.434H1369.71V280.654Z" fill="#6569BA"/>
<path d="M1364.12 348.848V286.241H1338.76V348.848H1364.12Z" fill="#C3C3C3"/>
<path opacity="0.15" d="M1364.13 293.69L1338.77 319.051V348.847H1342.14L1364.13 326.855V293.69Z" fill="#727272"/>
<path opacity="0.15" d="M1356.32 286.242L1338.77 303.799V311.248L1363.77 286.242H1356.32Z" fill="#727272"/>
<path d="M1425.53 280.654H1388.99V354.434H1425.53V280.654Z" fill="#6569BA"/>
<path d="M1419.94 348.848V286.24H1394.58V348.848H1419.94Z" fill="#C3C3C3"/>
<path opacity="0.15" d="M1419.94 293.69L1394.58 319.051V348.847H1397.95L1419.94 326.855V293.69Z" fill="#727272"/>
<path opacity="0.15" d="M1412.14 286.242L1394.58 303.799V311.248L1419.59 286.242H1412.14Z" fill="#727272"/>
<path d="M1101.55 280.654H1065.02V354.434H1101.55V280.654Z" fill="#6569BA"/>
<path d="M1095.96 348.848V286.241H1070.6V348.848H1095.96Z" fill="#C3C3C3"/>
<path opacity="0.15" d="M1095.97 293.69L1070.61 319.051V348.847H1073.98L1095.97 326.855V293.69Z" fill="#727272"/>
<path opacity="0.15" d="M1088.17 286.242L1070.61 303.799V311.248L1095.62 286.242H1088.17Z" fill="#727272"/>
<path d="M1241.79 200.873L1290.5 252.296H1036.05L1087.58 200.768L1241.79 200.873Z" fill="#9B4673"/>
<path opacity="0.25" d="M856.387 283.085L937.615 201.945L1017.07 281.401H1048.58L1048.55 271.439H1015.89L937.067 192.619L856.682 273.006L856.387 283.085Z" fill="#8E405C"/>
<path d="M802.855 209.153C791.017 210.138 785.879 214.231 780.837 220.932C764.777 242.276 782.215 260.538 775.317 271.102C767.466 283.122 738.949 335.99 774.336 351.567C803.079 364.22 838.119 344.944 834.439 321.638C830.759 298.332 813.832 275.028 823.89 257.119C832.875 241.12 833.549 206.602 802.855 209.153Z" fill="#3E3D5E"/>
<path d="M813.445 482.935H825.719C831.421 482.935 836.045 487.557 836.045 493.26H813.447V482.935H813.445Z" fill="#3E3D5E"/>
<path d="M824.841 476.343H813.445V493.258H824.841V476.343Z" fill="#3E3D5E"/>
<path d="M836.433 494.476H813.347C812.784 494.476 812.324 494.016 812.324 493.452C812.324 492.889 812.784 492.429 813.347 492.429H836.433C836.996 492.429 837.456 492.889 837.456 493.452C837.454 494.016 836.994 494.476 836.433 494.476Z" fill="#DEE9FF"/>
<path d="M818.48 481.004C818.484 481.004 825.992 481.974 825.988 477.829L825.852 345.122C825.849 340.979 822.487 337.621 818.344 337.621C818.34 337.621 818.337 337.621 818.337 337.621C814.19 337.627 810.832 340.991 810.836 345.136L810.972 477.843C810.976 481.987 814.337 481.004 818.48 481.004Z" fill="#7981E0"/>
<path d="M788.25 482.934H800.522C806.224 482.934 810.848 487.557 810.848 493.26H788.25V482.934Z" fill="#3E3D5E"/>
<path d="M799.646 476.343H788.25V493.258H799.646V476.343Z" fill="#3E3D5E"/>
<path d="M811.232 494.476H788.148C787.585 494.476 787.125 494.016 787.125 493.452C787.125 492.889 787.585 492.429 788.148 492.429H811.232C811.795 492.429 812.255 492.889 812.255 493.452C812.255 494.016 811.795 494.476 811.232 494.476Z" fill="#DEE9FF"/>
<path d="M793.285 481.004C793.289 481.004 800.797 481.974 800.793 477.829L800.657 345.122C800.653 340.979 797.292 337.621 793.149 337.621C793.145 337.621 793.142 337.621 793.142 337.621C788.995 337.627 785.637 340.991 785.641 345.136L785.777 477.843C785.782 481.987 789.144 481.004 793.285 481.004Z" fill="#7981E0"/>
<path d="M780.737 337.536C780.737 337.536 779.655 360.541 804.549 360.541C829.441 360.541 827.818 337.001 827.818 337.001C827.818 337.001 780.535 337.268 780.737 337.536Z" fill="#7981E0"/>
<path d="M738.176 290.695L738.174 290.698C736.712 295.786 728.391 300.057 723.555 295.468C718.218 290.403 710.998 282.571 718.109 277.653C723.522 273.909 728.844 277.279 732.679 281.322C732.202 279.147 732.251 277.23 733.625 276.655C737.314 275.11 739.381 288.327 738.176 290.695Z" fill="#EDB29A"/>
<path d="M780.513 271.845C755.689 297.842 747.594 305.692 740.234 288.029L724.043 297.842C724.043 297.842 734.346 319.984 753.297 315.568C772.248 311.152 782.92 295.329 782.92 295.329L780.513 271.845Z" fill="#FFBF5D"/>
<path d="M782.918 295.326L781.454 281.036C775.216 288.76 772.851 297.947 772.281 306.223C779.191 300.812 782.918 295.326 782.918 295.326Z" fill="#E59C3C"/>
<path d="M830.078 271.845C830.078 271.845 844.01 308.759 848.979 311.15C853.947 313.542 868.482 310.414 868.482 310.414L871.795 326.238C871.795 326.238 850.268 334.15 839.596 326.605C828.924 319.062 822.668 305.078 822.668 305.078L830.078 271.845Z" fill="#FFBF5D"/>
<path d="M822.668 305.078C822.668 305.078 827.589 316.052 836.133 323.802C836.469 314.396 835.173 300.023 827.5 283.404L822.668 305.078Z" fill="#E59C3C"/>
<path d="M830.072 271.845L812.416 264.11L805.293 269.495L798.17 264.11L780.515 271.845C780.515 271.845 775.476 287.087 780.007 306.15C781.914 314.167 782.094 322.502 780.635 330.612L776.926 347.888L798.649 351.251H801.236L804.812 344.453L809.1 351.251H811.935L833.659 347.888L830.161 331.784C828.564 322.901 828.854 313.794 830.848 304.992C835.042 286.473 830.072 271.845 830.072 271.845Z" fill="#FFBF5D"/>
<path d="M790.035 307.286C802.669 313.787 816.284 308.268 823.521 311.702C823.521 311.702 802.178 323.6 790.035 307.286Z" fill="#E59C3C"/>
<path d="M820.044 237.271C819.365 241.421 821.063 245.215 823.837 245.743C826.611 246.273 829.407 243.338 830.086 239.188C830.765 235.038 829.066 231.244 826.293 230.714C823.519 230.186 820.722 233.121 820.044 237.271Z" fill="#EDB29A"/>
<path d="M822.974 237.692C822.551 237.612 822.128 237.657 821.719 237.803C821.727 237.734 821.735 237.664 821.745 237.596C822.193 234.854 824.041 232.916 825.872 233.266C827.705 233.616 828.826 236.122 828.379 238.864C828.034 240.972 826.862 242.6 825.505 243.084C825.867 240.424 824.76 238.033 822.974 237.692Z" fill="#D88D87"/>
<path d="M813.86 254.69L813.855 263.891C813.851 268.917 809.775 272.989 804.748 272.987C799.722 272.983 795.651 268.907 795.652 263.88L795.658 254.678L813.86 254.69Z" fill="#EDB29A"/>
<path d="M813.858 258.525C807.349 264.195 801.275 266.527 796.306 267.272C795.885 266.222 795.652 265.079 795.652 263.879L795.658 254.676L813.86 254.688L813.858 258.525Z" fill="#D88D87"/>
<path d="M783.891 233.673C783.88 248.768 792.646 261.01 805.182 261.019C817.718 261.028 826.499 248.796 826.508 233.701C826.519 218.606 817.749 211.924 805.213 211.915C792.679 211.906 783.901 218.579 783.891 233.673Z" fill="#EDB29A"/>
<path d="M784.238 228.867L784.27 228.906C804.111 232.237 817.279 230.63 825.924 227.54C823.804 216.788 815.883 211.922 805.213 211.915C794.099 211.906 785.954 217.164 784.238 228.867Z" fill="#D88D87"/>
<path d="M783.843 239.27C793.778 239.025 792.736 226.574 792.736 226.574H825.547L826.773 234.056C826.773 234.056 829.472 211.333 808.497 211.333C787.523 211.334 781.819 221.852 783.843 239.27Z" fill="#3E3D5E"/>
<path d="M813.657 235.621C813.615 237.106 814.785 238.346 816.27 238.388C817.755 238.43 818.995 237.26 819.037 235.775C819.081 234.289 817.909 233.051 816.424 233.007C814.939 232.965 813.699 234.135 813.657 235.621Z" fill="#34344F"/>
<path d="M797.548 235.158C797.506 236.644 798.676 237.883 800.161 237.925C801.647 237.967 802.886 236.797 802.928 235.312C802.97 233.825 801.8 232.587 800.315 232.545C798.83 232.503 797.592 233.673 797.548 235.158Z" fill="#34344F"/>
<path d="M806.797 232.182L808.679 239.09L812.906 238.906C812.906 238.906 812.789 243.002 809.095 243.752L811.027 240.412L807.281 240.886L806.797 232.182Z" fill="#D88D87"/>
<path d="M788.586 237.248C789.259 241.398 787.555 245.19 784.782 245.716C782.008 246.243 779.215 243.305 778.542 239.154C777.868 235.004 779.572 231.213 782.345 230.686C785.117 230.16 787.912 233.098 788.586 237.248Z" fill="#EDB29A"/>
<path d="M785.657 237.666C786.08 237.586 786.503 237.633 786.911 237.778C786.902 237.71 786.895 237.642 786.885 237.572C786.44 234.829 784.595 232.888 782.762 233.236C780.93 233.584 779.805 236.089 780.249 238.831C780.59 240.938 781.762 242.568 783.118 243.054C782.761 240.394 783.871 238.005 785.657 237.666Z" fill="#D88D87"/>
<path d="M800.387 244.289C800.387 244.289 807.171 246.997 815.866 245.916C815.866 245.916 813.731 251.871 807.015 251.078C800.299 250.284 800.387 244.289 800.387 244.289Z" fill="#34344F"/>
<path d="M814.521 248.168L814.207 247.224L814.922 246.017C808.245 246.652 802.846 245.122 801.039 244.52L801.746 246.278L801.102 247.213C801.887 248.859 803.538 250.666 807.017 251.077C810.878 251.533 813.224 249.758 814.521 248.168Z" fill="#FBF2EB"/>
<path d="M801.48 246.663C802.458 247.261 804.169 247.957 807.1 248.326C811.42 248.87 813.522 248.025 814.316 247.556L814.206 247.224C808.787 249.08 801.746 246.278 801.746 246.278L801.48 246.663Z" fill="#DACEEA"/>
<path d="M805.828 219.154C797.639 218.68 792.015 216.401 788.158 213.615C786.415 214.782 784.893 216.162 783.461 217.737C801.309 223.367 816.482 221.956 825.849 219.881C825.298 218.857 824.674 217.881 823.973 216.966C819.926 218.564 814.123 219.635 805.828 219.154Z" fill="#5A5A84"/>
<path d="M795.031 231.543L803.342 229.304C803.342 229.304 797.209 226.085 795.031 231.543Z" fill="#34344F"/>
<path d="M821.381 231.421L813.07 229.182C813.07 229.182 819.204 225.962 821.381 231.421Z" fill="#34344F"/>
<path d="M902.758 319.057H862.598V370.618H902.758V319.057Z" fill="white"/>
<path d="M866.484 313.973C876.103 310.961 880.574 313.292 881.932 316.208C883.293 319.123 885.042 326.507 880.766 326.701C876.492 326.895 872.929 325.858 870.759 319.09L868.394 318.96L866.484 313.973Z" fill="#EDB29A"/>
<path d="M908.197 314.17C897.154 310.713 892.024 313.39 890.463 316.736C888.901 320.082 886.893 328.559 891.801 328.782C896.708 329.006 900.799 327.815 903.289 320.045L906.003 319.896L908.197 314.17Z" fill="#A56F62"/>
<path d="M961.617 482.934H949.345C943.644 482.934 939.02 487.557 939.02 493.26H961.617V482.934Z" fill="#FC5988"/>
<path d="M950.221 493.259H961.617V476.343H950.221V493.259Z" fill="#FC5988"/>
<path d="M938.625 494.475H961.71C962.273 494.475 962.733 494.015 962.733 493.452C962.733 492.889 962.273 492.429 961.71 492.429H938.625C938.062 492.429 937.602 492.889 937.602 493.452C937.602 494.015 938.062 494.475 938.625 494.475Z" fill="#DEE9FF"/>
<path d="M956.578 481.004C956.575 481.004 949.067 481.974 949.07 477.829L949.207 345.122C949.212 340.979 952.572 337.621 956.715 337.621C956.718 337.621 956.722 337.621 956.722 337.621C960.868 337.626 964.226 340.991 964.223 345.136L964.086 477.843C964.081 481.987 960.72 481.004 956.578 481.004Z" fill="#3E3D5E"/>
<path d="M986.81 482.934H974.536C968.835 482.934 964.211 487.557 964.211 493.26H986.809V482.934H986.81Z" fill="#FC5988"/>
<path d="M975.413 493.259H986.809V476.343H975.413V493.259Z" fill="#FC5988"/>
<path d="M963.82 494.475H986.904C987.467 494.475 987.927 494.015 987.927 493.452C987.927 492.889 987.467 492.429 986.904 492.429H963.82C963.257 492.429 962.797 492.889 962.797 493.452C962.797 494.015 963.257 494.475 963.82 494.475Z" fill="#DEE9FF"/>
<path d="M981.778 481.004C981.774 481.004 974.266 481.974 974.27 477.829L974.406 345.122C974.409 340.979 977.771 337.621 981.914 337.621C981.918 337.621 981.921 337.621 981.921 337.621C986.068 337.626 989.426 340.991 989.422 345.136L989.286 477.843C989.28 481.987 985.919 481.004 981.778 481.004Z" fill="#3E3D5E"/>
<path d="M994.317 337.535C994.317 337.535 995.4 360.541 970.506 360.541C945.612 360.541 947.237 337 947.237 337C947.237 337 994.52 337.268 994.317 337.535Z" fill="#3E3D5E"/>
<path d="M1004.82 347.875H1004.82C1009.16 346.961 1015.58 351.436 1014.09 356.814C1012.44 362.748 1009.48 371.162 1003.05 367.834C998.159 365.3 998.562 360.042 1000.05 355.619C998.625 356.828 997.189 357.543 996.223 356.751C993.633 354.63 1002.59 347.914 1004.82 347.875Z" fill="#A56F62"/>
<path d="M993.859 283.183C993.859 283.183 1002.32 312.253 1003.24 324.029C1004.16 335.804 1000.85 349.603 1000.85 349.603L1014.28 351.995C1014.28 351.995 1020.35 329.917 1018.88 312.437C1017.41 294.958 1003.98 260.919 998.273 260.919C992.572 260.919 993.859 283.183 993.859 283.183Z" fill="#FC5988"/>
<path d="M993.746 279.771C993.778 281.819 993.856 283.183 993.856 283.183C993.856 283.183 998.257 298.295 1001.05 311.143C1005.31 299.866 1004.67 291.125 995.696 281.712C995.014 280.997 994.365 280.355 993.746 279.771Z" fill="#9B4673"/>
<path d="M943.381 261.656C943.381 261.656 926.025 298.393 921.056 300.784C916.087 303.176 899.59 310.23 899.59 310.23L901.921 323.845C901.921 323.845 922.037 321.208 932.709 313.665C943.381 306.122 945.649 293.671 945.649 293.671L943.381 261.656Z" fill="#FC5988"/>
<path d="M945.651 293.671L943.916 269.208C939.018 276.439 932.335 290.633 934.556 312.241C943.645 304.656 945.651 293.671 945.651 293.671Z" fill="#9B4673"/>
<path d="M996.736 340.526H945.219L940.712 267.084C940.447 262.793 943.426 258.978 947.653 258.193L969.261 254.172L994.134 258.31C998.436 259.026 1001.5 262.877 1001.23 267.231L996.736 340.526Z" fill="#FC5988"/>
<path d="M969.021 268.77C976.847 268.77 983.191 264.871 983.191 260.061C983.191 255.251 976.847 251.351 969.021 251.351C961.196 251.351 954.852 255.251 954.852 260.061C954.852 264.871 961.196 268.77 969.021 268.77Z" fill="#9B4673"/>
<path d="M953.793 229.175C954.472 233.325 952.774 237.119 950 237.647C947.228 238.177 944.429 235.242 943.751 231.092C943.072 226.942 944.771 223.148 947.543 222.618C950.318 222.09 953.115 225.025 953.793 229.175Z" fill="#A56F62"/>
<path d="M950.859 229.597C951.282 229.516 951.705 229.562 952.114 229.707C952.106 229.638 952.099 229.57 952.088 229.5C951.64 226.76 949.792 224.82 947.959 225.17C946.128 225.52 945.005 228.026 945.455 230.767C945.799 232.874 946.971 234.502 948.328 234.987C947.968 232.328 949.073 229.938 950.859 229.597Z" fill="#7C5B55"/>
<path d="M959.965 246.594L959.972 255.795C959.975 260.822 964.052 264.893 969.078 264.891C974.105 264.888 978.176 260.811 978.174 255.785L978.169 246.584L959.965 246.594Z" fill="#A56F62"/>
<path d="M959.967 250.43C966.476 256.101 972.55 258.431 977.519 259.176C977.94 258.126 978.173 256.983 978.173 255.783L978.168 246.582L959.965 246.594L959.967 250.43Z" fill="#7C5B55"/>
<path d="M990.059 225.578C990.069 240.673 987.04 251.874 968.768 251.874C949.047 251.874 947.45 240.699 947.441 225.604C947.431 210.509 956.2 203.826 968.736 203.818C981.272 203.811 990.05 210.483 990.059 225.578Z" fill="#A56F62"/>
<path d="M989.588 220.772L989.556 220.81C969.715 224.142 956.547 222.533 947.902 219.444C950.022 208.692 957.943 203.826 968.613 203.819C979.727 203.811 987.872 209.068 989.588 220.772Z" fill="#7C5B55"/>
<path d="M960.178 227.526C960.221 229.011 959.05 230.251 957.565 230.293C956.078 230.335 954.84 229.165 954.798 227.68C954.756 226.193 955.926 224.955 957.411 224.913C958.896 224.869 960.136 226.039 960.178 227.526Z" fill="#34344F"/>
<path d="M976.279 227.063C976.321 228.549 975.151 229.787 973.666 229.829C972.181 229.873 970.942 228.701 970.9 227.216C970.858 225.73 972.028 224.492 973.512 224.45C974.997 224.408 976.237 225.578 976.279 227.063Z" fill="#34344F"/>
<path d="M967.031 224.086L965.149 230.994L960.922 230.81C960.922 230.81 961.039 234.906 964.733 235.657L962.8 232.316L966.546 232.79L967.031 224.086Z" fill="#7C5B55"/>
<path d="M973.441 236.193C973.441 236.193 966.657 238.901 957.961 237.82C957.961 237.82 960.096 243.775 966.812 242.983C973.528 242.189 973.441 236.193 973.441 236.193Z" fill="#34344F"/>
<path d="M959.311 240.073L959.625 239.128L958.91 237.921C965.586 238.556 970.986 237.026 972.793 236.424L972.085 238.182L972.728 239.118C971.943 240.763 970.292 242.57 966.813 242.981C962.952 243.438 960.608 241.662 959.311 240.073Z" fill="#FBF2EB"/>
<path d="M972.347 238.567C971.369 239.165 969.659 239.861 966.728 240.23C962.408 240.774 960.306 239.929 959.512 239.46L959.622 239.128C965.04 240.983 972.081 238.183 972.081 238.183L972.347 238.567Z" fill="#DACEEA"/>
<path d="M946.748 224.92C939.817 217.744 945.214 212.716 947.606 212.408C947.606 212.408 945.522 205.416 951.164 202.842C951.164 202.842 951.9 199.284 955.886 199.96C955.886 199.96 957.481 194.562 963.245 194.562C969.01 194.562 971.341 199.04 971.341 199.04C971.341 199.04 974.714 197.689 977.535 199.101C980.356 200.512 980.356 202.289 980.356 202.289C980.356 202.289 983.116 201.43 987.287 204.251C991.459 207.072 990.17 212.041 990.17 212.041C990.17 212.041 992.991 213.022 993.666 215.537C994.341 218.052 992.501 219.094 992.501 219.094C992.501 219.094 994.402 224.92 990.661 226.884C986.92 228.846 986.306 227.987 986.306 227.987C986.306 227.987 981.89 228.355 983.24 221.179C983.24 221.179 978.457 221.179 977.966 216.151C977.966 216.151 971.832 220.075 968.153 215.784C968.153 215.784 963.798 220.444 957.542 217.501C957.542 217.501 954.354 220.63 950.919 217.992C950.919 217.989 950.733 226.391 946.748 224.92Z" fill="#3E3D5E"/>
<path d="M985.245 229.154C984.571 233.304 986.275 237.096 989.049 237.622C991.822 238.149 994.615 235.211 995.289 231.061C995.962 226.91 994.259 223.119 991.485 222.592C988.711 222.064 985.918 225.002 985.245 229.154Z" fill="#A56F62"/>
<path d="M988.172 229.57C987.749 229.49 987.325 229.537 986.918 229.682C986.927 229.612 986.934 229.546 986.944 229.476C987.388 226.734 989.235 224.792 991.066 225.14C992.899 225.488 994.024 227.993 993.58 230.735C993.239 232.842 992.067 234.472 990.711 234.959C991.068 232.299 989.958 229.91 988.172 229.57Z" fill="#7C5B55"/>
<path d="M1022.74 275.149C1022.74 275.149 1049.73 288.15 1079.78 274.782C1079.78 274.782 1078.92 226.452 1059.91 226.452C1040.9 226.452 1026.42 222.895 1022.74 275.149Z" fill="#E59C3C"/>
<path d="M1041.91 483.379H1030.11C1024.63 483.379 1020.18 487.823 1020.18 493.306H1041.91V483.379Z" fill="#3E3D5E"/>
<path d="M1030.95 493.307H1041.91V477.043H1030.95V493.307Z" fill="#3E3D5E"/>
<path d="M1019.81 494.476H1042C1042.54 494.476 1042.98 494.033 1042.98 493.493C1042.98 492.952 1042.54 492.51 1042 492.51H1019.81C1019.27 492.51 1018.82 492.952 1018.82 493.493C1018.82 494.033 1019.26 494.476 1019.81 494.476Z" fill="#DEE9FF"/>
<path d="M1037.07 481.523C1037.07 481.523 1029.85 482.457 1029.85 478.471L1029.98 356.949C1029.99 352.965 1033.22 349.738 1037.2 349.738C1037.2 349.738 1037.21 349.738 1037.21 349.738C1041.2 349.741 1044.42 352.977 1044.42 356.963L1044.29 478.484C1044.28 482.47 1041.05 481.523 1037.07 481.523Z" fill="#7981E0"/>
<path d="M1066.13 483.379H1054.33C1048.85 483.379 1044.4 487.823 1044.4 493.306H1066.13V483.379H1066.13Z" fill="#3E3D5E"/>
<path d="M1055.18 493.307H1066.13V477.043H1055.18V493.307Z" fill="#3E3D5E"/>
<path d="M1044.03 494.476H1066.23C1066.77 494.476 1067.21 494.033 1067.21 493.493C1067.21 492.952 1066.77 492.51 1066.23 492.51H1044.03C1043.49 492.51 1043.05 492.952 1043.05 493.493C1043.05 494.033 1043.49 494.476 1044.03 494.476Z" fill="#DEE9FF"/>
<path d="M1061.3 481.523C1061.29 481.523 1054.07 482.457 1054.08 478.471L1054.21 356.949C1054.21 352.965 1057.44 349.738 1061.43 349.738C1061.43 349.738 1061.43 349.738 1061.43 349.738C1065.42 349.741 1068.65 352.977 1068.64 356.963L1068.51 478.484C1068.51 482.47 1065.28 481.523 1061.3 481.523Z" fill="#7981E0"/>
<path d="M1073.35 349.656C1073.35 349.656 1074.39 371.772 1050.46 371.772C1026.53 371.772 1028.09 349.141 1028.09 349.141C1028.09 349.141 1073.54 349.398 1073.35 349.656Z" fill="#7981E0"/>
<path d="M1021.19 355.226C1021.19 355.226 1057.96 365.559 1079.6 351.691L1074.38 311.995L1075.53 288.652C1075.79 283.381 1072.43 278.687 1067.52 277.379C1058.05 274.85 1042.58 272.672 1031.88 280.999C1031.88 280.999 1025.36 296.769 1032.14 306.014C1032.14 306.014 1013.11 317.978 1021.19 355.226Z" fill="#3E3D5E"/>
<path d="M1055.49 341.018C1089.34 346.904 1093.02 310.844 1073.4 287.293" stroke="#EDB29A" stroke-width="5" stroke-miterlimit="10" stroke-linecap="round"/>
<path d="M1033.1 286.679C1003.91 324.459 1013.05 330.715 1029.73 335.866" stroke="#EDB29A" stroke-width="5" stroke-miterlimit="10" stroke-linecap="round"/>
<path d="M1067.42 290.842L1074.96 301.491L1085.54 293.762L1077.32 283.411C1075.2 280.74 1071.32 280.285 1068.64 282.393C1066.05 284.434 1065.51 288.148 1067.42 290.842Z" fill="#3E3D5E"/>
<path d="M1030.26 281.669L1021.27 291.132L1030.9 300.013L1039.47 289.944C1041.68 287.347 1041.37 283.454 1038.78 281.233C1036.28 279.084 1032.53 279.276 1030.26 281.669Z" fill="#3E3D5E"/>
<path d="M1025.75 332.219L1025.75 332.221C1023.47 334.816 1024.06 340.89 1028.28 341.929C1032.94 343.076 1039.78 344.281 1039.98 338.645C1040.13 334.353 1036.4 332.618 1032.83 331.936C1034.2 331.432 1035.23 330.729 1035.06 329.772C1034.61 327.203 1026.63 330.724 1025.75 332.219Z" fill="#EDB29A"/>
<path d="M1060.28 338.036V338.04C1061.56 341.249 1058.96 346.774 1054.64 346.333C1049.86 345.847 1043.01 344.684 1044.72 339.307C1046.02 335.215 1050.11 334.832 1053.71 335.39C1052.59 334.458 1051.85 333.449 1052.33 332.602C1053.62 330.334 1059.96 336.333 1060.28 338.036Z" fill="#EDB29A"/>
<path d="M1065.28 281.573C1065.28 285.053 1059.4 287.874 1052.14 287.874C1044.89 287.874 1039 285.053 1039 281.573C1039 278.092 1044.89 275.271 1052.14 275.271C1059.4 275.271 1065.28 278.092 1065.28 281.573Z" fill="#EDB29A"/>
<path d="M1037.78 251.615C1038.43 255.605 1036.8 259.251 1034.13 259.762C1031.47 260.271 1028.78 257.45 1028.12 253.46C1027.47 249.471 1029.1 245.825 1031.77 245.314C1034.44 244.805 1037.13 247.626 1037.78 251.615Z" fill="#EDB29A"/>
<path d="M1034.96 252.021C1035.37 251.944 1035.77 251.988 1036.17 252.128C1036.16 252.061 1036.15 251.996 1036.14 251.93C1035.71 249.294 1033.93 247.43 1032.17 247.768C1030.41 248.103 1029.33 250.513 1029.76 253.149C1030.09 255.174 1031.22 256.741 1032.52 257.205C1032.18 254.646 1033.24 252.348 1034.96 252.021Z" fill="#D88D87"/>
<path d="M1043.71 268.363L1043.72 277.209C1043.72 282.041 1047.64 285.957 1052.48 285.953C1057.31 285.95 1061.22 282.031 1061.22 277.198L1061.21 268.352L1043.71 268.363Z" fill="#EDB29A"/>
<path d="M1043.72 272.051C1049.98 277.503 1055.82 279.745 1060.59 280.46C1061 279.451 1061.22 278.351 1061.22 277.198L1061.21 268.352L1043.71 268.365L1043.72 272.051Z" fill="#D88D87"/>
<path d="M1072.53 248.158C1072.54 262.67 1064.11 274.44 1052.06 274.447C1040.01 274.456 1031.57 262.696 1031.55 248.184C1031.55 233.671 1039.98 227.246 1052.03 227.239C1064.08 227.23 1072.52 233.645 1072.53 248.158Z" fill="#EDB29A"/>
<path d="M1072.19 243.537L1072.16 243.574C1053.09 246.778 1040.43 245.23 1032.12 242.26C1034.16 231.924 1041.77 227.244 1052.03 227.239C1062.71 227.232 1070.54 232.284 1072.19 243.537Z" fill="#D88D87"/>
<path d="M1031.62 252.518C1031.62 252.518 1032.54 243.318 1033.59 241.662C1033.59 241.662 1047.63 246.876 1067.93 243.011C1067.93 243.011 1068.12 248.775 1071.67 251.351L1073.76 246.138C1073.76 246.138 1072.47 226.634 1052.35 226.634C1032.24 226.636 1030.15 240.436 1031.62 252.518Z" fill="#E59C3C"/>
<path d="M1073.53 239.065C1073.09 238 1072.63 236.968 1072.13 235.992C1066.11 239.553 1058.51 241.839 1049.97 239.454C1044.02 237.794 1038.81 235.197 1034.4 232.323C1033.05 233.726 1031.8 235.482 1030.65 237.617C1047.1 246.713 1062.45 243.946 1073.53 239.065Z" fill="#FFB45A"/>
<path d="M1043.91 250.029C1043.95 251.458 1042.83 252.649 1041.4 252.689C1039.97 252.729 1038.78 251.605 1038.74 250.178C1038.7 248.749 1039.83 247.558 1041.25 247.518C1042.68 247.477 1043.87 248.602 1043.91 250.029Z" fill="#34344F"/>
<path d="M1059.4 249.585C1059.44 251.014 1058.31 252.205 1056.89 252.245C1055.46 252.285 1054.27 251.161 1054.23 249.734C1054.19 248.305 1055.31 247.114 1056.74 247.074C1058.17 247.032 1059.36 248.158 1059.4 249.585Z" fill="#34344F"/>
<path d="M1049.5 245.895L1047.69 252.535L1043.62 252.359C1043.62 252.359 1043.74 256.297 1047.29 257.018L1045.43 253.807L1049.03 254.263L1049.5 245.895Z" fill="#D88D87"/>
<path d="M1068.01 251.594C1067.37 255.585 1069 259.23 1071.67 259.735C1074.34 260.241 1077.02 257.416 1077.67 253.427C1078.32 249.436 1076.68 245.791 1074.01 245.286C1071.34 244.78 1068.66 247.605 1068.01 251.594Z" fill="#EDB29A"/>
<path d="M1070.83 251.996C1070.42 251.919 1070.02 251.965 1069.62 252.105C1069.63 252.038 1069.64 251.974 1069.65 251.907C1070.08 249.272 1071.85 247.405 1073.61 247.739C1075.37 248.074 1076.46 250.482 1076.03 253.117C1075.7 255.144 1074.57 256.711 1073.27 257.178C1073.62 254.618 1072.55 252.322 1070.83 251.996Z" fill="#D88D87"/>
<path d="M1056.67 258.362C1056.67 258.362 1050.14 260.965 1041.79 259.926C1041.79 259.926 1043.84 265.652 1050.29 264.889C1056.75 264.127 1056.67 258.362 1056.67 258.362Z" fill="#34344F"/>
<path d="M1043.08 262.091L1043.38 261.183L1042.69 260.024C1049.11 260.634 1054.3 259.163 1056.04 258.584L1055.36 260.274L1055.98 261.175C1055.22 262.757 1053.63 264.494 1050.29 264.889C1046.58 265.328 1044.32 263.621 1043.08 262.091Z" fill="#FBF2EB"/>
<path d="M1055.61 260.645C1054.67 261.22 1053.03 261.888 1050.21 262.243C1046.06 262.766 1044.04 261.953 1043.27 261.504L1043.38 261.184C1048.59 262.967 1055.36 260.274 1055.36 260.274L1055.61 260.645Z" fill="#DACEEA"/>
<path d="M1061.81 246.11L1053.82 243.958C1053.82 243.958 1059.72 240.861 1061.81 246.11Z" fill="#B27936"/>
<path d="M1036.49 245.991L1044.48 243.84C1044.48 243.84 1038.58 240.744 1036.49 245.991Z" fill="#B27936"/>
</svg>
