<svg width="40" height="41" viewBox="0 0 40 41" fill="none" xmlns="http://www.w3.org/2000/svg">
<path d="M40 20.7891C40 9.74337 31.0457 0.789062 20 0.789062C8.9543 0.789062 0 9.74337 0 20.7891C0 31.8348 8.9543 40.7891 20 40.7891C31.0457 40.7891 40 31.8348 40 20.7891Z" fill="#0DC143"/>
<path d="M28.9581 11.799C26.8139 9.59172 23.85 8.39355 20.8229 8.39355C14.3905 8.39355 9.21933 13.6278 9.28242 19.9971C9.28242 22.0151 9.85 23.9701 10.7959 25.7359L9.15625 31.7269L15.2734 30.1503C16.9761 31.0962 18.868 31.5377 20.7598 31.5377C27.1292 31.5377 32.3004 26.3035 32.3004 19.9341C32.3004 16.844 31.1023 13.9431 28.9581 11.799ZM20.8229 29.5827C19.1203 29.5827 17.4175 29.1413 15.9671 28.2584L15.5887 28.0692L11.9311 29.0151L12.877 25.4206L12.6247 25.0422C9.85 20.5647 11.1743 14.6368 15.7148 11.8621C20.2553 9.08725 26.1203 10.4116 28.895 14.9521C31.6698 19.4926 30.3455 25.3576 25.8049 28.1323C24.3545 29.0782 22.5887 29.5827 20.8229 29.5827ZM26.3725 22.5827L25.6788 22.2674C25.6788 22.2674 24.6698 21.826 24.0392 21.5106C23.9761 21.5106 23.913 21.4476 23.85 21.4476C23.6607 21.4476 23.5347 21.5106 23.4085 21.5737C23.4085 21.5737 23.3455 21.6368 22.4626 22.6458C22.3995 22.772 22.2734 22.835 22.1473 22.835H22.0842C22.0212 22.835 21.895 22.772 21.8319 22.7089L21.5167 22.5827C20.8229 22.2674 20.1923 21.8891 19.6878 21.3846C19.5617 21.2584 19.3725 21.1323 19.2463 21.0061C18.8049 20.5647 18.3635 20.0602 18.0482 19.4926L17.9851 19.3666C17.922 19.3035 17.922 19.2404 17.859 19.1143C17.859 18.9881 17.859 18.8621 17.922 18.799C17.922 18.799 18.1743 18.4836 18.3635 18.2945C18.4896 18.1683 18.5527 17.9791 18.6788 17.8531C18.8049 17.6638 18.868 17.4116 18.8049 17.2224C18.7418 16.9071 17.9851 15.2044 17.7959 14.826C17.6698 14.6368 17.5437 14.5737 17.3545 14.5106H17.1653C17.0392 14.5106 16.85 14.5106 16.6608 14.5106C16.5347 14.5106 16.4085 14.5737 16.2824 14.5737L16.2193 14.6368C16.0932 14.6999 15.9671 14.826 15.8409 14.8891C15.7148 15.0151 15.6518 15.1413 15.5257 15.2674C15.0842 15.835 14.8319 16.5287 14.8319 17.2224C14.8319 17.7269 14.9581 18.2314 15.1473 18.6728L15.2103 18.8621C15.7779 20.0602 16.5347 21.1323 17.5437 22.0782L17.7959 22.3305C17.9851 22.5197 18.1743 22.6458 18.3004 22.835C19.6248 23.9701 21.1383 24.79 22.8409 25.2314C23.0302 25.2945 23.2824 25.2945 23.4716 25.3576C23.6608 25.3576 23.913 25.3576 24.1022 25.3576C24.4175 25.3576 24.7959 25.2314 25.0482 25.1053C25.2373 24.9791 25.3635 24.9791 25.4896 24.8531L25.6157 24.7269C25.7418 24.6007 25.868 24.5377 25.9941 24.4116C26.1202 24.2855 26.2463 24.1593 26.3094 24.0332C26.4356 23.781 26.4986 23.4656 26.5617 23.1503C26.5617 23.0242 26.5617 22.835 26.5617 22.7089C26.5617 22.7089 26.4986 22.6458 26.3725 22.5827Z" fill="white"/>
</svg>
