<svg width="20" height="15" viewBox="0 0 20 15" fill="none" xmlns="http://www.w3.org/2000/svg">
<path d="M13.3219 7.70434C11.4882 6.72437 9.73231 5.82345 7.9375 4.88281V10.5099C9.82619 9.48319 11.8169 8.54293 13.3297 7.70434H13.3219Z" fill="white"/>
<path d="M13.3219 7.70434C11.4882 6.72437 7.9375 4.88281 7.9375 4.88281L12.6715 8.06464C12.6715 8.06464 11.8091 8.54293 13.3219 7.70434Z" fill="#E8E0E0"/>
<path d="M8.28309 14.9137C4.47418 14.8436 3.17325 14.7805 2.37362 14.6158C1.83262 14.5063 1.36248 14.2633 1.01777 13.9108C0.751352 13.644 0.539478 13.2369 0.375099 12.6722C0.234097 12.2017 0.17918 11.8102 0.100887 10.854C-0.018965 8.69591 -0.0475365 6.93153 0.100887 4.9601C0.223336 3.87141 0.282705 2.57902 1.09606 1.82503C1.48011 1.47215 1.92686 1.24506 2.42854 1.15119C3.21221 1.00239 6.55099 0.884766 10.0074 0.884766C13.456 0.884766 16.8022 1.00239 17.5866 1.15119C18.2134 1.26881 18.8011 1.62132 19.1462 2.07586C19.8883 3.24321 19.9013 4.69479 19.9766 5.83023C20.0078 6.37123 20.0078 9.44322 19.9766 9.98423C19.8594 11.7787 19.7651 12.4135 19.4987 13.0718C19.334 13.4874 19.1933 13.7067 18.9499 13.9497C18.5681 14.3237 18.0815 14.5725 17.5547 14.6629C14.2586 14.9108 11.4597 14.9646 8.28309 14.9137ZM13.3306 7.70333C11.4968 6.72337 9.74098 5.81464 7.94617 4.87401V10.5015C9.83486 9.47476 11.826 8.53413 13.3384 7.69554L13.3306 7.70333Z" fill="#CD201F"/>
</svg>
