<?xml version="1.0" encoding="UTF-8"?>
<svg version="1.1" xmlns="http://www.w3.org/2000/svg" width="225" height="225">
<path d="M0 0 C74.25 0 148.5 0 225 0 C225 74.25 225 148.5 225 225 C150.75 225 76.5 225 0 225 C0 150.75 0 76.5 0 0 Z " fill="#ECECEA" transform="translate(0,0)"/>
<path d="M0 0 C6.55875 -0.0928125 6.55875 -0.0928125 13.25 -0.1875 C15.30976074 -0.22846802 15.30976074 -0.22846802 17.41113281 -0.27026367 C18.49749023 -0.27775635 19.58384766 -0.28524902 20.703125 -0.29296875 C22.36843262 -0.31653442 22.36843262 -0.31653442 24.06738281 -0.34057617 C27.3386927 0.03933369 28.70140549 0.6733028 31 3 C31.49609375 5.8125 31.49609375 5.8125 31.4375 9 C31.43621094 10.051875 31.43492187 11.10375 31.43359375 12.1875 C30.94046818 15.38615231 30.52993627 16.09004399 28 18 C25.73168945 18.34057617 25.73168945 18.34057617 23.11328125 18.29296875 C22.17548828 18.28330078 21.23769531 18.27363281 20.27148438 18.26367188 C18.80678711 18.2259668 18.80678711 18.2259668 17.3125 18.1875 C16.32443359 18.17396484 15.33636719 18.16042969 14.31835938 18.14648438 C11.87867383 18.11112661 9.43926837 18.05731962 7 18 C7 21.96 7 25.92 7 30 C4.69 30 2.38 30 0 30 C0 20.1 0 10.2 0 0 Z " fill="#313131" transform="translate(154,90)"/>
<path d="M0 0 C1.12067871 0.01047363 2.24135742 0.02094727 3.39599609 0.03173828 C5.21357422 0.04140625 5.21357422 0.04140625 7.06787109 0.05126953 C8.33888672 0.06802734 9.60990234 0.08478516 10.91943359 0.10205078 C12.19818359 0.11107422 13.47693359 0.12009766 14.79443359 0.12939453 C17.96128526 0.15302775 21.12776783 0.18597449 24.29443359 0.22705078 C24.62443359 2.53705078 24.95443359 4.84705078 25.29443359 7.22705078 C23.64443359 7.22705078 21.99443359 7.22705078 20.29443359 7.22705078 C20.29443359 6.23705078 20.29443359 5.24705078 20.29443359 4.22705078 C13.69443359 4.22705078 7.09443359 4.22705078 0.29443359 4.22705078 C0.29443359 6.53705078 0.29443359 8.84705078 0.29443359 11.22705078 C0.94516846 11.21657715 1.59590332 11.20610352 2.26635742 11.1953125 C5.2131769 11.15375243 8.15993471 11.1277247 11.10693359 11.10205078 C12.13109375 11.08529297 13.15525391 11.06853516 14.21044922 11.05126953 C15.19335938 11.04482422 16.17626953 11.03837891 17.18896484 11.03173828 C18.09493408 11.02126465 19.00090332 11.01079102 19.93432617 11 C22.29443359 11.22705078 22.29443359 11.22705078 25.29443359 13.22705078 C25.65771484 16.19580078 25.65771484 16.19580078 25.60693359 19.72705078 C25.60306641 20.89236328 25.59919922 22.05767578 25.59521484 23.25830078 C25.29443359 26.22705078 25.29443359 26.22705078 23.29443359 28.22705078 C20.71240234 28.48583984 20.71240234 28.48583984 17.48193359 28.49267578 C16.32435547 28.49525391 15.16677734 28.49783203 13.97412109 28.50048828 C12.75982422 28.49275391 11.54552734 28.48501953 10.29443359 28.47705078 C9.08013672 28.48478516 7.86583984 28.49251953 6.61474609 28.50048828 C4.87837891 28.49662109 4.87837891 28.49662109 3.10693359 28.49267578 C1.50785156 28.48929199 1.50785156 28.48929199 -0.12353516 28.48583984 C-2.70556641 28.22705078 -2.70556641 28.22705078 -4.70556641 26.22705078 C-4.83056641 23.10205078 -4.83056641 23.10205078 -4.70556641 20.22705078 C-2.72556641 20.22705078 -0.74556641 20.22705078 1.29443359 20.22705078 C1.29443359 21.21705078 1.29443359 22.20705078 1.29443359 23.22705078 C7.56443359 23.22705078 13.83443359 23.22705078 20.29443359 23.22705078 C20.29443359 20.91705078 20.29443359 18.60705078 20.29443359 16.22705078 C19.60816895 16.23752441 18.9219043 16.24799805 18.21484375 16.25878906 C15.11641071 16.30026953 12.01803599 16.32635147 8.91943359 16.35205078 C7.29908203 16.3771875 7.29908203 16.3771875 5.64599609 16.40283203 C4.61474609 16.40927734 3.58349609 16.41572266 2.52099609 16.42236328 C1.09134521 16.43807373 1.09134521 16.43807373 -0.3671875 16.45410156 C-2.70556641 16.22705078 -2.70556641 16.22705078 -4.70556641 14.22705078 C-4.97119141 11.47705078 -4.97119141 11.47705078 -4.95556641 8.22705078 C-4.96072266 7.15455078 -4.96587891 6.08205078 -4.97119141 4.97705078 C-4.60659672 1.20242347 -3.79155393 0.31818671 0 0 Z " fill="#161616" transform="translate(34.70556640625,90.77294921875)"/>
<path d="M0 0 C2.31 0 4.62 0 7 0 C7 9.9 7 19.8 7 30 C4.69 30 2.38 30 0 30 C0 25.71 0 21.42 0 17 C-6.93 17 -13.86 17 -21 17 C-21 20.96 -21 24.92 -21 29 C-22.98 29 -24.96 29 -27 29 C-27 19.76 -27 10.52 -27 1 C-25.02 1 -23.04 1 -21 1 C-21 4.63 -21 8.26 -21 12 C-14.07 12 -7.14 12 0 12 C0 8.04 0 4.08 0 0 Z " fill="#141414" transform="translate(95,90)"/>
<path d="M0 0 C1.98 0 3.96 0 6 0 C6 7.92 6 15.84 6 24 C11.94 24 17.88 24 24 24 C24 25.65 24 27.3 24 29 C16.08 29 8.16 29 0 29 C0 19.43 0 9.86 0 0 Z " fill="#1A1A1A" transform="translate(123,90)"/>
<path d="M0 0 C3.95096978 -0.04939662 7.9018203 -0.08571755 11.85302734 -0.10986328 C13.8591136 -0.12488107 15.86511324 -0.15028981 17.87109375 -0.17578125 C19.12792969 -0.18222656 20.38476562 -0.18867187 21.6796875 -0.1953125 C22.84226074 -0.20578613 24.00483398 -0.21625977 25.20263672 -0.22705078 C28 0 28 0 30 2 C30.23046875 4.75 30.23046875 4.75 30.1875 8 C30.18105469 9.0725 30.17460937 10.145 30.16796875 11.25 C30 14 30 14 29 16 C21.74 16 14.48 16 7 16 C7 14.66666667 7 13.33333333 7 12 C14.92 11.505 14.92 11.505 23 11 C23 9.02 23 7.04 23 5 C21.28490234 4.92652344 21.28490234 4.92652344 19.53515625 4.8515625 C18.04424527 4.77654811 16.55336108 4.70099972 15.0625 4.625 C14.30775391 4.5940625 13.55300781 4.563125 12.77539062 4.53125 C10.84492605 4.4273685 8.92057919 4.22104386 7 4 C6.67 3.34 6.34 2.68 6 2 C4.02 2 2.04 2 0 2 C0 1.34 0 0.68 0 0 Z M9 13 C10.98 13.99 10.98 13.99 13 15 C13 14.34 13 13.68 13 13 C11.68 13 10.36 13 9 13 Z " fill="#131313" transform="translate(155,91)"/>
<path d="M0 0 C2.31 0 4.62 0 7 0 C7 9.9 7 19.8 7 30 C4.69 30 2.38 30 0 30 C0 20.1 0 10.2 0 0 Z " fill="#272727" transform="translate(95,90)"/>
<path d="M0 0 C1.12067871 0.01047363 2.24135742 0.02094727 3.39599609 0.03173828 C5.21357422 0.04140625 5.21357422 0.04140625 7.06787109 0.05126953 C8.33888672 0.06802734 9.60990234 0.08478516 10.91943359 0.10205078 C12.19818359 0.11107422 13.47693359 0.12009766 14.79443359 0.12939453 C17.96128526 0.15302775 21.12776783 0.18597449 24.29443359 0.22705078 C24.62443359 2.53705078 24.95443359 4.84705078 25.29443359 7.22705078 C23.64443359 7.22705078 21.99443359 7.22705078 20.29443359 7.22705078 C20.29443359 6.23705078 20.29443359 5.24705078 20.29443359 4.22705078 C13.69443359 4.22705078 7.09443359 4.22705078 0.29443359 4.22705078 C0.29443359 6.53705078 0.29443359 8.84705078 0.29443359 11.22705078 C7.22443359 11.22705078 14.15443359 11.22705078 21.29443359 11.22705078 C21.29443359 11.55705078 21.29443359 11.88705078 21.29443359 12.22705078 C17.50278285 12.25598449 13.71116032 12.2738268 9.91943359 12.28955078 C8.83919922 12.29792969 7.75896484 12.30630859 6.64599609 12.31494141 C5.09912109 12.31977539 5.09912109 12.31977539 3.52099609 12.32470703 C2.56789551 12.32994385 1.61479492 12.33518066 0.6328125 12.34057617 C-1.70556641 12.22705078 -1.70556641 12.22705078 -3.70556641 11.22705078 C-4.03556641 11.88705078 -4.36556641 12.54705078 -4.70556641 13.22705078 C-4.75948633 11.435711 -4.79832212 9.64391179 -4.83056641 7.85205078 C-4.85376953 6.85431641 -4.87697266 5.85658203 -4.90087891 4.82861328 C-4.62232254 1.11824249 -3.68443558 0.30919736 0 0 Z " fill="#0B0B0B" transform="translate(34.70556640625,90.77294921875)"/>
<path d="M0 0 C6.6 0 13.2 0 20 0 C20 0.99 20 1.98 20 3 C21.65 3 23.3 3 25 3 C25.33 2.01 25.66 1.02 26 0 C26 1.32 26 2.64 26 4 C26.66 4.33 27.32 4.66 28 5 C27.34 6.32 26.68 7.64 26 9 C25.17097168 8.76228882 25.17097168 8.76228882 24.32519531 8.51977539 C21.77935695 7.95067733 19.40300555 7.7896572 16.796875 7.68359375 C15.8171875 7.64169922 14.8375 7.59980469 13.828125 7.55664062 C12.81234375 7.51732422 11.7965625 7.47800781 10.75 7.4375 C9.71875 7.39431641 8.6875 7.35113281 7.625 7.30664062 C5.0834613 7.20074318 2.54182804 7.09866557 0 7 C0 4.69 0 2.38 0 0 Z " fill="#E1E1E1" transform="translate(35,95)"/>
<path d="M0 0 C1.98 0 3.96 0 6 0 C6 9.57 6 19.14 6 29 C4.02 29 2.04 29 0 29 C0 19.43 0 9.86 0 0 Z " fill="#141414" transform="translate(109,90)"/>
<path d="M0 0 C2.81256281 -0.02684312 5.62487241 -0.04676188 8.4375 -0.0625 C9.23994141 -0.07087891 10.04238281 -0.07925781 10.86914062 -0.08789062 C12.91295221 -0.0965143 14.95683902 -0.0522815 17 0 C18 1 18 1 18.125 4 C18 7 18 7 17 8 C14.13732433 8.07325168 11.299281 8.09238205 8.4375 8.0625 C7.63119141 8.05798828 6.82488281 8.05347656 5.99414062 8.04882812 C3.99606244 8.03700518 1.99802217 8.01906914 0 8 C0 5.36 0 2.72 0 0 Z " fill="#EBEBEB" transform="translate(161,95)"/>
<path d="M0 0 C1.98 0 3.96 0 6 0 C6 6.6 6 13.2 6 20 C5.01 19.67 4.02 19.34 3 19 C2.67 19.66 2.34 20.32 2 21 C1.01 21 0.02 21 -1 21 C-1.05423638 19.08364783 -1.09289963 17.16685075 -1.125 15.25 C-1.14820313 14.18265625 -1.17140625 13.1153125 -1.1953125 12.015625 C-1.00158901 9.02453425 -0.39994933 7.57410039 1 5 C0.69621948 2.31006947 0.69621948 2.31006947 0 0 Z " fill="#F3F3F3" transform="translate(61,95)"/>
<path d="M0 0 C0.88945313 0.00644531 1.77890625 0.01289062 2.6953125 0.01953125 C3.61570312 0.03628906 4.53609375 0.05304688 5.484375 0.0703125 C6.42023437 0.07933594 7.35609375 0.08835937 8.3203125 0.09765625 C10.62526157 0.12117614 12.9296866 0.15404397 15.234375 0.1953125 C15.234375 2.1753125 15.234375 4.1553125 15.234375 6.1953125 C9.294375 6.1953125 3.354375 6.1953125 -2.765625 6.1953125 C-3.095625 5.2053125 -3.425625 4.2153125 -3.765625 3.1953125 C-5.415625 2.8653125 -7.065625 2.5353125 -8.765625 2.1953125 C-5.70405846 0.41862027 -3.52526285 -0.04519568 0 0 Z " fill="#F5F5F5" transform="translate(38.765625,107.8046875)"/>
<path d="M0 0 C0.33 0 0.66 0 1 0 C1 8.91 1 17.82 1 27 C4.96 26.505 4.96 26.505 9 26 C9.33 25.34 9.66 24.68 10 24 C14.62 24 19.24 24 24 24 C24 25.32 24 26.64 24 28 C16.08 28 8.16 28 0 28 C0 18.76 0 9.52 0 0 Z " fill="#0A0A0A" transform="translate(123,91)"/>
<path d="M0 0 C1.98 0 3.96 0 6 0 C6 0.99 6 1.98 6 3 C12.27 3 18.54 3 25 3 C20.49579832 7.50420168 20.49579832 7.50420168 16.5234375 7.6796875 C15.688125 7.7209375 14.8528125 7.7621875 13.9921875 7.8046875 C13.12851562 7.82789062 12.26484375 7.85109375 11.375 7.875 C10.06789063 7.94460937 10.06789063 7.94460937 8.734375 8.015625 C3.98496467 8.20677774 3.98496467 8.20677774 2 8 C0 6 0 6 -0.125 2.875 C-0.08375 1.92625 -0.0425 0.9775 0 0 Z " fill="#2B2B2B" transform="translate(30,111)"/>
<path d="M0 0 C0.33 0 0.66 0 1 0 C1 1.65 1 3.3 1 5 C2.98 5 4.96 5 7 5 C7 3.35 7 1.7 7 0 C8.76949095 -0.10815225 10.54087487 -0.18566083 12.3125 -0.25 C13.29863281 -0.29640625 14.28476563 -0.3428125 15.30078125 -0.390625 C18 0 18 0 19.85546875 2.015625 C20.23316406 2.67046875 20.61085937 3.3253125 21 4 C20.21625 4.309375 19.4325 4.61875 18.625 4.9375 C16.07669872 5.92875038 16.07669872 5.92875038 14 7 C11.62597499 7.07116382 9.24999323 7.08409085 6.875 7.0625 C5.59367188 7.05347656 4.31234375 7.04445312 2.9921875 7.03515625 C1.51105469 7.01775391 1.51105469 7.01775391 0 7 C0 4.69 0 2.38 0 0 Z " fill="#AEAEAE" transform="translate(143,128)"/>
<path d="M0 0 C6.15234375 -0.09765625 6.15234375 -0.09765625 8 0 C9 1 9 1 9.0625 3.5625 C9.041875 4.366875 9.02125 5.17125 9 6 C10.65 6 12.3 6 14 6 C14 6.66 14 7.32 14 8 C9.81475251 8.08206368 6.08918864 7.84189178 2 7 C1.67 7.33 1.34 7.66 1 8 C-1.33297433 8.04092937 -3.66705225 8.04241723 -6 8 C-6 5.69 -6 3.38 -6 1 C-5.67 1 -5.34 1 -5 1 C-5 2.65 -5 4.3 -5 6 C-3.35 6 -1.7 6 0 6 C0 4.02 0 2.04 0 0 Z " fill="#8F8F8F" transform="translate(45,127)"/>
<path d="M0 0 C0.33 0 0.66 0 1 0 C1.144375 0.7425 1.28875 1.485 1.4375 2.25 C1.77577172 3.90377284 2.14211516 5.55267006 2.5625 7.1875 C3 9 3 9 3 11 C-5.25 11 -13.5 11 -22 11 C-22 10.67 -22 10.34 -22 10 C-16.06 9.67 -10.12 9.34 -4 9 C-10.93 8.505 -10.93 8.505 -18 8 C-18 7.67 -18 7.34 -18 7 C-12.06 7 -6.12 7 0 7 C0 4.69 0 2.38 0 0 Z " fill="#0B0B0B" transform="translate(55,108)"/>
<path d="M0 0 C1.98 0 3.96 0 6 0 C5.34 0.66 4.68 1.32 4 2 C6.46278801 2 7.85224119 1.14547137 10 0 C10 1.98 10 3.96 10 6 C11.32 6.33 12.64 6.66 14 7 C9.38 7 4.76 7 0 7 C0 4.69 0 2.38 0 0 Z " fill="#868686" transform="translate(127,128)"/>
<path d="M0 0 C2.64 0 5.28 0 8 0 C8.04254356 1.99954746 8.04080783 4.00041636 8 6 C7 7 7 7 3.4375 7.0625 C2.303125 7.041875 1.16875 7.02125 0 7 C0 4.69 0 2.38 0 0 Z " fill="#808080" transform="translate(29,128)"/>
<path d="M0 0 C2.64 0 5.28 0 8 0 C7.67 2.31 7.34 4.62 7 7 C4.69 7 2.38 7 0 7 C0 4.69 0 2.38 0 0 Z " fill="#8F8F8F" transform="translate(85,128)"/>
<path d="M0 0 C2.875 -0.125 2.875 -0.125 6 0 C6.66 0.66 7.32 1.32 8 2 C7.625 4.125 7.625 4.125 7 6 C4.69 6.33 2.38 6.66 0 7 C0 4.69 0 2.38 0 0 Z " fill="#4C4C4C" transform="translate(61,128)"/>
<path d="M0 0 C7.26 0.33 14.52 0.66 22 1 C22 1.33 22 1.66 22 2 C17.38 2 12.76 2 8 2 C7.67 2.99 7.34 3.98 7 5 C4.36 5 1.72 5 -1 5 C-0.67 3.35 -0.34 1.7 0 0 Z " fill="#282828" transform="translate(125,113)"/>
<path d="M0 0 C7.92 0 15.84 0 24 0 C20.54785147 2.30143236 19.76520676 2.13833854 15.8125 1.625 C14.91144531 1.51414062 14.01039063 1.40328125 13.08203125 1.2890625 C12.05142578 1.14597656 12.05142578 1.14597656 11 1 C11 1.66 11 2.32 11 3 C14.63 3 18.26 3 22 3 C22 3.33 22 3.66 22 4 C17.05 4 12.1 4 7 4 C6.67 3.34 6.34 2.68 6 2 C4.02 2 2.04 2 0 2 C0 1.34 0 0.68 0 0 Z " fill="#080808" transform="translate(155,91)"/>
<path d="M0 0 C0.33 0 0.66 0 1 0 C1 1.65 1 3.3 1 5 C2.98 5 4.96 5 7 5 C7 3.35 7 1.7 7 0 C9.31 0 11.62 0 14 0 C14 0.33 14 0.66 14 1 C12.35 1 10.7 1 9 1 C9 2.65 9 4.3 9 6 C10.65 6 12.3 6 14 6 C14 6.33 14 6.66 14 7 C9.38 7 4.76 7 0 7 C0 4.69 0 2.38 0 0 Z " fill="#5F5F5F" transform="translate(143,128)"/>
<path d="M0 0 C0.66 0 1.32 0 2 0 C2.33 0.99 2.66 1.98 3 3 C2.34 3.66 1.68 4.32 1 5 C0.31550781 4.67257813 -0.36898437 4.34515625 -1.07421875 4.0078125 C-4.48912059 2.83151788 -7.21031284 2.80222854 -10.8125 2.875 C-11.97394531 2.89304687 -13.13539062 2.91109375 -14.33203125 2.9296875 C-15.65267578 2.96449219 -15.65267578 2.96449219 -17 3 C-17.33 2.34 -17.66 1.68 -18 1 C-16.17662109 1.01740234 -16.17662109 1.01740234 -14.31640625 1.03515625 C-12.73177236 1.04453278 -11.14713682 1.05363313 -9.5625 1.0625 C-8.76005859 1.07087891 -7.95761719 1.07925781 -7.13085938 1.08789062 C-5.08704779 1.0965143 -3.04316098 1.0522815 -1 1 C-0.67 0.67 -0.34 0.34 0 0 Z " fill="#1C1C1C" transform="translate(57,91)"/>
<path d="M0 0 C2.1875 0.3125 2.1875 0.3125 4 1 C4.625 2.875 4.625 2.875 5 5 C4.34 5.66 3.68 6.32 3 7 C0.375 6.625 0.375 6.625 -2 6 C-2.33 5.01 -2.66 4.02 -3 3 C-1.75 1.4375 -1.75 1.4375 0 0 Z " fill="#A6A6A6" transform="translate(191,90)"/>
<path d="M0 0 C0.7734375 0.433125 0.7734375 0.433125 1.5625 0.875 C4.62356725 2.28780027 7.74944918 3.1248517 11 4 C10.67 5.32 10.34 6.64 10 8 C7.125 8.1875 7.125 8.1875 4 8 C0 2 0 2 0 0 Z " fill="#F4F4F4" transform="translate(185,93)"/>
<path d="M0 0 C0.66 0.33 1.32 0.66 2 1 C3.27536232 6.44927536 3.27536232 6.44927536 2 9 C-0.31 8.34 -2.62 7.68 -5 7 C-4.1875 5.0625 -4.1875 5.0625 -3 3 C-2.01 2.67 -1.02 2.34 0 2 C0 1.34 0 0.68 0 0 Z " fill="#1E1E1E" transform="translate(182,98)"/>
<path d="M0 0 C2.31 0 4.62 0 7 0 C7 0.33 7 0.66 7 1 C5.35 1 3.7 1 2 1 C2 2.32 2 3.64 2 5 C3.98 4.67 5.96 4.34 8 4 C7.67 4.99 7.34 5.98 7 7 C5.00045254 7.04254356 2.99958364 7.04080783 1 7 C0 6 0 6 -0.0625 2.9375 C-0.041875 1.968125 -0.02125 0.99875 0 0 Z " fill="#666666" transform="translate(117,128)"/>
<path d="M0 0 C2.31 0 4.62 0 7 0 C7 0.33 7 0.66 7 1 C5.35 1 3.7 1 2 1 C2 1.66 2 2.32 2 3 C2.99 3.33 3.98 3.66 5 4 C5.66 4.33 6.32 4.66 7 5 C7 5.66 7 6.32 7 7 C5.00045254 7.04254356 2.99958364 7.04080783 1 7 C0 6 0 6 -0.0625 2.9375 C-0.041875 1.968125 -0.02125 0.99875 0 0 Z " fill="#616161" transform="translate(178,128)"/>
<path d="M0 0 C2.31 0 4.62 0 7 0 C6.67 0.66 6.34 1.32 6 2 C4.68 1.67 3.36 1.34 2 1 C2 2.32 2 3.64 2 5 C3.65 4.67 5.3 4.34 7 4 C7 4.99 7 5.98 7 7 C5.00045254 7.04254356 2.99958364 7.04080783 1 7 C0 6 0 6 -0.0625 2.9375 C-0.041875 1.968125 -0.02125 0.99875 0 0 Z " fill="#585858" transform="translate(169,128)"/>
<path d="M0 0 C2.475 0.99 2.475 0.99 5 2 C5 3.98 5 5.96 5 8 C4.01 8.33 3.02 8.66 2 9 C0 3.375 0 3.375 0 0 Z " fill="#F2F2F2" transform="translate(24,127)"/>
<path d="M0 0 C0.12375 0.639375 0.2475 1.27875 0.375 1.9375 C0.684375 2.9584375 0.684375 2.9584375 1 4 C1.66 4.33 2.32 4.66 3 5 C2.34 6.32 1.68 7.64 1 9 C-0.32 8.67 -1.64 8.34 -3 8 C-3 7.01 -3 6.02 -3 5 C-3.66 4.34 -4.32 3.68 -5 3 C-3.35 3 -1.7 3 0 3 C0 2.01 0 1.02 0 0 Z " fill="#CDCDCD" transform="translate(60,95)"/>
<path d="M0 0 C0.99 0.66 1.98 1.32 3 2 C3.1875 4.625 3.1875 4.625 3 7 C-1.455 6.01 -1.455 6.01 -6 5 C-5.01 4.67 -4.02 4.34 -3 4 C-3 3.34 -3 2.68 -3 2 C-2.01 2 -1.02 2 0 2 C0 1.34 0 0.68 0 0 Z " fill="#F7F7F7" transform="translate(186,128)"/>
<path d="M0 0 C2.31 0 4.62 0 7 0 C7 0.33 7 0.66 7 1 C5.35 1 3.7 1 2 1 C2 1.66 2 2.32 2 3 C2.99 3.33 3.98 3.66 5 4 C4.01 4 3.02 4 2 4 C2 4.66 2 5.32 2 6 C3.65 6 5.3 6 7 6 C7 6.33 7 6.66 7 7 C5.00045254 7.04254356 2.99958364 7.04080783 1 7 C0 6 0 6 -0.0625 2.9375 C-0.041875 1.968125 -0.02125 0.99875 0 0 Z " fill="#565656" transform="translate(100,128)"/>
<path d="M0 0 C0.33 0 0.66 0 1 0 C1 1.98 1 3.96 1 6 C0.67 5.34 0.34 4.68 0 4 C-1.98 4.33 -3.96 4.66 -6 5 C-6 3.68 -6 2.36 -6 1 C-3.03 1.495 -3.03 1.495 0 2 C0 1.34 0 0.68 0 0 Z " fill="#F6F6F6" transform="translate(177,128)"/>
<path d="M0 0 C0.66 0 1.32 0 2 0 C2 1.65 2 3.3 2 5 C3.65 5 5.3 5 7 5 C7 5.66 7 6.32 7 7 C4.69 7 2.38 7 0 7 C0 4.69 0 2.38 0 0 Z " fill="#7A7A7A" transform="translate(52,128)"/>
<path d="M0 0 C1.65 0.99 3.3 1.98 5 3 C4.67 3.66 4.34 4.32 4 5 C3.7724985 6.87056791 3.59037189 8.74685958 3.4375 10.625 C3.35371094 11.62789062 3.26992188 12.63078125 3.18359375 13.6640625 C3.12300781 14.43492188 3.06242187 15.20578125 3 16 C2.67 16 2.34 16 2 16 C1.93941406 15.18015625 1.87882812 14.3603125 1.81640625 13.515625 C1.73261719 12.43796875 1.64882813 11.3603125 1.5625 10.25 C1.48128906 9.18265625 1.40007813 8.1153125 1.31640625 7.015625 C1.05909227 4.56320038 0.68187782 2.36078709 0 0 Z " fill="#D1D1D0" transform="translate(27,88)"/>
<path d="M0 0 C0.66 0.66 1.32 1.32 2 2 C2.99 2 3.98 2 5 2 C5.33 2 5.66 2 6 2 C6 3.65 6 5.3 6 7 C5.67 6.34 5.34 5.68 5 5 C3.35 5 1.7 5 0 5 C0 3.35 0 1.7 0 0 Z " fill="#FAFAFA" transform="translate(54,128)"/>
<path d="M0 0 C1.65 0 3.3 0 5 0 C5 1.32 5 2.64 5 4 C3.35 4.33 1.7 4.66 0 5 C0 3.35 0 1.7 0 0 Z " fill="#0D0D0D" transform="translate(30,111)"/>
<path d="M0 0 C1.65 0 3.3 0 5 0 C5 1.32 5 2.64 5 4 C3.35 4 1.7 4 0 4 C0 2.68 0 1.36 0 0 Z " fill="#F5F5F5" transform="translate(62,129)"/>
<path d="M0 0 C1.65 0 3.3 0 5 0 C5 1.32 5 2.64 5 4 C3.02 4 1.04 4 -1 4 C-0.67 2.68 -0.34 1.36 0 0 Z " fill="#F9F9F9" transform="translate(145,129)"/>
<path d="M0 0 C1.32 0.33 2.64 0.66 4 1 C4 2.32 4 3.64 4 5 C2.68 5 1.36 5 0 5 C0 3.35 0 1.7 0 0 Z " fill="#F6F6F6" transform="translate(41,128)"/>
</svg>
