<svg width="233" height="140" viewBox="0 0 233 140" fill="none" xmlns="http://www.w3.org/2000/svg">
<path d="M27.8465 22V13.6H31.5185C32.4305 13.6 33.2305 13.776 33.9185 14.128C34.6065 14.48 35.1425 14.968 35.5265 15.592C35.9105 16.216 36.1025 16.952 36.1025 17.8C36.1025 18.64 35.9105 19.376 35.5265 20.008C35.1425 20.632 34.6065 21.12 33.9185 21.472C33.2305 21.824 32.4305 22 31.5185 22H27.8465ZM29.4065 20.68H31.4465C32.0785 20.68 32.6225 20.56 33.0785 20.32C33.5425 20.08 33.8985 19.744 34.1465 19.312C34.4025 18.88 34.5305 18.376 34.5305 17.8C34.5305 17.216 34.4025 16.712 34.1465 16.288C33.8985 15.856 33.5425 15.52 33.0785 15.28C32.6225 15.04 32.0785 14.92 31.4465 14.92H29.4065V20.68ZM40.6166 22.084C39.9606 22.084 39.3766 21.944 38.8646 21.664C38.3526 21.376 37.9486 20.984 37.6526 20.488C37.3566 19.992 37.2086 19.428 37.2086 18.796C37.2086 18.156 37.3566 17.592 37.6526 17.104C37.9486 16.608 38.3526 16.22 38.8646 15.94C39.3766 15.66 39.9606 15.52 40.6166 15.52C41.2806 15.52 41.8686 15.66 42.3806 15.94C42.9006 16.22 43.3046 16.604 43.5926 17.092C43.8886 17.58 44.0366 18.148 44.0366 18.796C44.0366 19.428 43.8886 19.992 43.5926 20.488C43.3046 20.984 42.9006 21.376 42.3806 21.664C41.8686 21.944 41.2806 22.084 40.6166 22.084ZM40.6166 20.8C40.9846 20.8 41.3126 20.72 41.6006 20.56C41.8886 20.4 42.1126 20.168 42.2726 19.864C42.4406 19.56 42.5246 19.204 42.5246 18.796C42.5246 18.38 42.4406 18.024 42.2726 17.728C42.1126 17.424 41.8886 17.192 41.6006 17.032C41.3126 16.872 40.9886 16.792 40.6286 16.792C40.2606 16.792 39.9326 16.872 39.6446 17.032C39.3646 17.192 39.1406 17.424 38.9726 17.728C38.8046 18.024 38.7206 18.38 38.7206 18.796C38.7206 19.204 38.8046 19.56 38.9726 19.864C39.1406 20.168 39.3646 20.4 39.6446 20.56C39.9326 20.72 40.2566 20.8 40.6166 20.8ZM46.8312 22L44.4792 15.592H45.8952L47.9112 21.244H47.2392L49.3512 15.592H50.6112L52.6632 21.244H52.0032L54.0792 15.592H55.4112L53.0472 22H51.6072L49.7352 16.996H50.1792L48.2712 22H46.8312ZM60.1985 15.52C60.7105 15.52 61.1665 15.62 61.5665 15.82C61.9745 16.02 62.2945 16.328 62.5265 16.744C62.7585 17.152 62.8745 17.68 62.8745 18.328V22H61.3745V18.52C61.3745 17.952 61.2385 17.528 60.9665 17.248C60.7025 16.968 60.3305 16.828 59.8505 16.828C59.4985 16.828 59.1865 16.9 58.9145 17.044C58.6425 17.188 58.4305 17.404 58.2785 17.692C58.1345 17.972 58.0625 18.328 58.0625 18.76V22H56.5625V15.592H57.9905V17.32L57.7385 16.792C57.9625 16.384 58.2865 16.072 58.7105 15.856C59.1425 15.632 59.6385 15.52 60.1985 15.52ZM64.8974 22V13.096H66.3974V22H64.8974ZM71.3661 22.084C70.7101 22.084 70.1261 21.944 69.6141 21.664C69.1021 21.376 68.6981 20.984 68.4021 20.488C68.1061 19.992 67.9581 19.428 67.9581 18.796C67.9581 18.156 68.1061 17.592 68.4021 17.104C68.6981 16.608 69.1021 16.22 69.6141 15.94C70.1261 15.66 70.7101 15.52 71.3661 15.52C72.0301 15.52 72.6181 15.66 73.1301 15.94C73.6501 16.22 74.0541 16.604 74.3421 17.092C74.6381 17.58 74.7861 18.148 74.7861 18.796C74.7861 19.428 74.6381 19.992 74.3421 20.488C74.0541 20.984 73.6501 21.376 73.1301 21.664C72.6181 21.944 72.0301 22.084 71.3661 22.084ZM71.3661 20.8C71.7341 20.8 72.0621 20.72 72.3501 20.56C72.6381 20.4 72.8621 20.168 73.0221 19.864C73.1901 19.56 73.2741 19.204 73.2741 18.796C73.2741 18.38 73.1901 18.024 73.0221 17.728C72.8621 17.424 72.6381 17.192 72.3501 17.032C72.0621 16.872 71.7381 16.792 71.3781 16.792C71.0101 16.792 70.6821 16.872 70.3941 17.032C70.1141 17.192 69.8901 17.424 69.7221 17.728C69.5541 18.024 69.4701 18.38 69.4701 18.796C69.4701 19.204 69.5541 19.56 69.7221 19.864C69.8901 20.168 70.1141 20.4 70.3941 20.56C70.6821 20.72 71.0061 20.8 71.3661 20.8ZM80.2065 22V20.704L80.1225 20.428V18.16C80.1225 17.72 79.9905 17.38 79.7265 17.14C79.4625 16.892 79.0625 16.768 78.5265 16.768C78.1665 16.768 77.8105 16.824 77.4585 16.936C77.1145 17.048 76.8225 17.204 76.5825 17.404L75.9945 16.312C76.3385 16.048 76.7465 15.852 77.2185 15.724C77.6985 15.588 78.1945 15.52 78.7065 15.52C79.6345 15.52 80.3505 15.744 80.8545 16.192C81.3665 16.632 81.6225 17.316 81.6225 18.244V22H80.2065ZM78.1905 22.084C77.7105 22.084 77.2905 22.004 76.9305 21.844C76.5705 21.676 76.2905 21.448 76.0905 21.16C75.8985 20.864 75.8025 20.532 75.8025 20.164C75.8025 19.804 75.8865 19.48 76.0545 19.192C76.2305 18.904 76.5145 18.676 76.9065 18.508C77.2985 18.34 77.8185 18.256 78.4665 18.256H80.3265V19.252H78.5745C78.0625 19.252 77.7185 19.336 77.5425 19.504C77.3665 19.664 77.2785 19.864 77.2785 20.104C77.2785 20.376 77.3865 20.592 77.6025 20.752C77.8185 20.912 78.1185 20.992 78.5025 20.992C78.8705 20.992 79.1985 20.908 79.4865 20.74C79.7825 20.572 79.9945 20.324 80.1225 19.996L80.3745 20.896C80.2305 21.272 79.9705 21.564 79.5945 21.772C79.2265 21.98 78.7585 22.084 78.1905 22.084ZM86.3912 22.084C85.7752 22.084 85.2192 21.948 84.7232 21.676C84.2352 21.396 83.8512 21.012 83.5712 20.524C83.2912 20.036 83.1512 19.46 83.1512 18.796C83.1512 18.132 83.2912 17.556 83.5712 17.068C83.8512 16.58 84.2352 16.2 84.7232 15.928C85.2192 15.656 85.7752 15.52 86.3912 15.52C86.9272 15.52 87.4072 15.64 87.8312 15.88C88.2552 16.112 88.5912 16.468 88.8392 16.948C89.0872 17.428 89.2112 18.044 89.2112 18.796C89.2112 19.54 89.0912 20.156 88.8512 20.644C88.6112 21.124 88.2792 21.484 87.8552 21.724C87.4312 21.964 86.9432 22.084 86.3912 22.084ZM86.5712 20.8C86.9312 20.8 87.2512 20.72 87.5312 20.56C87.8192 20.4 88.0472 20.168 88.2152 19.864C88.3912 19.56 88.4792 19.204 88.4792 18.796C88.4792 18.38 88.3912 18.024 88.2152 17.728C88.0472 17.424 87.8192 17.192 87.5312 17.032C87.2512 16.872 86.9312 16.792 86.5712 16.792C86.2112 16.792 85.8872 16.872 85.5992 17.032C85.3192 17.192 85.0912 17.424 84.9152 17.728C84.7472 18.024 84.6632 18.38 84.6632 18.796C84.6632 19.204 84.7472 19.56 84.9152 19.864C85.0912 20.168 85.3192 20.4 85.5992 20.56C85.8872 20.72 86.2112 20.8 86.5712 20.8ZM88.5152 22V20.488L88.5752 18.784L88.4552 17.08V13.096H89.9432V22H88.5152ZM95.6179 22V13.6H99.5539C100.562 13.6 101.33 13.8 101.858 14.2C102.386 14.592 102.65 15.12 102.65 15.784C102.65 16.232 102.546 16.616 102.338 16.936C102.13 17.248 101.85 17.492 101.498 17.668C101.154 17.836 100.778 17.92 100.37 17.92L100.586 17.488C101.058 17.488 101.482 17.576 101.858 17.752C102.234 17.92 102.53 18.168 102.746 18.496C102.97 18.824 103.082 19.232 103.082 19.72C103.082 20.44 102.806 21 102.254 21.4C101.702 21.8 100.882 22 99.7939 22H95.6179ZM97.1779 20.776H99.6979C100.282 20.776 100.73 20.68 101.042 20.488C101.354 20.296 101.51 19.988 101.51 19.564C101.51 19.148 101.354 18.844 101.042 18.652C100.73 18.452 100.282 18.352 99.6979 18.352H97.0579V17.14H99.3859C99.9299 17.14 100.346 17.044 100.634 16.852C100.93 16.66 101.078 16.372 101.078 15.988C101.078 15.596 100.93 15.304 100.634 15.112C100.346 14.92 99.9299 14.824 99.3859 14.824H97.1779V20.776ZM104.723 22V15.592H106.151V17.356L105.983 16.84C106.175 16.408 106.475 16.08 106.883 15.856C107.299 15.632 107.815 15.52 108.431 15.52V16.948C108.367 16.932 108.307 16.924 108.251 16.924C108.195 16.916 108.139 16.912 108.083 16.912C107.515 16.912 107.063 17.08 106.727 17.416C106.391 17.744 106.223 18.236 106.223 18.892V22H104.723ZM112.645 22.084C111.989 22.084 111.405 21.944 110.893 21.664C110.381 21.376 109.977 20.984 109.681 20.488C109.385 19.992 109.237 19.428 109.237 18.796C109.237 18.156 109.385 17.592 109.681 17.104C109.977 16.608 110.381 16.22 110.893 15.94C111.405 15.66 111.989 15.52 112.645 15.52C113.309 15.52 113.897 15.66 114.409 15.94C114.929 16.22 115.333 16.604 115.621 17.092C115.917 17.58 116.065 18.148 116.065 18.796C116.065 19.428 115.917 19.992 115.621 20.488C115.333 20.984 114.929 21.376 114.409 21.664C113.897 21.944 113.309 22.084 112.645 22.084ZM112.645 20.8C113.013 20.8 113.341 20.72 113.629 20.56C113.917 20.4 114.141 20.168 114.301 19.864C114.469 19.56 114.553 19.204 114.553 18.796C114.553 18.38 114.469 18.024 114.301 17.728C114.141 17.424 113.917 17.192 113.629 17.032C113.341 16.872 113.017 16.792 112.657 16.792C112.289 16.792 111.961 16.872 111.673 17.032C111.393 17.192 111.169 17.424 111.001 17.728C110.833 18.024 110.749 18.38 110.749 18.796C110.749 19.204 110.833 19.56 111.001 19.864C111.169 20.168 111.393 20.4 111.673 20.56C111.961 20.72 112.285 20.8 112.645 20.8ZM120.559 22.084C119.887 22.084 119.287 21.944 118.759 21.664C118.239 21.376 117.831 20.984 117.535 20.488C117.239 19.992 117.091 19.428 117.091 18.796C117.091 18.156 117.239 17.592 117.535 17.104C117.831 16.608 118.239 16.22 118.759 15.94C119.287 15.66 119.887 15.52 120.559 15.52C121.183 15.52 121.731 15.648 122.203 15.904C122.683 16.152 123.047 16.52 123.295 17.008L122.143 17.68C121.951 17.376 121.715 17.152 121.435 17.008C121.163 16.864 120.867 16.792 120.547 16.792C120.179 16.792 119.847 16.872 119.551 17.032C119.255 17.192 119.023 17.424 118.855 17.728C118.687 18.024 118.603 18.38 118.603 18.796C118.603 19.212 118.687 19.572 118.855 19.876C119.023 20.172 119.255 20.4 119.551 20.56C119.847 20.72 120.179 20.8 120.547 20.8C120.867 20.8 121.163 20.728 121.435 20.584C121.715 20.44 121.951 20.216 122.143 19.912L123.295 20.584C123.047 21.064 122.683 21.436 122.203 21.7C121.731 21.956 121.183 22.084 120.559 22.084ZM128.289 15.52C128.801 15.52 129.257 15.62 129.657 15.82C130.065 16.02 130.385 16.328 130.617 16.744C130.849 17.152 130.965 17.68 130.965 18.328V22H129.465V18.52C129.465 17.952 129.329 17.528 129.057 17.248C128.793 16.968 128.421 16.828 127.941 16.828C127.589 16.828 127.277 16.9 127.005 17.044C126.733 17.188 126.521 17.404 126.369 17.692C126.225 17.972 126.153 18.328 126.153 18.76V22H124.653V13.096H126.153V17.32L125.829 16.792C126.053 16.384 126.377 16.072 126.801 15.856C127.233 15.632 127.729 15.52 128.289 15.52ZM135.7 22.084C135.156 22.084 134.676 21.984 134.26 21.784C133.844 21.576 133.52 21.264 133.288 20.848C133.056 20.424 132.94 19.892 132.94 19.252V15.592H134.44V19.048C134.44 19.624 134.568 20.056 134.824 20.344C135.088 20.624 135.46 20.764 135.94 20.764C136.292 20.764 136.596 20.692 136.852 20.548C137.116 20.404 137.32 20.188 137.464 19.9C137.616 19.612 137.692 19.256 137.692 18.832V15.592H139.192V22H137.764V20.272L138.016 20.8C137.8 21.216 137.484 21.536 137.068 21.76C136.652 21.976 136.196 22.084 135.7 22.084ZM141.276 22V15.592H142.704V17.356L142.536 16.84C142.728 16.408 143.028 16.08 143.436 15.856C143.852 15.632 144.368 15.52 144.984 15.52V16.948C144.92 16.932 144.86 16.924 144.804 16.924C144.748 16.916 144.692 16.912 144.636 16.912C144.068 16.912 143.616 17.08 143.28 17.416C142.944 17.744 142.776 18.236 142.776 18.892V22H141.276ZM149.33 22.084C148.618 22.084 147.994 21.944 147.458 21.664C146.93 21.376 146.518 20.984 146.222 20.488C145.934 19.992 145.79 19.428 145.79 18.796C145.79 18.156 145.93 17.592 146.21 17.104C146.498 16.608 146.89 16.22 147.386 15.94C147.89 15.66 148.462 15.52 149.102 15.52C149.726 15.52 150.282 15.656 150.77 15.928C151.258 16.2 151.642 16.584 151.922 17.08C152.202 17.576 152.342 18.16 152.342 18.832C152.342 18.896 152.338 18.968 152.33 19.048C152.33 19.128 152.326 19.204 152.318 19.276H146.978V18.28H151.526L150.938 18.592C150.946 18.224 150.87 17.9 150.71 17.62C150.55 17.34 150.33 17.12 150.05 16.96C149.778 16.8 149.462 16.72 149.102 16.72C148.734 16.72 148.41 16.8 148.13 16.96C147.858 17.12 147.642 17.344 147.482 17.632C147.33 17.912 147.254 18.244 147.254 18.628V18.868C147.254 19.252 147.342 19.592 147.518 19.888C147.694 20.184 147.942 20.412 148.262 20.572C148.582 20.732 148.95 20.812 149.366 20.812C149.726 20.812 150.05 20.756 150.338 20.644C150.626 20.532 150.882 20.356 151.106 20.116L151.91 21.04C151.622 21.376 151.258 21.636 150.818 21.82C150.386 21.996 149.89 22.084 149.33 22.084ZM163.387 13.6H164.947V22H163.387V13.6ZM159.043 22H157.483V13.6H159.043V22ZM163.507 18.4H158.911V17.068H163.507V18.4ZM170.186 22.084C169.474 22.084 168.85 21.944 168.314 21.664C167.786 21.376 167.374 20.984 167.078 20.488C166.79 19.992 166.646 19.428 166.646 18.796C166.646 18.156 166.786 17.592 167.066 17.104C167.354 16.608 167.746 16.22 168.242 15.94C168.746 15.66 169.318 15.52 169.958 15.52C170.582 15.52 171.138 15.656 171.626 15.928C172.114 16.2 172.498 16.584 172.778 17.08C173.058 17.576 173.198 18.16 173.198 18.832C173.198 18.896 173.194 18.968 173.186 19.048C173.186 19.128 173.182 19.204 173.174 19.276H167.834V18.28H172.382L171.794 18.592C171.802 18.224 171.726 17.9 171.566 17.62C171.406 17.34 171.186 17.12 170.906 16.96C170.634 16.8 170.318 16.72 169.958 16.72C169.59 16.72 169.266 16.8 168.986 16.96C168.714 17.12 168.498 17.344 168.338 17.632C168.186 17.912 168.11 18.244 168.11 18.628V18.868C168.11 19.252 168.198 19.592 168.374 19.888C168.55 20.184 168.798 20.412 169.118 20.572C169.438 20.732 169.806 20.812 170.222 20.812C170.582 20.812 170.906 20.756 171.194 20.644C171.482 20.532 171.738 20.356 171.962 20.116L172.766 21.04C172.478 21.376 172.114 21.636 171.674 21.82C171.242 21.996 170.746 22.084 170.186 22.084ZM174.759 22V15.592H176.187V17.356L176.019 16.84C176.211 16.408 176.511 16.08 176.919 15.856C177.335 15.632 177.851 15.52 178.467 15.52V16.948C178.403 16.932 178.343 16.924 178.287 16.924C178.231 16.916 178.175 16.912 178.119 16.912C177.551 16.912 177.099 17.08 176.763 17.416C176.427 17.744 176.259 18.236 176.259 18.892V22H174.759ZM182.813 22.084C182.101 22.084 181.477 21.944 180.941 21.664C180.413 21.376 180.001 20.984 179.705 20.488C179.417 19.992 179.273 19.428 179.273 18.796C179.273 18.156 179.413 17.592 179.693 17.104C179.981 16.608 180.373 16.22 180.869 15.94C181.373 15.66 181.945 15.52 182.585 15.52C183.209 15.52 183.765 15.656 184.253 15.928C184.741 16.2 185.125 16.584 185.405 17.08C185.685 17.576 185.825 18.16 185.825 18.832C185.825 18.896 185.821 18.968 185.813 19.048C185.813 19.128 185.809 19.204 185.801 19.276H180.461V18.28H185.009L184.421 18.592C184.429 18.224 184.353 17.9 184.193 17.62C184.033 17.34 183.813 17.12 183.533 16.96C183.261 16.8 182.945 16.72 182.585 16.72C182.217 16.72 181.893 16.8 181.613 16.96C181.341 17.12 181.125 17.344 180.965 17.632C180.813 17.912 180.737 18.244 180.737 18.628V18.868C180.737 19.252 180.825 19.592 181.001 19.888C181.177 20.184 181.425 20.412 181.745 20.572C182.065 20.732 182.433 20.812 182.849 20.812C183.209 20.812 183.533 20.756 183.821 20.644C184.109 20.532 184.365 20.356 184.589 20.116L185.393 21.04C185.105 21.376 184.741 21.636 184.301 21.82C183.869 21.996 183.373 22.084 182.813 22.084Z" fill="#727272"/>
<path d="M205.793 26.2071C206.183 26.5976 206.817 26.5976 207.207 26.2071L213.571 19.8431C213.962 19.4526 213.962 18.8195 213.571 18.4289C213.181 18.0384 212.547 18.0384 212.157 18.4289L206.5 24.0858L200.843 18.4289C200.453 18.0384 199.819 18.0384 199.429 18.4289C199.038 18.8195 199.038 19.4526 199.429 19.8431L205.793 26.2071ZM205.5 9.5L205.5 25.5L207.5 25.5L207.5 9.5L205.5 9.5Z" fill="#727272"/>
<rect x="82.375" y="36.375" width="68.25" height="68.25" rx="34.125" stroke="#727272" stroke-width="1.75"/>
<path d="M109.94 77.0612L115.773 82.8945M115.773 82.8945L121.607 77.0612M115.773 82.8945V69.7695" stroke="#727272" stroke-width="1.75" stroke-linecap="round" stroke-linejoin="round"/>
<path d="M129.452 79.3807C130.72 78.4891 131.671 77.2167 132.166 75.7482C132.662 74.2796 132.677 72.6913 132.209 71.2137C131.741 69.7362 130.814 68.4462 129.563 67.5311C128.312 66.6159 126.802 66.1232 125.252 66.1244H123.415C122.976 64.4151 122.155 62.8275 121.014 61.4812C119.873 60.1349 118.442 59.065 116.828 58.352C115.213 57.639 113.458 57.3015 111.695 57.365C109.931 57.4284 108.205 57.8911 106.646 58.7182C105.087 59.5453 103.736 60.7152 102.695 62.14C101.653 63.5648 100.949 65.2072 100.634 66.9436C100.32 68.6801 100.403 70.4653 100.878 72.1649C101.353 73.8644 102.208 75.4341 103.377 76.7557" stroke="#727272" stroke-width="1.75" stroke-linecap="round" stroke-linejoin="round"/>
<path d="M90.3739 127.62C89.7339 127.62 89.1379 127.516 88.5859 127.308C88.0419 127.092 87.5659 126.792 87.1579 126.408C86.7579 126.016 86.4459 125.556 86.2219 125.028C85.9979 124.5 85.8859 123.924 85.8859 123.3C85.8859 122.676 85.9979 122.1 86.2219 121.572C86.4459 121.044 86.7619 120.588 87.1699 120.204C87.5779 119.812 88.0539 119.512 88.5979 119.304C89.1419 119.088 89.7379 118.98 90.3859 118.98C91.0739 118.98 91.7019 119.1 92.2699 119.34C92.8379 119.572 93.3179 119.92 93.7099 120.384L92.7019 121.332C92.3979 121.004 92.0579 120.76 91.6819 120.6C91.3059 120.432 90.8979 120.348 90.4579 120.348C90.0179 120.348 89.6139 120.42 89.2459 120.564C88.8859 120.708 88.5699 120.912 88.2979 121.176C88.0339 121.44 87.8259 121.752 87.6739 122.112C87.5299 122.472 87.4579 122.868 87.4579 123.3C87.4579 123.732 87.5299 124.128 87.6739 124.488C87.8259 124.848 88.0339 125.16 88.2979 125.424C88.5699 125.688 88.8859 125.892 89.2459 126.036C89.6139 126.18 90.0179 126.252 90.4579 126.252C90.8979 126.252 91.3059 126.172 91.6819 126.012C92.0579 125.844 92.3979 125.592 92.7019 125.256L93.7099 126.216C93.3179 126.672 92.8379 127.02 92.2699 127.26C91.7019 127.5 91.0699 127.62 90.3739 127.62ZM95.1806 127.5V118.596H96.6806V127.5H95.1806ZM101.481 127.584C100.937 127.584 100.457 127.484 100.041 127.284C99.6254 127.076 99.3014 126.764 99.0694 126.348C98.8374 125.924 98.7214 125.392 98.7214 124.752V121.092H100.221V124.548C100.221 125.124 100.349 125.556 100.605 125.844C100.869 126.124 101.241 126.264 101.721 126.264C102.073 126.264 102.377 126.192 102.633 126.048C102.897 125.904 103.101 125.688 103.245 125.4C103.397 125.112 103.473 124.756 103.473 124.332V121.092H104.973V127.5H103.545V125.772L103.797 126.3C103.581 126.716 103.265 127.036 102.849 127.26C102.433 127.476 101.977 127.584 101.481 127.584ZM110.609 127.584C110.065 127.584 109.581 127.464 109.157 127.224C108.733 126.984 108.397 126.624 108.149 126.144C107.909 125.656 107.789 125.04 107.789 124.296C107.789 123.544 107.913 122.928 108.161 122.448C108.417 121.968 108.757 121.612 109.181 121.38C109.613 121.14 110.089 121.02 110.609 121.02C111.241 121.02 111.797 121.156 112.277 121.428C112.765 121.7 113.149 122.08 113.429 122.568C113.717 123.056 113.861 123.632 113.861 124.296C113.861 124.96 113.717 125.536 113.429 126.024C113.149 126.512 112.765 126.896 112.277 127.176C111.797 127.448 111.241 127.584 110.609 127.584ZM107.057 127.5V118.596H108.557V122.58L108.437 124.284L108.485 125.988V127.5H107.057ZM110.441 126.3C110.801 126.3 111.121 126.22 111.401 126.06C111.689 125.9 111.917 125.668 112.085 125.364C112.253 125.06 112.337 124.704 112.337 124.296C112.337 123.88 112.253 123.524 112.085 123.228C111.917 122.924 111.689 122.692 111.401 122.532C111.121 122.372 110.801 122.292 110.441 122.292C110.081 122.292 109.757 122.372 109.469 122.532C109.181 122.692 108.953 122.924 108.785 123.228C108.617 123.524 108.533 123.88 108.533 124.296C108.533 124.704 108.617 125.06 108.785 125.364C108.953 125.668 109.181 125.9 109.469 126.06C109.757 126.22 110.081 126.3 110.441 126.3ZM118.984 127.5V119.1H120.544V126.18H124.936V127.5H118.984ZM128.797 127.584C128.253 127.584 127.773 127.484 127.357 127.284C126.941 127.076 126.617 126.764 126.385 126.348C126.153 125.924 126.037 125.392 126.037 124.752V121.092H127.537V124.548C127.537 125.124 127.665 125.556 127.921 125.844C128.185 126.124 128.557 126.264 129.037 126.264C129.389 126.264 129.693 126.192 129.949 126.048C130.213 125.904 130.417 125.688 130.561 125.4C130.713 125.112 130.789 124.756 130.789 124.332V121.092H132.289V127.5H130.861V125.772L131.113 126.3C130.897 126.716 130.581 127.036 130.165 127.26C129.749 127.476 129.293 127.584 128.797 127.584ZM133.497 127.5L136.317 123.828L136.293 124.632L133.605 121.092H135.273L137.157 123.612H136.521L138.417 121.092H140.037L137.325 124.632L137.337 123.828L140.145 127.5H138.453L136.473 124.824L137.097 124.908L135.153 127.5H133.497ZM144.173 127.584C143.461 127.584 142.837 127.444 142.301 127.164C141.773 126.876 141.361 126.484 141.065 125.988C140.777 125.492 140.633 124.928 140.633 124.296C140.633 123.656 140.773 123.092 141.053 122.604C141.341 122.108 141.733 121.72 142.229 121.44C142.733 121.16 143.305 121.02 143.945 121.02C144.569 121.02 145.125 121.156 145.613 121.428C146.101 121.7 146.485 122.084 146.765 122.58C147.045 123.076 147.185 123.66 147.185 124.332C147.185 124.396 147.181 124.468 147.173 124.548C147.173 124.628 147.169 124.704 147.161 124.776H141.821V123.78H146.369L145.781 124.092C145.789 123.724 145.713 123.4 145.553 123.12C145.393 122.84 145.173 122.62 144.893 122.46C144.621 122.3 144.305 122.22 143.945 122.22C143.577 122.22 143.253 122.3 142.973 122.46C142.701 122.62 142.485 122.844 142.325 123.132C142.173 123.412 142.097 123.744 142.097 124.128V124.368C142.097 124.752 142.185 125.092 142.361 125.388C142.537 125.684 142.785 125.912 143.105 126.072C143.425 126.232 143.793 126.312 144.209 126.312C144.569 126.312 144.893 126.256 145.181 126.144C145.469 126.032 145.725 125.856 145.949 125.616L146.753 126.54C146.465 126.876 146.101 127.136 145.661 127.32C145.229 127.496 144.733 127.584 144.173 127.584Z" fill="#727272"/>
<rect x="1" y="1" width="231" height="138" rx="9" stroke="#727272" stroke-width="2"/>
</svg>
