<svg width="39" height="38" viewBox="0 0 39 38" fill="none" xmlns="http://www.w3.org/2000/svg">
<path d="M31.2334 26.1743V10.7534C31.2334 7.72461 26.0794 5.35205 19.4998 5.35205C12.947 5.35205 7.80832 7.70547 7.76692 10.7167L7.7667 26.1743C6.82551 26.2682 6.08789 27.0646 6.08789 28.0305C6.08789 28.9897 6.81579 29.7815 7.748 29.8842V32.2127C7.748 32.9368 8.33677 33.526 9.06068 33.526H10.6885C11.4126 33.526 12.0016 32.9368 12.0016 32.2127V29.8961H26.9606V32.2127C26.9606 32.9368 27.5496 33.526 28.2737 33.526H29.9011C30.6252 33.526 31.2141 32.9368 31.2141 32.2127V29.8876C32.1648 29.8026 32.9125 29.0027 32.9125 28.0306C32.9126 27.0645 32.1749 26.2679 31.2334 26.1743ZM9.0717 10.7408C9.09062 8.8066 13.368 6.65712 19.4998 6.65712C25.6361 6.65712 29.9152 8.80943 29.9284 10.7446L29.9271 10.7795L29.9284 26.1648H29.1026V21.6965C29.1026 20.3637 28.0183 19.2794 26.6854 19.2794H12.3147C10.9821 19.2794 9.89798 20.3637 9.89798 21.6965V26.1648H9.07177V10.7959C9.07257 10.7734 9.07235 10.7545 9.0717 10.7408ZM28.2325 26.1648H10.768V21.6965C10.768 20.8434 11.4619 20.1493 12.3147 20.1493H26.6854C27.5385 20.1493 28.2326 20.8434 28.2326 21.6965V26.1648H28.2325ZM10.6966 32.2127C10.6966 32.2176 10.6923 32.2209 10.6885 32.2209L9.053 32.2127V29.896H10.6966V32.2127ZM29.9092 32.2127C29.9092 32.2173 29.9058 32.2209 29.9012 32.2209L28.2656 32.2127V29.896H29.9092V32.2127ZM31.0469 28.591H26.9607H12.0016H7.95317C7.6441 28.591 7.39282 28.3395 7.39282 28.0304C7.39282 27.7211 7.6441 27.4697 7.95317 27.4697H31.0468C31.3561 27.4697 31.6075 27.7212 31.6075 28.0304C31.6076 28.3396 31.3561 28.591 31.0469 28.591Z" fill="#727272"/>
<path d="M13.2637 24.1057C13.9098 24.1057 14.4336 23.5819 14.4336 22.9358C14.4336 22.2897 13.9098 21.7659 13.2637 21.7659C12.6175 21.7659 12.0938 22.2897 12.0938 22.9358C12.0938 23.5819 12.6175 24.1057 13.2637 24.1057Z" fill="#727272"/>
<path d="M25.7363 24.1057C26.3825 24.1057 26.9063 23.5819 26.9063 22.9358C26.9063 22.2897 26.3825 21.7659 25.7363 21.7659C25.0902 21.7659 24.5664 22.2897 24.5664 22.9358C24.5664 23.5819 25.0902 24.1057 25.7363 24.1057Z" fill="#727272"/>
<path d="M22.9827 21.7324H16.0176V23.0374H22.9827V21.7324Z" fill="#727272"/>
<path d="M22.9827 23.7148H16.0176V25.0198H22.9827V23.7148Z" fill="#727272"/>
<path d="M10.4138 18.4154H28.5831C29.0052 18.4154 29.3487 18.0719 29.3487 17.6498V11.5384C29.3487 11.1161 29.0052 10.7726 28.5831 10.7726H10.4138C9.99182 10.7726 9.64838 11.1161 9.64838 11.5384V17.6498C9.64838 18.0719 9.99182 18.4154 10.4138 18.4154ZM28.4787 17.5454H19.9337V11.6427H28.4787V17.5454ZM10.5184 11.6427H19.0637V17.5454H10.5184V11.6427ZM15.8645 10.1147H23.1325C23.7366 10.1147 24.2281 9.62323 24.2281 9.01908V8.82623C24.2281 8.22195 23.7366 7.73047 23.1325 7.73047H15.8645C15.2605 7.73047 14.769 8.22195 14.769 8.82623V9.01908C14.769 9.62315 15.2605 10.1147 15.8645 10.1147ZM15.639 8.82623C15.639 8.70175 15.7401 8.60047 15.8645 8.60047H23.1325C23.257 8.60047 23.3581 8.70182 23.3581 8.82623V9.01908C23.3581 9.14357 23.2569 9.2447 23.1325 9.2447H15.8645C15.7401 9.2447 15.639 9.14357 15.639 9.01908V8.82623ZM7.35274 17.4846V12.8321C7.35274 12.2279 6.86105 11.7364 6.25676 11.7364H5.81625C5.21218 11.7364 4.7207 12.2279 4.7207 12.8321V17.4846C4.7207 18.0889 5.21218 18.5804 5.81625 18.5804H6.25676C6.86098 18.5804 7.35274 18.0889 7.35274 17.4846ZM5.59063 17.4846V12.8321C5.59063 12.7077 5.69177 12.6064 5.81618 12.6064H6.25669C6.38139 12.6064 6.48267 12.7077 6.48267 12.8321V17.4846C6.48267 17.6091 6.38139 17.7104 6.25669 17.7104H5.81618C5.69177 17.7104 5.59063 17.6091 5.59063 17.4846ZM33.1809 11.7364H32.7404C32.1361 11.7364 31.6444 12.2279 31.6444 12.8321V17.4846C31.6444 18.0889 32.1361 18.5804 32.7404 18.5804H33.1809C33.7849 18.5804 34.2764 18.0889 34.2764 17.4846V12.8321C34.2764 12.2279 33.7849 11.7364 33.1809 11.7364ZM33.4064 17.4846C33.4064 17.6091 33.3053 17.7104 33.1809 17.7104H32.7404C32.6157 17.7104 32.5144 17.6091 32.5144 17.4846V12.8321C32.5144 12.7077 32.6157 12.6064 32.7404 12.6064H33.1809C33.3053 12.6064 33.4064 12.7077 33.4064 12.8321V17.4846Z" fill="#727272"/>
</svg>
