<svg width="250" height="250" viewBox="0 0 250 250" fill="none" xmlns="http://www.w3.org/2000/svg">
<g clip-path="url(#clip0_1657_4080)">
<path d="M83.334 161.458C94.3847 161.458 104.983 165.848 112.797 173.662C120.611 181.476 125.001 192.074 125.001 203.125M125.001 203.125C125.001 214.176 120.611 224.774 112.797 232.588C104.983 240.402 94.3847 244.792 83.334 244.792M125.001 203.125C125.001 192.074 129.391 181.476 137.205 173.662C145.019 165.848 155.617 161.458 166.667 161.458M125.001 203.125C125.001 214.176 129.391 224.774 137.205 232.588C145.019 240.402 155.617 244.792 166.667 244.792M72.9173 161.458H177.084M229.167 197.917H177.084M229.167 197.917L244.792 244.792V250M229.167 197.917L244.792 151.042V130.208M192.709 197.917V250M20.834 197.917H72.9173M20.834 197.917L5.20898 244.792V250M20.834 197.917L5.20898 151.042V130.208M57.2923 197.917V250M125.001 98.9583V145.833M125.001 10.4167L20.834 83.3333C20.834 87.3333 22.36 91.3281 25.4121 94.3802C28.4642 97.4323 32.459 98.9583 36.459 98.9583H46.8756C50.8756 98.9583 54.8704 97.4323 57.9225 94.3802C60.9746 91.3281 62.5006 87.3333 62.5006 83.3333C62.5006 87.3333 64.0267 91.3281 67.0788 94.3802C70.1309 97.4323 74.1256 98.9583 78.1256 98.9583H88.5423C92.5423 98.9583 96.5371 97.4323 99.5892 94.3802C102.641 91.3281 104.167 87.3333 104.167 83.3333C104.167 87.3333 105.693 91.3281 108.745 94.3802C111.798 97.4323 115.792 98.9583 119.792 98.9583H130.209C134.209 98.9583 138.204 97.4323 141.256 94.3802C144.308 91.3281 145.834 87.3333 145.834 83.3333C145.834 87.3333 147.36 91.3281 150.412 94.3802C153.464 97.4323 157.459 98.9583 161.459 98.9583H171.876C175.876 98.9583 179.87 97.4323 182.923 94.3802C185.975 91.3281 187.501 87.3333 187.501 83.3333C187.501 87.3333 189.027 91.3281 192.079 94.3802C195.131 97.4323 199.126 98.9583 203.126 98.9583H213.542C217.542 98.9583 221.537 97.4323 224.589 94.3802C227.641 91.3281 229.167 87.3333 229.167 83.3333L125.001 10.4167ZM125.001 10.4167V0" stroke="#727272" stroke-width="6.25" stroke-miterlimit="10" stroke-linejoin="round"/>
</g>
<defs>
<clipPath id="clip0_1657_4080">
<rect width="250" height="250" fill="white"/>
</clipPath>
</defs>
</svg>
