<svg width="250" height="250" viewBox="0 0 250 250" fill="none" xmlns="http://www.w3.org/2000/svg">
<path d="M224.375 41.875H218.125V25.625C218.125 23.55 216.45 21.875 214.375 21.875C212.3 21.875 210.625 23.55 210.625 25.625V41.875H198.125V25.625C198.125 23.55 196.45 21.875 194.375 21.875C192.3 21.875 190.625 23.55 190.625 25.625V41.875H184.375C182.3 41.875 180.625 43.55 180.625 45.625V70.625C180.625 82.45 189.3 92.25 200.625 94.05V185.625C200.625 191.825 195.575 196.875 189.375 196.875C183.175 196.875 178.125 191.825 178.125 185.625V120.625C178.125 110.275 169.725 101.875 159.375 101.875H148.125V35.55C148.125 28 142 21.875 134.45 21.875H44.3C36.75 21.875 30.625 28 30.625 35.55V203.125H29.3C25.2 203.125 21.875 206.45 21.875 210.55V225.625C21.875 227 23 228.125 24.375 228.125H154.375C155.75 228.125 156.875 227 156.875 225.625V210.55C156.875 206.45 153.55 203.125 149.45 203.125H148.125V109.375H159.375C165.575 109.375 170.625 114.425 170.625 120.625V185.625C170.625 195.975 179.025 204.375 189.375 204.375C199.725 204.375 208.125 195.975 208.125 185.625V94.05C219.45 92.25 228.125 82.45 228.125 70.625V45.625C228.125 43.55 226.45 41.875 224.375 41.875ZM38.125 35.55C38.125 32.15 40.9 29.375 44.3 29.375H134.45C137.85 29.375 140.625 32.15 140.625 35.55V201.875H38.125V35.55ZM220.625 70.625C220.625 79.575 213.325 86.875 204.375 86.875C195.425 86.875 188.125 79.575 188.125 70.625V49.375H220.625V70.625ZM208.175 65.625C208.175 67.7 206.475 69.375 204.4 69.375C202.325 69.375 200.625 67.7 200.625 65.625C200.625 63.75 202 62.175 203.85 61.925C204.2 61.875 204.6 61.875 204.95 61.925C206.8 62.175 208.175 63.75 208.175 65.625ZM121.65 134.6C122.05 135.5 121.875 136.55 121.225 137.3L76.225 187.3C75.75 187.85 75.05 188.125 74.375 188.125C74.025 188.125 73.675 188.05 73.325 187.9C72.325 187.45 71.75 186.4 71.875 185.325L76.525 148.125H59.35C58.35 148.125 57.475 147.55 57.075 146.65C56.675 145.75 56.85 144.7 57.5 143.95L102.5 93.95C103.225 93.125 104.4 92.9 105.4 93.35C106.4 93.8 106.975 94.85 106.85 95.925L102.2 133.125H119.375C120.375 133.125 121.25 133.7 121.65 134.6ZM119.4 41.875H59.35C54.525 41.875 50.625 45.8 50.625 50.6V70.625C50.625 75.45 54.55 79.35 59.35 79.35H119.375C124.2 79.35 128.1 75.425 128.1 70.625V50.6C128.125 45.8 124.2 41.875 119.4 41.875ZM120.625 70.65C120.625 71.325 120.075 71.875 119.4 71.875H59.35C58.675 71.875 58.125 71.325 58.125 70.65V50.625C58.125 49.95 58.675 49.4 59.35 49.4H119.375C120.05 49.4 120.6 49.95 120.6 50.625V70.65H120.625Z" fill="#727272"/>
</svg>
