<svg width="38" height="38" viewBox="0 0 38 38" fill="none" xmlns="http://www.w3.org/2000/svg">
<g clip-path="url(#clip0_449_1026)">
<path d="M37.1958 25.9361C37.084 25.5176 36.8159 25.1676 36.4409 24.9508C36.0659 24.7338 35.6289 24.676 35.21 24.788L30.7322 25.9878L30.1769 23.9153L30.9488 23.7085C31.2582 23.6255 31.4419 23.3075 31.3589 22.9981C31.276 22.6887 30.9579 22.5052 30.6486 22.588L29.3177 22.9446C29.3173 22.9447 29.3168 22.9447 29.3164 22.9449C29.316 22.945 29.3155 22.9452 29.3151 22.9453L27.9842 23.302C27.6748 23.3849 27.4911 23.7029 27.5741 24.0123C27.6435 24.2714 27.8779 24.4424 28.134 24.4424C28.1837 24.4424 28.2342 24.4359 28.2844 24.4225L29.0564 24.2157L29.6117 26.2882L13.419 30.627L12.8638 28.5546L13.6357 28.3477C13.9452 28.2648 14.1288 27.9468 14.0459 27.6374C13.9629 27.328 13.6449 27.1445 13.3355 27.2272L12.0041 27.5839C12.0038 27.584 12.0035 27.584 12.0033 27.5841C12.003 27.5842 12.0027 27.5843 12.0025 27.5844L10.6711 27.9411C10.3616 28.024 10.178 28.342 10.2609 28.6514C10.3304 28.9106 10.5647 29.0815 10.8209 29.0815C10.8706 29.0815 10.921 29.0751 10.9713 29.0616L11.7433 28.8548L12.2986 30.9273L7.82131 32.1269C7.40284 32.2387 7.05281 32.5068 6.83596 32.8819C6.61911 33.2569 6.56126 33.6938 6.67305 34.1124C6.78485 34.5309 7.05295 34.8809 7.428 35.0977C7.67812 35.2423 7.95572 35.3163 8.23717 35.3163C8.37767 35.3163 8.51912 35.2978 8.65854 35.2605L20.1512 32.1811L19.4984 35.3412C19.4632 35.5119 19.5066 35.6896 19.6168 35.8248C19.727 35.96 19.8921 36.0385 20.0665 36.0385H24.3403C24.5146 36.0385 24.6799 35.96 24.79 35.8248C24.9001 35.6896 24.9436 35.512 24.9083 35.3412L24.0404 31.139L36.0477 27.9217C36.9116 27.6906 37.4266 26.7999 37.1958 25.9361ZM23.6282 34.8783H20.7784L21.4051 31.845L22.9179 31.4396L23.6282 34.8783ZM36.0287 26.5858C35.967 26.6927 35.8673 26.769 35.7478 26.8009L8.35904 34.1397C8.23985 34.1714 8.11537 34.155 8.00872 34.0933C7.90185 34.0315 7.82559 33.9318 7.79376 33.8128C7.728 33.5667 7.87467 33.3131 8.1211 33.2474L30.4717 27.2585C30.4718 27.2584 30.472 27.2584 30.4722 27.2584C30.4724 27.2584 30.4726 27.2583 30.4728 27.2582L35.5099 25.9085C35.5496 25.898 35.5899 25.8927 35.6298 25.8927C35.71 25.8927 35.7891 25.9138 35.8602 25.9549C35.967 26.0166 36.0433 26.1163 36.0752 26.2355C36.1069 26.3546 36.0905 26.479 36.0287 26.5858ZM6.76578 20.6856C6.76578 20.2097 6.41778 19.8144 5.96306 19.7383L9.01415 6.0861H11.1249V16.4551H10.6379C10.0249 16.4551 9.52629 16.9538 9.52629 17.5668V18.8433C9.52629 19.4562 10.0249 19.9548 10.6379 19.9548H19.1582C19.7712 19.9548 20.2698 19.4562 20.2698 18.8433V17.5668C20.2698 16.9538 19.7712 16.4551 19.1582 16.4551H18.6712V6.0861H20.782L23.8322 19.7344C23.3798 19.7985 23.0304 20.1871 23.0304 20.657V21.6819C23.0304 22.1964 23.4488 22.6149 23.9633 22.6149H27.5721C28.0866 22.6149 28.505 22.1964 28.505 21.6819V20.657C28.505 20.1426 28.0866 19.7241 27.5721 19.7241H27.1479L23.9194 5.27751C23.5986 3.84223 22.3506 2.83984 20.8844 2.83984H8.91178C7.44554 2.83984 6.19753 3.84223 5.87686 5.27744L2.64822 19.724H2.25266C1.72246 19.724 1.29102 20.1554 1.29102 20.6856V21.7935C1.29102 22.3237 1.72239 22.7552 2.25266 22.7552H5.80414C6.33433 22.7552 6.76578 22.3238 6.76578 21.7935V20.6856ZM19.1098 18.7949H10.6863V17.6152H19.1098V18.7949ZM17.5112 16.4551H12.2849V6.0861H17.5112V16.4551ZM27.3451 21.4548H24.1904V20.884H27.3451V21.4548ZM7.00894 5.53054C7.21028 4.62929 7.99277 3.99992 8.91178 3.99992H20.8844C21.8034 3.99992 22.5859 4.62936 22.7873 5.53054L25.9593 19.724H25.0186L21.8901 5.72592C21.7834 5.2475 21.3792 4.9261 20.8844 4.9261H8.91171C8.41711 4.9261 8.01293 5.2475 7.90599 5.72571L4.77761 19.724H3.83685L7.00894 5.53054ZM5.60578 21.5952H2.45102V20.884H5.60578V21.5952Z" fill="#727272"/>
</g>
<defs>
<clipPath id="clip0_449_1026">
<rect width="37.12" height="37.12" fill="white" transform="translate(0.710938 0.87915)"/>
</clipPath>
</defs>
</svg>
