<svg width="250" height="250" viewBox="0 0 250 250" fill="none" xmlns="http://www.w3.org/2000/svg">
<path d="M225.75 215.5C225 214.75 224 214.75 223.25 215.5C222.5 216.25 222.5 217.25 223.25 218L226 220.75C226.75 221.5 227.75 221.5 228.5 220.75C229.25 220 229.25 219 228.5 218.25L225.75 215.5ZM235.25 225C234.5 224.25 233.5 224.25 232.75 225C232 225.75 232 226.75 232.75 227.5L235.5 230.25C236.25 231 237.25 231 238 230.25C238.75 229.5 238.75 228.5 238 227.75L235.25 225ZM235.5 215.5L232.75 218.25C232 219 232 220 232.75 220.75C233.5 221.5 234.5 221.5 235.25 220.75L238 218C238.75 217.25 238.75 216.25 238 215.5C237.25 214.75 236 214.75 235.5 215.5ZM226 225L223.25 227.75C222.5 228.5 222.5 229.5 223.25 230.25C224 231 225 231 225.75 230.25L228.5 227.5C229.25 226.75 229.25 225.75 228.5 225C227.75 224.25 226.75 224.25 226 225ZM229.5 221.75C229 222.25 229 223.25 229.5 224C230 224.5 231 224.5 231.75 224C232.5 223.5 232.25 222.5 231.75 221.75C231.25 221 230 221.25 229.5 221.75ZM15 26C15.75 26.75 16.75 26.75 17.5 26C18.25 25.25 18.25 24.25 17.5 23.5L14.75 20.75C14 20 13 20 12.25 20.75C11.5 21.5 11.5 22.5 12.25 23.25L15 26ZM21.75 32.75L24.5 35.5C25.25 36.25 26.25 36.25 27 35.5C27.75 34.75 27.75 33.75 27 33L24.25 30.25C23.5 29.5 22.5 29.5 21.75 30.25C21 31 21 32 21.75 32.75ZM24.25 26L27 23.25C27.75 22.5 27.75 21.5 27 20.75C26.25 20 25.25 20 24.5 20.75L21.75 23.5C21 24.25 21 25.25 21.75 26C22.5 26.75 23.5 26.75 24.25 26ZM12.25 35.5C13 36.25 14 36.25 14.75 35.5L17.5 32.75C18.25 32 18.25 31 17.5 30.25C16.75 29.5 15.75 29.5 15 30.25L12.25 33C11.75 33.75 11.75 34.75 12.25 35.5Z" fill="#727272"/>
<path d="M19.748 29.75C20.5765 29.75 21.248 29.0784 21.248 28.25C21.248 27.4216 20.5765 26.75 19.748 26.75C18.9196 26.75 18.248 27.4216 18.248 28.25C18.248 29.0784 18.9196 29.75 19.748 29.75Z" fill="#727272"/>
<path d="M194 35C194 30.75 190.5 27.5 186.25 27.5C182 27.5 178.75 31 178.75 35.25C178.75 39.5 182.25 42.75 186.5 42.75C190.75 42.5 194.25 39 194 35ZM182.5 35.25C182.5 33 184.25 31.25 186.5 31C188.75 31 190.5 32.75 190.75 35C190.75 37.25 189 39 186.75 39.25C184.5 39.25 182.5 37.5 182.5 35.25ZM71.7496 222.25C67.4996 222.25 64.2496 225.75 64.2496 229.75C64.2496 234 67.7496 237.25 71.7496 237.25C75.9996 237.25 79.2496 233.75 79.2496 229.75C79.4996 225.75 75.9996 222.25 71.7496 222.25ZM71.7496 234C69.4996 234 67.7496 232.25 67.7496 230C67.7496 227.75 69.4996 226 71.7496 226C73.9996 226 75.7496 227.75 75.7496 230C75.7496 232.25 73.9996 234 71.7496 234ZM36.9996 224.75C36.7496 224.5 36.7496 224.25 36.9996 224L39.7496 217.5C40.2496 216.25 39.9996 215 39.2496 214C38.4996 213 37.2496 212.75 35.9996 213L28.9996 215C28.7496 215 28.4996 215 28.2496 214.75L22.7496 210.25C21.7496 209.5 20.4996 209.25 19.2496 209.75C18.2496 210.25 17.4996 211.25 17.4996 212.5L17.2496 219.5C17.2496 219.75 16.9996 220 16.9996 220L10.9996 223.75C9.99963 224.5 9.24963 225.5 9.49963 226.75C9.49963 228 10.4996 229 11.4996 229.5L18.2496 232C18.4996 232 18.7496 232.25 18.7496 232.5L20.4996 239.5C20.7496 240.75 21.7496 241.75 22.9996 242C23.2496 242 23.4996 242 23.7496 242C24.7496 242 25.7496 241.5 26.2496 240.75L30.7496 235.25C30.9996 235 31.2496 235 31.4996 235L38.4996 235.5C39.7496 235.5 40.9996 235 41.4996 234C42.2496 233 41.9996 231.5 41.4996 230.5L36.9996 224.75ZM38.9996 232.75C38.9996 232.75 38.7496 233.25 38.2496 233.25L31.2496 232.75C30.2496 232.75 29.2496 233.25 28.4996 234L23.9996 239.5C23.7496 239.75 23.2496 239.75 23.2496 239.75C22.9996 239.75 22.7496 239.5 22.7496 239.25L20.9996 232.25C20.7496 231.25 19.9996 230.5 18.7496 230L11.9996 227.5C11.4996 227.25 11.4996 227 11.4996 226.75C11.4996 226.5 11.4996 226.25 11.7496 226L17.9996 222.5C18.9996 222 19.4996 221 19.4996 219.75L19.9996 212.75C19.9996 212.25 20.2496 212.25 20.4996 212H20.7496C20.9996 212 20.9996 212 21.2496 212.25L26.7496 216.75C27.4996 217.5 28.7496 217.75 29.7496 217.5L36.4996 215.5C36.9996 215.5 37.2496 215.5 37.2496 215.75C37.2496 215.75 37.4996 216.25 37.4996 216.5L34.7496 223C34.2496 224 34.4996 225.25 34.9996 226L38.9996 232C39.2496 232.5 38.9996 232.75 38.9996 232.75ZM239.5 23.25C234 23.25 228.75 20.25 226 15.75C224.5 13.25 223.75 10.5 223.75 7.75C223.75 7 223.25 6.5 222.5 6.5H222C221.25 6.5 220.75 7 220.75 7.75C220.75 16.25 213.75 23.25 205.25 23.25C204.5 23.25 204 23.75 204 24.5V25C204 25.75 204.5 26.25 205.25 26.25C207.75 26.25 210.5 27 212.75 28.25C216.5 30 220.75 35.5 220.75 41.75C220.75 42.5 221.25 43 222 43H222.5C223.25 43 223.75 42.5 223.75 41.75C223.75 33.25 230.75 26.25 239.25 26.25C240 26.25 240.5 25.75 240.5 25V24.5C240.75 23.75 240.25 23.25 239.5 23.25ZM222.5 35.75C220.75 31 217.5 27.25 214.25 26C213.5 25.5 212.5 25.25 211.75 24.75C216.75 23 221 18.75 222.75 13.75C223.25 14.75 223.75 16 224.25 17C226.25 20.5 229.75 23.25 233.75 24.75C228.25 26.5 224.25 30.5 222.5 35.75Z" fill="#727272"/>
<path d="M203.998 210.25V199.25H224.998C230.998 199.25 235.998 194.25 235.998 188.25C235.998 158 235.998 92.75 235.998 62.75C235.998 56.75 230.998 51.75 224.998 51.75H154.498V40C158.248 39.75 161.498 36.75 161.498 32.75V12.25C161.498 8.25 158.248 5 154.248 5H149.748C145.748 5 142.498 8.25 142.498 12.25V32.5C142.498 36.25 145.498 39.5 149.498 39.75V51.5H122.748V39.75C126.498 39.5 129.748 36.5 129.748 32.5V12.25C129.748 8.25 126.498 5 122.498 5H117.998C113.998 5 110.748 8.25 110.748 12.25V32.5C110.748 36.25 113.748 39.5 117.748 39.75V51.5H90.998V39.75C94.748 39.5 97.998 36.5 97.998 32.5V12.25C97.998 8.25 94.748 5 90.748 5H86.248C82.248 5 78.998 8.25 78.998 12.25V32.5C78.998 36.25 81.998 39.5 85.998 39.75V51.5H59.248V39.75C62.998 39.5 66.248 36.5 66.248 32.5V12.25C66.248 8.25 62.998 5 58.998 5H54.498C50.498 5 47.248 8.25 47.248 12.25V32.5C47.248 36.25 50.248 39.5 54.248 39.75V51.5H21.748C15.748 51.5 10.748 56.5 10.748 62.5C10.748 92.75 10.748 158 10.748 188C10.748 194 15.748 199 21.748 199H103.748V210C99.998 210.25 96.748 213.25 96.748 217.25V237.5C96.748 241.5 99.998 244.75 103.998 244.75H108.498C112.498 244.75 115.748 241.5 115.748 237.5V217.5C115.748 213.75 112.748 210.5 108.748 210.25V199.25H135.498V210.25C131.748 210.5 128.498 213.5 128.498 217.5V237.75C128.498 241.75 131.748 245 135.748 245H140.248C144.248 245 147.498 241.75 147.498 237.75V217.5C147.498 213.75 144.498 210.5 140.498 210.25V199.25H167.248V210.25C163.498 210.5 160.248 213.5 160.248 217.5V237.75C160.248 241.75 163.498 245 167.498 245H171.998C175.998 245 179.248 241.75 179.248 237.75V217.5C179.248 213.75 176.248 210.5 172.248 210.25V199.25H198.998V210.25C195.248 210.5 191.998 213.5 191.998 217.5V237.75C191.998 241.75 195.248 245 199.248 245H203.748C207.748 245 210.998 241.75 210.998 237.75V217.5C210.998 213.5 207.998 210.5 203.998 210.25ZM83.998 32.5V12.25C83.998 11 84.998 10 86.248 10H90.748C91.998 10 92.998 11 92.998 12.25V32.5C92.998 33.75 91.998 34.75 90.748 34.75H86.248C84.998 34.75 83.998 33.75 83.998 32.5ZM52.248 32.5V12.25C52.248 11 53.248 10 54.498 10H58.998C60.248 10 61.248 11 61.248 12.25V32.5C61.248 33.75 60.248 34.75 58.998 34.75H54.498C53.248 34.75 52.248 33.75 52.248 32.5ZM15.748 97.5H33.248V153.25H15.748V97.5ZM110.748 217.5V237.75C110.748 239 109.748 240 108.498 240H103.998C102.748 240 101.748 239 101.748 237.75V217.5C101.748 216.25 102.748 215.25 103.998 215.25H108.498C109.748 215.25 110.748 216.25 110.748 217.5ZM120.998 159.5C103.248 158.25 89.248 143.5 89.248 125.5C89.248 107.5 103.248 92.75 120.998 91.5V159.5ZM120.998 86.25C100.498 87.5 84.248 104.5 84.248 125.25C84.248 146 100.498 163 120.998 164.25V194H21.748C18.498 194 15.748 191.25 15.748 188V158H35.748C37.248 158 38.248 157 38.248 155.5V95C38.248 93.5 37.248 92.5 35.748 92.5H15.748V62.5C15.748 59.25 18.498 56.5 21.748 56.5H120.998V86.25ZM117.998 34.75C116.748 34.75 115.748 33.75 115.748 32.5V12.25C115.748 11 116.748 10 117.998 10H122.498C123.748 10 124.748 11 124.748 12.25V32.5C124.748 33.75 123.748 34.75 122.498 34.75H117.998ZM231.248 153.25H213.748V97.5H231.248V153.25ZM147.748 32.5V12.25C147.748 11 148.748 10 149.998 10H154.498C155.748 10 156.748 11 156.748 12.25V32.5C156.748 33.75 155.748 34.75 154.498 34.75H149.998C148.498 34.75 147.748 33.75 147.748 32.5ZM125.998 91.25C143.498 92.75 157.498 107.5 157.498 125.5C157.498 143.5 143.498 158.25 125.748 159.5V91.25H125.998ZM142.498 217.5V237.75C142.498 239 141.498 240 140.248 240H135.748C134.498 240 133.498 239 133.498 237.75V217.5C133.498 216.25 134.498 215.25 135.748 215.25H140.248C141.498 215.25 142.498 216.25 142.498 217.5ZM174.248 217.5V237.75C174.248 239 173.248 240 171.998 240H167.498C166.248 240 165.248 239 165.248 237.75V217.5C165.248 216.25 166.248 215.25 167.498 215.25H171.998C173.248 215.25 174.248 216.25 174.248 217.5ZM125.998 194.25V164.5C146.248 163.25 162.498 146.25 162.498 125.5C162.498 104.75 146.248 87.75 125.748 86.5V56.5H224.998C228.248 56.5 230.998 59.25 230.998 62.5V92.5H210.998C209.498 92.5 208.498 93.5 208.498 95V155.75C208.498 157.25 209.498 158.25 210.998 158.25H230.998V188.25C230.998 191.5 228.248 194.25 224.998 194.25H125.998ZM205.998 237.75C205.998 239 204.998 240 203.748 240H199.248C197.998 240 196.998 239 196.998 237.75V217.5C196.998 216.25 197.998 215.25 199.248 215.25H203.748C204.998 215.25 205.998 216.25 205.998 217.5V237.75Z" fill="#727272"/>
</svg>
