<svg width="250" height="250" viewBox="0 0 250 250" fill="none" xmlns="http://www.w3.org/2000/svg">
<path d="M234.376 161.458C237.256 161.458 239.585 159.124 239.585 156.249V31.2493C239.585 28.3743 237.256 26.041 234.376 26.041H15.6263C12.7461 26.041 10.418 28.3743 10.418 31.2493V156.249C10.418 159.124 12.7461 161.458 15.6263 161.458H46.8763V166.666C46.8763 198.255 72.5794 223.958 104.168 223.958H192.71V229.166C192.71 232.041 195.038 234.374 197.918 234.374H213.543C216.423 234.374 218.751 232.041 218.751 229.166H234.376C237.256 229.166 239.585 226.833 239.585 223.958V182.291C239.585 179.416 237.256 177.083 234.376 177.083H218.751C218.751 174.208 216.423 171.874 213.543 171.874H197.918C195.038 171.874 192.71 174.208 192.71 177.083V182.291H104.168C95.5534 182.291 88.543 175.281 88.543 166.666V161.458H234.376ZM218.751 187.499H229.168V218.749H218.751V187.499ZM203.126 182.291H208.335V223.958H203.126V182.291ZM46.8763 151.041H20.8346V36.4577H229.168V151.041H88.543V113.13C98.2253 106.343 104.168 95.2285 104.168 83.3327C104.168 63.2285 87.8086 46.8743 67.7096 46.8743C47.6107 46.8743 31.2513 63.2285 31.2513 83.3327C31.2513 95.2285 37.194 106.343 46.8763 113.13V151.041ZM192.71 213.541H104.168C78.319 213.541 57.293 192.51 57.293 166.666V83.3327C57.293 79.4941 59.4023 76.1712 62.5013 74.3639V166.666C62.5013 189.64 81.194 208.333 104.168 208.333H192.71V213.541ZM104.168 192.708H192.71V197.916H104.168C86.9336 197.916 72.918 183.9 72.918 166.666V74.3639C76.0169 76.1712 78.1263 79.4941 78.1263 83.3327V166.666C78.1263 181.025 89.8086 192.708 104.168 192.708ZM67.7096 62.4994C56.22 62.4994 46.8763 71.8431 46.8763 83.3327V98.8796C43.5638 94.4421 41.668 89.0098 41.668 83.3327C41.668 68.9733 53.3503 57.291 67.7096 57.291C82.069 57.291 93.7513 68.9733 93.7513 83.3327C93.7513 89.0098 91.8555 94.4421 88.543 98.8796V83.3327C88.543 71.8431 79.1992 62.4994 67.7096 62.4994ZM208.335 52.0827C208.335 49.2077 210.668 46.8743 213.543 46.8743C216.418 46.8743 218.751 49.2077 218.751 52.0827C218.751 54.9577 216.418 57.291 213.543 57.291C210.668 57.291 208.335 54.9577 208.335 52.0827ZM187.501 52.0827C187.501 49.2077 189.835 46.8743 192.71 46.8743C195.585 46.8743 197.918 49.2077 197.918 52.0827C197.918 54.9577 195.585 57.291 192.71 57.291C189.835 57.291 187.501 54.9577 187.501 52.0827ZM166.668 52.0827C166.668 49.2077 169.001 46.8743 171.876 46.8743C174.751 46.8743 177.085 49.2077 177.085 52.0827C177.085 54.9577 174.751 57.291 171.876 57.291C169.001 57.291 166.668 54.9577 166.668 52.0827ZM145.835 52.0827C145.835 49.2077 148.168 46.8743 151.043 46.8743C153.918 46.8743 156.251 49.2077 156.251 52.0827C156.251 54.9577 153.918 57.291 151.043 57.291C148.168 57.291 145.835 54.9577 145.835 52.0827ZM125.001 52.0827C125.001 49.2077 127.335 46.8743 130.21 46.8743C133.085 46.8743 135.418 49.2077 135.418 52.0827C135.418 54.9577 133.085 57.291 130.21 57.291C127.335 57.291 125.001 54.9577 125.001 52.0827ZM208.335 72.916C208.335 70.041 210.668 67.7077 213.543 67.7077C216.418 67.7077 218.751 70.041 218.751 72.916C218.751 75.791 216.418 78.1244 213.543 78.1244C210.668 78.1244 208.335 75.791 208.335 72.916ZM187.501 72.916C187.501 70.041 189.835 67.7077 192.71 67.7077C195.585 67.7077 197.918 70.041 197.918 72.916C197.918 75.791 195.585 78.1244 192.71 78.1244C189.835 78.1244 187.501 75.791 187.501 72.916ZM166.668 72.916C166.668 70.041 169.001 67.7077 171.876 67.7077C174.751 67.7077 177.085 70.041 177.085 72.916C177.085 75.791 174.751 78.1244 171.876 78.1244C169.001 78.1244 166.668 75.791 166.668 72.916ZM145.835 72.916C145.835 70.041 148.168 67.7077 151.043 67.7077C153.918 67.7077 156.251 70.041 156.251 72.916C156.251 75.791 153.918 78.1244 151.043 78.1244C148.168 78.1244 145.835 75.791 145.835 72.916ZM125.001 72.916C125.001 70.041 127.335 67.7077 130.21 67.7077C133.085 67.7077 135.418 70.041 135.418 72.916C135.418 75.791 133.085 78.1244 130.21 78.1244C127.335 78.1244 125.001 75.791 125.001 72.916ZM208.335 93.7494C208.335 90.8744 210.668 88.541 213.543 88.541C216.418 88.541 218.751 90.8744 218.751 93.7494C218.751 96.6244 216.418 98.9577 213.543 98.9577C210.668 98.9577 208.335 96.6244 208.335 93.7494ZM187.501 93.7494C187.501 90.8744 189.835 88.541 192.71 88.541C195.585 88.541 197.918 90.8744 197.918 93.7494C197.918 96.6244 195.585 98.9577 192.71 98.9577C189.835 98.9577 187.501 96.6244 187.501 93.7494ZM166.668 93.7494C166.668 90.8744 169.001 88.541 171.876 88.541C174.751 88.541 177.085 90.8744 177.085 93.7494C177.085 96.6244 174.751 98.9577 171.876 98.9577C169.001 98.9577 166.668 96.6244 166.668 93.7494ZM145.835 93.7494C145.835 90.8744 148.168 88.541 151.043 88.541C153.918 88.541 156.251 90.8744 156.251 93.7494C156.251 96.6244 153.918 98.9577 151.043 98.9577C148.168 98.9577 145.835 96.6244 145.835 93.7494ZM125.001 93.7494C125.001 90.8744 127.335 88.541 130.21 88.541C133.085 88.541 135.418 90.8744 135.418 93.7494C135.418 96.6244 133.085 98.9577 130.21 98.9577C127.335 98.9577 125.001 96.6244 125.001 93.7494ZM208.335 114.583C208.335 111.708 210.668 109.374 213.543 109.374C216.418 109.374 218.751 111.708 218.751 114.583C218.751 117.458 216.418 119.791 213.543 119.791C210.668 119.791 208.335 117.458 208.335 114.583ZM187.501 114.583C187.501 111.708 189.835 109.374 192.71 109.374C195.585 109.374 197.918 111.708 197.918 114.583C197.918 117.458 195.585 119.791 192.71 119.791C189.835 119.791 187.501 117.458 187.501 114.583ZM166.668 114.583C166.668 111.708 169.001 109.374 171.876 109.374C174.751 109.374 177.085 111.708 177.085 114.583C177.085 117.458 174.751 119.791 171.876 119.791C169.001 119.791 166.668 117.458 166.668 114.583ZM145.835 114.583C145.835 111.708 148.168 109.374 151.043 109.374C153.918 109.374 156.251 111.708 156.251 114.583C156.251 117.458 153.918 119.791 151.043 119.791C148.168 119.791 145.835 117.458 145.835 114.583ZM125.001 114.583C125.001 111.708 127.335 109.374 130.21 109.374C133.085 109.374 135.418 111.708 135.418 114.583C135.418 117.458 133.085 119.791 130.21 119.791C127.335 119.791 125.001 117.458 125.001 114.583ZM208.335 135.416C208.335 132.541 210.668 130.208 213.543 130.208C216.418 130.208 218.751 132.541 218.751 135.416C218.751 138.291 216.418 140.624 213.543 140.624C210.668 140.624 208.335 138.291 208.335 135.416ZM187.501 135.416C187.501 132.541 189.835 130.208 192.71 130.208C195.585 130.208 197.918 132.541 197.918 135.416C197.918 138.291 195.585 140.624 192.71 140.624C189.835 140.624 187.501 138.291 187.501 135.416ZM166.668 135.416C166.668 132.541 169.001 130.208 171.876 130.208C174.751 130.208 177.085 132.541 177.085 135.416C177.085 138.291 174.751 140.624 171.876 140.624C169.001 140.624 166.668 138.291 166.668 135.416ZM145.835 135.416C145.835 132.541 148.168 130.208 151.043 130.208C153.918 130.208 156.251 132.541 156.251 135.416C156.251 138.291 153.918 140.624 151.043 140.624C148.168 140.624 145.835 138.291 145.835 135.416ZM125.001 135.416C125.001 132.541 127.335 130.208 130.21 130.208C133.085 130.208 135.418 132.541 135.418 135.416C135.418 138.291 133.085 140.624 130.21 140.624C127.335 140.624 125.001 138.291 125.001 135.416Z" fill="#727272"/>
</svg>
