<?xml version="1.0" encoding="UTF-8"?>
<svg version="1.1" xmlns="http://www.w3.org/2000/svg" width="512" height="512">
<path d="M0 0 C2.79167128 -0.37489682 2.79167128 -0.37489682 6.44060516 -0.37473011 C7.11259801 -0.37879084 7.78459086 -0.38285156 8.47694713 -0.38703534 C10.75107301 -0.39705964 13.02459306 -0.38551013 15.29870605 -0.3742218 C16.93655516 -0.3769597 18.57440251 -0.38100945 20.21224546 -0.38626546 C24.73035862 -0.39690078 29.24827534 -0.38869213 33.76638007 -0.37751496 C38.63214993 -0.36870511 43.49789318 -0.37710711 48.36366272 -0.38337708 C57.90257805 -0.39288596 67.44141797 -0.38624699 76.98032773 -0.37411413 C88.07796588 -0.36052223 99.17558589 -0.3621295 110.27323025 -0.36424746 C130.06807398 -0.3674404 149.86288177 -0.35575217 169.65771484 -0.33618164 C188.88591608 -0.31717619 208.1140752 -0.31009372 227.34228516 -0.31567383 C248.25722363 -0.32172544 269.17214355 -0.3215659 290.08708048 -0.310188 C292.31534227 -0.30898065 294.54360406 -0.30777466 296.77186584 -0.30657005 C297.86834622 -0.30596651 298.9648266 -0.30536298 300.09453365 -0.30474115 C307.83865424 -0.30085441 315.58276794 -0.30125854 323.32688904 -0.3031559 C332.75841875 -0.30527344 342.18991148 -0.30008737 351.62143075 -0.28554235 C356.43779263 -0.27827615 361.25410052 -0.27424018 366.070467 -0.27878571 C370.47330767 -0.28284002 374.87603651 -0.27776017 379.27886015 -0.26515963 C380.87774605 -0.26221376 382.47664238 -0.26269053 384.0755257 -0.26680271 C386.23695156 -0.27185998 388.39799599 -0.26478891 390.55939484 -0.25447559 C392.36561711 -0.25317543 392.36561711 -0.25317543 394.20832872 -0.251849 C397 0 397 0 399 2 C399.25069833 4.79167128 399.25069833 4.79167128 399.25168228 8.44060516 C399.25458916 9.11259801 399.25749604 9.78459086 399.26049101 10.47694713 C399.26784715 12.75095565 399.26082182 15.02469906 399.25396729 17.29870605 C399.25626951 18.93655394 399.25944442 20.57440079 399.26342177 22.21224546 C399.27181125 26.73031817 399.26762578 31.24830696 399.26144934 35.76638007 C399.25694274 40.63214689 399.26389966 45.49789881 399.26940918 50.36366272 C399.27832407 59.9025611 399.27637187 69.44142809 399.2705839 78.98032773 C399.26607563 86.72959917 399.26545088 94.47886178 399.26763153 102.22813416 C399.267938 103.32910414 399.26824446 104.43007413 399.26856022 105.56440684 C399.26919964 107.80068132 399.26984806 110.03695579 399.2705054 112.27323025 C399.27621483 133.2656596 399.2696412 154.25807151 399.25890467 175.250498 C399.2499686 193.28110245 399.25152047 211.31168116 399.26074219 229.34228516 C399.27143401 250.25722125 399.27566545 271.17214204 399.26951766 292.08708048 C399.26888053 294.31534226 399.26825179 296.54360405 399.26763153 298.77186584 C399.26732298 299.86834622 399.26701443 300.9648266 399.26669653 302.09453365 C399.26496632 309.83865584 399.26789169 317.58276835 399.27259064 325.32688904 C399.27818741 334.75841533 399.27670849 344.18990831 399.26602915 353.62143075 C399.26075615 358.43779483 399.25874324 363.25410327 399.26532745 368.070467 C399.27125553 372.47330386 399.26806422 376.87603315 399.25737235 381.27886015 C399.25512489 382.87774758 399.25630442 384.47664396 399.26112393 386.0755257 C399.26714293 388.23694746 399.26103199 390.39799324 399.25168228 392.55939484 C399.25135758 393.76354302 399.25103287 394.9676912 399.25069833 396.20832872 C399 399 399 399 397 401 C394.20832872 401.25069833 394.20832872 401.25069833 390.55939484 401.25168228 C389.55140556 401.2560426 389.55140556 401.2560426 388.52305287 401.26049101 C386.24904435 401.26784715 383.97530094 401.26082182 381.70129395 401.25396729 C380.06344606 401.25626951 378.42559921 401.25944442 376.78775454 401.26342177 C372.26968183 401.27181125 367.75169304 401.26762578 363.23361993 401.26144934 C358.36785311 401.25694274 353.50210119 401.26389966 348.63633728 401.26940918 C339.0974389 401.27832407 329.55857191 401.27637187 320.01967227 401.2705839 C312.27040083 401.26607563 304.52113822 401.26545088 296.77186584 401.26763153 C295.12041086 401.26809123 295.12041086 401.26809123 293.43559316 401.26856022 C291.19931868 401.26919964 288.96304421 401.26984806 286.72676975 401.2705054 C265.7343404 401.27621483 244.74192849 401.2696412 223.749502 401.25890467 C205.71889755 401.2499686 187.68831884 401.25152047 169.65771484 401.26074219 C148.74277875 401.27143401 127.82785796 401.27566545 106.91291952 401.26951766 C104.68465774 401.26888053 102.45639595 401.26825179 100.22813416 401.26763153 C99.13165378 401.26732298 98.0351734 401.26701443 96.90546635 401.26669653 C89.16134416 401.26496632 81.41723165 401.26789169 73.67311096 401.27259064 C64.24158467 401.27818741 54.81009169 401.27670849 45.37856925 401.26602915 C40.56220517 401.26075615 35.74589673 401.25874324 30.929533 401.26532745 C26.52669614 401.27125553 22.12396685 401.26806422 17.72113985 401.25737235 C16.12225242 401.25512489 14.52335604 401.25630442 12.9244743 401.26112393 C10.76305254 401.26714293 8.60200676 401.26103199 6.44060516 401.25168228 C5.23645698 401.25135758 4.0323088 401.25103287 2.79167128 401.25069833 C0 401 0 401 -2 399 C-2.25069833 396.21589142 -2.25069833 396.21589142 -2.25168228 392.57780552 C-2.25458916 391.90780064 -2.25749604 391.23779576 -2.26049101 390.54748771 C-2.26784707 388.28023164 -2.26082185 386.01324148 -2.25396729 383.74598694 C-2.25626951 382.11297654 -2.25944443 380.47996718 -2.26342177 378.84696001 C-2.27181124 374.3422194 -2.26762577 369.83756297 -2.26144934 365.33282197 C-2.2569427 360.48135106 -2.2638997 355.6298951 -2.26940918 350.77842712 C-2.27832422 341.26726719 -2.27637174 331.75613873 -2.2705839 322.24497754 C-2.26607543 314.51764451 -2.26545097 306.79032034 -2.26763153 299.06298637 C-2.267938 297.96508047 -2.26824446 296.86717457 -2.26856022 295.73599879 C-2.26919964 293.50592705 -2.26984806 291.27585531 -2.2705054 289.04578357 C-2.27621494 268.11102796 -2.26964116 247.17628983 -2.25890467 226.24153709 C-2.24996984 208.26298536 -2.25151943 190.28445946 -2.26074219 172.3059082 C-2.27143595 151.44992616 -2.27566425 130.59395946 -2.26951766 109.73797506 C-2.26888053 107.51559317 -2.26825179 105.29321128 -2.26763153 103.07082939 C-2.26732298 101.97725384 -2.26701443 100.88367828 -2.26669653 99.75696408 C-2.26496681 92.03585401 -2.26789067 84.31475366 -2.27259064 76.5936451 C-2.27818961 67.18849779 -2.27670386 57.78338388 -2.26602915 48.37824041 C-2.26075895 43.57592926 -2.25873851 38.77367386 -2.26532745 33.97136307 C-2.27126134 29.58019315 -2.26805443 25.189131 -2.25737235 20.79797094 C-2.25512738 19.20444927 -2.25629898 17.6109186 -2.26112393 16.01740266 C-2.26715581 13.86081529 -2.26101851 11.70460299 -2.25168228 9.54803562 C-2.25135758 8.34730492 -2.25103287 7.14657422 -2.25069833 5.90945774 C-2 3 -2 3 0 0 Z M10 11 C10 23.54 10 36.08 10 49 C87.22 49 164.44 49 244 49 C244 36.46 244 23.92 244 11 C166.78 11 89.56 11 10 11 Z M255 11 C255 23.54 255 36.08 255 49 C299.22 49 343.44 49 389 49 C389 36.46 389 23.92 389 11 C344.78 11 300.56 11 255 11 Z M10 60 C10 72.21 10 84.42 10 97 C22.21 97 34.42 97 47 97 C47 84.79 47 72.58 47 60 C34.79 60 22.58 60 10 60 Z M58 60 C58 72.21 58 84.42 58 97 C167.23 97 276.46 97 389 97 C389 84.79 389 72.58 389 60 C279.77 60 170.54 60 58 60 Z M10 108 C10 120.54 10 133.08 10 146 C135.07 146 260.14 146 389 146 C389 133.46 389 120.92 389 108 C263.93 108 138.86 108 10 108 Z M10 157 C10 169.54 10 182.08 10 195 C49.6 195 89.2 195 130 195 C130 182.46 130 169.92 130 157 C90.4 157 50.8 157 10 157 Z M141 157 C141 169.54 141 182.08 141 195 C222.84 195 304.68 195 389 195 C389 182.46 389 169.92 389 157 C307.16 157 225.32 157 141 157 Z M10 206 C10 218.21 10 230.42 10 243 C135.07 243 260.14 243 389 243 C389 230.79 389 218.58 389 206 C263.93 206 138.86 206 10 206 Z M10 254 C10 266.54 10 279.08 10 292 C108.34 292 206.68 292 308 292 C308 279.46 308 266.92 308 254 C209.66 254 111.32 254 10 254 Z M319 254 C319 266.54 319 279.08 319 292 C342.1 292 365.2 292 389 292 C389 279.46 389 266.92 389 254 C365.9 254 342.8 254 319 254 Z M10 303 C10 315.21 10 327.42 10 340 C135.07 340 260.14 340 389 340 C389 327.79 389 315.58 389 303 C263.93 303 138.86 303 10 303 Z M9 351 C9 363.54 9 376.08 9 389 C73.35 389 137.7 389 204 389 C204 376.46 204 363.92 204 351 C139.65 351 75.3 351 9 351 Z M215 351 C215 363.54 215 376.08 215 389 C272.42 389 329.84 389 389 389 C389 376.46 389 363.92 389 351 C331.58 351 274.16 351 215 351 Z " fill="#000000" transform="translate(59,58)"/>
<path d="M0 0 C2.5 0.125 2.5 0.125 3.5 1.125 C3.625 3.625 3.625 3.625 3.5 6.125 C2.5 7.125 2.5 7.125 0 7.25 C-2.5 7.125 -2.5 7.125 -3.5 6.125 C-3.625 3.625 -3.625 3.625 -3.5 1.125 C-2.5 0.125 -2.5 0.125 0 0 Z " fill="#000000" transform="translate(128.5,125.875)"/>
<path d="M0 0 C1.98 0 3.96 0 6 0 C7.125 4.75 7.125 4.75 6 7 C4.33388095 7.042721 2.66617115 7.04063832 1 7 C0 6 0 6 -0.0625 2.9375 C-0.041875 1.968125 -0.02125 0.99875 0 0 Z " fill="#000000" transform="translate(283,418)"/>
<path d="M0 0 C2.5 0.125 2.5 0.125 3.5 1.125 C3.625 3.625 3.625 3.625 3.5 6.125 C2.5 7.125 2.5 7.125 -0.0625 7.1875 C-1.2690625 7.1565625 -1.2690625 7.1565625 -2.5 7.125 C-2.88133299 5.1335944 -3.21325582 3.13220923 -3.5 1.125 C-2.5 0.125 -2.5 0.125 0 0 Z " fill="#000000" transform="translate(128.5,139.875)"/>
<path d="M0 0 C1.67542976 0.28604898 3.34385343 0.61781233 5 1 C6.125 4.75 6.125 4.75 5 7 C3.02 7 1.04 7 -1 7 C-1.04254356 5.00045254 -1.04080783 2.99958364 -1 1 C-0.67 0.67 -0.34 0.34 0 0 Z " fill="#000000" transform="translate(284,431)"/>
<path d="M0 0 C1.65 0.33 3.3 0.66 5 1 C6 4 6 4 5 7 C3.02 7 1.04 7 -1 7 C-1.625 5.1875 -1.625 5.1875 -2 3 C-1.34 2.01 -0.68 1.02 0 0 Z " fill="#000000" transform="translate(210,237)"/>
<path d="M0 0 C1.65 0.33 3.3 0.66 5 1 C6 4 6 4 5 7 C3.02 7 1.04 7 -1 7 C-1.625 5.1875 -1.625 5.1875 -2 3 C-1.34 2.01 -0.68 1.02 0 0 Z " fill="#000000" transform="translate(210,223)"/>
<path d="M0 0 C1.67542976 0.28604898 3.34385343 0.61781233 5 1 C6.125 4.75 6.125 4.75 5 7 C3.02 7 1.04 7 -1 7 C-1.04254356 5.00045254 -1.04080783 2.99958364 -1 1 C-0.67 0.67 -0.34 0.34 0 0 Z " fill="#000000" transform="translate(322,91)"/>
<path d="M0 0 C1.67542976 0.28604898 3.34385343 0.61781233 5 1 C6.125 4.75 6.125 4.75 5 7 C3.02 7 1.04 7 -1 7 C-1.04254356 5.00045254 -1.04080783 2.99958364 -1 1 C-0.67 0.67 -0.34 0.34 0 0 Z " fill="#000000" transform="translate(322,77)"/>
<path d="M0 0 C2.625 0.375 2.625 0.375 5 1 C5.042721 2.66611905 5.04063832 4.33382885 5 6 C4 7 4 7 1.4375 7.0625 C0.2309375 7.0315625 0.2309375 7.0315625 -1 7 C-1.625 4.625 -1.625 4.625 -2 2 C-1.34 1.34 -0.68 0.68 0 0 Z " fill="#000000" transform="translate(388,334)"/>
<path d="M0 0 C1.2065625 0.0309375 1.2065625 0.0309375 2.4375 0.0625 C3.0625 2.4375 3.0625 2.4375 3.4375 5.0625 C2.7775 5.7225 2.1175 6.3825 1.4375 7.0625 C-0.6875 6.6875 -0.6875 6.6875 -2.5625 6.0625 C-2.94468767 4.40635343 -3.27645102 2.73792976 -3.5625 1.0625 C-2.5625 0.0625 -2.5625 0.0625 0 0 Z " fill="#000000" transform="translate(389.5625,320.9375)"/>
</svg>
