<svg width="59" height="58" viewBox="0 0 59 58" fill="none" xmlns="http://www.w3.org/2000/svg">
<path d="M56.6875 13.1406C56.9279 13.1406 57.1584 13.0451 57.3283 12.8752C57.4983 12.7052 57.5938 12.4747 57.5938 12.2344V1.35938C57.5938 1.11902 57.4983 0.888514 57.3283 0.71856C57.1584 0.548605 56.9279 0.453125 56.6875 0.453125H2.3125C2.07215 0.453125 1.84164 0.548605 1.67168 0.71856C1.50173 0.888514 1.40625 1.11902 1.40625 1.35938V12.2344C1.40625 12.4747 1.50173 12.7052 1.67168 12.8752C1.84164 13.0451 2.07215 13.1406 2.3125 13.1406H3.21875V50.2969H2.3125C2.07215 50.2969 1.84164 50.3924 1.67168 50.5623C1.50173 50.7323 1.40625 50.9628 1.40625 51.2031V56.6406C1.40625 56.881 1.50173 57.1115 1.67168 57.2814C1.84164 57.4514 2.07215 57.5469 2.3125 57.5469H56.6875C56.9279 57.5469 57.1584 57.4514 57.3283 57.2814C57.4983 57.1115 57.5938 56.881 57.5938 56.6406V51.2031C57.5938 50.9628 57.4983 50.7323 57.3283 50.5623C57.1584 50.3924 56.9279 50.2969 56.6875 50.2969H55.7812V13.1406H56.6875ZM55.7812 55.7344H3.21875V52.1094H55.7812V55.7344ZM5.03125 50.2969V13.1406H28.5938V50.2969H5.03125ZM30.4062 50.2969V13.1406H53.9688V50.2969H30.4062ZM54.875 11.3281H3.21875V2.26562H55.7812V11.3281H54.875Z" fill="#727272"/>
<path d="M35.8438 4.07812H23.1562C22.9159 4.07812 22.6854 4.1736 22.5154 4.34356C22.3455 4.51351 22.25 4.74402 22.25 4.98438V8.60938C22.25 8.84973 22.3455 9.08024 22.5154 9.25019C22.6854 9.42015 22.9159 9.51562 23.1562 9.51562H35.8438C36.0841 9.51562 36.3146 9.42015 36.4846 9.25019C36.6545 9.08024 36.75 8.84973 36.75 8.60938V4.98438C36.75 4.74402 36.6545 4.51351 36.4846 4.34356C36.3146 4.1736 36.0841 4.07812 35.8438 4.07812ZM34.9375 7.70312H24.0625V5.89062H34.9375V7.70312ZM24.0625 29.4531V18.5781C24.0625 18.3378 23.967 18.1073 23.7971 17.9373C23.6271 17.7674 23.3966 17.6719 23.1562 17.6719H10.4688C10.2284 17.6719 9.99789 17.7674 9.82793 17.9373C9.65798 18.1073 9.5625 18.3378 9.5625 18.5781V29.4531C9.5625 29.6935 9.65798 29.924 9.82793 30.0939C9.99789 30.2639 10.2284 30.3594 10.4688 30.3594H23.1562C23.3966 30.3594 23.6271 30.2639 23.7971 30.0939C23.967 29.924 24.0625 29.6935 24.0625 29.4531ZM22.25 28.5469H11.375V19.4844H22.25V28.5469ZM48.5312 17.6719H35.8438C35.6034 17.6719 35.3729 17.7674 35.2029 17.9373C35.033 18.1073 34.9375 18.3378 34.9375 18.5781V29.4531C34.9375 29.6935 35.033 29.924 35.2029 30.0939C35.3729 30.2639 35.6034 30.3594 35.8438 30.3594H48.5312C48.7716 30.3594 49.0021 30.2639 49.1721 30.0939C49.342 29.924 49.4375 29.6935 49.4375 29.4531V18.5781C49.4375 18.3378 49.342 18.1073 49.1721 17.9373C49.0021 17.7674 48.7716 17.6719 48.5312 17.6719ZM47.625 28.5469H36.75V19.4844H47.625V28.5469ZM24.0625 33.0781C23.8221 33.0781 23.5916 33.1736 23.4217 33.3436C23.2517 33.5135 23.1562 33.744 23.1562 33.9844V39.4219C23.1562 39.6622 23.2517 39.8927 23.4217 40.0627C23.5916 40.2326 23.8221 40.3281 24.0625 40.3281C24.3029 40.3281 24.5334 40.2326 24.7033 40.0627C24.8733 39.8927 24.9688 39.6622 24.9688 39.4219V33.9844C24.9688 33.744 24.8733 33.5135 24.7033 33.3436C24.5334 33.1736 24.3029 33.0781 24.0625 33.0781ZM34.9375 33.0781C34.6971 33.0781 34.4666 33.1736 34.2967 33.3436C34.1267 33.5135 34.0312 33.744 34.0312 33.9844V39.4219C34.0312 39.6622 34.1267 39.8927 34.2967 40.0627C34.4666 40.2326 34.6971 40.3281 34.9375 40.3281C35.1779 40.3281 35.4084 40.2326 35.5783 40.0627C35.7483 39.8927 35.8438 39.6622 35.8438 39.4219V33.9844C35.8438 33.744 35.7483 33.5135 35.5783 33.3436C35.4084 33.1736 35.1779 33.0781 34.9375 33.0781Z" fill="#727272"/>
</svg>
