<svg width="59" height="58" viewBox="0 0 59 58" fill="none" xmlns="http://www.w3.org/2000/svg">
<path d="M53.9688 19.9375H52.1562V15.4062C52.1562 13.9073 50.9364 12.6875 49.4375 12.6875H45.8125C44.3136 12.6875 43.0938 13.9073 43.0938 15.4062V22.6562H40.9604L40.7611 22.1488C40.2992 20.9597 39.4877 19.9386 38.4336 19.2203C37.3795 18.5019 36.1324 18.12 34.8568 18.125H34.7708C34.5844 17.5964 34.2391 17.1385 33.7822 16.814C33.3253 16.4895 32.7792 16.3143 32.2188 16.3125C31.5477 16.3148 30.9016 16.5668 30.4062 17.0194C29.9241 16.5844 29.2925 16.3125 28.5938 16.3125C27.895 16.3125 27.2634 16.5853 26.7812 17.0194C26.2991 16.5844 25.6675 16.3125 24.9688 16.3125C24.27 16.3125 23.6384 16.5853 23.1562 17.0194C22.6611 16.5665 22.0148 16.3144 21.3438 16.3125C19.8448 16.3125 18.625 17.5323 18.625 19.0312V22.6562H15.9062V15.4062C15.9062 13.9073 14.6864 12.6875 13.1875 12.6875H9.5625C8.06356 12.6875 6.84375 13.9073 6.84375 15.4062V19.9375H5.03125C3.53231 19.9375 2.3125 21.1573 2.3125 22.6562V31.7188C2.3125 33.2177 3.53231 34.4375 5.03125 34.4375H6.84375V38.9688C6.84375 40.4677 8.06356 41.6875 9.5625 41.6875H13.1875C14.6864 41.6875 15.9062 40.4677 15.9062 38.9688V31.7188H17.9616L18.6676 33.9527C18.6993 34.0542 18.7492 34.1493 18.8144 34.2345L21.2332 37.3638L19.6835 53.6455C19.653 53.9674 19.69 54.2922 19.7922 54.599C19.8945 54.9058 20.0596 55.1879 20.2772 55.4272C20.4947 55.6665 20.7598 55.8577 21.0555 55.9887C21.3512 56.1196 21.671 56.1873 21.9944 56.1875H34.2796C34.604 56.1875 34.9249 56.1195 35.2214 55.9878C35.518 55.8562 35.7836 55.6638 36.0013 55.4232C36.2189 55.1826 36.3838 54.899 36.4851 54.5908C36.5864 54.2826 36.622 53.9565 36.5896 53.6337L35.0064 37.8006C34.9981 37.7191 35.0097 37.6368 35.0401 37.5607C35.0706 37.4846 35.119 37.4171 35.1813 37.3638L40.1539 33.1017C40.5789 32.7302 40.8984 32.2532 41.0801 31.7188H43.0938V38.9688C43.0938 40.4677 44.3136 41.6875 45.8125 41.6875H49.4375C50.9364 41.6875 52.1562 40.4677 52.1562 38.9688V34.4375H53.9688C55.4677 34.4375 56.6875 33.2177 56.6875 31.7188V22.6562C56.6875 21.1573 55.4677 19.9375 53.9688 19.9375ZM32.2188 18.125C32.719 18.125 33.125 18.5319 33.125 19.0312V24.3718C33.125 24.7162 32.9564 25.027 32.7117 25.2083C32.6855 25.2264 32.661 25.2463 32.6329 25.2617C32.5849 25.2898 32.5323 25.3052 32.4797 25.3215C32.4214 25.3401 32.3613 25.3523 32.3003 25.3578C32.2269 25.3632 32.1553 25.3578 32.0846 25.3469C32.0321 25.3387 31.9795 25.3324 31.9306 25.3161C31.8579 25.2892 31.789 25.253 31.7258 25.2083C31.6868 25.182 31.6442 25.162 31.6097 25.1303C31.5483 25.0699 31.4958 25.0009 31.4539 24.9255C31.4348 24.8938 31.4077 24.8684 31.3923 24.834C31.3407 24.7191 31.3135 24.5947 31.3125 24.4688V19.0312C31.3125 18.5319 31.7185 18.125 32.2188 18.125ZM28.5938 18.125C29.094 18.125 29.5 18.5319 29.5 19.0312V24.4688C29.4896 24.7021 29.3895 24.9224 29.2207 25.0838C29.0519 25.2453 28.8273 25.3354 28.5938 25.3354C28.3602 25.3354 28.1356 25.2453 27.9668 25.0838C27.798 24.9224 27.6979 24.7021 27.6875 24.4688V19.0312C27.6875 18.5319 28.0935 18.125 28.5938 18.125ZM24.9688 18.125C25.469 18.125 25.875 18.5319 25.875 19.0312V24.4688C25.8646 24.7021 25.7645 24.9224 25.5957 25.0838C25.4269 25.2453 25.2023 25.3354 24.9688 25.3354C24.7352 25.3354 24.5106 25.2453 24.3418 25.0838C24.173 24.9224 24.0729 24.7021 24.0625 24.4688V19.0312C24.0625 18.5319 24.4685 18.125 24.9688 18.125ZM20.4375 19.0312C20.4479 18.7979 20.548 18.5776 20.7168 18.4162C20.8856 18.2547 21.1102 18.1646 21.3438 18.1646C21.5773 18.1646 21.8019 18.2547 21.9707 18.4162C22.1395 18.5776 22.2396 18.7979 22.25 19.0312V24.4688C22.249 24.5951 22.2216 24.7198 22.1693 24.8349C22.1539 24.8693 22.1268 24.8947 22.1077 24.9264C22.0633 24.9998 22.0162 25.0714 21.9518 25.1312C21.9183 25.162 21.8757 25.1829 21.8377 25.2083C21.7736 25.2535 21.7038 25.2901 21.6301 25.317C21.583 25.3333 21.5313 25.3387 21.4815 25.3469C21.409 25.3578 21.3365 25.3641 21.2613 25.3578C21.2009 25.3523 21.1413 25.3401 21.0837 25.3215C21.0302 25.3043 20.9776 25.2889 20.9287 25.2608C20.9006 25.2463 20.877 25.2264 20.8517 25.2083C20.7228 25.11 20.6183 24.9834 20.5465 24.8381C20.4746 24.6928 20.4373 24.5329 20.4375 24.3709V19.0312ZM5.03125 32.625C4.531 32.625 4.125 32.2181 4.125 31.7188V22.6562C4.125 22.1569 4.531 21.75 5.03125 21.75H6.84375V32.625H5.03125ZM14.0938 38.9688C14.0938 39.4681 13.6877 39.875 13.1875 39.875H9.5625C9.06225 39.875 8.65625 39.4681 8.65625 38.9688V15.4062C8.65625 14.9069 9.06225 14.5 9.5625 14.5H13.1875C13.6877 14.5 14.0938 14.9069 14.0938 15.4062V38.9688ZM15.9062 24.4688H18.625C18.6265 24.9405 18.7511 25.4037 18.9865 25.8125C19.2219 26.2213 19.5599 26.5616 19.9672 26.7996C20.0161 26.8295 20.0668 26.854 20.1176 26.8812C20.1992 26.9229 20.2798 26.9646 20.365 26.9972C20.4602 27.0353 20.5598 27.0624 20.6604 27.0887C20.7203 27.1041 20.7782 27.1241 20.8399 27.1358C20.8589 27.1395 20.8752 27.1467 20.8942 27.1503C20.9577 27.1612 21.0202 27.1549 21.0837 27.1612C21.1707 27.1694 21.2549 27.1875 21.3438 27.1875C21.37 27.1875 21.3945 27.1802 21.4199 27.1793C21.5033 27.1766 21.5839 27.1639 21.6655 27.1549C21.7742 27.1422 21.8812 27.1277 21.9854 27.1023C22.0633 27.0833 22.1376 27.057 22.2137 27.0316C22.3152 26.9972 22.4149 26.9591 22.511 26.9138C22.6787 26.8315 22.838 26.7331 22.9868 26.6202C23.0248 26.5912 23.0683 26.5712 23.1046 26.5404L23.1572 26.4951C23.2097 26.5422 23.2713 26.5794 23.3275 26.622C23.3837 26.6655 23.4381 26.7099 23.4979 26.7489C23.5831 26.8042 23.6746 26.8486 23.7662 26.8948C23.8269 26.9247 23.884 26.9591 23.9465 26.9845C24.0516 27.0271 24.1631 27.057 24.2737 27.086C24.3298 27.1005 24.3824 27.1222 24.4404 27.134C24.6117 27.1676 24.7875 27.1875 24.9688 27.1875C25.15 27.1875 25.3258 27.1676 25.4971 27.134C25.556 27.1222 25.6095 27.1005 25.6666 27.0851C25.7762 27.0552 25.8868 27.0271 25.991 26.9845C26.0553 26.9582 26.1133 26.9238 26.175 26.893C26.2656 26.8477 26.3562 26.8033 26.4405 26.7489C26.5012 26.7099 26.5556 26.6646 26.6118 26.6211C26.668 26.5785 26.7287 26.5413 26.7812 26.4942C26.8338 26.5413 26.8945 26.5776 26.9507 26.6211C27.0078 26.6646 27.0622 26.7108 27.1229 26.7498C27.2072 26.8042 27.2978 26.8486 27.3884 26.8939C27.4501 26.9247 27.5081 26.9591 27.5724 26.9854C27.6766 27.028 27.7863 27.057 27.8968 27.086C27.9539 27.1014 28.0083 27.1232 28.0663 27.1349C28.2367 27.1676 28.4125 27.1875 28.5938 27.1875C28.775 27.1875 28.9508 27.1676 29.1221 27.134C29.1792 27.1222 29.2327 27.1014 29.2888 27.086C29.4003 27.0561 29.5109 27.0271 29.616 26.9845C29.6794 26.9591 29.7365 26.9247 29.7972 26.8939C29.8888 26.8486 29.9794 26.8032 30.0646 26.748C30.1244 26.709 30.1779 26.6646 30.235 26.6211C30.2912 26.5785 30.3528 26.5413 30.4053 26.4942L30.4579 26.5395C30.4942 26.5703 30.5377 26.5903 30.5748 26.6193C30.7227 26.7324 30.8815 26.8304 31.0488 26.912C31.1485 26.96 31.2509 26.9981 31.3569 27.0343C31.4285 27.0588 31.4992 27.0833 31.5726 27.1014C31.6832 27.1286 31.7964 27.1431 31.9106 27.1567C31.9867 27.1657 32.0611 27.1775 32.1381 27.1793C32.1653 27.1802 32.1907 27.1875 32.2188 27.1875C32.3094 27.1875 32.3955 27.1694 32.4834 27.1603C32.545 27.1549 32.6066 27.1603 32.6692 27.1503C32.69 27.1467 32.709 27.1395 32.7299 27.1358C32.7707 27.1277 32.8096 27.1159 32.8495 27.1059C33.095 27.0488 33.3304 26.9543 33.5473 26.8259C33.8801 26.6397 34.17 26.3854 34.398 26.0797C34.6259 25.7739 34.7869 25.4236 34.8704 25.0515C34.913 25.1541 34.9357 25.2639 34.9375 25.375V28.6248L33.6561 29.9062H15.9062V24.4688ZM34.0032 35.9872C33.7191 36.2307 33.498 36.5392 33.3587 36.8865C33.2194 37.2337 33.1659 37.6095 33.2029 37.9818L34.7862 53.8149C34.7938 53.8859 34.7864 53.9577 34.7643 54.0256C34.7423 54.0935 34.7061 54.156 34.6581 54.2089C34.6102 54.2618 34.5516 54.304 34.4862 54.3326C34.4208 54.3612 34.35 54.3757 34.2787 54.375H21.9944C21.9234 54.3751 21.8531 54.3603 21.7881 54.3316C21.7231 54.3029 21.6648 54.2609 21.617 54.2083C21.5692 54.1557 21.533 54.0937 21.5106 54.0263C21.4882 53.9589 21.4801 53.8875 21.4869 53.8167L23.0711 37.178C23.0927 36.9487 23.0266 36.7198 22.8862 36.5373L20.3469 33.253L19.862 31.7188H33.6561C34.1365 31.7177 34.5971 31.5268 34.9375 31.1877L36.2189 29.9062C36.5615 29.5637 36.75 29.1088 36.75 28.6248V25.375C36.7482 24.8146 36.573 24.2684 36.2485 23.8115C35.924 23.3546 35.4661 23.0093 34.9375 22.823V19.9384C35.8347 19.9507 36.7077 20.2307 37.4447 20.7426C38.1816 21.2544 38.7489 21.9748 39.0736 22.8112L39.4144 23.6676C39.4497 23.7392 39.4688 23.8181 39.4688 23.896V30.6503C39.4688 31.0644 39.2884 31.4559 38.9748 31.726L34.0032 35.9872ZM41.2812 29.9062V24.4688H43.0938V29.9062H41.2812ZM50.3438 38.9688C50.3438 39.4681 49.9378 39.875 49.4375 39.875H45.8125C45.3122 39.875 44.9062 39.4681 44.9062 38.9688V15.4062C44.9062 14.9069 45.3122 14.5 45.8125 14.5H49.4375C49.9378 14.5 50.3438 14.9069 50.3438 15.4062V38.9688ZM54.875 31.7188C54.875 32.2181 54.469 32.625 53.9688 32.625H52.1562V21.75H53.9688C54.469 21.75 54.875 22.1569 54.875 22.6562V31.7188Z" fill="#727272"/>
</svg>
