<svg width="59" height="58" viewBox="0 0 59 58" fill="none" xmlns="http://www.w3.org/2000/svg">
<path d="M55.7812 22.8767H44.1336V20.3854H45.1841C45.6846 20.3854 46.0904 19.9801 46.0904 19.4792V13.2832C46.0904 12.7823 45.6846 12.377 45.1841 12.377H13.8159C13.3154 12.377 12.9096 12.7823 12.9096 13.2832V19.4792C12.9096 19.9801 13.3154 20.3854 13.8159 20.3854H14.8664V22.8767H3.21875C2.71828 22.8767 2.3125 23.282 2.3125 23.783V44.717C2.3125 45.2179 2.71828 45.6232 3.21875 45.6232H13.8159H45.1841H55.7812C56.2817 45.6232 56.6875 45.2179 56.6875 44.717V23.783C56.6875 23.282 56.2817 22.8767 55.7812 22.8767ZM40.952 39.7016H37.6124V24.6892H40.952V39.7016ZM34.353 39.7016V31.1339C34.353 30.6329 33.9472 30.2276 33.4467 30.2276H25.5533C25.0528 30.2276 24.647 30.6329 24.647 31.1339V39.7016H23.2001V24.6892H35.7999V39.7016H34.353ZM32.5405 39.7016H26.4595V32.0401H32.5405V39.7016ZM18.048 24.6892H21.3876V39.7016H18.048V24.6892ZM14.7221 17.287H24.1501C24.6506 17.287 25.0564 16.8817 25.0564 16.3807C25.0564 15.8798 24.6506 15.4745 24.1501 15.4745H14.7221V14.1895H44.2779V18.5729H43.2274H15.7726H14.7221V17.287ZM16.6789 20.3854H42.3211V22.8767H41.8583H36.7062H22.2938H17.1417H16.6789V20.3854ZM4.125 24.6892H15.7726H16.2355V39.7016H13.8159C13.3154 39.7016 12.9096 40.107 12.9096 40.6079V43.8107H4.125V24.6892ZM14.7221 43.8107V41.5141H17.1417H22.2938H25.5533H33.4467H36.7062H41.8583H44.2779V43.8107H14.7221ZM54.875 43.8107H46.0904V40.6079C46.0904 40.107 45.6846 39.7016 45.1841 39.7016H42.7645V24.6892H43.2274H54.875V43.8107Z" fill="#727272"/>
<path d="M7.48633 30.462H12.9827C13.4832 30.462 13.8889 30.0567 13.8889 29.5558C13.8889 29.0548 13.4832 28.6495 12.9827 28.6495H7.48633C6.98586 28.6495 6.58008 29.0548 6.58008 29.5558C6.58008 30.0567 6.98586 30.462 7.48633 30.462ZM12.9827 35.5482C13.4832 35.5482 13.8889 35.1428 13.8889 34.6419C13.8889 34.141 13.4832 33.7357 12.9827 33.7357H7.48633C6.98586 33.7357 6.58008 34.141 6.58008 34.6419C6.58008 35.1428 6.98586 35.5482 7.48633 35.5482H12.9827ZM46.3675 30.462H51.8634C52.3638 30.462 52.7696 30.0567 52.7696 29.5558C52.7696 29.0548 52.3638 28.6495 51.8634 28.6495H46.3675C45.867 28.6495 45.4612 29.0548 45.4612 29.5558C45.4612 30.0567 45.867 30.462 46.3675 30.462ZM46.3675 35.5482H51.8634C52.3638 35.5482 52.7696 35.1428 52.7696 34.6419C52.7696 34.141 52.3638 33.7357 51.8634 33.7357H46.3675C45.867 33.7357 45.4612 34.141 45.4612 34.6419C45.4612 35.1428 45.867 35.5482 46.3675 35.5482ZM26.7225 17.2869H28.0672C28.5677 17.2869 28.9735 16.8815 28.9735 16.3806C28.9735 15.8797 28.5677 15.4744 28.0672 15.4744H26.7225C26.222 15.4744 25.8162 15.8797 25.8162 16.3806C25.8162 16.8815 26.222 17.2869 26.7225 17.2869Z" fill="#727272"/>
</svg>
