<svg width="48" height="48" viewBox="0 0 48 48" fill="none" xmlns="http://www.w3.org/2000/svg">
<g clip-path="url(#clip0_371_1081)">
<path d="M6.41577 5.27698C5.41106 5.27856 4.44784 5.67787 3.7367 6.3876C3.02555 7.09734 2.62434 8.05977 2.62077 9.06448C2.62077 11.4915 2.46177 13.653 3.63627 15.8235V18.396C3.0538 19.7897 2.51256 21.2003 2.01327 22.626C1.15377 25.0725 0.243272 28.0185 0.0827725 30.249C-0.437728 37.431 1.66677 42.276 1.66677 42.276C1.72546 42.4089 1.82149 42.5219 1.94318 42.6012C2.06487 42.6806 2.20699 42.7229 2.35227 42.723H10.4763C10.6223 42.7237 10.7654 42.6819 10.888 42.6024C11.0106 42.523 11.1073 42.4096 11.1663 42.276C11.1663 42.276 13.2663 37.431 12.7473 30.249C12.4368 25.9545 10.6098 22.9065 9.19677 18.4245V15.8415C10.5558 13.6485 10.2138 11.4465 10.2138 9.06448C10.2102 8.05925 9.80858 7.09637 9.09679 6.38655C8.385 5.67672 7.42101 5.27776 6.41577 5.27698ZM19.5348 5.27698C18.5301 5.27816 17.5668 5.67739 16.8558 6.38726C16.1448 7.09712 15.744 8.05979 15.7413 9.06448C15.7413 11.4885 15.5853 13.6485 16.7553 15.8175V18.402C16.6653 18.612 15.9408 20.322 15.1323 22.626C14.2728 25.0725 13.3653 28.0185 13.2048 30.249C12.6843 37.431 14.7858 42.276 14.7858 42.276C14.8448 42.4096 14.9415 42.523 15.0641 42.6024C15.1866 42.6819 15.3297 42.7237 15.4758 42.723H23.5983C23.7436 42.7229 23.8857 42.6806 24.0074 42.6012C24.1291 42.5219 24.2251 42.4089 24.2838 42.276C24.2838 42.276 26.3898 37.431 25.8693 30.249C25.5588 25.9545 23.7333 22.9065 22.3188 18.4245V15.8415C23.6778 13.6485 23.3328 11.4465 23.3328 9.06448C23.3292 8.05925 22.9276 7.09637 22.2158 6.38655C21.504 5.67672 20.54 5.27776 19.5348 5.27698ZM6.41577 6.77698C7.70277 6.77698 8.71377 7.78498 8.71377 9.06448C8.71377 11.5095 8.89827 13.215 7.93077 14.895H4.92027C4.08327 13.197 4.12077 11.457 4.12077 9.06448C4.12077 7.78498 5.13027 6.77698 6.41577 6.77698ZM19.5348 6.77698C20.8218 6.77698 21.8328 7.78498 21.8328 9.06448C21.8328 11.5095 22.0203 13.215 21.0528 14.895H18.0408C17.2038 13.197 17.2413 11.457 17.2413 9.06448C17.2413 7.78498 18.2493 6.77698 19.5363 6.77698H19.5348ZM27.5103 7.24798C26.8245 7.20257 26.1393 7.34401 25.5276 7.65722C24.9159 7.97043 24.4006 8.44369 24.0366 9.02659C23.6725 9.6095 23.4734 10.2802 23.4604 10.9673C23.4474 11.6545 23.621 12.3322 23.9628 12.9285C25.1778 15.0285 26.1228 16.9785 28.2243 18.2685L29.5173 20.5035C29.5443 20.7285 29.7753 22.5735 30.2283 24.9735C30.7098 27.5205 31.4013 30.525 32.3793 32.5365C35.5278 39.0135 39.7743 42.1515 39.7743 42.1515C39.8915 42.2385 40.0316 42.2894 40.1774 42.2979C40.3231 42.3064 40.4682 42.2722 40.5948 42.1995L47.6253 38.13C47.7512 38.0569 47.8531 37.9488 47.9186 37.8189C47.9841 37.6889 48.0104 37.5426 47.9943 37.398C47.9943 37.398 47.3898 32.151 43.3428 26.193C40.9218 22.632 37.8108 20.907 34.3428 17.736L33.0498 15.501C33.1278 12.924 31.7268 11.19 30.5328 9.12898C30.2224 8.59115 29.7842 8.13813 29.257 7.81004C28.7298 7.48195 28.1299 7.2889 27.5103 7.24798ZM27.4128 8.73598C27.7871 8.76193 28.1493 8.87981 28.4672 9.07919C28.7851 9.27856 29.0489 9.55327 29.2353 9.87898C30.4608 11.997 31.4763 13.38 31.4793 15.3195L28.8753 16.8255C27.2988 15.7755 26.4603 14.25 25.2603 12.1785C25.1069 11.9187 25.0069 11.6309 24.9662 11.3319C24.9254 11.033 24.9447 10.7289 25.0229 10.4375C25.1012 10.1461 25.2367 9.87326 25.4217 9.63492C25.6067 9.39658 25.8374 9.19755 26.1003 9.04948C26.5188 8.80948 26.9748 8.70748 27.4128 8.73598ZM5.13627 16.395H7.69527V17.7975H5.13627V16.395ZM18.2553 16.395H20.8188V17.7975H18.2538V16.395H18.2553ZM32.0283 16.734L32.7303 17.949L30.5163 19.23L29.8128 18.015L32.0283 16.734ZM33.6783 19.134C37.0968 22.1925 39.9753 23.907 42.1023 27.039C45.6813 32.304 46.3083 36.474 46.3953 37.11L40.3248 40.623C39.8178 40.233 36.5133 37.608 33.7293 31.881C32.8938 30.162 32.1768 27.1905 31.7043 24.6945C31.2843 22.4655 31.1073 21.0195 31.0608 20.649L33.6783 19.134ZM4.89927 19.299H7.92027C9.34827 23.6565 10.9788 26.5815 11.2518 30.357C11.7108 36.705 10.1673 40.629 9.92427 41.223H2.90427C2.66127 40.629 1.11927 36.705 1.57827 30.357C1.71627 28.452 2.58327 25.521 3.42627 23.124C4.17927 20.982 4.75227 19.641 4.89627 19.299H4.89927ZM18.0213 19.299H21.0408C22.4688 23.6565 24.0993 26.5815 24.3723 30.357C24.8313 36.705 23.2878 40.629 23.0448 41.223H16.0293C15.7848 40.629 14.2398 36.705 14.6988 30.357C14.8368 28.452 15.7038 25.521 16.5468 23.124C17.2998 20.982 17.8758 19.641 18.0213 19.299Z" fill="#727272"/>
</g>
<defs>
<clipPath id="clip0_371_1081">
<rect width="48" height="48" fill="white"/>
</clipPath>
</defs>
</svg>
