<svg width="58" height="56" viewBox="0 0 58 56" fill="none" xmlns="http://www.w3.org/2000/svg">
<g clip-path="url(#clip0_2762_16481)">
<path d="M0.998658 30.471C0.998658 31.1453 0.998658 31.7855 0.998658 32.425C0.998658 33.3271 1.04569 34.2321 0.982233 35.129C0.944156 35.6579 1.22413 35.9057 1.58474 36.1267C2.70761 36.8137 4.11943 36.6208 5.03475 35.6757C5.31099 35.3908 5.58574 35.1052 5.86273 34.8211C7.3701 33.2781 9.8488 33.3055 11.3233 34.8827C11.5346 35.1089 11.734 35.3471 11.943 35.5755C12.4679 36.149 13.1099 36.485 13.8991 36.5243C14.3448 36.5466 14.5568 36.7432 14.5217 37.0815C14.4889 37.399 14.2492 37.5458 13.8222 37.5162C12.7792 37.4442 11.9094 37.0221 11.2128 36.2484C11.0135 36.0273 10.8201 35.8018 10.6193 35.5822C9.54717 34.4124 7.7546 34.3627 6.62127 35.4732C6.33831 35.7506 6.06879 36.0422 5.79329 36.3278C4.57933 37.5852 2.80094 37.8752 1.24802 37.0688C1.18531 37.0362 1.11961 37.0088 1.02255 36.9628C1.01284 37.1082 1.00015 37.2142 1.00015 37.3203C0.998658 38.9279 1.00314 40.5347 0.994925 42.1422C0.993432 42.3841 1.06212 42.551 1.2525 42.7119C2.38956 43.6689 4.06791 43.5561 5.09075 42.4642C5.64696 41.8707 6.17331 41.2439 6.94529 40.8826C8.42728 40.1897 10.2131 40.5146 11.3248 41.7164C11.5436 41.9531 11.7556 42.1956 11.9721 42.4345C12.488 43.0042 13.1271 43.318 13.9006 43.3573C14.3202 43.3788 14.5397 43.5636 14.5262 43.8811C14.5135 44.1971 14.2761 44.3818 13.8573 44.3544C12.8912 44.2906 12.046 43.9397 11.3644 43.2438C11.1128 42.9872 10.8828 42.7105 10.6409 42.4449C9.52627 41.2231 7.7322 41.1867 6.56901 42.364C6.29874 42.637 6.0337 42.9152 5.7709 43.1949C4.65548 44.3788 2.84499 44.6926 1.34508 43.959C1.24877 43.9115 1.15022 43.8685 1.01956 43.8091C1.0121 43.9545 1.0009 44.0613 1.0009 44.1689C1.0009 45.7764 1.00762 47.3832 0.995671 48.9908C0.993432 49.2564 1.08974 49.4248 1.28684 49.5835C2.37015 50.4552 3.9283 50.4018 4.9362 49.4418C5.22289 49.1688 5.49764 48.881 5.76716 48.591C7.31859 46.9196 9.88314 46.9426 11.4099 48.6436C11.6414 48.9018 11.881 49.1533 12.111 49.4129C13.0024 50.4233 15.0354 50.4982 16.0336 49.3877C16.3233 49.0657 16.6137 48.7445 16.9183 48.4366C18.4033 46.9382 20.9425 47.0086 22.3535 48.5813C22.6342 48.8944 22.897 49.2304 23.2114 49.5071C24.3425 50.5019 26.0089 50.4151 27.0444 49.3306C27.3184 49.0442 27.5916 48.7564 27.8701 48.4745C29.3678 46.9582 31.8009 46.979 33.277 48.5212C33.5256 48.7809 33.7555 49.0576 34.0034 49.3172C34.5118 49.8506 35.13 50.1599 35.8773 50.1918C35.9274 50.194 35.9766 50.1985 36.0259 50.2022C36.3387 50.2259 36.5008 50.4121 36.5246 50.7044C36.5456 50.9633 36.2895 51.1911 35.9744 51.1859C34.9284 51.1695 34.04 50.7764 33.3106 50.0353C33.0851 49.8061 32.8835 49.5531 32.6655 49.3157C31.4792 48.0249 29.7097 48.0116 28.4838 49.2638C28.0262 49.7311 27.5745 50.2274 27.0377 50.5902C25.5549 51.5924 23.5309 51.3253 22.3013 50.0256C22.0885 49.8009 21.8921 49.5605 21.6891 49.3276C20.5565 48.0272 18.6661 48.0123 17.4909 49.2764C17.087 49.7104 16.6734 50.1525 16.1964 50.4974C14.5815 51.6666 12.4499 51.2934 11.1695 49.8847C10.7813 49.4574 10.3826 49.0027 9.89807 48.7074C8.79311 48.0353 7.42311 48.2935 6.52869 49.2326C6.15315 49.6273 5.7918 50.0464 5.36325 50.3773C4.18289 51.2875 2.87858 51.4284 1.49813 50.8617C1.35105 50.8016 1.20994 50.7267 1.02927 50.6414V54.4974C1.16515 54.5033 1.29879 54.5152 1.43243 54.5152C19.7613 54.5152 38.0895 54.5152 56.4184 54.5152C56.5677 54.5152 56.7193 54.5093 56.8649 54.5337C57.1337 54.5783 57.2897 54.7496 57.2792 55.0204C57.2688 55.2852 57.1157 55.4558 56.8425 55.4937C56.7447 55.507 56.6439 55.4981 56.5438 55.4981C50.0492 55.4981 43.5546 55.5011 37.06 55.4996C31.9465 55.4981 26.8331 55.4885 21.7197 55.4885C17.5514 55.4885 13.3832 55.4959 9.21494 55.4989C6.40401 55.5004 3.59382 55.4989 0.782892 55.4996C0.119915 55.4996 0.00195312 55.3839 0.00195312 54.7237C0.00344632 50.631 0.00792589 46.539 0.00792589 42.4464C0.00867248 32.0763 0.00792589 21.707 0.00792589 11.337C0.00792589 11.2131 0.0056861 11.09 0.00792589 10.9661C0.0191248 10.5099 0.186362 10.34 0.644772 10.34C1.73928 10.3415 2.83379 10.3504 3.9283 10.3533C4.07612 10.3533 4.2232 10.337 4.41508 10.3251C4.42254 10.1634 4.43449 10.0099 4.43598 9.85557C4.45091 8.74505 4.38895 7.63527 4.66071 6.53662C5.39386 3.56856 8.11744 0.981055 11.4502 0.559696C14.5449 0.168752 17.7493 1.72289 19.3627 4.49139C20.0958 5.74954 20.4467 7.11154 20.4363 8.56552C20.4318 9.14267 20.4363 9.72055 20.4363 10.3177H27.1414C27.3348 8.52472 27.1459 7.1145 25.599 6.11748C24.8218 5.61675 23.9677 5.47506 23.0598 5.68722C22.9874 5.70429 22.9142 5.71838 22.8418 5.73618C22.5409 5.81185 22.3229 5.70503 22.2184 5.42091C22.1183 5.1494 22.2692 4.88085 22.576 4.78738C23.2927 4.56929 24.0259 4.53665 24.7523 4.71023C26.1395 5.04109 27.2012 5.8252 27.7619 7.13676C28.0075 7.71093 28.1613 8.37116 28.1643 8.99282C28.1934 15.1619 28.1822 21.3309 28.1822 27.5C28.1822 27.6343 28.1822 27.7685 28.1822 27.9822C28.993 27.4303 29.8262 27.1217 30.7968 27.1847C30.805 27.0311 30.8169 26.9125 30.8169 26.7938C30.8169 21.5268 30.8222 16.2598 30.8124 10.9928C30.8102 9.75987 30.858 8.51508 30.7057 7.29774C30.3384 4.36306 27.6125 1.84455 24.6501 1.54559C23.4092 1.42022 22.2236 1.57304 21.0768 2.05448C20.7252 2.20211 20.4467 2.11457 20.319 1.83342C20.1974 1.56562 20.3392 1.28521 20.6886 1.14055C25.2802 -0.760019 30.1853 1.82081 31.4508 6.16274C31.6822 6.95798 31.8009 7.81331 31.8047 8.64193C31.8338 14.897 31.8204 21.1521 31.8211 27.4073C31.8211 27.5185 31.8271 27.6305 31.8189 27.7411C31.7935 28.0883 31.5658 28.2967 31.2201 28.2322C29.9957 28.0044 29.0356 28.4228 28.2367 29.3405C27.7663 29.8813 27.2587 30.3894 26.574 30.6876C25.0831 31.3375 23.3823 31.0022 22.2639 29.8115C22.0691 29.6038 21.8854 29.3857 21.701 29.1684C20.5916 27.8635 18.6706 27.8435 17.4902 29.086C16.9907 29.612 16.4644 30.1505 15.8514 30.5237C14.35 31.4376 12.3633 31.0608 11.2054 29.7418C10.7163 29.1839 10.2639 28.5845 9.51059 28.3368C8.44744 27.9866 7.49926 28.1773 6.67278 28.925C6.39729 29.1743 6.14494 29.4488 5.88886 29.7188C4.58232 31.0956 2.9189 31.3887 1.20472 30.5422C1.15246 30.5163 1.09422 30.5029 0.997911 30.4688L0.998658 30.471ZM1.01882 11.3481C1.00836 11.4572 1.00015 11.5061 1.00015 11.5544C1.00015 17.3399 1.00015 23.1247 1.01135 28.9102C1.01135 29.0563 1.11065 29.2403 1.22264 29.3412C2.28952 30.2982 3.94696 30.2455 4.97577 29.2307C5.26694 28.9436 5.54468 28.6431 5.82913 28.3494C6.95649 27.1832 8.63035 26.8687 10.1191 27.5133C10.906 27.8538 11.4189 28.4881 11.9661 29.0949C12.8725 30.1001 14.3052 30.3152 15.4639 29.6387C15.6999 29.5007 15.8096 29.3449 15.8089 29.0534C15.7969 26.0393 15.8029 23.0245 15.8029 20.0105C15.8029 17.2783 15.8021 14.5469 15.8014 11.8147C15.8014 11.6701 15.8014 11.5262 15.8014 11.3481H1.01882ZM19.4493 27.1714C19.4493 26.9636 19.4493 26.8049 19.4493 26.6461C19.4493 23.6432 19.4493 20.6395 19.4493 17.6366C19.4493 14.5966 19.4612 11.5558 19.4463 8.51582C19.4299 5.22729 17.2177 2.44839 14.0387 1.68431C10.9082 0.932094 7.68367 2.44914 6.15539 5.37046C5.34384 6.92311 5.3849 8.58778 5.43866 10.2591C5.43866 10.2784 5.46852 10.2962 5.47972 10.3088H8.02039C8.05921 9.56254 8.02188 8.83481 8.1488 8.136C8.55271 5.91422 10.6066 4.41944 12.8815 4.62789C15.0854 4.83041 16.8101 6.74507 16.8093 8.98466C16.8071 13.5158 16.8078 18.0468 16.8071 22.5779C16.8071 24.3331 16.8071 26.0883 16.8063 27.8427C16.8063 27.9837 16.8063 28.1246 16.8063 28.3627C17.5798 27.609 18.4264 27.2411 19.4508 27.1706L19.4493 27.1714ZM20.499 22.4118C20.4758 22.4518 20.4534 22.4733 20.4534 22.4941C20.4467 24.026 20.4385 25.5579 20.4452 27.0898C20.4452 27.1721 20.5639 27.2774 20.6528 27.3323C21.1209 27.6231 21.6271 27.862 22.0609 28.1958C22.4282 28.4777 22.7074 28.8709 23.0382 29.2025C24.0797 30.2492 25.7296 30.2989 26.854 29.3405C27.1019 29.129 27.2042 28.9006 27.2019 28.5749C27.1892 26.635 27.1959 24.6951 27.1944 22.7545C27.1944 22.6469 27.184 22.5394 27.1773 22.411H20.4997L20.499 22.4118ZM27.1944 18.4163C27.1944 17.0854 27.1915 15.8028 27.1967 14.5202C27.1974 14.2427 27.0093 14.2798 26.8383 14.2791C24.8248 14.2784 22.8112 14.285 20.7976 14.2717C20.4833 14.2695 20.4273 14.3896 20.4303 14.6634C20.4422 15.7383 20.4355 16.8124 20.4355 17.8874C20.4355 18.0565 20.4355 18.2264 20.4355 18.4163H27.1937H27.1944ZM15.7977 10.3229C15.7977 9.74948 15.8223 9.21907 15.7932 8.69163C15.6969 6.95204 14.0491 5.46319 12.3282 5.60191C9.67036 5.8163 8.71024 7.9728 9.12609 10.3229H15.7977ZM20.4385 13.2791H27.172V11.3533C27.0287 11.3466 26.9078 11.3355 26.7861 11.3355C25.8177 11.334 24.8494 11.3355 23.8811 11.3355C22.85 11.3355 21.819 11.334 20.7879 11.3377C20.6386 11.3377 20.4393 11.2799 20.4393 11.5425C20.4393 12.1078 20.4393 12.673 20.4393 13.2799L20.4385 13.2791ZM20.4661 19.4534V21.3695H27.1952C27.1952 20.8317 27.1765 20.3154 27.2019 19.802C27.2168 19.5016 27.1161 19.4267 26.8249 19.4281C24.8128 19.4393 22.8 19.4341 20.7879 19.4348C20.6901 19.4348 20.5923 19.4459 20.4661 19.4534Z" fill="#727272"/>
<path d="M43.494 36.7058C43.2917 38.6094 43.0879 40.5129 42.8878 42.4165C42.687 44.3215 42.5011 46.2272 42.2861 48.1308C42.1218 49.5825 40.8966 50.5484 39.3833 50.4586C37.964 50.3741 36.9188 49.2502 36.9106 47.8036C36.8807 42.4765 36.8508 37.1495 36.8195 31.8224C36.8195 31.717 36.8075 31.6117 36.7082 31.4485C36.1849 31.9863 35.6667 32.5308 35.1359 33.062C33.8913 34.3068 32.6468 35.5516 31.3873 36.7815C31.1655 36.9981 31.1215 37.1509 31.2267 37.4633C31.8165 39.2192 31.6941 40.9521 30.8826 42.6153C28.8779 46.7272 23.8078 48.1545 19.9337 45.7139C17.3483 44.0856 16.0499 40.9261 16.7122 37.8779C17.3587 34.9025 19.8762 32.5657 22.8865 32.1384C24.7194 31.878 26.4261 32.2259 27.9932 33.1992C28.2486 33.358 28.3703 33.2994 28.5487 33.1146C31.0177 30.5539 33.4934 27.9997 35.9639 25.4404C36.6351 24.7453 37.2846 24.028 37.9648 23.3418C38.9129 22.3848 40.1247 22.0347 41.4267 22.0369C43.1521 22.0391 44.8409 21.8292 46.5237 21.465C47.8766 21.1727 48.8755 20.3433 49.8744 19.482C50.6912 18.778 51.5296 18.0978 52.3419 17.3886C52.4733 17.2736 52.5779 17.0711 52.5988 16.8968C52.881 14.6045 53.1274 12.3078 53.4208 10.0163C53.6201 8.46068 55.1835 7.56084 56.6162 8.19584C57.4733 8.57566 58.1012 9.42209 57.9862 10.4555C57.7734 12.3716 57.5487 14.2855 57.3277 16.2009C57.2396 16.962 57.1403 17.7217 57.0627 18.4835C56.9925 19.1705 56.6894 19.7157 56.1682 20.1742C54.2585 21.8522 52.3651 23.548 50.4568 25.2283C50.1499 25.4983 50.0379 25.7995 50.0477 26.2045C50.1051 28.4886 50.1649 30.7734 50.1776 33.059C50.1925 35.9143 50.1596 38.7696 50.1529 41.6242C50.1477 43.6872 50.1529 45.7495 50.1514 47.8125C50.1507 49.1308 49.3526 50.1107 48.043 50.4067C46.8358 50.679 45.5442 50.0751 45.0134 48.9713C44.9081 48.7524 44.8334 48.5054 44.8073 48.265C44.4833 45.294 44.1719 42.3222 43.8561 39.3505C43.7621 38.4684 43.6658 37.5864 43.5702 36.7051C43.5448 36.7051 43.5202 36.7051 43.4948 36.7051L43.494 36.7058ZM37.8102 39.079H37.8953C37.8953 41.9966 37.8916 44.9135 37.8976 47.8311C37.8991 48.7554 38.6098 49.4527 39.5565 49.4853C40.4532 49.5165 41.2065 48.8726 41.2998 47.9935C41.7575 43.6805 42.2136 39.3675 42.6713 35.0545C42.7288 34.51 43.0312 34.1992 43.509 34.1896C44.0017 34.1792 44.331 34.4915 44.3907 35.0471C44.6363 37.3201 44.8782 39.593 45.1194 41.8668C45.3381 43.9298 45.5502 45.9936 45.7756 48.0566C45.869 48.9097 46.6559 49.535 47.5331 49.4816C48.4701 49.4245 49.1592 48.7569 49.1629 47.8815C49.1704 46.1516 49.1682 44.4209 49.1682 42.6909C49.1682 39.6005 49.1801 36.51 49.1622 33.4195C49.148 30.9982 49.1062 28.5761 49.0524 26.1555C49.039 25.5309 49.2092 25.0161 49.6766 24.6007C51.6148 22.8796 53.5492 21.1556 55.4948 19.4435C55.8308 19.1482 56.0242 18.8107 56.0742 18.3671C56.3549 15.899 56.6461 13.4324 56.9343 10.9658C56.9469 10.8553 56.9581 10.7448 56.9738 10.635C57.0985 9.75294 56.6446 9.09568 55.8323 8.98515C55.1312 8.89019 54.4503 9.49701 54.3585 10.3019C54.092 12.6461 53.8336 14.9917 53.5492 17.3337C53.5223 17.5525 53.3842 17.8077 53.2162 17.9531C51.9955 19.0058 50.7465 20.0273 49.5206 21.0747C48.9151 21.5918 48.2342 21.962 47.4809 22.2001C45.6159 22.7899 43.6867 22.956 41.7448 22.9991C40.4002 23.0287 39.2579 23.37 38.3 24.4293C36.606 26.3032 34.7999 28.0784 33.0417 29.8951C31.5851 31.4003 30.1285 32.9055 28.6734 34.4114C28.1672 34.9351 28.1015 35.6554 28.5099 36.1561C29.0713 36.8446 29.9486 36.8297 30.6481 36.1332C32.7117 34.0768 34.7805 32.0264 36.8449 29.9708C37.0315 29.7853 37.2226 29.6436 37.5019 29.7556C37.7856 29.8691 37.8125 30.108 37.8125 30.3676C37.8102 33.2719 37.811 36.1769 37.811 39.0812L37.8102 39.079ZM18.6839 35.8654C21.9197 38.5003 24.0527 41.7903 24.9225 45.8511C26.7225 45.6256 28.9884 44.1842 29.4491 42.9936C26.2589 40.3905 24.1453 37.1294 23.2561 33.1117C21.6875 33.1369 19.488 34.4574 18.6832 35.8654H18.6839ZM23.8235 45.9298C23.9586 43.6828 20.1107 37.5612 18.1292 36.8201C17.125 38.872 17.3759 41.3957 18.8258 43.3319C20.0644 44.9861 21.7569 45.8111 23.8227 45.9298H23.8235ZM27.5901 34.1169C26.6031 33.4648 25.5265 33.1109 24.2558 33.0583C25.1547 36.7645 27.0637 39.7384 30.0016 42.1546C30.6974 40.5967 30.7713 39.1079 30.2263 37.5857C27.9858 38.0589 26.5971 35.9662 27.5901 34.1161V34.1169Z" fill="#727272"/>
<path d="M45.1487 5.55372C45.8945 5.55372 46.6411 5.5515 47.387 5.55372C48.5203 5.55743 49.3005 6.33561 49.3095 7.46764C49.3169 8.43128 49.3349 9.39492 49.3251 10.3586C49.3222 10.6212 49.3908 10.7391 49.6514 10.8348C50.5481 11.1612 51.0826 11.8155 51.161 12.7643C51.2402 13.725 50.8609 14.5514 49.971 14.9208C49.3722 15.1693 49.2251 15.541 49.0482 16.0706C48.4882 17.7509 47.3892 18.9601 45.7676 19.7598C42.6147 21.3146 38.4741 19.8384 37.1601 16.334C37.0519 16.0462 37.0063 15.7353 36.8981 15.4475C36.8555 15.3333 36.7405 15.2027 36.6285 15.1641C35.587 14.8088 34.948 13.9817 34.9502 12.9602C34.9524 11.9312 35.5893 11.09 36.6383 10.7792C36.866 10.7117 36.9108 10.5744 36.9615 10.3912C37.4946 8.48173 38.5921 7.02403 40.4287 6.17686C41.3187 5.76663 42.2616 5.55966 43.2456 5.55521C43.8795 5.55224 44.5141 5.55521 45.1479 5.55446L45.1487 5.55372ZM45.1957 6.53813C44.5611 6.53813 43.9265 6.53739 43.2919 6.53813C40.522 6.54258 38.3047 8.3749 37.8298 11.0766C37.7596 11.4743 37.6014 11.6456 37.1855 11.6768C36.4598 11.7317 35.9379 12.3036 35.9417 12.9631C35.9462 13.653 36.4733 14.1857 37.2236 14.2576C37.6536 14.2992 37.7462 14.4008 37.8112 14.8659C38.2658 18.1322 41.683 20.3547 45.0763 18.9986C46.9159 18.2642 48.0365 16.8318 48.3105 14.8296C48.3628 14.4475 48.5382 14.2732 48.9362 14.2457C49.6559 14.1968 50.189 13.6233 50.1822 12.9602C50.1755 12.2806 49.6604 11.748 48.9347 11.6694C48.4554 11.6174 48.3456 11.4965 48.3426 11.0054C48.3344 9.83111 48.3329 8.6568 48.318 7.48248C48.3105 6.88086 47.9619 6.54332 47.3601 6.53887C46.6381 6.53368 45.9169 6.53739 45.195 6.53813H45.1957Z" fill="#727272"/>
</g>
<defs>
<clipPath id="clip0_2762_16481">
<rect width="58" height="55" fill="white" transform="translate(0 0.5)"/>
</clipPath>
</defs>
</svg>
