<svg width="250" height="250" viewBox="0 0 250 250" fill="none" xmlns="http://www.w3.org/2000/svg">
<path d="M242.187 3.90625H7.8125C6.7765 3.90625 5.78293 4.3178 5.05036 5.05036C4.3178 5.78293 3.90625 6.7765 3.90625 7.8125V54.6875C3.90625 55.7235 4.3178 56.7171 5.05036 57.4496C5.78293 58.1822 6.7765 58.5937 7.8125 58.5937H76.1094L66.7344 80.4922C66.5206 80.9773 66.4089 81.5011 66.4062 82.0312V97.6562C66.4062 98.6922 66.8178 99.6858 67.5504 100.418C68.2829 101.151 69.2765 101.562 70.3125 101.562H179.687C180.723 101.562 181.717 101.151 182.45 100.418C183.182 99.6858 183.594 98.6922 183.594 97.6562V82.0312C183.595 81.502 183.487 80.9781 183.277 80.4922L173.891 58.5937H242.187C243.223 58.5937 244.217 58.1822 244.95 57.4496C245.682 56.7171 246.094 55.7235 246.094 54.6875V7.8125C246.094 6.7765 245.682 5.78293 244.95 5.05036C244.217 4.3178 243.223 3.90625 242.187 3.90625ZM85.9375 50.7812V42.9687H164.062V50.7812H85.9375ZM164.062 35.1562H85.9375V11.7187H164.062V35.1562ZM11.7187 11.7187H78.125V50.7812H11.7187V11.7187ZM74.2187 93.75V85.9375H175.781V93.75H74.2187ZM173.766 78.125H76.2344L84.6055 58.5937H165.395L173.766 78.125ZM238.281 50.7812H171.875V11.7187H238.281V50.7812ZM242.187 148.437H234.375V115.234C234.375 111.608 232.935 108.131 230.371 105.567C227.807 103.003 224.329 101.562 220.703 101.562C217.077 101.562 213.6 103.003 211.036 105.567C208.472 108.131 207.031 111.608 207.031 115.234V125H214.844V115.234C214.844 113.68 215.461 112.19 216.56 111.091C217.659 109.992 219.149 109.375 220.703 109.375C222.257 109.375 223.747 109.992 224.846 111.091C225.945 112.19 226.562 113.68 226.562 115.234V132.812H218.75V140.625H226.562V148.437H148.437V140.625H156.25V132.812H148.437V125C148.437 123.964 148.026 122.97 147.293 122.238C146.561 121.505 145.567 121.094 144.531 121.094H105.469C104.433 121.094 103.439 121.505 102.707 122.238C101.974 122.97 101.562 123.964 101.562 125V132.812H93.75V140.625H101.562V148.437H64.7734C67.7489 145.705 70.1247 142.385 71.7506 138.686C73.3764 134.988 74.2169 130.993 74.2187 126.953V125C74.2187 123.964 73.8072 122.97 73.0746 122.238C72.3421 121.505 71.3485 121.094 70.3125 121.094H19.5312C18.4952 121.094 17.5017 121.505 16.7691 122.238C16.0366 122.97 15.625 123.964 15.625 125V126.953C15.6269 130.993 16.4673 134.988 18.0932 138.686C19.719 142.385 22.0948 145.705 25.0703 148.437H7.8125C6.7765 148.437 5.78293 148.849 5.05036 149.582C4.3178 150.314 3.90625 151.308 3.90625 152.344V171.875C3.90625 172.911 4.3178 173.905 5.05036 174.637C5.78293 175.37 6.7765 175.781 7.8125 175.781H11.7187V242.187C11.7187 243.223 12.1303 244.217 12.8629 244.95C13.5954 245.682 14.589 246.094 15.625 246.094H234.375C235.411 246.094 236.405 245.682 237.137 244.95C237.87 244.217 238.281 243.223 238.281 242.187V175.781H242.187C243.223 175.781 244.217 175.37 244.95 174.637C245.682 173.905 246.094 172.911 246.094 171.875V152.344C246.094 151.308 245.682 150.314 244.95 149.582C244.217 148.849 243.223 148.437 242.187 148.437ZM109.375 128.906H140.625V148.437H109.375V128.906ZM23.5234 128.906H66.3203C65.8409 134.25 63.379 139.222 59.419 142.842C55.459 146.463 50.2876 148.471 44.9219 148.471C39.5562 148.471 34.3847 146.463 30.4247 142.842C26.4647 139.222 24.0029 134.25 23.5234 128.906ZM19.5312 175.781H70.3125V238.281H19.5312V175.781ZM78.125 210.937H171.875V238.281H78.125V210.937ZM171.875 203.125H78.125V175.781H171.875V203.125ZM230.469 238.281H179.687V175.781H230.469V238.281ZM238.281 167.969H11.7187V156.25H238.281V167.969Z" fill="#727272"/>
<path d="M187.5 19.5303H179.688V42.9678H187.5V19.5303Z" fill="#727272"/>
<path d="M195.312 195.312H187.5V218.75H195.312V195.312Z" fill="#727272"/>
<path d="M62.5 195.312H54.6875V218.75H62.5V195.312Z" fill="#727272"/>
<path d="M70.3125 19.5303H62.5V42.9678H70.3125V19.5303Z" fill="#727272"/>
<path d="M140.623 218.75H109.373V226.562H140.623V218.75Z" fill="#727272"/>
<path d="M140.623 19.5303H109.373V27.3428H140.623V19.5303Z" fill="#727272"/>
<path d="M140.623 183.594H109.373V191.406H140.623V183.594Z" fill="#727272"/>
</svg>
