<svg width="59" height="58" viewBox="0 0 59 58" fill="none" xmlns="http://www.w3.org/2000/svg">
<path d="M51.9302 11.881H45.2149C43.5021 11.881 42.1065 13.2766 42.1065 14.9894C42.1065 16.7022 43.5021 18.0888 45.2149 18.0888H47.9065C48.4684 18.0888 48.9305 18.551 48.9305 19.1129C48.9305 19.6747 48.4684 20.1369 47.9065 20.1369H45.3599C42.2243 18.5147 38.563 17.6719 34.4487 17.6719C30.8327 17.6719 27.2893 18.3516 23.9634 19.4119C22.5768 18.1613 17.5109 14.2282 8.7293 14.2282H8.64773C4.10742 14.2463 4.10742 17.391 4.10742 18.5782V50.2244C4.10742 52.49 5.94711 54.3297 8.2218 54.3297H50.7612C53.0268 54.3297 54.8755 52.49 54.8755 50.2244C54.8755 34.3922 54.9934 31.5919 54.4315 30.1872C54.1143 29.3807 53.6974 28.565 53.2443 27.7675C54.2049 27.2872 54.8755 26.3175 54.8755 25.1757V14.8263C54.8755 13.2041 53.5524 11.881 51.9302 11.881ZM50.743 19.1129C50.743 17.545 49.4743 16.2763 47.9065 16.2763H45.2149C44.499 16.2763 43.919 15.6963 43.919 14.9894C43.919 14.2825 44.499 13.6935 45.2149 13.6935H51.9302C52.5555 13.6935 53.063 14.201 53.063 14.8263V25.1757C53.063 25.7919 52.5555 26.2994 51.9302 26.2994H35.518C34.3218 26.2994 33.343 25.3207 33.343 24.1244C33.343 22.9282 34.3218 21.9494 35.518 21.9494H47.9155C49.4834 21.9494 50.7521 20.6807 50.7521 19.1129H50.743ZM40.1762 20.1369H35.518C33.3159 20.1369 31.5305 21.9222 31.5305 24.1244C31.5305 26.3266 33.3159 28.1119 35.518 28.1119H51.3412C52.0118 29.2085 52.4921 30.2054 52.7459 30.8579C52.9996 31.4832 53.0449 33.5404 53.054 34.936L5.96523 34.9179C6.05586 33.64 6.36398 32.5979 6.82617 31.9997C8.93773 29.2447 20.7099 19.4844 34.4577 19.4844C36.4968 19.4844 38.3999 19.711 40.1762 20.1369ZM36.2521 45.3397C41.744 41.1166 46.6559 40.1379 53.054 40.0654V42.8657C48.5318 43.2463 43.7196 44.2794 38.9165 48.3847C36.8412 50.1519 35.8987 51.6925 35.4909 52.5172H18.7071C20.0937 49.5447 22.6312 49.2275 26.0205 48.8288C29.1834 48.4572 32.763 48.0313 36.2612 45.3488L36.2521 45.3397ZM53.054 38.2529C46.4655 38.3344 41.1005 39.3857 35.2915 43.8082C31.7118 45.2219 28.4312 43.9713 24.2805 42.3854C19.5771 40.5819 13.7499 38.4069 5.92898 40.165V36.7394L53.054 36.7575V38.2619V38.2529ZM8.67492 16.0407H8.74742C15.5896 16.0407 20.0121 18.6597 21.9515 20.1097C14.4477 22.9191 8.41211 27.4866 5.94711 30.2507V18.5872C5.94711 17.2913 5.94711 16.0588 8.68398 16.0497L8.67492 16.0407ZM5.93805 50.2244V42.0047C13.4237 40.2013 18.8521 42.2404 23.6462 44.071C26.0659 44.9954 28.413 45.8563 30.7874 46.11C29.0837 46.6266 27.389 46.835 25.8121 47.0254C22.024 47.4694 18.4624 47.9407 16.7677 52.5172H8.23992C6.97117 52.5172 5.93805 51.4841 5.93805 50.2244ZM50.7612 52.5172H37.5843C38.0465 51.8104 38.8259 50.8407 40.0946 49.7622C44.2543 46.2097 48.3324 45.1041 53.063 44.6872V50.2244C53.063 51.4932 52.0299 52.5172 50.7612 52.5172Z" fill="#727272"/>
<path d="M36.0343 13.3218C37.7109 13.3218 39.0793 11.9534 39.0793 10.2769C39.0793 8.60029 37.7109 7.23185 36.0343 7.23185C34.3577 7.23185 32.9893 8.60029 32.9893 10.2769C32.9893 11.9534 34.3577 13.3218 36.0343 13.3218ZM36.0343 9.04435C36.714 9.04435 37.2668 9.59716 37.2668 10.2769C37.2668 10.9565 36.714 11.5094 36.0343 11.5094C35.3546 11.5094 34.8018 10.9565 34.8018 10.2769C34.8018 9.59716 35.3546 9.04435 36.0343 9.04435ZM36.0343 6.72435C36.5327 6.72435 36.9405 6.31654 36.9405 5.8181V4.57654C36.9405 4.0781 36.5327 3.67029 36.0343 3.67029C35.5359 3.67029 35.128 4.0781 35.128 4.57654V5.8181C35.128 6.31654 35.5359 6.72435 36.0343 6.72435ZM35.128 14.7447V15.9862C35.128 16.4847 35.5359 16.8925 36.0343 16.8925C36.5327 16.8925 36.9405 16.4847 36.9405 15.9862V14.7447C36.9405 14.2462 36.5327 13.8384 36.0343 13.8384C35.5359 13.8384 35.128 14.2462 35.128 14.7447ZM39.5959 10.2769C39.5959 10.7753 40.0037 11.1831 40.5021 11.1831H41.7437C42.2421 11.1831 42.6499 10.7753 42.6499 10.2769C42.6499 9.77841 42.2421 9.3706 41.7437 9.3706H40.5021C40.0037 9.3706 39.5959 9.77841 39.5959 10.2769ZM30.334 11.1831H31.5755C32.074 11.1831 32.4818 10.7753 32.4818 10.2769C32.4818 9.77841 32.074 9.3706 31.5755 9.3706H30.334C29.8355 9.3706 29.4277 9.77841 29.4277 10.2769C29.4277 10.7753 29.8355 11.1831 30.334 11.1831ZM39.188 8.02935C39.4237 8.02935 39.6502 7.93872 39.8315 7.76654L40.7105 6.88748C41.064 6.53404 41.064 5.9631 40.7105 5.60966C40.3571 5.25623 39.7862 5.25623 39.4327 5.60966L38.5537 6.48873C38.2002 6.84216 38.2002 7.4131 38.5537 7.76654C38.7349 7.93872 38.9615 8.02935 39.1971 8.02935H39.188ZM32.2371 12.7962L31.358 13.6662C31.0046 14.0197 31.0046 14.5906 31.358 14.944C31.5393 15.1253 31.7659 15.2069 32.0015 15.2069C32.2371 15.2069 32.4637 15.1162 32.6449 14.944L33.524 14.074C33.8774 13.7206 33.8774 13.1497 33.524 12.7962C33.1705 12.4428 32.5996 12.4428 32.2462 12.7962H32.2371ZM38.5446 12.8053C38.1912 13.1587 38.1912 13.7297 38.5446 14.0831L39.4237 14.9531C39.6049 15.1253 39.8315 15.2159 40.0671 15.2159C40.3027 15.2159 40.5293 15.1253 40.7105 14.944C41.064 14.5906 41.064 14.0197 40.7105 13.6662L39.8315 12.7962C39.478 12.4428 38.9071 12.4428 38.5446 12.7962V12.8053ZM32.2371 7.76654C32.4184 7.94779 32.6449 8.02935 32.8805 8.02935C33.1162 8.02935 33.3427 7.93872 33.524 7.76654C33.8774 7.4131 33.8774 6.84216 33.524 6.48873L32.6449 5.60966C32.2915 5.25623 31.7205 5.25623 31.358 5.60966C31.0046 5.9631 31.0046 6.53404 31.358 6.88748L32.2371 7.76654Z" fill="#727272"/>
</svg>
