<svg width="58" height="58" viewBox="0 0 58 58" fill="none" xmlns="http://www.w3.org/2000/svg">
<path d="M28.9143 52.3233C21.1089 52.3233 13.3053 52.3233 5.49993 52.3233C4.15732 52.3233 4 52.1695 4 50.8466C4 41.1051 4 31.3653 4 21.6238C4 20.2901 4.36649 19.9165 5.61435 20.3974C7.48435 21.1178 8.87166 20.6655 10.4431 19.4588C16.2069 15.0359 22.1065 10.7917 27.9274 6.44388C28.7051 5.86285 29.2593 5.84498 30.0477 6.43315C36.3478 11.135 42.6836 15.7885 48.9909 20.4814C49.5201 20.8747 49.9831 21.0267 50.6195 20.8121C51.2649 20.594 51.9443 20.4743 52.6111 20.3169C53.6051 20.0827 53.9913 20.3813 53.9948 21.4253C54.0038 23.719 53.9984 26.0127 53.9984 28.3064C53.9984 35.7829 53.9984 43.2593 53.9984 50.7375C53.9984 52.1856 53.8607 52.3233 52.4162 52.3233C44.5822 52.3233 36.7483 52.3233 28.9143 52.3233ZM23.6672 41.6056C23.6672 41.2356 23.6672 40.9173 23.6672 40.5973C23.6672 37.9747 23.6708 35.3538 23.6672 32.7312C23.6636 31.494 24.0355 30.3838 24.7845 29.4095C26.1415 27.645 28.5228 26.9191 30.6377 27.6074C32.7741 28.3011 34.2651 30.2194 34.3115 32.4988C34.3652 35.209 34.3276 37.921 34.3348 40.6331C34.3348 40.9495 34.3634 41.2642 34.3777 41.5877H37.8924V25.589H20.1149V41.6056H23.669H23.6672ZM47.4999 21.5845C47.2496 21.3663 47.1477 21.2627 47.0333 21.1786C41.1944 16.8594 35.3467 12.5491 29.5239 8.2084C28.9804 7.80258 28.6837 8.05823 28.2921 8.34785C22.7876 12.4204 17.2795 16.4875 11.775 20.5601C11.3763 20.855 10.9902 21.1697 10.4663 21.5791C13.1498 22.2459 15.6669 22.8716 18.3039 23.526C18.3039 21.6881 18.2824 20.0237 18.3093 18.3629C18.3414 16.2962 19.9862 14.7302 22.0082 14.8589C22.5874 14.8964 23.1541 15.1074 23.7816 15.2504C24.6111 12.8584 26.2434 11.3388 28.8749 11.2869C31.6353 11.2315 33.3372 12.7887 34.2347 15.3022C37.3436 13.8846 40.0056 16.0495 39.716 19.2014C39.589 20.5833 39.6945 21.9867 39.6945 23.5295C42.3189 22.8752 44.8182 22.2531 47.4999 21.5862V21.5845ZM16.4554 42.9661C16.5394 43.0054 16.6216 43.0448 16.7056 43.0859C17.174 42.4405 18.3289 42.5692 18.3164 41.3464C18.2807 37.4473 18.2914 33.5464 18.3164 29.6455C18.32 29.0591 18.1287 28.8249 17.5548 28.6872C14.403 27.931 11.2601 27.1301 8.11543 26.3453C7.35385 26.1558 6.59047 25.9663 5.7967 25.7696V49.7167C7.54335 49.0105 7.5791 48.9605 7.5791 47.28C7.5791 42.7248 7.56838 38.1695 7.58268 33.6143C7.58983 31.1043 9.50631 29.1699 11.9645 29.1467C14.4245 29.1235 16.3821 31.0167 16.4464 33.5214C16.4804 34.8014 16.4554 36.0814 16.4554 37.3615C16.4554 39.2297 16.4554 41.0979 16.4554 42.9661ZM52.2357 25.8143C51.9335 25.859 51.7262 25.8715 51.5277 25.9216C47.8628 26.8387 44.2032 27.7773 40.5294 28.664C39.8858 28.8195 39.6748 29.0734 39.6802 29.7367C39.7124 33.3694 39.6945 37.0039 39.6945 40.6367C39.6945 42.192 39.9287 42.5013 41.543 43.0001C41.543 42.655 41.543 42.335 41.543 42.0168C41.543 39.1868 41.5216 36.3585 41.5484 33.5285C41.5734 30.9756 43.6472 29.0466 46.1966 29.1467C48.5529 29.2397 50.3907 31.1418 50.4068 33.6107C50.439 38.2571 50.4193 42.9018 50.4211 47.5482C50.4211 48.8568 50.8287 49.3395 52.2339 49.6649V25.8125L52.2357 25.8143ZM32.6042 41.6146C32.6042 38.6254 32.6221 35.7418 32.5989 32.8599C32.581 30.6484 31.0095 29.0537 28.9375 29.0841C26.903 29.1127 25.4049 30.711 25.396 32.8849C25.387 35.504 25.3924 38.1231 25.396 40.7421C25.396 41.0264 25.4246 41.3124 25.4424 41.6164H32.6042V41.6146ZM22.2584 50.5552H35.6202C35.6095 50.3943 35.6291 50.2691 35.5898 50.1672C34.7567 48.0648 33.9379 45.9588 33.0512 43.8797C32.9457 43.6347 32.4719 43.4148 32.1627 43.4095C30.0495 43.3684 27.9346 43.4023 25.8215 43.3773C25.2976 43.3702 25.0241 43.5328 24.8364 44.0352C24.2715 45.5387 23.6529 47.0208 23.0576 48.5135C22.7983 49.1661 22.5463 49.8204 22.2566 50.557L22.2584 50.5552ZM9.3043 47.2121C11.1421 46.0589 12.803 45.0328 14.4388 43.9691C14.6104 43.8582 14.7123 43.5185 14.7141 43.2861C14.7302 40.0431 14.748 36.7983 14.7123 33.5553C14.6944 31.9928 13.4537 30.8415 11.9556 30.8737C10.4878 30.9059 9.34541 32.0572 9.31145 33.5786C9.28642 34.6798 9.3043 35.7811 9.3043 36.8806C9.3043 40.2398 9.3043 43.599 9.3043 47.2121ZM48.6709 47.2031C48.6709 42.4173 48.712 37.837 48.6458 33.2603C48.6262 31.8659 47.2907 30.8361 45.8927 30.8737C44.466 30.913 43.2951 32.0554 43.2825 33.5178C43.2557 36.7626 43.2665 40.0074 43.2879 43.2522C43.2879 43.5078 43.4148 43.8725 43.6061 43.9977C45.2187 45.0524 46.8581 46.0643 48.6709 47.2013V47.2031ZM32.5989 23.7387C32.5989 21.2859 32.631 18.9368 32.5899 16.5912C32.5524 14.5049 30.947 12.9639 28.9393 12.9907C26.9406 13.0175 25.4138 14.6086 25.3995 16.7056C25.387 18.7884 25.3942 20.8729 25.3995 22.9557C25.3995 23.2113 25.4389 23.467 25.4621 23.7387H32.5989ZM49.7113 50.5999C49.7292 50.5373 49.7453 50.4747 49.7632 50.4104C49.5254 50.2459 49.2948 50.0689 49.0499 49.9169C46.025 48.0273 42.9286 46.2395 39.9966 44.2158C38.3251 43.0627 36.6356 43.5024 34.7603 43.4077C35.3788 44.963 35.9259 46.3682 36.4962 47.7627C36.877 48.6923 37.0522 49.9634 37.753 50.4336C38.4592 50.9074 39.7017 50.5945 40.7099 50.5963C43.7098 50.6052 46.7097 50.5999 49.7096 50.5999H49.7113ZM8.15119 50.4229C8.31209 50.5284 8.35678 50.5856 8.40147 50.5856C12.238 50.5927 16.0746 50.6034 19.9111 50.5731C20.1381 50.5713 20.4671 50.2709 20.569 50.0331C21.2108 48.5296 21.8026 47.0065 22.4086 45.4887C22.6678 44.8379 22.9235 44.1836 23.2363 43.3898C21.9438 43.3898 20.8211 43.3809 19.7001 43.3988C19.5035 43.4023 19.2854 43.472 19.1173 43.5757C15.4846 45.8373 11.859 48.1059 8.15119 50.4247V50.4229ZM37.9443 23.7423C37.9443 21.8133 37.9908 19.9719 37.9246 18.1359C37.8924 17.233 37.0432 16.5733 36.1547 16.5698C35.3002 16.5662 34.426 17.1776 34.392 18.0304C34.3151 19.9183 34.3688 21.8115 34.3688 23.7423H37.9443ZM23.6404 23.7316C23.6404 21.8294 23.6851 19.9916 23.6225 18.1573C23.5921 17.2456 22.7662 16.5859 21.8759 16.5698C20.9891 16.5537 20.1024 17.2098 20.072 18.0929C20.0059 19.954 20.0523 21.8204 20.0523 23.7316H23.6422H23.6404ZM5.81101 22.1941C5.61972 23.9461 5.6215 23.9407 7.09998 24.309C10.5325 25.1636 13.965 26.0253 17.3975 26.8798C17.6692 26.9477 17.9499 26.9799 18.2306 27.0282C18.3534 25.8995 17.9213 25.2124 16.9345 24.9669C15.608 24.6344 14.2832 24.2965 12.9567 23.9658C10.5951 23.3776 8.23343 22.793 5.81279 22.1941H5.81101ZM52.2375 22.2173C51.8906 22.2888 51.6296 22.3317 51.374 22.3943C47.8556 23.2685 44.3427 24.1731 40.8136 24.9991C39.9251 25.2065 39.5086 25.5622 39.6963 26.4847C39.7303 26.6528 39.7446 26.8262 39.7749 27.0514C40.0789 26.9889 40.3381 26.9424 40.5937 26.8798C44.1407 25.9967 47.6804 25.0831 51.2399 24.2482C52.0712 24.0534 52.4305 23.7226 52.2732 22.8806C52.241 22.709 52.2535 22.5302 52.2375 22.2173Z" fill="#727272"/>
</svg>
