<svg width="59" height="58" viewBox="0 0 59 58" fill="none" xmlns="http://www.w3.org/2000/svg">
<path d="M43.8693 2.65015H40.8893C40.731 2.65015 40.5791 2.71305 40.4672 2.82502C40.3552 2.93699 40.2923 3.08886 40.2923 3.24721V4.49762H2.71425C2.5559 4.49762 2.40403 4.56052 2.29206 4.67249C2.18009 4.78446 2.11719 4.93633 2.11719 5.09468V54.7529C2.11719 54.9113 2.18009 55.0631 2.29206 55.1751C2.40403 55.2871 2.5559 55.35 2.71425 55.35H43.8693C43.9477 55.35 44.0254 55.3345 44.0978 55.3045C44.1703 55.2745 44.2361 55.2305 44.2915 55.1751C44.347 55.1197 44.3909 55.0538 44.4209 54.9814C44.451 54.909 44.4664 54.8313 44.4664 54.7529V48.7653H52.7068V54.7529C52.7068 54.9113 52.7697 55.0631 52.8817 55.1751C52.9937 55.2871 53.1455 55.35 53.3039 55.35H56.2841C56.4424 55.35 56.5943 55.2871 56.7063 55.1751C56.8182 55.0631 56.8811 54.9113 56.8811 54.7529V3.24721C56.8811 3.08886 56.8182 2.93699 56.7063 2.82502C56.5943 2.71305 56.4424 2.65015 56.2841 2.65015H53.3039C53.1455 2.65015 52.9937 2.71305 52.8817 2.82502C52.7697 2.93699 52.7068 3.08886 52.7068 3.24721V9.23485H44.4664V3.24721C44.4664 3.1688 44.451 3.09116 44.4209 3.01872C44.3909 2.94628 44.347 2.88046 44.2915 2.82502C44.2361 2.76958 44.1703 2.7256 44.0978 2.69559C44.0254 2.66559 43.9477 2.65015 43.8693 2.65015ZM52.7068 32.8627H44.4664V25.1374H52.7068V32.8627ZM44.4664 34.0568H52.7068V35.8429H44.4664V34.0568ZM52.7068 23.9433H44.4664V22.1573H52.7068V23.9433ZM44.4664 37.037H52.7068V44.5918H44.4664V37.037ZM52.7068 20.9631H44.4664V13.4083H52.7068V20.9631ZM22.1871 51.1765H20.3839V42.1913H22.1871V51.1765ZM23.3812 47.3594H25.432V51.1765H23.3812V47.3594ZM26.6261 51.1765V43.2101H28.4291V51.1765H26.6261ZM29.6232 43.2101H31.4268V51.1765H29.6232V43.2101ZM32.6202 43.2101H34.423V51.1765H32.6209L32.6202 43.2101ZM35.0201 42.0159H26.0291C25.8707 42.0159 25.7188 42.0788 25.6069 42.1908C25.4949 42.3028 25.432 42.4547 25.432 42.613V46.1648H23.3812V41.5942C23.3812 41.4359 23.3183 41.284 23.2063 41.1721C23.0943 41.0601 22.9425 40.9972 22.7841 40.9972H19.7869C19.6285 40.9972 19.4767 41.0601 19.3647 41.1721C19.2527 41.284 19.1898 41.4359 19.1898 41.5942V51.1765H16.5355L13.0725 42.7131C13.0127 42.5668 12.8972 42.4501 12.7514 42.3888C12.6056 42.3275 12.4415 42.3265 12.295 42.3861L10.0838 43.2851L9.02004 40.6847C8.9898 40.6107 8.94502 40.5436 8.88837 40.4873C8.83172 40.431 8.76435 40.3866 8.69024 40.3568C8.61613 40.327 8.53679 40.3124 8.45693 40.3138C8.37706 40.3152 8.29828 40.3326 8.22527 40.365L6.29063 41.2241V39.2947H40.2923V51.1765H35.6171V42.613C35.6171 42.4547 35.5542 42.3028 35.4423 42.1908C35.3303 42.0788 35.1784 42.0159 35.0201 42.0159ZM6.29148 45.0812L8.78463 51.1765H6.29148V45.0812ZM10.0746 51.1765L6.50011 42.437L8.14851 41.7051L12.0226 51.1765H10.0746ZM13.3127 51.1765L10.5367 44.3895L12.1938 43.7157L15.2453 51.1765H13.3127ZM34.3768 32.0234H29.0345V30.1212H34.3768V32.0234ZM29.0345 33.2175H37.111V35.1197H29.0345V33.2175ZM37.708 32.0234H35.5709V29.5241C35.5709 29.3658 35.508 29.2139 35.396 29.1019C35.2841 28.99 35.1322 28.927 34.9738 28.927H28.4374C28.2791 28.927 28.1272 28.99 28.0152 29.1019C27.9033 29.2139 27.8404 29.3658 27.8404 29.5241V32.4847C27.8496 32.5297 27.8496 32.5761 27.8404 32.6211V35.1204H26.1619V26.9608C26.1619 26.8025 26.099 26.6506 25.9871 26.5387C25.8751 26.4267 25.7232 26.3638 25.5649 26.3638H22.7463C22.5879 26.3638 22.436 26.4267 22.3241 26.5387C22.2121 26.6506 22.1492 26.8025 22.1492 26.9608V30.4542H19.9602V27.5944C19.9602 27.4361 19.8973 27.2842 19.7853 27.1722C19.6734 27.0603 19.5215 26.9974 19.3631 26.9974H16.1346C15.9762 26.9974 15.8244 27.0603 15.7124 27.1722C15.6004 27.2842 15.5375 27.4361 15.5375 27.5944V28.7298L14.1462 27.7773C14.0156 27.6878 13.8547 27.654 13.6991 27.6831C13.5434 27.7123 13.4058 27.802 13.3163 27.9327L8.39637 35.1197H6.29148V24.7278H40.2923V35.1197H38.3051V32.6205C38.3051 32.4621 38.2422 32.3102 38.1302 32.1983C38.0182 32.0863 37.8664 32.0234 37.708 32.0234ZM9.8433 35.1197L13.9644 29.1L15.3047 30.0176L11.8121 35.1197H9.8433ZM15.5375 31.7912V35.1197H13.2592L15.5375 31.7912ZM16.7317 29.8672V28.1915H18.7661V35.1197H16.7317V29.8672ZM19.9602 31.6483H22.1492V35.1197H19.9602V31.6483ZM24.9678 35.1197H23.3433V27.5579H24.9678V35.1197ZM23.1309 20.5537H20.8473V11.9184H23.1309V20.5537ZM24.325 15.2885H26.3573V20.5537H24.325V15.2885ZM29.0621 20.5537H27.5514V11.9184H29.0621V20.5537ZM30.2562 16.418L32.8086 20.5537H30.2562V16.418ZM34.2125 20.5537L30.4812 14.5088L31.9561 13.5999L36.3832 20.5537H34.2125ZM37.7986 20.5537L32.6469 12.4622C32.5626 12.3299 32.4297 12.2361 32.2769 12.201C32.1241 12.1659 31.9636 12.1923 31.8301 12.2746L30.2555 13.2447V11.3213C30.2555 11.163 30.1926 11.0111 30.0807 10.8991C29.9687 10.7872 29.8168 10.7243 29.6585 10.7243H26.9543C26.796 10.7243 26.6441 10.7872 26.5321 10.8991C26.4202 11.0111 26.3573 11.163 26.3573 11.3213V14.0944H24.325V11.3213C24.325 11.163 24.2621 11.0111 24.1502 10.8991C24.0382 10.7872 23.8863 10.7243 23.728 10.7243H20.2502C20.0919 10.7243 19.94 10.7872 19.828 10.8991C19.7161 11.0111 19.6531 11.163 19.6531 11.3213V20.5537H17.3117L12.1599 12.4622C12.0757 12.3299 11.9428 12.2361 11.79 12.201C11.6371 12.1659 11.4766 12.1923 11.3431 12.2746L9.76875 13.2447V11.3213C9.76875 11.163 9.70585 11.0111 9.59388 10.8991C9.48191 10.7872 9.33004 10.7243 9.17169 10.7243H6.29148V8.67174H40.2923V20.5537H37.7986ZM6.29148 11.9184H8.57515V20.5537H6.29148V11.9184ZM9.76926 16.418L12.3221 20.5537H9.76926V16.418ZM13.7254 20.5537L9.9941 14.5088L11.4692 13.5999L15.8961 20.5537H13.7254ZM3.31131 5.69174H40.2923V7.47762H5.69442C5.53607 7.47762 5.38421 7.54053 5.27224 7.6525C5.16027 7.76447 5.09736 7.91633 5.09736 8.07468V21.1508C5.09736 21.3091 5.16027 21.461 5.27224 21.573C5.38421 21.6849 5.53607 21.7478 5.69442 21.7478H40.2923V23.5337H5.69442C5.53607 23.5337 5.38421 23.5966 5.27224 23.7086C5.16027 23.8206 5.09736 23.9724 5.09736 24.1308V35.7168C5.09736 35.8751 5.16027 36.027 5.27224 36.139C5.38421 36.251 5.53607 36.3139 5.69442 36.3139H40.2923V38.0997H5.69442C5.53607 38.0997 5.38421 38.1627 5.27224 38.2746C5.16027 38.3866 5.09736 38.5385 5.09736 38.6968V51.7736C5.09736 51.9319 5.16027 52.0838 5.27224 52.1958C5.38421 52.3077 5.53607 52.3706 5.69442 52.3706H40.2923V54.1567H3.31131V5.69174ZM43.2723 54.1559H41.4864V3.84426H43.2723V54.1559ZM44.4664 47.5711V45.7859H52.7068V47.5718L44.4664 47.5711ZM53.901 3.84426H55.687V54.1559H53.901V3.84426ZM52.7068 10.429V12.2142H44.4664V10.4283L52.7068 10.429Z" fill="#727272"/>
</svg>
