<svg width="250" height="250" viewBox="0 0 250 250" fill="none" xmlns="http://www.w3.org/2000/svg">
<path d="M220.785 3.67676H29.2156C21.1069 3.67676 14.5098 10.2739 14.5098 18.3826V242.647C14.5098 244.678 16.1559 246.324 18.1862 246.324C203.442 246.324 46.4786 246.324 231.815 246.324C233.845 246.324 235.491 244.678 235.491 242.647V18.3826C235.491 10.2739 228.894 3.67676 220.785 3.67676ZM47.2013 238.971V51.0741C47.2013 49.0474 48.851 47.3977 50.8777 47.3977H110.295V238.971L47.2013 238.971ZM117.648 238.971V47.3977H132.354V238.971L117.648 238.971ZM139.707 238.971V47.3977H199.123C201.15 47.3977 202.8 49.0474 202.8 51.0741V238.971L139.707 238.971ZM228.138 238.971H210.153V51.0741C210.153 44.9922 205.205 40.0447 199.123 40.0447C23.6341 40.0299 220.81 40.0439 50.8778 40.0447C44.7958 40.0447 39.8484 44.9922 39.8484 51.0741V238.971H21.8627V18.3826C21.8627 14.3274 25.1604 11.0297 29.2156 11.0297H220.785C224.84 11.0297 228.138 14.3274 228.138 18.3826L228.138 238.971Z" fill="#727272"/>
<path d="M94.3339 85.894L81.3471 72.9072C80.6818 72.2412 79.7624 71.829 78.7466 71.829C77.7308 71.829 76.8114 72.2412 76.1461 72.9072L63.1611 85.894C61.7249 87.3302 61.7249 89.6585 63.1611 91.0928C64.5972 92.5288 66.9237 92.529 68.3598 91.0928L75.0701 84.3814V110.757C75.0701 112.787 76.7163 114.433 78.7466 114.433C80.7769 114.433 82.4231 112.787 82.4231 110.757V84.3807L89.1351 91.0928C90.5713 92.5289 92.8978 92.5289 94.3339 91.0928C95.77 89.6566 95.77 87.3301 94.3339 85.894ZM181.639 95.1713L174.929 101.882V75.5055C174.929 73.4751 173.283 71.829 171.253 71.829C169.222 71.829 167.576 73.4751 167.576 75.5055V101.882L160.866 95.1713C159.43 93.7352 157.103 93.7352 155.667 95.1713C154.231 96.6075 154.231 98.934 155.667 100.37L168.652 113.355C169.331 114.035 170.292 114.433 171.253 114.433C172.213 114.433 173.174 114.035 173.853 113.355L186.838 100.37C188.274 98.934 188.274 96.6075 186.838 95.1713C185.402 93.7352 183.075 93.7352 181.639 95.1713ZM112.121 18.1836C108.059 18.1836 104.757 21.464 104.757 25.5477C104.757 29.6091 108.059 32.8895 112.121 32.8895C116.182 32.8895 119.485 29.6091 119.485 25.5477C119.485 21.464 116.182 18.1836 112.121 18.1836ZM137.878 18.1836C133.817 18.1836 130.514 21.464 130.514 25.5477C130.514 29.6091 133.817 32.8895 137.878 32.8895C141.94 32.8895 145.242 29.6091 145.242 25.5477C145.242 21.464 141.94 18.1836 137.878 18.1836Z" fill="#727272"/>
</svg>
