<svg width="250" height="239" viewBox="0 0 250 239" fill="none" xmlns="http://www.w3.org/2000/svg">
<path d="M239.17 71.5492C232.493 64.8641 223.209 60.7142 213.016 60.7142C212.358 60.7142 211.707 60.7308 211.06 60.7665V43.1904C211.064 31.4194 206.275 20.7085 198.553 13.0029C190.848 5.28905 180.137 0.496584 168.37 0.500002H81.6331C69.8622 0.496584 59.1517 5.28905 51.4457 13.0029C43.7279 20.708 38.9394 31.4189 38.9438 43.1904V60.7665C38.2968 60.7308 37.642 60.7142 36.9872 60.7142C26.7949 60.7142 17.5063 64.8641 10.8335 71.5492C4.15234 78.2225 -0.00195037 87.5067 0.00195588 97.699C0.00195588 104.263 1.72998 110.478 4.75048 115.834C7.65526 120.992 11.7651 125.363 16.6987 128.61C16.8637 129.188 17.1167 130.413 17.3012 132.374C17.5185 134.66 17.6626 137.946 17.6626 142.466C17.6626 158.78 17.6626 170.568 17.6626 170.568C17.6626 179.88 21.4629 188.381 27.5698 194.48C33.6684 200.59 42.1655 204.387 51.4857 204.383H56.2025L53.4706 238.809H67.9535L77.7884 204.383H172.211L182.054 238.809H196.533L193.801 204.383H198.518C207.838 204.387 216.331 200.59 222.434 194.48C228.54 188.381 232.341 179.881 232.341 170.568C232.341 170.568 232.341 158.78 232.341 142.466C232.341 138.504 232.449 135.5 232.622 133.273C232.754 131.61 232.927 130.385 233.084 129.55C233.164 129.136 233.245 128.826 233.309 128.61C238.238 125.364 242.348 120.992 245.257 115.834C248.274 110.478 250.002 104.263 250.002 97.699C250.001 87.5067 245.851 78.2225 239.17 71.5492ZM51.7431 43.1904C51.747 34.9145 55.077 27.4858 60.497 22.0586C65.9247 16.6386 73.3568 13.3042 81.6327 13.3003H168.37C176.646 13.3042 184.074 16.6386 189.506 22.0586C194.925 27.4858 198.252 34.9145 198.259 43.1904V63.7919C193.973 65.6561 190.108 68.2997 186.866 71.5497C180.181 78.2225 176.027 87.5072 176.031 97.6995C176.031 100.495 176.031 137.999 176.031 137.999C176.027 139.59 175.404 140.976 174.363 142.029C173.311 143.065 171.929 143.692 170.338 143.692H79.6649C78.0741 143.692 76.6918 143.065 75.6395 142.029C74.599 140.976 73.9764 139.59 73.9681 137.999C73.9681 137.999 73.9681 100.496 73.9681 97.6995C73.9764 87.5072 69.8182 78.2225 63.1371 71.5497C59.8949 68.2997 56.0302 65.6561 51.7436 63.7919L51.7431 43.1904ZM234.104 109.551C232.131 113.05 229.299 116.023 225.905 118.164C225.627 118.341 225.133 118.658 224.583 119.129C224.101 119.534 223.587 120.057 223.128 120.651C222.321 121.7 221.727 122.897 221.293 124.162C220.634 126.078 220.249 128.216 219.963 131.109C219.686 133.997 219.533 137.645 219.533 142.466C219.533 158.781 219.533 170.569 219.533 170.569C219.533 176.39 217.191 181.6 213.382 185.425C209.554 189.241 204.343 191.58 198.518 191.584H51.4862C45.6611 191.58 40.4462 189.241 36.6215 185.425C32.809 181.6 30.4706 176.39 30.4706 170.569C30.4706 170.569 30.4706 158.781 30.4706 142.466C30.4706 138.268 30.35 134.957 30.1411 132.266C29.9804 130.249 29.7675 128.574 29.4824 127.108C29.0527 124.922 28.4736 123.115 27.4291 121.443C26.9111 120.623 26.2641 119.872 25.6293 119.31C24.9946 118.739 24.416 118.366 24.0947 118.165C20.7041 116.023 17.8716 113.051 15.9033 109.551C13.9267 106.044 12.8056 102.031 12.8017 97.6995C12.8056 91.0023 15.5014 84.9964 19.8881 80.6009C24.2836 76.2137 30.2856 73.5223 36.9868 73.5184C43.6879 73.5223 49.6899 76.2137 54.0849 80.6009C58.4682 84.9964 61.1635 91.0023 61.1718 97.6995C61.1718 100.495 61.1718 137.999 61.1718 137.999C61.1635 143.089 63.2489 147.749 66.5873 151.08C69.9139 154.414 74.578 156.5 79.6644 156.495H170.339C175.424 156.499 180.089 154.414 183.415 151.08C186.754 147.749 188.835 143.089 188.835 137.999C188.835 137.999 188.835 100.496 188.835 97.6995C188.835 91.0023 191.531 84.9964 195.918 80.6009C200.313 76.2137 206.315 73.5223 213.016 73.5184C219.713 73.5223 225.719 76.2137 230.115 80.6009C234.502 84.9964 237.198 91.0023 237.198 97.6995C237.198 102.03 236.077 106.043 234.104 109.551Z" fill="#727272"/>
<path d="M100.292 61.9028C103.694 61.9028 106.458 59.1387 106.458 55.7402C106.458 52.333 103.694 49.5732 100.292 49.5732C96.8887 49.5732 94.1289 52.333 94.1289 55.7402C94.1289 59.1391 96.8887 61.9028 100.292 61.9028Z" fill="#727272"/>
<path d="M151.02 61.9028C154.423 61.9028 157.179 59.1387 157.179 55.7402C157.179 52.333 154.423 49.5732 151.02 49.5732C147.613 49.5732 144.857 52.333 144.857 55.7402C144.857 59.1391 147.613 61.9028 151.02 61.9028Z" fill="#727272"/>
<path d="M100.292 108.844C103.694 108.844 106.458 106.084 106.458 102.677C106.458 99.2744 103.694 96.5186 100.292 96.5186C96.8887 96.5186 94.1289 99.2744 94.1289 102.677C94.1289 106.084 96.8887 108.844 100.292 108.844Z" fill="#727272"/>
<path d="M151.02 108.844C154.423 108.844 157.179 106.084 157.179 102.677C157.179 99.2744 154.423 96.5186 151.02 96.5186C147.613 96.5186 144.857 99.2744 144.857 102.677C144.857 106.084 147.613 108.844 151.02 108.844Z" fill="#727272"/>
</svg>
