<svg width="59" height="58" viewBox="0 0 59 58" fill="none" xmlns="http://www.w3.org/2000/svg">
<g clip-path="url(#clip0_410_1924)">
<path d="M13.852 39.3518C13.7185 39.5105 13.6439 39.7104 13.6407 39.9178C13.6376 40.1252 13.7061 40.3273 13.8347 40.4899C13.8409 40.4977 14.3772 41.1779 15.1983 42.3292C15.3256 42.1507 15.4513 41.9708 15.5822 41.7953C15.8379 41.4486 16.0946 41.1184 16.3428 40.8172C16.5133 40.6059 16.6835 40.4051 16.8536 40.2052C16.2565 39.8412 15.6274 39.4824 14.9733 39.1344C14.7898 39.0367 14.5782 39.0049 14.3741 39.0445C14.17 39.0841 13.9857 39.1926 13.852 39.3518ZM43.294 43.3744C43.4421 43.5243 43.5843 43.6772 43.7278 43.8294C45.7555 39.5586 47.7316 37.4924 47.8182 37.4036C47.9676 37.2492 48.0571 37.0466 48.0707 36.8321C48.0843 36.6177 48.021 36.4054 47.8923 36.2333C47.7636 36.0613 47.5777 35.9408 47.3682 35.8933C47.1586 35.8458 46.939 35.8746 46.7487 35.9744C46.7183 35.9901 43.8463 37.5064 40.7311 41.0705C40.9581 41.2509 41.1891 41.4386 41.4333 41.6457C41.6679 41.8455 41.8881 42.0465 42.1101 42.2472C42.4052 41.9099 42.6982 41.5857 42.9852 41.2881C42.7817 41.6631 42.5763 42.0595 42.369 42.4772C42.6929 42.7772 43.0031 43.0769 43.294 43.3744Z" fill="#727272"/>
<path d="M58.4816 55.1025C58.4392 54.8984 58.3277 54.7153 58.166 54.5839C58.0043 54.4524 57.8022 54.3808 57.5938 54.381H50.783C52.9385 43.0158 58.0213 37.6307 58.2429 37.4004C58.3918 37.2452 58.4804 37.0419 58.4929 36.8272C58.5053 36.6124 58.4408 36.4003 58.3109 36.2288C58.181 36.0574 57.9942 35.9379 57.784 35.8918C57.5739 35.8457 57.3543 35.8761 57.1645 35.9774C56.8756 36.13 50.0371 39.8307 45.9931 49.3698C45.9342 49.5084 45.8855 49.6402 45.8296 49.7767C44.9344 48.1175 43.8295 46.5805 42.542 45.2035C41.8473 44.4558 41.1107 43.7482 40.3356 43.0842C39.8591 42.6767 39.3577 42.2776 38.8493 41.9015C38.1261 41.3589 37.3614 40.838 36.5701 40.3481C37.2058 39.2988 37.9388 38.3116 38.7594 37.3996C38.9076 37.2446 38.9959 37.0419 39.0084 36.8279C39.021 36.6138 38.9571 36.4022 38.8281 36.2309C38.6991 36.0597 38.5134 35.9398 38.3041 35.8928C38.0949 35.8458 37.8758 35.8747 37.6859 35.9743C37.6521 35.9918 34.4344 37.6937 31.1122 41.7307C31.36 41.9427 31.6037 42.1567 31.8404 42.3738C32.0494 42.5649 32.2453 42.7616 32.4462 42.9564C32.9432 42.3471 33.4372 41.7947 33.9162 41.2969C33.5563 41.963 33.2153 42.6637 32.8842 43.3785C33.2146 43.7134 33.5306 44.0509 33.8321 44.3912C33.9628 44.5381 34.0806 44.6905 34.2069 44.8393C34.4936 44.1856 34.7938 43.5505 35.1075 42.9338C35.5333 43.5459 36.0282 44.2753 36.5659 45.1042C36.8575 45.5598 37.158 46.0382 37.4686 46.5449C38.266 47.8401 39.0059 49.1361 39.6674 50.3977C40.3826 51.7568 41.0135 53.0915 41.5527 54.381H39.5851C39.3935 53.9453 39.1895 53.502 38.9732 53.051C38.9309 52.963 38.8839 52.8723 38.8408 52.7836C38.7254 53.3109 38.6131 53.8422 38.5152 54.381H35.7623C35.9416 53.7138 36.1416 53.0519 36.3606 52.4006C36.6115 51.6386 36.8996 50.877 37.2421 50.0687C37.2676 50.0077 37.2968 49.9464 37.3229 49.8854C37.0444 49.3866 36.7589 48.885 36.4588 48.3785C36.3755 48.2384 36.2931 48.1043 36.2101 47.9674C35.9805 48.441 35.765 48.9066 35.5712 49.3698C35.5121 49.5089 35.4632 49.6412 35.4071 49.7782C34.753 48.5599 33.9819 47.4083 33.1046 46.3394C32.3871 45.4598 31.6092 44.6313 30.7766 43.8598C29.0022 42.2251 27.0414 40.8051 24.9347 39.6291C24.6909 39.4879 24.4368 39.351 24.1799 39.2135C24.614 38.5763 25.0937 37.9714 25.6153 37.4035C25.7637 37.2501 25.853 37.0491 25.8675 36.8362C25.8819 36.6232 25.8206 36.412 25.6942 36.2399C25.5679 36.0678 25.3847 35.946 25.1772 35.8961C24.9697 35.8461 24.7511 35.8712 24.5603 35.9668C24.5285 35.9827 21.2681 37.6699 17.8573 41.8644C17.4431 42.3747 17.043 42.9034 16.6713 43.4325C15.2742 45.4068 14.1097 47.5358 13.201 49.7772C13.1262 49.6373 13.0543 49.4971 12.9751 49.3579C11.3777 46.5405 8.14781 42.4809 1.83592 39.1383C1.65306 39.0409 1.44229 39.0092 1.23886 39.0486C1.03543 39.0879 0.851671 39.1959 0.718305 39.3544C0.584938 39.513 0.510049 39.7126 0.506157 39.9197C0.502266 40.1269 0.569608 40.3291 0.696925 40.4926C0.920171 40.7772 5.9215 47.1993 8.92688 54.381H1.40626C1.19046 54.3796 0.981317 54.4557 0.816937 54.5955C0.652558 54.7354 0.54388 54.9296 0.510703 55.1428C0.477527 55.3561 0.522059 55.5742 0.636188 55.7573C0.750316 55.9405 0.926445 56.0765 1.13249 56.1407C1.2208 56.1704 1.3132 56.1862 1.40637 56.1875H57.5939C57.7873 56.188 57.9757 56.126 58.1311 56.0107C58.2865 55.8955 58.4005 55.7331 58.4562 55.5478C58.484 55.4627 58.4988 55.3739 58.5001 55.2844C58.5001 55.2233 58.4939 55.1623 58.4816 55.1025ZM11.6965 54.381H10.8852C9.24218 50.4198 7.1987 46.6369 4.78656 43.0912C7.47732 44.9759 9.73197 47.4164 11.398 50.2478C11.7499 50.8659 12.0627 51.5053 12.3348 52.1624C12.0978 52.8917 11.8866 53.6335 11.6965 54.381ZM13.5592 54.381C13.7384 53.7143 13.938 53.0528 14.1562 52.4037C15.0887 49.5768 16.4358 46.9041 18.1533 44.4728C18.5038 43.9736 18.8781 43.4784 19.2658 43.0013C19.7822 42.3663 20.2941 41.7934 20.7884 41.2797C20.4123 41.9729 20.0273 42.7375 19.6454 43.5745C19.2016 44.5411 18.7852 45.5576 18.4077 46.5952C17.4915 49.1268 16.7908 51.7314 16.3134 54.381L13.5592 54.381ZM29.1547 54.381H28.0467C27.8951 53.607 27.6795 52.8469 27.402 52.1086C27.4938 51.8442 27.5856 51.5796 27.6815 51.3226C27.3926 50.7712 27.0939 50.2162 26.7759 49.6547C26.702 49.524 26.6281 49.3956 26.5542 49.267C26.4828 49.433 26.4143 49.6062 26.3451 49.7774C25.4236 48.0782 24.2855 46.5058 22.9594 45.0994C22.8765 45.2806 22.7896 45.4561 22.7089 45.6401C22.5234 46.0666 22.3534 46.5035 22.1821 46.9394C23.6247 48.5677 24.7783 50.4307 25.5931 52.4478C25.8424 53.0762 26.0441 53.7224 26.1963 54.3811H24.0262C23.2747 52.5197 22.416 50.7034 21.4546 48.9413C21.4156 49.0586 21.37 49.1744 21.3322 49.2918C21.1057 49.9916 20.9012 50.7082 20.7074 51.4316C21.2114 52.4406 21.6642 53.4238 22.0658 54.3811H18.1686C18.6215 51.9426 19.2713 49.5448 20.1114 47.2113C20.4725 46.2191 20.8703 45.248 21.2942 44.3242C21.8424 43.1176 22.4598 41.9438 23.1434 40.8084C23.2422 40.9379 23.3681 41.1042 23.5187 41.3066C25.0235 43.3464 26.422 45.4625 27.7087 47.6465C27.7185 47.6663 27.7291 47.6858 27.7406 47.7052C28.6185 49.1886 29.4186 50.6804 30.1208 52.1427C30.48 52.8817 30.8089 53.6308 31.1224 54.3811L29.1547 54.381ZM33.8996 54.381H33.0883C32.6852 53.3677 32.2369 52.353 31.7537 51.359C31.0439 49.8809 30.2355 48.371 29.3504 46.8699C29.3277 46.8203 29.3006 46.7728 29.2695 46.7279C28.48 45.3848 27.6959 44.154 26.976 43.0784C27.8733 43.7249 28.7294 44.4267 29.5394 45.1797C30.3114 45.8947 31.0326 46.6629 31.6975 47.4785C32.8689 48.8924 33.8259 50.4711 34.5375 52.1638C34.3006 52.8926 34.0896 53.6339 33.8996 54.381ZM44.3215 54.381H43.5102C42.8493 52.736 42.1026 51.1267 41.2733 49.5599C40.5927 48.263 39.8325 46.9303 39.0143 45.6021C38.6988 45.0866 38.3922 44.5985 38.0912 44.1284C37.8518 43.7593 37.62 43.4087 37.3992 43.0789C37.5217 43.1675 37.6433 43.2572 37.7638 43.3479C38.2426 43.7024 38.7108 44.075 39.1528 44.453C39.8752 45.0716 40.5617 45.7309 41.2091 46.4276C42.7894 48.1021 44.0593 50.0442 44.9596 52.1633C44.7226 52.8922 44.5115 53.6338 44.3215 54.381ZM46.1842 54.381C46.3634 53.7138 46.5634 53.0519 46.7825 52.4006C47.0334 51.6386 47.3214 50.877 47.6626 50.0727C49.0259 46.8199 50.9752 43.8453 53.4134 41.2969C51.2427 45.3957 49.7326 49.8114 48.9388 54.381H46.1842ZM57.5938 33.6094C57.7125 33.6097 57.8302 33.5865 57.94 33.5412C58.0498 33.496 58.1496 33.4295 58.2337 33.3456C58.3177 33.2617 58.3844 33.1621 58.43 33.0524C58.4755 32.9427 58.4989 32.8251 58.4989 32.7063C58.4989 32.5875 58.4755 32.4699 58.43 32.3602C58.3844 32.2505 58.3177 32.1509 58.2337 32.067C58.1496 31.9831 58.0498 31.9166 57.94 31.8713C57.8302 31.8261 57.7125 31.8029 57.5938 31.8032H50.7835C50.8806 31.2901 50.9836 30.7797 51.0974 30.2778C51.3005 29.3624 51.5244 28.4782 51.7646 27.6448C52.1539 26.2643 52.6128 24.9043 53.1395 23.5702C53.3785 22.9696 53.632 22.3734 53.8922 21.7997C56.0069 17.1523 58.15 14.9183 58.2403 14.8257C58.3897 14.6713 58.4792 14.4687 58.4928 14.2542C58.5064 14.0397 58.4432 13.8275 58.3144 13.6554C58.1857 13.4834 57.9998 13.3628 57.7902 13.3154C57.5807 13.2679 57.361 13.2967 57.1707 13.3965C57.1384 13.4133 53.898 15.1225 50.5663 19.1843C50.1464 19.6963 49.7738 20.1822 49.4331 20.662C48.8755 21.4297 48.3525 22.2301 47.8816 23.0366C47.5276 23.6355 47.1803 24.2762 46.8519 24.9355C46.5302 25.5722 46.2488 26.1808 45.993 26.792C45.934 26.9311 45.8851 27.0634 45.829 27.2004C45.1749 25.9821 44.4038 24.8304 43.5266 23.7616C42.809 22.882 42.0312 22.0535 41.1985 21.282C39.4241 19.6473 37.4633 18.2272 35.3566 17.0513C35.0659 16.8828 34.7658 16.7196 34.4565 16.5556C34.2734 16.4578 34.0622 16.4259 33.8584 16.4654C33.6546 16.5049 33.4705 16.6134 33.3372 16.7725C33.2039 16.9316 33.1294 17.1318 33.1262 17.3394C33.123 17.547 33.1913 17.7494 33.3197 17.9125C33.3242 17.9187 33.5534 18.2084 33.9406 18.7287C35.4454 20.7685 36.8439 22.8846 38.1306 25.0686C38.1404 25.0885 38.151 25.1079 38.1625 25.1273C39.0404 26.6107 39.8405 28.1025 40.5427 29.5648C40.9019 30.3038 41.2308 31.0529 41.5443 31.8032H27.6666C28.2859 31.3152 28.7287 30.6382 28.9276 29.8752H32.2188C32.4587 29.8756 32.689 29.7807 32.8589 29.6114C33.0289 29.442 33.1246 29.2121 33.125 28.9721V21.5567C33.1247 21.3527 33.0555 21.1548 32.9284 20.9951C32.8014 20.8355 32.6241 20.7235 32.4254 20.6774L26.7813 19.3607V13.6192C26.7808 13.3792 26.6851 13.1493 26.5152 12.9799C26.3452 12.8106 26.1149 12.7157 25.875 12.7161H15C14.7601 12.7157 14.5298 12.8106 14.3599 12.9799C14.1899 13.1493 14.0942 13.3792 14.0938 13.6192V16.4007L6.84376 14.7093V5.4347C6.84377 5.31644 6.82049 5.19934 6.77524 5.09008C6.72999 4.98083 6.66366 4.88155 6.58004 4.79793L3.86526 2.07843C3.69632 1.90803 3.4666 1.81171 3.22664 1.81068C2.98669 1.80964 2.75615 1.90397 2.58574 2.07292C2.41534 2.24186 2.31902 2.47158 2.31799 2.71153C2.31695 2.95149 2.41128 3.18203 2.58023 3.35243L5.03126 5.80731V15.2785L0.546474 28.6864C0.501341 28.8224 0.489182 28.9672 0.511001 29.1088C0.53282 29.2504 0.587991 29.3848 0.671966 29.5009C0.75594 29.6171 0.866313 29.7115 0.993982 29.7766C1.12165 29.8417 1.26296 29.8755 1.40626 29.8752H6.02886C6.17457 30.5821 6.48843 31.2434 6.94388 31.8032H1.40626C1.28749 31.8029 1.16984 31.8261 1.06003 31.8713C0.950229 31.9166 0.850431 31.9831 0.766355 32.067C0.682279 32.1509 0.615575 32.2505 0.570063 32.3602C0.52455 32.4699 0.501123 32.5875 0.501123 32.7063C0.501123 32.8251 0.52455 32.9427 0.570063 33.0524C0.615575 33.1621 0.682279 33.2617 0.766355 33.3456C0.850431 33.4295 0.950229 33.496 1.06003 33.5412C1.16984 33.5865 1.28749 33.6097 1.40626 33.6094H57.5938ZM15.9063 14.5223H24.9688V18.9378L15.9063 16.8236V14.5223ZM10.4688 31.6815C9.9333 31.6796 9.4104 31.5191 8.96609 31.2203C8.52177 30.9215 8.17597 30.4977 7.97234 30.0024C7.76871 29.5072 7.7164 28.9627 7.822 28.4378C7.9276 27.9128 8.18638 27.431 8.56566 27.053C8.94495 26.675 9.42772 26.4179 9.95303 26.3141C10.4783 26.2103 11.0226 26.2646 11.5171 26.4699C12.0117 26.6752 12.4343 27.0225 12.7316 27.4678C13.0288 27.9132 13.1875 28.4367 13.1875 28.9721C13.1855 29.6917 12.8981 30.3811 12.3884 30.889C11.8787 31.3969 11.1883 31.6819 10.4688 31.6815ZM10.4688 24.4565C9.42624 24.4566 8.41559 24.8159 7.60693 25.4739C6.79826 26.1318 6.24097 27.0483 6.02886 28.069H2.66342L6.53578 16.4926L31.3125 22.2728V28.069H28.9276C28.7254 27.2931 28.2716 26.6063 27.6372 26.116C27.0028 25.6257 26.2237 25.3597 25.4219 25.3597C24.6201 25.3597 23.841 25.6257 23.2066 26.116C22.5722 26.6063 22.1184 27.2931 21.9162 28.069H14.9087C14.6966 27.0483 14.1393 26.1318 13.3306 25.4739C12.5219 24.8159 11.5113 24.4566 10.4688 24.4565ZM13.9936 31.8032C14.4491 31.2434 14.7629 30.5821 14.9087 29.8752H21.9162C22.115 30.6382 22.5578 31.3152 23.1772 31.8032L13.9936 31.8032ZM25.4219 30.7784C25.0649 30.7771 24.7163 30.6701 24.4201 30.4709C24.1239 30.2717 23.8933 29.9892 23.7576 29.659C23.6218 29.3289 23.587 28.9659 23.6574 28.6159C23.7278 28.266 23.9003 27.9447 24.1531 27.6927C24.406 27.4407 24.7278 27.2693 25.078 27.2001C25.4283 27.1309 25.7911 27.1671 26.1208 27.304C26.4505 27.4409 26.7322 27.6724 26.9304 27.9693C27.1286 28.2662 27.2344 28.6151 27.2344 28.9721C27.2331 29.4518 27.0415 29.9115 26.7017 30.2501C26.3619 30.5887 25.9016 30.7787 25.4219 30.7784ZM44.3215 31.8032H43.5102C43.107 30.7898 42.6588 29.7751 42.1756 28.7812C41.4658 27.303 40.6573 25.7931 39.7723 24.2921C39.7496 24.2424 39.7225 24.1949 39.6913 24.1501C38.9019 22.8069 38.1178 21.5761 37.3978 20.5006C38.2951 21.1471 39.1513 21.8488 39.9613 22.6018C40.7333 23.3168 41.4544 24.085 42.1194 24.9006C43.2908 26.3145 44.2477 27.8932 44.9594 29.5859C44.7225 30.3147 44.5115 31.0561 44.3215 31.8032ZM48.937 31.8032H46.1842C46.3634 31.136 46.5634 30.4741 46.7825 29.8228C47.0334 29.0608 47.3214 28.2992 47.6639 27.4909C47.9047 26.9159 48.1688 26.3457 48.4728 25.7433C48.7848 25.1176 49.1114 24.5152 49.4459 23.949C49.8888 23.1901 50.3787 22.4404 50.907 21.7133C51.2288 21.2599 51.5766 20.8066 51.9699 20.3273C52.4558 19.7346 52.9386 19.1962 53.4072 18.7102C53.0236 19.4176 52.6306 20.199 52.2412 21.0549C51.9691 21.6551 51.7044 22.2773 51.4535 22.9065C50.9049 24.2965 50.4269 25.7132 50.0212 27.1514C49.772 28.0157 49.5388 28.9364 49.3282 29.8841C49.1857 30.5133 49.0547 31.1558 48.937 31.8032Z" fill="#727272"/>
</g>
<defs>
<clipPath id="clip0_410_1924">
<rect width="58" height="58" fill="white" transform="translate(0.5)"/>
</clipPath>
</defs>
</svg>
