<svg width="58" height="58" viewBox="0 0 58 58" fill="none" xmlns="http://www.w3.org/2000/svg">
<g clip-path="url(#clip0_2263_13472)">
<path d="M51.6562 18.125H47.8029C45.9015 14.827 43.1678 12.0858 39.875 10.1754V6.34375C39.875 4.66128 39.2066 3.04773 38.017 1.85804C36.8273 0.668357 35.2137 0 33.5312 0H24.4688C22.7863 0 21.1727 0.668357 19.983 1.85804C18.7934 3.04773 18.125 4.66128 18.125 6.34375V10.1989C14.8344 12.1011 12.1011 14.8344 10.1989 18.125H6.34375C4.66128 18.125 3.04773 18.7934 1.85804 19.983C0.668357 21.1727 0 22.7863 0 24.4688L0 33.5312C0 35.2137 0.668357 36.8273 1.85804 38.017C3.04773 39.2066 4.66128 39.875 6.34375 39.875H10.2007C12.1029 43.1646 14.8354 45.8971 18.125 47.7992V51.6562C18.125 53.3387 18.7934 54.9523 19.983 56.142C21.1727 57.3316 22.7863 58 24.4688 58H33.5312C35.2137 58 36.8273 57.3316 38.017 56.142C39.2066 54.9523 39.875 53.3387 39.875 51.6562V47.8011C43.1649 45.8979 45.8979 43.1649 47.8011 39.875H51.6562C53.3387 39.875 54.9523 39.2066 56.142 38.017C57.3316 36.8273 58 35.2137 58 33.5312V24.4688C58 22.7863 57.3316 21.1727 56.142 19.983C54.9523 18.7934 53.3387 18.125 51.6562 18.125ZM19.9375 9.96875V6.34375C19.9375 5.14199 20.4149 3.98945 21.2647 3.13967C22.1144 2.2899 23.267 1.8125 24.4688 1.8125H33.5312C34.733 1.8125 35.8856 2.2899 36.7353 3.13967C37.5851 3.98945 38.0625 5.14199 38.0625 6.34375V12.6875H34.4375V9.96875C34.4347 9.86504 34.4138 9.76262 34.3759 9.66606C34.4079 9.46621 34.4284 9.26469 34.4375 9.0625C34.4375 7.62039 33.8646 6.23734 32.8449 5.21761C31.8252 4.19788 30.4421 3.625 29 3.625C27.5579 3.625 26.1748 4.19788 25.1551 5.21761C24.1354 6.23734 23.5625 7.62039 23.5625 9.0625C23.5716 9.26469 23.5921 9.46621 23.6241 9.66606C23.5862 9.76262 23.5653 9.86504 23.5625 9.96875V12.6875H19.9375V9.96875ZM38.0625 14.5C38.0625 14.9807 37.8715 15.4417 37.5316 15.7816C37.1917 16.1215 36.7307 16.3125 36.25 16.3125C35.7693 16.3125 35.3083 16.1215 34.9684 15.7816C34.6285 15.4417 34.4375 14.9807 34.4375 14.5H38.0625ZM32.625 9.0625C32.625 9.77946 32.4124 10.4803 32.0141 11.0764C31.6158 11.6726 31.0496 12.1372 30.3872 12.4116C29.7248 12.6859 28.996 12.7577 28.2928 12.6178C27.5896 12.478 26.9437 12.1327 26.4367 11.6258C25.9298 11.1188 25.5845 10.4729 25.4447 9.7697C25.3048 9.06652 25.3766 8.33765 25.6509 7.67527C25.9253 7.01289 26.3899 6.44674 26.9861 6.04842C27.5822 5.6501 28.283 5.4375 29 5.4375C29.9614 5.4375 30.8834 5.81942 31.5633 6.49924C32.2431 7.17906 32.625 8.10109 32.625 9.0625ZM23.5625 14.5C23.5625 14.9807 23.3715 15.4417 23.0316 15.7816C22.6917 16.1215 22.2307 16.3125 21.75 16.3125C21.2693 16.3125 20.8083 16.1215 20.4684 15.7816C20.1285 15.4417 19.9375 14.9807 19.9375 14.5H23.5625ZM10.4944 38.0625H6.34375C5.14199 38.0625 3.98945 37.5851 3.13967 36.7353C2.2899 35.8856 1.8125 34.733 1.8125 33.5312V24.4688C1.8125 23.267 2.2899 22.1144 3.13967 21.2647C3.98945 20.4149 5.14199 19.9375 6.34375 19.9375H12.6875V23.5625H9.96875C9.86504 23.5653 9.76262 23.5862 9.66606 23.6241C9.46621 23.5921 9.26469 23.5716 9.0625 23.5625C7.62039 23.5625 6.23734 24.1354 5.21761 25.1551C4.19788 26.1748 3.625 27.5579 3.625 29C3.625 30.4421 4.19788 31.8252 5.21761 32.8449C6.23734 33.8646 7.62039 34.4375 9.0625 34.4375C9.26469 34.4284 9.46621 34.4079 9.66606 34.3759C9.76262 34.4138 9.86504 34.4347 9.96875 34.4375H12.6875V38.0625H10.875C10.7496 38.035 10.6198 38.035 10.4944 38.0625ZM12.6875 29C12.6875 29.717 12.4749 30.4178 12.0766 31.0139C11.6783 31.6101 11.1121 32.0747 10.4497 32.3491C9.78735 32.6234 9.05848 32.6952 8.3553 32.5553C7.65212 32.4155 7.0062 32.0702 6.49924 31.5633C5.99227 31.0563 5.64703 30.4104 5.50715 29.7072C5.36728 29.004 5.43907 28.2752 5.71344 27.6128C5.9878 26.9504 6.45243 26.3842 7.04856 25.9859C7.64469 25.5876 8.34554 25.375 9.0625 25.375C10.0239 25.375 10.9459 25.7569 11.6258 26.4367C12.3056 27.1166 12.6875 28.0386 12.6875 29ZM38.0625 48.0312V51.6562C38.0625 52.858 37.5851 54.0106 36.7353 54.8603C35.8856 55.7101 34.733 56.1875 33.5312 56.1875H24.4688C23.267 56.1875 22.1144 55.7101 21.2647 54.8603C20.4149 54.0106 19.9375 52.858 19.9375 51.6562V47.5129C19.9687 47.3793 19.9687 47.2404 19.9375 47.1069V45.3125H23.5625V48.0312C23.5653 48.135 23.5862 48.2374 23.6241 48.3339C23.5921 48.5338 23.5716 48.7353 23.5625 48.9375C23.5625 50.3796 24.1354 51.7627 25.1551 52.7824C26.1748 53.8021 27.5579 54.375 29 54.375C30.4421 54.375 31.8252 53.8021 32.8449 52.7824C33.8646 51.7627 34.4375 50.3796 34.4375 48.9375C34.4284 48.7353 34.4079 48.5338 34.3759 48.3339C34.4138 48.2374 34.4347 48.135 34.4375 48.0312V45.3125H38.0625V48.0312ZM19.9375 43.5C19.9375 43.0193 20.1285 42.5583 20.4684 42.2184C20.8083 41.8785 21.2693 41.6875 21.75 41.6875C22.2307 41.6875 22.6917 41.8785 23.0316 42.2184C23.3715 42.5583 23.5625 43.0193 23.5625 43.5H19.9375ZM25.375 48.9375C25.375 48.2205 25.5876 47.5197 25.9859 46.9236C26.3842 46.3274 26.9504 45.8628 27.6128 45.5884C28.2752 45.3141 29.004 45.2423 29.7072 45.3822C30.4104 45.522 31.0563 45.8673 31.5633 46.3742C32.0702 46.8812 32.4155 47.5271 32.5553 48.2303C32.6952 48.9335 32.6234 49.6623 32.3491 50.3247C32.0747 50.9871 31.6101 51.5533 31.0139 51.9516C30.4178 52.3499 29.717 52.5625 29 52.5625C28.0386 52.5625 27.1166 52.1806 26.4367 51.5008C25.7569 50.8209 25.375 49.8989 25.375 48.9375ZM34.4375 43.5C34.4375 43.0193 34.6285 42.5583 34.9684 42.2184C35.3083 41.8785 35.7693 41.6875 36.25 41.6875C36.7307 41.6875 37.1917 41.8785 37.5316 42.2184C37.8715 42.5583 38.0625 43.0193 38.0625 43.5H34.4375ZM39.875 45.6532V43.5C39.875 42.5386 39.4931 41.6166 38.8133 40.9367C38.1334 40.2569 37.2114 39.875 36.25 39.875C35.2886 39.875 34.3666 40.2569 33.6867 40.9367C33.0069 41.6166 32.625 42.5386 32.625 43.5V44.9137C31.6369 44.0042 30.343 43.4993 29 43.4993C27.657 43.4993 26.3631 44.0042 25.375 44.9137V43.5C25.375 42.5386 24.9931 41.6166 24.3133 40.9367C23.6334 40.2569 22.7114 39.875 21.75 39.875C20.7886 39.875 19.8666 40.2569 19.1867 40.9367C18.5069 41.6166 18.125 42.5386 18.125 43.5V45.6532C15.8193 44.1484 13.8516 42.1807 12.3467 39.875H14.5C15.4614 39.875 16.3834 39.4931 17.0633 38.8133C17.7431 38.1334 18.125 37.2114 18.125 36.25C18.125 35.2886 17.7431 34.3666 17.0633 33.6867C16.3834 33.0069 15.4614 32.625 14.5 32.625H13.0862C13.9958 31.6369 14.5007 30.343 14.5007 29C14.5007 27.657 13.9958 26.3631 13.0862 25.375H14.5C15.4614 25.375 16.3834 24.9931 17.0633 24.3133C17.7431 23.6334 18.125 22.7114 18.125 21.75C18.125 20.7886 17.7431 19.8666 17.0633 19.1867C16.3834 18.5069 15.4614 18.125 14.5 18.125H12.3467C13.852 15.8191 15.8196 13.8509 18.125 12.3449V14.5C18.125 15.4614 18.5069 16.3834 19.1867 17.0633C19.8666 17.7431 20.7886 18.125 21.75 18.125C22.7114 18.125 23.6334 17.7431 24.3133 17.0633C24.9931 16.3834 25.375 15.4614 25.375 14.5V13.0862C26.3631 13.9958 27.657 14.5007 29 14.5007C30.343 14.5007 31.6369 13.9958 32.625 13.0862V14.5C32.625 15.4614 33.0069 16.3834 33.6867 17.0633C34.3666 17.7431 35.2886 18.125 36.25 18.125C37.2114 18.125 38.1334 17.7431 38.8133 17.0633C39.4931 16.3834 39.875 15.4614 39.875 14.5V12.3449C42.1815 13.8507 44.1504 15.8189 45.6569 18.125H43.5C42.5386 18.125 41.6166 18.5069 40.9367 19.1867C40.2569 19.8666 39.875 20.7886 39.875 21.75C39.875 22.7114 40.2569 23.6334 40.9367 24.3133C41.6166 24.9931 42.5386 25.375 43.5 25.375H44.9137C44.0042 26.3631 43.4993 27.657 43.4993 29C43.4993 30.343 44.0042 31.6369 44.9137 32.625H43.5C42.5386 32.625 41.6166 33.0069 40.9367 33.6867C40.2569 34.3666 39.875 35.2886 39.875 36.25C39.875 37.2114 40.2569 38.1334 40.9367 38.8133C41.6166 39.4931 42.5386 39.875 43.5 39.875H45.6532C44.1478 42.1802 42.1802 44.1478 39.875 45.6532ZM14.5 38.0625V34.4375C14.9807 34.4375 15.4417 34.6285 15.7816 34.9684C16.1215 35.3083 16.3125 35.7693 16.3125 36.25C16.3125 36.7307 16.1215 37.1917 15.7816 37.5316C15.4417 37.8715 14.9807 38.0625 14.5 38.0625ZM14.5 23.5625V19.9375C14.9807 19.9375 15.4417 20.1285 15.7816 20.4684C16.1215 20.8083 16.3125 21.2693 16.3125 21.75C16.3125 22.2307 16.1215 22.6917 15.7816 23.0316C15.4417 23.3715 14.9807 23.5625 14.5 23.5625ZM43.5 19.9375V23.5625C43.0193 23.5625 42.5583 23.3715 42.2184 23.0316C41.8785 22.6917 41.6875 22.2307 41.6875 21.75C41.6875 21.2693 41.8785 20.8083 42.2184 20.4684C42.5583 20.1285 43.0193 19.9375 43.5 19.9375ZM43.5 34.4375V38.0625C43.0193 38.0625 42.5583 37.8715 42.2184 37.5316C41.8785 37.1917 41.6875 36.7307 41.6875 36.25C41.6875 35.7693 41.8785 35.3083 42.2184 34.9684C42.5583 34.6285 43.0193 34.4375 43.5 34.4375ZM56.1875 33.5312C56.1875 34.733 55.7101 35.8856 54.8603 36.7353C54.0106 37.5851 52.858 38.0625 51.6562 38.0625H47.5129C47.3816 38.0329 47.2454 38.0329 47.1141 38.0625H45.3125V34.4375H48.0312C48.135 34.4347 48.2374 34.4138 48.3339 34.3759C48.5338 34.4079 48.7353 34.4284 48.9375 34.4375C50.3796 34.4375 51.7627 33.8646 52.7824 32.8449C53.8021 31.8252 54.375 30.4421 54.375 29C54.375 27.5579 53.8021 26.1748 52.7824 25.1551C51.7627 24.1354 50.3796 23.5625 48.9375 23.5625C48.7353 23.5716 48.5338 23.5921 48.3339 23.6241C48.2374 23.5862 48.135 23.5653 48.0312 23.5625H45.3125V19.9375H51.6562C52.858 19.9375 54.0106 20.4149 54.8603 21.2647C55.7101 22.1144 56.1875 23.267 56.1875 24.4688V33.5312ZM45.3125 29C45.3125 28.283 45.5251 27.5822 45.9234 26.9861C46.3217 26.3899 46.8879 25.9253 47.5503 25.6509C48.2127 25.3766 48.9415 25.3048 49.6447 25.4447C50.3479 25.5845 50.9938 25.9298 51.5008 26.4367C52.0077 26.9437 52.353 27.5896 52.4928 28.2928C52.6327 28.996 52.5609 29.7248 52.2866 30.3872C52.0122 31.0496 51.5476 31.6158 50.9514 32.0141C50.3553 32.4124 49.6545 32.625 48.9375 32.625C47.9761 32.625 47.0541 32.2431 46.3742 31.5633C45.6944 30.8834 45.3125 29.9614 45.3125 29ZM39.875 26.2812C39.875 26.0409 39.7795 25.8104 39.6096 25.6404C39.4396 25.4705 39.2091 25.375 38.9688 25.375H31.7188C31.4784 25.375 31.2479 25.4705 31.0779 25.6404C30.908 25.8104 30.8125 26.0409 30.8125 26.2812V31.7188C30.8125 31.9591 30.908 32.1896 31.0779 32.3596C31.2479 32.5295 31.4784 32.625 31.7188 32.625H38.9688C39.2091 32.625 39.4396 32.5295 39.6096 32.3596C39.7795 32.1896 39.875 31.9591 39.875 31.7188V26.2812ZM38.0625 30.8125H32.625V27.1875H38.0625V30.8125ZM26.2812 25.375H19.0312C18.7909 25.375 18.5604 25.4705 18.3904 25.6404C18.2205 25.8104 18.125 26.0409 18.125 26.2812V31.7188C18.125 31.9591 18.2205 32.1896 18.3904 32.3596C18.5604 32.5295 18.7909 32.625 19.0312 32.625H26.2812C26.5216 32.625 26.7521 32.5295 26.9221 32.3596C27.092 32.1896 27.1875 31.9591 27.1875 31.7188V26.2812C27.1875 26.0409 27.092 25.8104 26.9221 25.6404C26.7521 25.4705 26.5216 25.375 26.2812 25.375ZM25.375 30.8125H19.9375V27.1875H25.375V30.8125Z" fill="#727272"/>
</g>
<defs>
<clipPath id="clip0_2263_13472">
<rect width="58" height="58" fill="white"/>
</clipPath>
</defs>
</svg>
