<svg width="250" height="250" viewBox="0 0 250 250" fill="none" xmlns="http://www.w3.org/2000/svg">
<g clip-path="url(#clip0_1657_4070)">
<path d="M203.125 140.625C203.119 135.446 201.06 130.482 197.398 126.82C193.737 123.159 188.772 121.099 183.594 121.093H170.144C166.884 113.152 163.208 105.387 159.132 97.8313C158.111 96.028 156.63 94.5284 154.839 93.4861C153.048 92.4438 151.012 91.8962 148.94 91.8994H54.1867C52.1145 91.8961 50.0786 92.4436 48.2875 93.4859C46.4965 94.5283 45.0147 96.0279 43.9939 97.8313C39.9183 105.387 36.2427 113.152 32.9823 121.093H19.5323C14.3541 121.099 9.38965 123.159 5.72811 126.82C2.06658 130.482 0.00692432 135.446 0.00100029 140.625C0.00105208 141.661 0.412619 142.654 1.14517 143.387C1.87772 144.119 2.87126 144.531 3.90725 144.531H19.6608C11.3649 152.074 -1.02599 167.82 0.0677581 194.019C1.15303 220.031 4.9868 224.882 8.96745 226.247C9.22869 226.334 9.49577 226.401 9.76663 226.449V238.281C9.77002 241.388 11.0058 244.367 13.2027 246.563C15.3997 248.76 18.3784 249.996 21.4854 250H41.0165C44.1235 249.996 47.1022 248.76 49.2992 246.563C51.4961 244.367 52.7319 241.388 52.7353 238.281V225.732H54.5034C55.5284 225.733 56.5125 225.33 57.2431 224.611L62.0173 219.911H141.109L145.883 224.611C146.614 225.33 147.598 225.733 148.623 225.732H150.391V238.281C150.394 241.388 151.63 244.367 153.827 246.563C156.024 248.76 159.003 249.996 162.11 250H181.641C184.748 249.996 187.727 248.76 189.924 246.563C192.121 244.367 193.356 241.388 193.36 238.281V226.425C194.394 226.228 195.362 225.773 196.173 225.101C198.868 222.873 202.086 217.325 203.059 194.019C204.152 167.82 191.761 152.074 183.466 144.531H199.219C200.255 144.531 201.249 144.119 201.981 143.387C202.714 142.654 203.125 141.661 203.125 140.625ZM40.5641 123.235C43.6088 115.874 47.0266 108.673 50.8041 101.659C51.1447 101.064 51.6374 100.57 52.2318 100.228C52.8262 99.8856 53.5009 99.7076 54.1867 99.7119H148.94C149.625 99.7076 150.3 99.8856 150.894 100.228C151.489 100.57 151.982 101.064 152.322 101.659L152.323 101.661C158.577 113.643 164.077 126.004 168.789 138.671H34.6422L40.6046 126.747C40.8737 126.199 41.0103 125.596 41.0032 124.986C40.9962 124.376 40.8458 123.776 40.5641 123.235ZM8.48297 136.718C9.29331 134.435 10.7903 132.458 12.7686 131.06C14.7468 129.661 17.1094 128.909 19.5323 128.906H29.771C28.6331 131.748 27.6058 134.39 26.7226 136.718H8.48297ZM9.20836 177.734H38.6107C37.7228 181.614 35.546 185.078 32.4357 187.561C29.3254 190.044 25.4652 191.399 21.4853 191.406H7.82803C7.77124 186.811 8.2343 182.225 9.20836 177.734ZM44.9228 238.281C44.9216 239.316 44.5096 240.309 43.7773 241.042C43.045 241.774 42.0521 242.186 41.0165 242.187H21.4854C20.4497 242.186 19.4569 241.774 18.7245 241.042C17.9922 240.309 17.5803 239.316 17.5791 238.281V225.732H44.9228V238.281ZM185.547 238.281C185.546 239.316 185.134 240.309 184.402 241.042C183.669 241.774 182.677 242.186 181.641 242.187H162.11C161.074 242.186 160.081 241.774 159.349 241.042C158.617 240.309 158.205 239.316 158.204 238.281V225.732H184.9C185.11 225.732 185.334 225.768 185.547 225.776V238.281ZM191.532 218.61L191.222 218.563C189.135 218.181 187.021 217.966 184.9 217.92H150.223L145.449 213.22C144.719 212.501 143.734 212.098 142.709 212.099H60.417C59.3919 212.098 58.4078 212.501 57.6771 213.22L52.9031 217.92H12.5638C12.1457 217.92 11.7304 217.987 11.3335 218.118C10.4784 216.333 8.98534 211.543 8.16864 199.218H21.4854C27.5362 199.208 33.3846 197.038 37.9782 193.099C42.5718 189.161 45.6091 183.712 46.5434 177.734H156.583C157.517 183.712 160.554 189.161 165.148 193.099C169.742 197.038 175.59 199.208 181.641 199.218H194.955C194.047 212.906 192.305 217.307 191.532 218.61ZM195.298 191.406H181.641C177.661 191.399 173.801 190.044 170.691 187.561C167.58 185.078 165.403 181.614 164.516 177.734H193.918C194.892 182.225 195.355 186.811 195.298 191.406ZM191.587 169.921H11.5395C15.107 160.454 21.4506 152.285 29.7393 146.484H173.386C181.674 152.285 188.018 160.454 191.587 169.921ZM176.536 136.718L173.606 128.906H183.594C186.017 128.909 188.379 129.661 190.358 131.06C192.336 132.458 193.833 134.435 194.643 136.718H176.536Z" fill="#727272"/>
<path d="M160.156 208.984C160.156 210.02 160.567 211.014 161.3 211.746C162.032 212.479 163.026 212.891 164.062 212.891H183.593C184.629 212.891 185.623 212.479 186.355 211.747C187.088 211.014 187.499 210.02 187.499 208.984C187.499 207.948 187.088 206.955 186.355 206.222C185.623 205.49 184.629 205.078 183.593 205.078H164.062C163.026 205.078 162.032 205.49 161.3 206.222C160.567 206.955 160.156 207.948 160.156 208.984ZM39.0624 205.078H19.5312C18.4952 205.078 17.5017 205.49 16.7691 206.222C16.0365 206.955 15.625 207.948 15.625 208.984C15.625 210.02 16.0365 211.014 16.7691 211.747C17.5017 212.479 18.4952 212.891 19.5312 212.891H39.0624C40.0984 212.891 41.092 212.479 41.8245 211.747C42.5571 211.014 42.9686 210.02 42.9686 208.984C42.9686 207.948 42.5571 206.955 41.8245 206.222C41.092 205.49 40.0984 205.078 39.0624 205.078ZM123.046 191.406H80.0779C79.0419 191.406 78.0483 191.818 77.3158 192.55C76.5832 193.283 76.1716 194.276 76.1716 195.312C76.1716 196.349 76.5832 197.342 77.3158 198.075C78.0483 198.807 79.0419 199.219 80.0779 199.219H123.046C124.082 199.219 125.076 198.807 125.809 198.075C126.541 197.342 126.953 196.349 126.953 195.312C126.953 194.276 126.541 193.283 125.809 192.55C125.076 191.818 124.082 191.406 123.046 191.406ZM159.179 0H90.82C86.6774 0.00468357 82.7059 1.65239 79.7766 4.58164C76.8474 7.51088 75.1997 11.4824 75.1951 15.625V58.5938C75.1998 62.7363 76.8475 66.7078 79.7767 69.6371C82.7059 72.5663 86.6774 74.214 90.82 74.2188H159.179C163.322 74.2141 167.293 72.5663 170.222 69.6371C173.152 66.7079 174.799 62.7363 174.804 58.5938V15.625C174.799 11.4824 173.152 7.51084 170.222 4.5816C167.293 1.65235 163.322 0.00465256 159.179 0ZM166.992 58.5938C166.992 60.6658 166.168 62.6529 164.703 64.118C163.238 65.5831 161.251 66.4062 159.179 66.4062H90.82C88.748 66.4062 86.7609 65.5831 85.2958 64.118C83.8307 62.6529 83.0076 60.6657 83.0076 58.5938V15.625C83.0076 13.553 83.8307 11.5659 85.2958 10.1008C86.7609 8.63565 88.748 7.81253 90.82 7.8125H159.179C161.251 7.8125 163.238 8.6356 164.703 10.1007C166.168 11.5659 166.992 13.553 166.992 15.625V58.5938Z" fill="#727272"/>
<path d="M125.002 18.2705C121.571 18.2744 118.282 19.6389 115.857 22.0647C113.431 24.4904 112.066 27.7794 112.063 31.21C112.063 31.3197 112.076 31.426 112.079 31.535C112.077 31.5903 112.063 31.6423 112.063 31.6982V52.042C112.06 52.5568 112.159 53.067 112.354 53.5434C112.549 54.0198 112.836 54.453 113.199 54.8179C113.562 55.1829 113.994 55.4726 114.469 55.6702C114.944 55.8679 115.454 55.9696 115.969 55.9696C116.484 55.9696 116.993 55.8679 117.469 55.6702C117.944 55.4726 118.375 55.1829 118.738 54.8179C119.101 54.453 119.389 54.0198 119.584 53.5434C119.779 53.067 119.878 52.5568 119.875 52.042V43.085C121.639 43.8466 123.55 44.2059 125.47 44.1368C127.39 44.0676 129.27 43.5716 130.975 42.685C132.679 41.7983 134.165 40.5432 135.323 39.0107C136.482 37.4783 137.285 35.707 137.674 33.8255C138.063 31.9441 138.027 29.9996 137.571 28.1334C137.114 26.2673 136.248 24.5262 135.034 23.0367C133.821 21.5471 132.291 20.3466 130.556 19.5222C128.82 18.6978 126.923 18.2702 125.002 18.2705ZM125.002 36.3369C123.988 36.3369 122.997 36.0362 122.154 35.4729C121.31 34.9095 120.653 34.1088 120.265 33.172C119.877 32.2351 119.776 31.2043 119.973 30.2097C120.171 29.2152 120.66 28.3017 121.377 27.5847C122.094 26.8676 123.007 26.3793 124.002 26.1815C124.996 25.9837 126.027 26.0852 126.964 26.4733C127.901 26.8613 128.701 27.5185 129.265 28.3616C129.828 29.2047 130.129 30.1959 130.129 31.21C130.127 32.5692 129.587 33.8723 128.625 34.8334C127.664 35.7946 126.361 36.3353 125.002 36.3369ZM242.623 187.5H242.189V37.1094C242.186 34.0024 240.95 31.0237 238.753 28.8268C236.556 26.6298 233.577 25.3941 230.47 25.3906H182.619V33.2031H230.47C231.506 33.2043 232.499 33.6163 233.231 34.3486C233.963 35.0809 234.375 36.0738 234.377 37.1094V187.5H226.564V44.9219C226.564 43.8859 226.152 42.8924 225.42 42.1598C224.687 41.4273 223.694 41.0157 222.658 41.0156H182.619V48.8281H218.752V187.5H218.318C216.304 187.561 214.398 188.418 213.015 189.882C211.632 191.346 210.885 193.299 210.939 195.313V246.094C210.939 247.13 211.351 248.123 212.083 248.856C212.816 249.588 213.809 250 214.845 250C215.881 250 216.875 249.588 217.607 248.856C218.34 248.123 218.752 247.13 218.752 246.094L218.788 195.313H242.189V246.094C242.189 247.13 242.6 248.123 243.333 248.856C244.066 249.588 245.059 250 246.095 250C247.131 250 248.125 249.588 248.857 248.856C249.59 248.123 250.001 247.13 250.001 246.094V195.313C250.055 193.299 249.309 191.346 247.926 189.882C246.543 188.418 244.636 187.561 242.623 187.5Z" fill="#727272"/>
</g>
<defs>
<clipPath id="clip0_1657_4070">
<rect width="250" height="250" fill="white"/>
</clipPath>
</defs>
</svg>
