<svg width="59" height="58" viewBox="0 0 59 58" fill="none" xmlns="http://www.w3.org/2000/svg">
<g clip-path="url(#clip0_2117_24734)">
<path d="M1.40625 58H57.5938C57.8341 58 58.0646 57.9045 58.2346 57.7346C58.4045 57.5646 58.5 57.3341 58.5 57.0937C58.5 56.8534 58.4045 56.6229 58.2346 56.4529C58.0646 56.283 57.8341 56.1875 57.5938 56.1875H1.40625C1.1659 56.1875 0.935389 56.283 0.765435 56.4529C0.59548 56.6229 0.5 56.8534 0.5 57.0937C0.5 57.3341 0.59548 57.5646 0.765435 57.7346C0.935389 57.9045 1.1659 58 1.40625 58ZM21.2386 40.2443C21.3314 40.1241 21.3925 39.9824 21.4163 39.8324L21.5563 38.9511C20.9864 38.5146 20.4488 38.0376 19.9477 37.5237L19.6627 39.3195L12.453 48.6493C12.0378 49.1915 11.8191 49.8585 11.8327 50.5413C11.8463 51.224 12.0913 51.8819 12.5278 52.4071C13.033 53.0087 13.7562 53.3854 14.5388 53.4546C15.3214 53.5237 16.0995 53.2797 16.7024 52.7759L25.9964 44.9849C26.1261 44.8761 26.2228 44.7333 26.2756 44.5725L26.9584 42.4882L25.3675 41.523L24.6334 43.7619L15.5383 51.3866C15.3039 51.5822 15.0015 51.6769 14.6974 51.6499C14.3933 51.6229 14.1124 51.4764 13.9161 51.2425C13.7439 51.0349 13.6472 50.7749 13.6419 50.5052C13.6366 50.2354 13.7231 49.9719 13.8871 49.7576L21.2386 40.2443ZM44.0942 47.125L44.8795 48.7413C44.9112 48.8061 44.9352 48.8722 44.9638 48.9375H57.5938C57.8341 48.9375 58.0646 48.842 58.2346 48.6721C58.4045 48.5021 58.5 48.2716 58.5 48.0312C58.5 47.7909 58.4045 47.5604 58.2346 47.3904C58.0646 47.2205 57.8341 47.125 57.5938 47.125H44.0942ZM39.7125 53.8503C39.9298 53.8984 40.1516 53.9227 40.3741 53.9228C40.9617 53.9226 41.5361 53.7488 42.0253 53.4234L42.2102 53.3011C42.8093 52.9046 43.2447 52.3045 43.4357 51.6119C43.6267 50.9193 43.5604 50.1809 43.2492 49.5334L37.7038 38.1196C37.6664 38.0423 37.6182 37.9708 37.5606 37.9071L32.5808 32.4079V30.8601L30.7683 29.8958V32.7573C30.7684 32.9822 30.852 33.1991 31.003 33.3658L36.1301 39.0276L41.6193 50.325C41.7395 50.5771 41.7643 50.8642 41.6893 51.1332C41.6142 51.4023 41.4443 51.635 41.211 51.7886L41.0261 51.9109C40.8919 51.9998 40.7411 52.0606 40.5828 52.0896C40.4245 52.1187 40.2619 52.1154 40.1049 52.0799C39.9501 52.0465 39.8035 51.9821 39.6743 51.8905C39.545 51.7989 39.4356 51.6821 39.3528 51.547L33.8083 42.5235C33.733 42.4009 33.6295 42.2979 33.5065 42.2231L26.3154 37.8586L26.1781 37.7671C22.6578 35.4144 20.8906 34.2336 20.8906 30.411V15.3238C20.8966 14.4564 21.131 13.6059 21.5703 12.858C22.0096 12.11 22.6383 11.491 23.393 11.0634C24.1476 10.6358 25.0017 10.4146 25.869 10.422C26.7364 10.4295 27.5865 10.6655 28.3337 11.1061C28.7508 11.2907 29.115 11.5769 29.3931 11.9385C30.2744 12.8451 30.7678 14.0594 30.7688 15.3238V19.5646L32.5813 20.5284V15.3238C32.5807 13.5671 31.8872 11.8815 30.6514 10.633C31.7608 10.2945 32.7333 9.61094 33.4275 8.68171C34.1217 7.75248 34.5014 6.62603 34.5114 5.46616C34.5214 4.30629 34.1612 3.17348 33.4831 2.23243C32.8049 1.29138 31.8443 0.59117 30.7409 0.233608C29.6375 -0.123954 28.4488 -0.120224 27.3476 0.244257C26.2465 0.608738 25.2903 1.31496 24.6181 2.26025C23.9459 3.20553 23.5928 4.34059 23.61 5.50037C23.6273 6.66016 24.0141 7.7842 24.7141 8.70905C23.1445 8.96778 21.7172 9.77409 20.6855 10.985C19.6538 12.1958 19.0844 13.733 19.0781 15.3238V30.411C19.0781 35.2024 21.5023 36.8227 25.1718 39.2741L32.3792 43.659L37.808 52.4963C38.0175 52.839 38.2942 53.1357 38.6216 53.3684C38.9489 53.6011 39.32 53.7651 39.7125 53.8503ZM29.0469 1.81249C29.7638 1.81249 30.4647 2.02509 31.0608 2.42341C31.6569 2.82173 32.1216 3.38788 32.3959 4.05026C32.6703 4.71265 32.7421 5.44151 32.6022 6.14469C32.4624 6.84787 32.1171 7.49379 31.6101 8.00075C31.1032 8.50772 30.4573 8.85297 29.7541 8.99284C29.0509 9.13271 28.322 9.06092 27.6596 8.78655C26.9973 8.51219 26.4311 8.04756 26.0328 7.45143C25.6345 6.8553 25.4219 6.15445 25.4219 5.43749C25.4231 4.47645 25.8054 3.55511 26.4849 2.87555C27.1645 2.19599 28.0858 1.81369 29.0469 1.81249Z" fill="#727272"/>
<path d="M23.6094 14.9291C23.369 14.9291 23.1385 15.0246 22.9686 15.1945C22.7986 15.3645 22.7031 15.595 22.7031 15.8354V23.0097C22.7031 23.1741 22.7479 23.3355 22.8325 23.4765C22.9172 23.6174 23.0387 23.7327 23.1839 23.8099L34.0353 29.58C34.4648 29.8075 34.9461 29.919 35.4318 29.9035C35.9175 29.888 36.3908 29.746 36.8048 29.4916C37.2162 29.2395 37.5535 28.8829 37.7823 28.4581C38.0112 28.0333 38.1234 27.5555 38.1077 27.0732C38.092 26.591 37.9489 26.1215 37.6929 25.7125C37.4369 25.3035 37.0772 24.9696 36.6503 24.7447L28.1474 20.2225V14.9531C28.1474 14.7128 28.0519 14.4823 27.882 14.3123C27.712 14.1424 27.4815 14.0469 27.2412 14.0469C27.0008 14.0469 26.7703 14.1424 26.6004 14.3123C26.4304 14.4823 26.3349 14.7128 26.3349 14.9531V20.7676C26.3349 20.932 26.3795 21.0934 26.4641 21.2343C26.5488 21.3753 26.6701 21.4906 26.8152 21.5678L35.7993 26.3456C35.9445 26.4207 36.0671 26.5332 36.1544 26.6714C36.2417 26.8096 36.2906 26.9686 36.2961 27.132C36.3015 27.2953 36.2633 27.4572 36.1854 27.601C36.1075 27.7447 35.9927 27.865 35.8528 27.9497C35.7084 28.0384 35.5433 28.0879 35.3739 28.0933C35.2044 28.0987 35.0365 28.0598 34.8867 27.9805L24.5156 22.465V15.8358C24.5156 15.5955 24.4201 15.365 24.2502 15.195C24.0802 15.025 23.8497 14.9296 23.6094 14.9296V14.9291ZM32.381 47.125H26.2651L24.1028 48.9375H33.4948L32.381 47.125ZM1.40625 48.9375H10.2757C10.4435 48.4337 10.6947 47.9616 11.0188 47.541L11.3406 47.125H1.40625C1.1659 47.125 0.935389 47.2205 0.765435 47.3904C0.59548 47.5604 0.5 47.7909 0.5 48.0312C0.5 48.2716 0.59548 48.5021 0.765435 48.6721C0.935389 48.842 1.1659 48.9375 1.40625 48.9375Z" fill="#727272"/>
</g>
<defs>
<clipPath id="clip0_2117_24734">
<rect width="58" height="58" fill="white" transform="translate(0.5)"/>
</clipPath>
</defs>
</svg>
