<svg width="59" height="58" viewBox="0 0 59 58" fill="none" xmlns="http://www.w3.org/2000/svg">
<path d="M9.5625 57.0938H49.4375C49.6779 57.0938 49.9084 56.9983 50.0783 56.8284C50.2483 56.6584 50.3438 56.4279 50.3438 56.1875V43.5C50.3332 40.805 49.3364 38.2071 47.5416 36.1966L48.379 34.9405C48.4528 34.8299 48.5013 34.7043 48.5212 34.5728C48.541 34.4413 48.5316 34.307 48.4938 34.1795C48.4559 34.052 48.3904 33.9344 48.302 33.8351C48.2135 33.7358 48.1043 33.6571 47.9821 33.6047L41.6383 30.886C41.4437 30.8025 41.2261 30.7898 41.0232 30.8501C40.8202 30.9103 40.6448 31.0397 40.5272 31.2158L39.9219 32.1221L34.0312 30.1591V27.7739C35.14 27.1333 36.1008 26.2654 36.8505 25.2272C37.6002 24.189 38.1219 23.0041 38.3812 21.75H38.5625C39.3955 21.7484 40.2024 21.4599 40.8477 20.9332C41.493 20.4064 41.9371 19.6735 42.1055 18.8578C42.2739 18.042 42.1561 17.1931 41.7722 16.454C41.3882 15.7148 40.7613 15.1304 39.9971 14.7991C40.1438 14.4821 40.2612 14.1524 40.3478 13.814C40.3911 13.6133 40.3633 13.4037 40.269 13.2213C40.4857 11.6804 40.3693 10.1109 39.9275 8.61877C39.4856 7.12669 38.7288 5.7468 37.7079 4.57231C36.6871 3.39783 35.4261 2.4561 34.0101 1.81074C32.5941 1.16538 31.0561 0.831421 29.5 0.831421C27.9439 0.831421 26.4059 1.16538 24.9899 1.81074C23.5739 2.4561 22.3129 3.39783 21.2921 4.57231C20.2712 5.7468 19.5144 7.12669 19.0725 8.61877C18.6307 10.1109 18.5143 11.6804 18.731 13.2213C18.6367 13.4037 18.6089 13.6133 18.6522 13.814C18.7388 14.1524 18.8562 14.4821 19.0029 14.7991C18.2387 15.1304 17.6118 15.7148 17.2278 16.454C16.8439 17.1931 16.7261 18.042 16.8945 18.8578C17.0629 19.6735 17.507 20.4064 18.1523 20.9332C18.7976 21.4599 19.6045 21.7484 20.4375 21.75H20.6188C20.8781 23.0041 21.3998 24.189 22.1495 25.2272C22.8992 26.2654 23.86 27.1333 24.9688 27.7739V30.1591L19.0781 32.1239L18.4728 31.2176C18.3552 31.0415 18.1798 30.9121 17.9768 30.8519C17.7739 30.7916 17.5563 30.8043 17.3617 30.8878L11.0179 33.6065C10.8957 33.6589 10.7865 33.7376 10.698 33.8369C10.6096 33.9363 10.5441 34.0538 10.5062 34.1813C10.4684 34.3088 10.459 34.4431 10.4788 34.5746C10.4987 34.7061 10.5472 34.8317 10.621 34.9423L11.4584 36.1984C9.66399 38.2084 8.66726 40.8056 8.65625 43.5V56.1875C8.65625 56.4279 8.75173 56.6584 8.92168 56.8284C9.09164 56.9983 9.32215 57.0938 9.5625 57.0938ZM29.5 35.5984L31.598 37.2768L30.7524 38.9688H28.2476L27.402 37.2768L29.5 35.5984ZM28.5031 40.7813H30.4969L32.1091 55.2813H26.8864L28.5031 40.7813ZM41.622 32.8489L46.2711 34.8426L45.4808 36.028L40.8318 34.0343L41.622 32.8489ZM38.6051 34.6958C38.643 34.8232 38.7084 34.9407 38.7967 35.04C38.885 35.1393 38.9941 35.218 39.1162 35.2704L45.46 37.9891C45.6352 38.065 45.8301 38.0826 46.0161 38.0394C46.2021 37.9961 46.3693 37.8943 46.4931 37.749C47.8064 39.3786 48.5253 41.4071 48.5312 43.5V55.2813H43.0938V43.5H41.2812V55.2813H33.9406L32.2423 40.0427L33.0462 38.435L33.4648 38.7703C33.6256 38.8989 33.8254 38.9689 34.0312 38.9688C34.1064 38.9687 34.1812 38.9596 34.2542 38.9416C34.3898 38.9072 34.5156 38.8418 34.6217 38.7506C34.7279 38.6594 34.8114 38.5449 34.8659 38.416L37.1134 33.0972L38.8806 33.6863L38.7147 33.9346C38.641 34.0453 38.5926 34.1709 38.5728 34.3025C38.5531 34.434 38.5626 34.5683 38.6006 34.6958H38.6051ZM35.3933 32.5208L33.6715 36.6053L30.8621 34.3605L33.3751 31.8475L35.3933 32.5208ZM20.8906 14.5H38.1094C37.7601 15.0554 37.2755 15.5131 36.7011 15.8301C36.1267 16.1471 35.4812 16.3131 34.8251 16.3125H24.174C23.518 16.3129 22.8727 16.1468 22.2985 15.8298C21.7242 15.5128 21.2398 15.0553 20.8906 14.5ZM38.5625 19.9375V16.7068C38.693 16.5926 38.8253 16.4802 38.9449 16.3542C39.3814 16.4495 39.7673 16.7025 40.0285 17.0649C40.2898 17.4272 40.4081 17.8732 40.3607 18.3174C40.3133 18.7616 40.1036 19.1726 39.7717 19.4716C39.4398 19.7706 39.0092 19.9365 38.5625 19.9375ZM29.5 2.71879C31.9027 2.72143 34.2063 3.67708 35.9052 5.37605C37.6042 7.07503 38.5599 9.37858 38.5625 11.7813C38.5625 12.0849 38.5444 12.3867 38.5145 12.6875H20.4855C20.4556 12.3867 20.4375 12.0849 20.4375 11.7813C20.4401 9.37858 21.3958 7.07503 23.0948 5.37605C24.7937 3.67708 27.0973 2.72143 29.5 2.71879ZM18.625 18.125C18.626 17.7111 18.7683 17.31 19.0284 16.988C19.2885 16.666 19.6506 16.4424 20.0551 16.3542C20.1747 16.4802 20.307 16.5926 20.4375 16.7068V19.9375C19.9568 19.9375 19.4958 19.7466 19.1559 19.4067C18.816 19.0668 18.625 18.6057 18.625 18.125ZM22.25 19.9375V17.7879C22.8671 18.0103 23.518 18.1244 24.174 18.125H34.826C35.482 18.1244 36.1329 18.0103 36.75 17.7879V19.9375C36.75 21.8604 35.9862 23.7044 34.6265 25.0641C33.2669 26.4237 31.4228 27.1875 29.5 27.1875C27.5772 27.1875 25.7331 26.4237 24.3735 25.0641C23.0138 23.7044 22.25 21.8604 22.25 19.9375ZM29.5 29C30.4223 29.0006 31.3392 28.8597 32.2188 28.5823V30.4374L29.5 33.1561L26.7812 30.4374V28.5823C27.6608 28.8597 28.5777 29.0006 29.5 29ZM25.6303 31.8493L28.1406 34.3623L25.3312 36.6071L23.6094 32.5226L25.6303 31.8493ZM17.3834 32.8462L18.1737 34.0315L13.5246 36.0253L12.7344 34.8408L17.3834 32.8462ZM10.4688 43.5C10.476 41.4065 11.1965 39.378 12.5114 37.749C12.6352 37.8943 12.8024 37.9961 12.9884 38.0394C13.1744 38.0826 13.3693 38.065 13.5446 37.9891L19.8883 35.2704C20.0106 35.218 20.1198 35.1393 20.2082 35.04C20.2966 34.9406 20.3621 34.8231 20.4 34.6956C20.4379 34.5681 20.4473 34.4338 20.4274 34.3023C20.4076 34.1708 20.359 34.0452 20.2853 33.9346L20.1194 33.6863L21.8866 33.0972L24.1341 38.416C24.1886 38.5449 24.2721 38.6594 24.3783 38.7506C24.4844 38.8418 24.6102 38.9072 24.7458 38.9416C24.8188 38.9596 24.8936 38.9687 24.9688 38.9688C25.1746 38.9689 25.3744 38.8989 25.5352 38.7703L25.9538 38.435L26.7577 40.0418L25.0594 55.2813H17.7188V43.5H15.9062V55.2813H10.4688V43.5Z" fill="#727272"/>
<path d="M28.5938 10.875V6.34375H31.3125V8.15625H30.4062V9.96875H32.2188C32.4591 9.96875 32.6896 9.87327 32.8596 9.70332C33.0295 9.53336 33.125 9.30285 33.125 9.0625V5.4375C33.125 5.19715 33.0295 4.96664 32.8596 4.79668C32.6896 4.62673 32.4591 4.53125 32.2188 4.53125H27.6875C27.4471 4.53125 27.2166 4.62673 27.0467 4.79668C26.8767 4.96664 26.7812 5.19715 26.7812 5.4375V9.96875H24.9688V11.7812H27.6875C27.9279 11.7812 28.1584 11.6858 28.3283 11.5158C28.4983 11.3459 28.5938 11.1154 28.5938 10.875Z" fill="#727272"/>
</svg>
