<svg width="59" height="58" viewBox="0 0 59 58" fill="none" xmlns="http://www.w3.org/2000/svg">
<path d="M2.0303 56.0884C2.12411 56.1194 2.21969 56.134 2.31262 56.134C2.69406 56.134 3.04894 55.8915 3.17373 55.5092L4.54893 51.3107H17.0833L15.894 54.941C15.7382 55.4167 15.9975 55.9287 16.4728 56.0844C16.5666 56.1154 16.6622 56.13 16.7551 56.13C17.1365 56.13 17.4914 55.8875 17.6162 55.5056L23.8138 36.5879L36.8014 55.6216C36.9705 55.8689 37.251 56.0172 37.5502 56.0172H56.6876C57.0292 56.0172 57.3416 55.8256 57.4956 55.5211C57.6505 55.2167 57.6204 54.8512 57.4186 54.5759L51.6962 46.7553C52.7951 46.9897 54.0065 46.4925 54.5698 45.4931C55.2892 44.2127 54.824 42.5805 53.5122 41.8822L48.4048 39.1653C47.0145 38.4249 45.2666 38.4524 43.9063 39.221L43.3496 37.3536L47.9995 31.8604C48.8429 30.8652 48.8225 29.381 47.9543 28.4084C46.8971 27.2244 45.0379 27.24 44.001 28.442L40.917 32.0171L39.94 30.6839C40.5555 29.9389 40.9406 28.997 40.9406 27.9575C40.9406 25.583 39.0087 23.651 36.6342 23.651C36.0672 23.651 35.5283 23.7674 35.032 23.9674L31.925 19.7216C31.7738 19.514 31.4781 19.3503 31.194 19.3503H31.1905H30.0966V15.1527C30.0966 11.5631 27.1741 8.82314 23.767 8.82314C22.0343 8.82314 20.4208 9.53059 19.2497 10.744C18.1 9.56312 16.4964 8.82624 14.7222 8.82624C11.2353 8.82624 8.39883 11.6631 8.39883 15.1501V19.3503H8.03952C7.5386 19.3503 7.13327 19.7561 7.13327 20.2566C7.13327 20.7571 7.5386 21.1628 8.03952 21.1628H12.517L1.4515 54.9454C1.29574 55.4207 1.55505 55.9326 2.0303 56.0884ZM5.14266 49.4982L6.92225 44.0651H19.457L17.6771 49.4982H5.14266ZM9.29263 36.8284H21.8279L20.0508 42.2526H7.51592L9.29263 36.8284ZM11.666 29.5828H19.0339L22.5253 34.6995L22.4216 35.0159H9.88631L11.666 29.5828ZM12.2596 27.7703L14.0556 22.2871L17.7971 27.7703H12.2596ZM45.3728 29.6262C45.6861 29.2638 46.2852 29.2593 46.602 29.6156C46.8729 29.9182 46.8791 30.3793 46.6162 30.6891L41.6495 36.5571C41.4522 36.7908 41.3858 37.108 41.4734 37.401L42.5177 40.9087C42.6 41.1857 42.8098 41.407 43.0815 41.5039C43.3532 41.6012 43.655 41.5623 43.8948 41.4003L44.5957 40.9247C45.4595 40.3374 46.6321 40.2755 47.5534 40.7654L52.6608 43.4823C53.0652 43.6982 53.2153 44.2027 52.9892 44.6045C52.7838 44.9696 52.3015 45.1249 51.9201 44.9382L46.5507 42.3265C46.3171 42.2137 46.0454 42.2048 45.8055 42.3053L43.5912 43.2283C43.262 43.3655 43.0434 43.6832 43.0337 44.0399C43.024 44.3965 43.2248 44.7253 43.5461 44.8806C44.7143 45.4453 45.7445 46.2931 46.5251 47.333L48.5969 50.0938C48.8394 50.4173 48.8066 50.8766 48.5234 51.1602L48.4561 51.2275C48.1367 51.547 47.5764 51.5319 47.2738 51.1996L43.3665 46.9064C43.2142 46.7383 43.0036 46.6339 42.777 46.6135L39.7946 46.3471C38.8148 46.2599 37.9644 45.6064 37.628 44.6824L35.4713 38.7705C35.4164 38.6205 35.3235 38.4878 35.2005 38.3856L28.6877 32.9458C28.339 32.654 28.2952 32.1369 28.5877 31.7896L28.8399 31.4918C29.1325 31.1446 29.6593 31.094 30.009 31.409C35.4978 36.3558 35.7855 36.3558 36.2218 36.3558C36.3448 36.3558 36.6722 36.3558 39.1467 35.9283C39.7459 35.8248 40.2946 35.5141 40.6911 35.0539L45.3728 29.6262ZM39.1281 27.9575C39.1281 29.3328 38.0095 30.4519 36.6342 30.4519C35.2589 30.4519 34.1402 29.3328 34.1402 27.9575C34.1402 26.5822 35.2589 25.4635 36.6342 25.4635C38.0095 25.4635 39.1281 26.5822 39.1281 27.9575ZM33.5317 24.9852C32.79 25.7592 32.3277 26.8034 32.3277 27.9575C32.3277 30.3324 34.2597 32.2644 36.6342 32.2644C37.3131 32.2644 37.9472 32.0923 38.519 31.8112L39.7019 33.4257L39.3184 33.8702C39.1954 34.0136 39.0246 34.1101 38.8387 34.1424C37.3422 34.4008 36.6873 34.4924 36.4103 34.5251C36.0527 34.2751 34.8854 33.3636 31.2223 30.0625C30.1612 29.1062 28.377 29.231 27.4557 30.3218L27.2035 30.6196C26.2644 31.7313 26.4017 33.3985 27.5265 34.3371L33.8517 39.6206L35.9253 45.3032C36.5014 46.8843 37.9564 48.003 39.6335 48.1525L42.2637 48.3875L45.9339 52.4192C46.9348 53.5209 48.6691 53.577 49.7359 52.5112L49.8031 52.4439C50.7227 51.524 50.8271 50.046 50.0465 49.0061L47.9747 46.2453C47.3959 45.4745 46.7047 44.7895 45.9321 44.216L46.1259 44.1355L48.3111 45.1983L54.9017 54.2047H38.029L15.4824 21.1628H30.7338L33.5317 24.9852ZM23.767 10.6356C26.1851 10.6356 28.2841 12.5782 28.2841 15.1527V19.3503H21.0465V15.1501C21.0465 14.0995 20.7851 13.1101 20.3298 12.2373C21.1728 11.2267 22.4215 10.6356 23.767 10.6356ZM10.2113 15.1501C10.2113 12.6623 12.2353 10.6387 14.7231 10.6387C17.21 10.6387 19.234 12.6623 19.234 15.1501V19.3503H13.7673H10.2113V15.1501ZM54.7627 1.89086C54.5752 1.93516 53.3057 2.26511 52.3564 3.12113C51.4071 2.26511 50.1376 1.93516 49.95 1.89086C49.4668 1.78023 48.9774 2.07627 48.8615 2.5617C48.7447 3.04712 49.0447 3.53609 49.5297 3.65424C49.9456 3.75513 51.205 4.21268 51.5218 4.96096C51.5635 5.05964 51.6236 5.14338 51.6922 5.218C51.7102 5.23763 51.7319 5.2524 51.7517 5.27049C51.8152 5.32835 51.8843 5.37581 51.9606 5.41325C51.9765 5.42111 51.9867 5.43538 52.0033 5.4424C52.0151 5.44744 52.0277 5.44533 52.0397 5.44981C52.141 5.48798 52.2465 5.51453 52.3564 5.51453C52.4663 5.51453 52.5718 5.48804 52.6732 5.44981C52.6851 5.44533 52.6977 5.44744 52.7095 5.4424C52.726 5.43538 52.7362 5.42111 52.7521 5.41325C52.8285 5.37581 52.8976 5.32829 52.9612 5.27038C52.981 5.25235 53.0025 5.23763 53.0205 5.21811C53.0891 5.14349 53.1492 5.05969 53.1909 4.96096C53.5078 4.21268 54.7671 3.75513 55.1831 3.65424C55.6681 3.53742 55.9681 3.05022 55.8531 2.56391C55.738 2.07715 55.2468 1.77492 54.7627 1.89086ZM47.3145 5.99288C47.1269 6.03718 45.8574 6.36713 44.9081 7.22315C43.9589 6.36713 42.6894 6.03718 42.5018 5.99288C42.0195 5.88225 41.5292 6.17829 41.4132 6.66372C41.2964 7.14914 41.5964 7.63811 42.0814 7.75626C42.4974 7.85715 43.7567 8.3147 44.0736 9.06298C44.1153 9.16165 44.1754 9.2454 44.244 9.32002C44.262 9.33965 44.2837 9.35442 44.3035 9.37251C44.367 9.43037 44.4361 9.47782 44.5123 9.51527C44.5282 9.52313 44.5385 9.5374 44.555 9.54442C44.5669 9.54946 44.5795 9.54735 44.5914 9.55183C44.6927 9.59 44.7982 9.61655 44.9081 9.61655C45.0181 9.61655 45.1236 9.59005 45.2249 9.55183C45.2369 9.54735 45.2494 9.54946 45.2613 9.54442C45.2778 9.5374 45.288 9.52313 45.3039 9.51527C45.3802 9.47782 45.4494 9.43031 45.513 9.3724C45.5327 9.35437 45.5543 9.33965 45.5722 9.32013C45.6409 9.24551 45.701 9.16171 45.7427 9.06298C46.0595 8.3147 47.3189 7.85715 47.7349 7.75626C48.2198 7.63944 48.5199 7.15224 48.4048 6.66593C48.2898 6.17873 47.7995 5.88004 47.3145 5.99288Z" fill="#727272"/>
</svg>
