<svg width="58" height="58" viewBox="0 0 58 58" fill="none" xmlns="http://www.w3.org/2000/svg">
<path d="M49.6983 55.979H16.457C16.2167 55.979 15.9862 55.8835 15.8162 55.7136C15.6463 55.5436 15.5508 55.3131 15.5508 55.0728V36.9478C15.5508 36.7074 15.6463 36.4769 15.8162 36.3069C15.9862 36.137 16.2167 36.0415 16.457 36.0415C16.6974 36.0415 16.9279 36.137 17.0978 36.3069C17.2678 36.4769 17.3633 36.7074 17.3633 36.9478V54.1665H48.792V36.9478C48.792 36.7074 48.8875 36.4769 49.0575 36.3069C49.2274 36.137 49.4579 36.0415 49.6983 36.0415C49.9386 36.0415 50.1691 36.137 50.3391 36.3069C50.509 36.4769 50.6045 36.7074 50.6045 36.9478V55.0728C50.6045 55.3131 50.509 55.5436 50.3391 55.7136C50.1691 55.8835 49.9386 55.979 49.6983 55.979Z" fill="#727272"/>
<path d="M53.4692 36.8572C53.2414 36.8589 53.0214 36.7747 52.8529 36.6216L33.0785 18.705L13.3132 36.6216C13.2253 36.7018 13.1224 36.7638 13.0104 36.8043C12.8985 36.8447 12.7796 36.8627 12.6607 36.8572C12.5404 36.852 12.4224 36.8228 12.3134 36.7715C12.2045 36.7201 12.1069 36.6476 12.0264 36.5581L9.30761 33.5403C9.14697 33.3623 9.06344 33.1278 9.07533 32.8883C9.08723 32.6488 9.19356 32.4237 9.37104 32.2625L32.4804 11.3191C32.6469 11.1688 32.8633 11.0856 33.0876 11.0856C33.3119 11.0856 33.5283 11.1688 33.6948 11.3191L56.7951 32.2625C56.9699 32.4234 57.0745 32.6466 57.0863 32.8839C57.0982 33.1212 57.0164 33.3537 56.8585 33.5312L54.1398 36.5491C53.9792 36.7277 53.7543 36.8352 53.5145 36.8481L53.4692 36.8572ZM11.247 32.9966L12.7604 34.6731L32.4714 16.8109C32.6379 16.6606 32.8542 16.5774 33.0785 16.5774C33.3029 16.5774 33.5192 16.6606 33.6857 16.8109L53.3967 34.6731L54.9101 32.9966L33.0785 13.2131L11.247 32.9966ZM29.1001 55.979C28.8598 55.979 28.6292 55.8836 28.4593 55.7136C28.2893 55.5437 28.1939 55.3132 28.1939 55.0728V40.4459H21.9679V55.0728C21.9679 55.3132 21.8724 55.5437 21.7025 55.7136C21.5325 55.8836 21.302 55.979 21.0617 55.979C20.8213 55.979 20.5908 55.8836 20.4209 55.7136C20.2509 55.5437 20.1554 55.3132 20.1554 55.0728V39.5397C20.1554 39.2993 20.2509 39.0688 20.4209 38.8989C20.5908 38.7289 20.8213 38.6334 21.0617 38.6334H29.1001C29.3405 38.6334 29.571 38.7289 29.7409 38.8989C29.9109 39.0688 30.0064 39.2993 30.0064 39.5397V55.0728C30.0064 55.3132 29.9109 55.5437 29.7409 55.7136C29.571 55.8836 29.3405 55.979 29.1001 55.979ZM34.3835 44.1162C34.1432 44.1162 33.9127 44.0208 33.7427 43.8508C33.5728 43.6809 33.4773 43.4503 33.4773 43.21V39.585C33.4773 39.3446 33.5728 39.1141 33.7427 38.9442C33.9127 38.7742 34.1432 38.6787 34.3835 38.6787H38.0085C38.2489 38.6787 38.4794 38.7742 38.6494 38.9442C38.8193 39.1141 38.9148 39.3446 38.9148 39.585C38.9148 39.8253 38.8193 40.0559 38.6494 40.2258C38.4794 40.3958 38.2489 40.4912 38.0085 40.4912H35.2898V43.21C35.2898 43.4503 35.1943 43.6809 35.0244 43.8508C34.8544 44.0208 34.6239 44.1162 34.3835 44.1162ZM41.4251 43.2009C41.1848 43.2009 40.9542 43.1054 40.7843 42.9355C40.6143 42.7655 40.5189 42.535 40.5189 42.2947V39.5759C40.5189 39.3356 40.6143 39.1051 40.7843 38.9351C40.9542 38.7652 41.1848 38.6697 41.4251 38.6697H45.0501C45.2905 38.6697 45.521 38.7652 45.6909 38.9351C45.8609 39.1051 45.9564 39.3356 45.9564 39.5759C45.9564 39.8163 45.8609 40.0468 45.6909 40.2167C45.521 40.3867 45.2905 40.4822 45.0501 40.4822H42.3314V42.2947C42.3314 42.535 42.2359 42.7655 42.0659 42.9355C41.896 43.1054 41.6655 43.2009 41.4251 43.2009ZM34.3835 50.9947C34.1432 50.9947 33.9127 50.8992 33.7427 50.7292C33.5728 50.5593 33.4773 50.3288 33.4773 50.0884V46.4181C33.4773 46.1778 33.5728 45.9473 33.7427 45.7773C33.9127 45.6073 34.1432 45.5119 34.3835 45.5119H38.0085C38.2489 45.5119 38.4794 45.6073 38.6494 45.7773C38.8193 45.9473 38.9148 46.1778 38.9148 46.4181C38.9148 46.6585 38.8193 46.889 38.6494 47.0589C38.4794 47.2289 38.2489 47.3244 38.0085 47.3244H35.2898V50.0884C35.2898 50.3288 35.1943 50.5593 35.0244 50.7292C34.8544 50.8992 34.6239 50.9947 34.3835 50.9947ZM41.4251 50.9947C41.1848 50.9947 40.9542 50.8992 40.7843 50.7292C40.6143 50.5593 40.5189 50.3288 40.5189 50.0884V46.4181C40.5189 46.1778 40.6143 45.9473 40.7843 45.7773C40.9542 45.6073 41.1848 45.5119 41.4251 45.5119H45.0501C45.2905 45.5119 45.521 45.6073 45.6909 45.7773C45.8609 45.9473 45.9564 46.1778 45.9564 46.4181C45.9564 46.6585 45.8609 46.889 45.6909 47.0589C45.521 47.2289 45.2905 47.3244 45.0501 47.3244H42.3314V50.0884C42.3314 50.3288 42.2359 50.5593 42.0659 50.7292C41.896 50.8992 41.6655 50.9947 41.4251 50.9947ZM48.376 22.3028C48.1357 22.3028 47.9052 22.2073 47.7352 22.0374C47.5653 21.8674 47.4698 21.6369 47.4698 21.3966V14.2644H44.162V16.7475C44.162 16.9878 44.0665 17.2184 43.8965 17.3883C43.7266 17.5583 43.4961 17.6537 43.2557 17.6537C43.0154 17.6537 42.7849 17.5583 42.6149 17.3883C42.445 17.2184 42.3495 16.9878 42.3495 16.7475V13.3581C42.3495 13.1178 42.445 12.8873 42.6149 12.7173C42.7849 12.5473 43.0154 12.4519 43.2557 12.4519H48.376C48.6164 12.4519 48.8469 12.5473 49.0169 12.7173C49.1868 12.8873 49.2823 13.1178 49.2823 13.3581V21.3966C49.2823 21.6369 49.1868 21.8674 49.0169 22.0374C48.8469 22.2073 48.6164 22.3028 48.376 22.3028ZM55.1185 6.95093H11.0385C10.7982 6.95093 10.5677 6.85545 10.3977 6.68549C10.2278 6.51554 10.1323 6.28503 10.1323 6.04468C10.1323 5.80433 10.2278 5.57382 10.3977 5.40386C10.5677 5.23391 10.7982 5.13843 11.0385 5.13843H55.1185C55.3589 5.13843 55.5894 5.23391 55.7594 5.40386C55.9293 5.57382 56.0248 5.80433 56.0248 6.04468C56.0248 6.28503 55.9293 6.51554 55.7594 6.68549C55.5894 6.85545 55.3589 6.95093 55.1185 6.95093Z" fill="#727272"/>
<path d="M51.6566 10.4038C51.5373 10.4044 51.4191 10.3816 51.3086 10.3365C51.1982 10.2914 51.0978 10.2249 51.0131 10.1409C50.8443 9.97114 50.7496 9.74145 50.7496 9.50203C50.7496 9.26261 50.8443 9.03292 51.0131 8.86313L53.8225 6.04469L51.0131 3.24438C50.9282 3.16013 50.8608 3.0599 50.8148 2.94946C50.7687 2.83903 50.7451 2.72057 50.7451 2.60094C50.7451 2.4813 50.7687 2.36285 50.8148 2.25242C50.8608 2.14198 50.9282 2.04175 51.0131 1.9575C51.1829 1.78871 51.4126 1.69397 51.652 1.69397C51.8914 1.69397 52.1211 1.78871 52.2909 1.9575L55.78 5.4375C55.9488 5.6073 56.0435 5.83699 56.0435 6.07641C56.0435 6.31582 55.9488 6.54552 55.78 6.71531L52.3272 10.1681C52.2371 10.2506 52.1312 10.3139 52.0159 10.3544C51.9007 10.3949 51.7785 10.4117 51.6566 10.4038ZM14.5003 10.4038C14.2626 10.4027 14.0347 10.3084 13.8659 10.1409L10.3769 6.68813C10.2081 6.51833 10.1133 6.28864 10.1133 6.04922C10.1133 5.8098 10.2081 5.58011 10.3769 5.41031L13.8297 1.9575C13.9995 1.78871 14.2292 1.69397 14.4686 1.69397C14.708 1.69397 14.9377 1.78871 15.1075 1.9575C15.1924 2.04175 15.2599 2.14198 15.3059 2.25242C15.3519 2.36285 15.3756 2.4813 15.3756 2.60094C15.3756 2.72057 15.3519 2.83903 15.3059 2.94946C15.2599 3.0599 15.1924 3.16013 15.1075 3.24438L12.2981 6.04469L15.1075 8.86313C15.2763 9.03292 15.371 9.26261 15.371 9.50203C15.371 9.74145 15.2763 9.97114 15.1075 10.1409C14.9455 10.3019 14.7286 10.3958 14.5003 10.4038ZM5.26562 56.2872C5.02527 56.2872 4.79476 56.1917 4.62481 56.0218C4.45485 55.8518 4.35938 55.6213 4.35938 55.3809V11.3009C4.35938 11.0606 4.45485 10.8301 4.62481 10.6601C4.79476 10.4902 5.02527 10.3947 5.26562 10.3947C5.50598 10.3947 5.73649 10.4902 5.90644 10.6601C6.0764 10.8301 6.17188 11.0606 6.17188 11.3009V55.3809C6.17188 55.6213 6.0764 55.8518 5.90644 56.0218C5.73649 56.1917 5.50598 56.2872 5.26562 56.2872Z" fill="#727272"/>
<path d="M8.70978 15.6329C8.47204 15.6319 8.2442 15.5375 8.07541 15.37L5.26603 12.5607L2.45666 15.4063C2.37241 15.4912 2.27218 15.5587 2.16174 15.6047C2.05131 15.6507 1.93285 15.6744 1.81322 15.6744C1.69358 15.6744 1.57513 15.6507 1.4647 15.6047C1.35426 15.5587 1.25403 15.4912 1.16978 15.4063C1.00099 15.2365 0.90625 15.0068 0.90625 14.7674C0.90625 14.528 1.00099 14.2983 1.16978 14.1285L4.62259 10.6394C4.70727 10.5554 4.8077 10.489 4.91812 10.4439C5.02853 10.3988 5.14676 10.3759 5.26603 10.3766C5.50378 10.3776 5.73161 10.472 5.90041 10.6394L9.35322 14.0922C9.52201 14.262 9.61675 14.4917 9.61675 14.7311C9.61675 14.9706 9.52201 15.2002 9.35322 15.37C9.26854 15.454 9.16811 15.5205 9.0577 15.5656C8.94728 15.6107 8.82905 15.6335 8.70978 15.6329ZM5.26603 56.3054C5.14676 56.306 5.02853 56.2832 4.91812 56.2381C4.8077 56.193 4.70727 56.1265 4.62259 56.0425L1.16978 52.5625C1.00099 52.3927 0.90625 52.163 0.90625 51.9236C0.90625 51.6842 1.00099 51.4545 1.16978 51.2847C1.25403 51.1998 1.35426 51.1324 1.4647 51.0864C1.57513 51.0403 1.69358 51.0167 1.81322 51.0167C1.93285 51.0167 2.05131 51.0403 2.16174 51.0864C2.27218 51.1324 2.37241 51.1998 2.45666 51.2847L5.26603 54.0941L8.07541 51.2847C8.24877 51.1363 8.47178 51.0587 8.69986 51.0675C8.92794 51.0763 9.1443 51.1708 9.3057 51.3322C9.4671 51.4936 9.56165 51.71 9.57046 51.9381C9.57927 52.1662 9.50169 52.3892 9.35322 52.5625L5.90041 56.0425C5.73161 56.21 5.50378 56.3044 5.26603 56.3054Z" fill="#727272"/>
</svg>
