<svg width="58" height="58" viewBox="0 0 58 58" fill="none" xmlns="http://www.w3.org/2000/svg">
<g clip-path="url(#clip0_2263_13431)">
<path d="M28.7848 51.1249C28.6167 51.1249 28.4525 51.1748 28.3127 51.2681C28.173 51.3615 28.0641 51.4942 27.9998 51.6494C27.9355 51.8047 27.9187 51.9755 27.9515 52.1403C27.9843 52.3051 28.0652 52.4565 28.184 52.5753C28.3028 52.6941 28.4542 52.7751 28.619 52.8078C28.7838 52.8406 28.9547 52.8238 29.1099 52.7595C29.2651 52.6952 29.3978 52.5863 29.4912 52.4466C29.5845 52.3069 29.6344 52.1426 29.6344 51.9746C29.6344 51.7492 29.5449 51.5331 29.3855 51.3738C29.2262 51.2145 29.0101 51.1249 28.7848 51.1249ZM30.6312 42.1531C30.1613 41.8206 29.5983 41.645 29.0226 41.6513C28.447 41.6576 27.888 41.8455 27.4254 42.1882C26.9604 42.511 26.6092 42.9724 26.4219 43.5066C26.2346 44.0407 26.2206 44.6204 26.3821 45.1629C26.4461 45.3791 26.5933 45.561 26.7914 45.6686C26.9895 45.7762 27.2222 45.8007 27.4384 45.7367C27.6546 45.6727 27.8365 45.5255 27.9441 45.3274C28.0517 45.1293 28.0762 44.8965 28.0122 44.6804C27.9524 44.4763 27.9593 44.2585 28.0318 44.0587C28.1044 43.8588 28.2388 43.6873 28.4155 43.5691C28.5916 43.4339 28.8062 43.3582 29.0282 43.3531C29.2502 43.348 29.4681 43.4137 29.6502 43.5408C30.0195 43.8013 30.1509 44.3983 29.9176 44.7472C29.7579 44.984 29.4984 45.1822 29.1994 45.4122C28.806 45.6868 28.4562 46.019 28.1617 46.3977C27.482 47.3504 27.3563 48.729 27.8627 49.829C27.9308 49.9765 28.0398 50.1014 28.1767 50.189C28.3136 50.2765 28.4727 50.323 28.6352 50.3229C28.7577 50.323 28.8787 50.2964 28.9898 50.2447C29.0917 50.1979 29.1833 50.1314 29.2595 50.0491C29.3356 49.9667 29.3946 49.8701 29.4333 49.7648C29.4719 49.6595 29.4894 49.5476 29.4846 49.4356C29.4798 49.3236 29.453 49.2136 29.4055 49.1119C29.1552 48.5693 29.2118 47.8432 29.5403 47.3855C29.7415 47.1455 29.9743 46.934 30.2325 46.7568C30.5984 46.4759 31.0119 46.1587 31.3279 45.6897C32.0801 44.5739 31.7618 42.9517 30.6312 42.1531ZM57.1504 29.7929H40.4527V27.4526H45.8268C46.5025 27.4517 47.1503 27.1828 47.6281 26.705C48.1059 26.2272 48.3747 25.5794 48.3756 24.9037V14.4048C48.3747 13.7291 48.1059 13.0813 47.6281 12.6035C47.1503 12.1257 46.5025 11.8569 45.8268 11.856H29.9821C29.3063 11.8566 28.6584 12.1253 28.1805 12.6032C27.7027 13.0811 27.4339 13.729 27.4333 14.4048V18.944L23.5432 17.7591C23.2621 17.6738 23.0158 17.5003 22.8408 17.2643C22.6657 17.0283 22.5713 16.7422 22.5713 16.4484V15.9432C23.1468 15.4201 23.6066 14.7825 23.9211 14.0712C24.2356 13.3599 24.3978 12.5907 24.3974 11.813V9.95854C24.3974 9.93928 24.3974 9.92115 24.3974 9.9019L25.1122 6.86596C25.2612 6.24362 25.2795 5.59715 25.1661 4.96736C25.0526 4.33758 24.8097 3.73816 24.4529 3.20697C24.0972 2.67432 23.6364 2.21998 23.0987 1.87187C22.561 1.52376 21.9579 1.28922 21.3263 1.18264C20.7531 1.08748 20.1765 0.980998 19.6112 0.866584L19.2363 0.792952C18.4433 0.628694 17.8146 0.499553 16.9525 0.488225H16.8653C16.1679 0.48722 15.4793 0.644404 14.8515 0.947948C14.2236 1.25149 13.6727 1.69349 13.2403 2.24069C12.7983 2.79425 12.4882 3.44124 12.3335 4.13254C12.1788 4.82384 12.1837 5.5413 12.3477 6.23045L13.2154 9.91662C13.2154 9.93135 13.2154 9.94608 13.2154 9.9608V11.8118C13.2144 12.5763 13.3706 13.3329 13.6745 14.0345C13.9783 14.736 14.4232 15.3676 14.9814 15.8899V16.4677C14.9814 16.7612 14.8872 17.0469 14.7127 17.2829C14.5381 17.5188 14.2924 17.6925 14.0118 17.7783L11.6532 18.4965L11.6306 18.5033L9.47145 19.1626C8.38462 19.4885 7.43223 20.1569 6.75631 21.0682C6.08038 21.9795 5.71712 23.0849 5.7207 24.2195V29.7929H0.849609C0.624279 29.7929 0.408177 29.8825 0.248845 30.0418C0.0895122 30.2011 0 30.4172 0 30.6426L0 35.7402C0 35.9655 0.0895122 36.1816 0.248845 36.341C0.408177 36.5003 0.624279 36.5898 0.849609 36.5898H4.24805V57.1504C4.24805 57.3757 4.33756 57.5918 4.49689 57.7511C4.65622 57.9105 4.87233 58 5.09766 58C5.32299 58 5.53909 57.9105 5.69842 57.7511C5.85775 57.5918 5.94727 57.3757 5.94727 57.1504V36.5898H52.0527V57.1504C52.0527 57.3757 52.1422 57.5918 52.3016 57.7511C52.4609 57.9105 52.677 58 52.9023 58C53.1277 58 53.3438 57.9105 53.5031 57.7511C53.6624 57.5918 53.752 57.3757 53.752 57.1504V36.5898H57.1504C57.3757 36.5898 57.5918 36.5003 57.7512 36.341C57.9105 36.1816 58 35.9655 58 35.7402V30.6426C58 30.4172 57.9105 30.2011 57.7512 30.0418C57.5918 29.8825 57.3757 29.7929 57.1504 29.7929ZM29.1325 14.4048C29.1325 14.1795 29.2221 13.9634 29.3814 13.8041C29.5407 13.6447 29.7568 13.5552 29.9821 13.5552H45.8268C46.052 13.5555 46.268 13.6451 46.4272 13.8044C46.5865 13.9637 46.6761 14.1796 46.6764 14.4048V24.9037C46.6761 25.129 46.5865 25.3449 46.4272 25.5042C46.268 25.6634 46.052 25.753 45.8268 25.7533H40.4527V22.1465C40.4527 21.9211 40.3632 21.705 40.2039 21.5457C40.0446 21.3864 39.8285 21.2969 39.6031 21.2969H36.2047C35.9794 21.2969 35.7633 21.3864 35.6039 21.5457C35.4446 21.705 35.3551 21.9211 35.3551 22.1465V25.7533H29.9821C29.7568 25.7533 29.5407 25.6638 29.3814 25.5045C29.2221 25.3452 29.1325 25.1291 29.1325 24.9037V14.4048ZM38.7535 22.9961V29.7929H37.0543V22.9961H38.7535ZM35.3551 27.4526V29.7929H31.8887V27.4526H35.3551ZM27.4333 20.7203V24.9037C27.4339 25.5795 27.7027 26.2275 28.1805 26.7054C28.6584 27.1832 29.3063 27.452 29.9821 27.4526H30.1895V29.7929H26.4512V26.7491C26.4512 26.5238 26.3617 26.3077 26.2023 26.1483C26.043 25.989 25.8269 25.8995 25.6016 25.8995C25.3762 25.8995 25.1601 25.989 25.0008 26.1483C24.8415 26.3077 24.752 26.5238 24.752 26.7491V29.7929H19.6543V22.2031L20.7871 23.4866C20.9347 23.6538 21.142 23.7565 21.3645 23.7723C21.5869 23.7882 21.8067 23.7161 21.9766 23.5715L25.8768 20.2467L27.4333 20.7203ZM18.7662 18.9848L16.4586 17.5982C16.5391 17.3946 16.598 17.1831 16.6342 16.9672C17.3121 17.2529 18.0397 17.4019 18.7754 17.4056C19.511 17.4093 20.2401 17.2676 20.9208 16.9888C20.9572 17.1935 21.0145 17.3939 21.0918 17.5869L18.7662 18.9848ZM23.0471 19.3835L23.9443 19.6577L21.5064 21.7353L20.1165 20.1561L22.1465 18.9361C22.4201 19.1337 22.7243 19.2848 23.0471 19.3835ZM14.2938 7.10838L13.997 5.84303C13.8919 5.40285 13.8888 4.94448 13.988 4.50292C14.0871 4.06136 14.2859 3.64831 14.5691 3.29533C14.8427 2.9486 15.1914 2.66845 15.5889 2.47596C15.9865 2.28347 16.4225 2.18366 16.8642 2.18405H16.9321C17.6311 2.19311 18.1329 2.29733 18.8919 2.45365L19.2771 2.53182C19.8605 2.6451 20.4563 2.75838 21.0488 2.8592C21.4508 2.92609 21.8348 3.07478 22.1771 3.29607C22.5193 3.51736 22.8125 3.80654 23.0385 4.14571C23.2645 4.48488 23.4184 4.86682 23.4908 5.2679C23.5632 5.66897 23.5525 6.08063 23.4594 6.4774L23.3144 7.09365C22.7945 6.71869 22.2416 6.66319 21.7851 6.61901C21.366 6.57822 21.0352 6.54537 20.6942 6.29389C19.1547 5.15201 17.8814 5.81811 16.9446 6.52045C16.6943 6.70963 16.419 6.71983 15.9545 6.72096C15.4901 6.72209 14.8659 6.73115 14.2938 7.10838ZM14.9112 11.813V9.93362C14.9112 9.91436 14.9112 9.8951 14.9112 9.87471C14.8659 9.22787 14.9622 8.76229 15.1831 8.56518C15.3213 8.44057 15.5229 8.42697 15.9625 8.42584C16.5085 8.42584 17.2561 8.42584 17.9709 7.88209C18.4354 7.53092 18.748 7.38026 19.0211 7.38026C19.2476 7.38026 19.447 7.48221 19.6849 7.65893C20.4031 8.19135 21.1077 8.25932 21.622 8.3103C22.0751 8.35448 22.2462 8.38393 22.4002 8.53686C22.6982 8.83252 22.7288 9.43291 22.7027 9.8849C22.7027 9.9019 22.7027 9.91776 22.7027 9.93475V11.8141C22.7027 12.8467 22.2925 13.837 21.5623 14.5672C20.8322 15.2974 19.8418 15.7076 18.8092 15.7076C17.7766 15.7076 16.7863 15.2974 16.0561 14.5672C15.3259 13.837 14.9157 12.8467 14.9157 11.8141L14.9112 11.813ZM14.5034 19.4028C14.8284 19.3028 15.1346 19.1497 15.4096 18.9497L17.417 20.1539L16.0168 21.7398L13.6085 19.6781L14.5034 19.4028ZM7.41992 24.2195C7.41734 23.4485 7.66414 22.6974 8.1235 22.0781C8.58286 21.4589 9.23015 21.0048 9.96875 20.7837L11.6827 20.2603L15.5501 23.5693C15.7195 23.7141 15.9389 23.7865 16.1612 23.7711C16.3835 23.7556 16.5908 23.6534 16.7384 23.4866L17.9596 22.1068V29.7929H12.862V26.7491C12.862 26.5238 12.7724 26.3077 12.6131 26.1483C12.4538 25.989 12.2377 25.8995 12.0123 25.8995C11.787 25.8995 11.5709 25.989 11.4116 26.1483C11.2522 26.3077 11.1627 26.5238 11.1627 26.7491V29.7929H7.42445L7.41992 24.2195ZM56.3008 34.8906H1.69922V31.4922H56.3008V34.8906ZM29 39.0254C27.3756 39.0254 25.7878 39.507 24.4372 40.4095C23.0866 41.3119 22.0339 42.5946 21.4123 44.0953C20.7907 45.596 20.628 47.2474 20.9449 48.8405C21.2618 50.4337 22.044 51.8971 23.1926 53.0457C24.3412 54.1942 25.8046 54.9764 27.3977 55.2933C28.9909 55.6102 30.6422 55.4476 32.1429 54.826C33.6436 54.2044 34.9263 53.1517 35.8288 51.8011C36.7312 50.4505 37.2129 48.8626 37.2129 47.2383C37.2105 45.0608 36.3444 42.9732 34.8047 41.4335C33.265 39.8938 31.1775 39.0278 29 39.0254ZM29 53.7519C27.7117 53.7519 26.4524 53.3699 25.3812 52.6542C24.31 51.9385 23.4752 50.9212 22.9822 49.7309C22.4891 48.5407 22.3602 47.231 22.6115 45.9675C22.8628 44.704 23.4832 43.5434 24.3941 42.6324C25.3051 41.7215 26.4657 41.1011 27.7292 40.8498C28.9928 40.5984 30.3025 40.7274 31.4927 41.2204C32.6829 41.7134 33.7002 42.5483 34.4159 43.6195C35.1317 44.6906 35.5137 45.95 35.5137 47.2383C35.5119 48.9652 34.825 50.621 33.6039 51.8421C32.3827 53.0633 30.727 53.7501 29 53.7519Z" fill="#727272"/>
</g>
<defs>
<clipPath id="clip0_2263_13431">
<rect width="58" height="58" fill="white"/>
</clipPath>
</defs>
</svg>
