<svg width="58" height="58" viewBox="0 0 58 58" fill="none" xmlns="http://www.w3.org/2000/svg">
<path d="M45.1708 3.86529C48.549 9.93466 40.8139 15.372 36.1831 11.0481C32.4366 7.5505 34.8577 1.13756 39.8856 1.01014C41.3971 0.871099 45.2946 2.18852 42.8048 3.36482C40.3569 1.69817 37.2067 2.27605 36.0661 5.16723C34.607 8.86644 38.3365 12.4269 42.0256 10.7778C44.2928 9.76466 45.1359 7.06045 44.1394 4.86505C43.2189 5.69093 42.3546 6.60017 41.49 7.48411C41.1354 7.84644 40.1738 9.14957 39.5807 8.86673C39.1496 8.66071 37.6955 7.276 37.5232 6.72313C37.3037 6.02021 38.0284 5.56201 38.5869 5.97942C39.0174 6.38164 39.397 6.82227 39.8856 7.15989L39.9508 7.07831C40.4822 6.42541 41.142 5.83771 41.7309 5.23482C42.5773 4.36874 43.8816 2.93045 44.8334 2.20877C45.4125 1.76963 46.821 2.27516 45.1708 3.86529ZM22.7939 16.5632L22.7916 13.0855C22.7922 10.1547 23.1313 7.30726 26.8885 6.86604C29.1086 6.58439 31.2603 8.0471 31.8438 10.1943C32.1966 11.4923 31.9697 15.0335 31.9977 16.5632C32.6447 16.6197 33.3372 16.5646 33.9901 16.564L38.2624 16.5611C41.2256 16.5605 42.9334 16.9535 42.9736 20.3469C43.0036 22.8889 42.9739 25.4344 42.9736 27.9766L42.9774 52.4342C42.9777 54.3298 42.6898 56.3014 40.3902 56.781C39.8251 56.8989 39.2115 56.8596 38.6366 56.8587L28.3158 56.8569L15.6019 56.8644C12.7949 56.8691 12.0069 55.1132 12.0054 52.5908L12 20.1215C11.9938 16.4045 14.4384 16.5635 17.3233 16.5646L22.7939 16.5632ZM27.0264 8.23973C24.2284 8.74496 24.1882 10.7742 24.1882 13.1015L24.19 16.5632H30.5955L30.5972 13.2989C30.5972 12.4165 30.7003 11.3989 30.471 10.545C30.0685 9.04656 28.5647 8.05901 27.0264 8.23973ZM14.7691 17.9741C12.9039 18.4594 13.3904 20.9959 13.3925 22.5307L13.3948 50.1242C13.3948 51.7414 12.758 55.3808 15.1797 55.4933C16.6689 55.5624 18.187 55.5041 19.6786 55.5035L38.1704 55.5053C40.0228 55.5058 41.5838 55.5466 41.5829 53.2533L41.5847 20.8801C41.5868 17.5367 40.5909 17.9732 37.5118 17.9755L31.998 17.9741C32.0725 21.8296 30.0268 21.653 26.9028 21.6545C23.981 21.6563 22.7031 21.2651 22.7936 17.9741H14.7691ZM24.19 17.9741C24.1852 18.8199 24.1096 19.9611 25.1552 20.2049C25.9221 20.3835 29.4209 20.4946 30.192 19.8277C30.6928 19.2486 30.6011 18.6892 30.5958 17.9741H24.19Z" fill="#727272"/>
<path d="M24.8598 30.7456C24.1937 29.9051 23.6998 29.2251 23.6171 28.1167C23.4468 25.8266 25.064 24.0469 27.3323 23.912C31.0807 23.8786 32.6455 28.4222 29.8657 30.7456C32.6062 31.4354 34.4595 34.5204 34.4762 37.2083C34.4851 38.665 32.9471 38.2304 31.8009 38.2304L27.9745 38.2283C27.1728 38.2283 21.2805 38.3188 20.8869 38.1544C20.5455 38.0121 20.5922 37.4104 20.5922 37.1207C20.5937 34.3784 22.2133 31.7144 24.8598 30.7456ZM27.3323 25.3247C24.069 25.6709 24.3396 30.3014 27.6837 30.1841C31.1554 29.5782 30.1253 25.0124 27.3323 25.3247ZM26.889 31.7153C24.4099 31.8573 21.9147 34.223 22.0373 36.7938H33.0432C32.7827 33.6722 30.0249 31.361 26.889 31.7153ZM37.2819 51.677C36.1574 51.727 35.007 51.6767 33.8796 51.6767L20.8167 51.6737C19.4531 51.6734 16.7382 52.1652 16.2812 50.3637C16.1356 49.7909 16.196 49.1014 16.196 48.5113L16.1928 44.2738C16.1928 43.0841 16.1808 41.8456 17.5882 41.4955C18.6749 41.455 19.7779 41.4943 20.8661 41.4946L33.7048 41.4949C34.7706 41.4949 35.8526 41.4565 36.9166 41.4993C39.4095 41.6003 38.7664 45.0634 38.7693 46.8C38.7723 48.6006 39.3576 50.9794 37.2819 51.6767M17.899 42.8867C17.2128 43.068 17.5599 49.9302 17.659 50.1461C17.8261 50.5096 20.5335 50.3194 21.0063 50.3188L36.1869 50.3226C36.4989 50.3238 36.8297 50.348 37.1396 50.3179C37.5927 50.0261 37.4332 44.442 37.3927 43.6489C37.3337 42.5018 36.4867 42.8879 35.4667 42.887H22.4497C20.9349 42.887 19.4129 42.8504 17.899 42.8867Z" fill="#727272"/>
<path d="M21.1949 46.0997C21.1765 45.4804 21.1634 44.9862 21.838 44.7775C22.6038 44.8227 22.5704 45.4968 22.5615 46.0994C23.519 45.9901 24.4857 46.4301 23.5282 47.4073C23.2135 47.4445 22.8786 47.415 22.5618 47.4073C22.5918 47.9714 22.6237 48.3713 22.0396 48.6258C21.2521 48.7669 21.1911 47.9839 21.1949 47.407C19.2984 47.4802 19.5771 45.9305 21.1949 46.0994M32.3634 46.0997C32.3491 45.4191 32.2985 44.9737 33.0452 44.7775C33.7826 44.8311 33.7502 45.5301 33.741 46.0994C35.1423 45.9934 35.6687 47.351 33.741 47.4073C33.7374 48.0197 33.7934 48.3856 33.1455 48.6258C32.367 48.6705 32.3601 48.0128 32.3634 47.407C30.6342 47.4072 30.8111 45.98 32.3634 46.0994M26.8913 46.0997C26.8785 45.5518 26.824 45.1195 27.3346 44.7775C28.2123 44.8063 28.2045 45.355 28.2111 46.0994C29.7759 46.0395 29.8837 47.3406 28.2111 47.4073C28.2251 47.9393 28.2346 48.3796 27.6859 48.6258C26.8728 48.6872 26.8511 48.0432 26.8913 47.407C26.1889 47.4022 25.0046 47.0961 25.873 46.2494C26.1059 46.0222 26.5858 46.0967 26.8913 46.0994" fill="#727272"/>
</svg>
