<?xml version="1.0" encoding="UTF-8"?>
<svg version="1.1" xmlns="http://www.w3.org/2000/svg" width="512" height="512">
<path d="M0 0 C4.23957677 3.08871362 6.33197789 6.52342362 7.95703125 11.42578125 C9.07786127 21.82000488 7.71021169 31.82353323 5.7578125 42.03515625 C3.8580152 52.31847251 2.0788316 62.60896496 0.44140625 72.9375 C0.22377467 74.30511316 0.00605589 75.67271245 -0.21174622 77.04029846 C-0.55038606 79.16750155 -0.8889023 81.2947239 -1.22701168 83.42201138 C-11.10416473 145.53668184 -21.94987227 207.50717871 -33.66796875 269.30078125 C-33.8073864 270.03636261 -33.94680405 270.77194397 -34.09044647 271.52981567 C-35.78065423 280.44121374 -37.49398515 289.34789676 -39.23059082 298.25036621 C-39.79743464 301.15813744 -40.35918228 304.06684267 -40.91784668 306.97619629 C-41.66699079 310.87619113 -42.42479991 314.77442209 -43.18796921 318.67169571 C-43.47455849 320.14182787 -43.75852196 321.61247519 -44.03941727 323.0837059 C-49.30704218 350.62890128 -59.19068919 372.41547601 -77.66015625 393.6484375 C-80.00948474 396.28762105 -80.00948474 396.28762105 -81.67578125 398.796875 C-82.12695312 399.33441406 -82.578125 399.87195313 -83.04296875 400.42578125 C-84.03296875 400.42578125 -85.02296875 400.42578125 -86.04296875 400.42578125 C-86.67863063 398.51262415 -87.3007641 396.59497236 -87.91796875 394.67578125 C-88.26601563 393.6084375 -88.6140625 392.54109375 -88.97265625 391.44140625 C-99.68695967 353.90450006 -89.57919531 309.49762599 -85.04296875 271.42578125 C-84.94902077 270.63694801 -84.85507278 269.84811478 -84.75827789 269.0353775 C-77.48041478 208.03426466 -69.28931146 147.14501081 -59.23641205 86.53596115 C-58.8656662 84.29978769 -58.4964082 82.0633722 -58.1272583 79.82693481 C-56.5033821 70.01375572 -54.81574081 60.21319228 -53.04296875 50.42578125 C-52.90423088 49.65961235 -52.76549301 48.89344345 -52.62255096 48.10405731 C-51.75082508 43.31335652 -50.85569221 38.52773705 -49.93442345 33.7463131 C-49.64440978 32.23221786 -49.35911733 30.71720902 -49.07905006 29.20124245 C-45.27455347 8.7034742 -45.27455347 8.7034742 -37.35546875 1.98828125 C-26.50893769 -5.1284947 -11.35820024 -6.68683431 0 0 Z M-36.53295898 8.53564453 C-42.91085035 16.519094 -43.77393413 28.16014592 -45.48046875 37.92578125 C-45.64160156 38.82938385 -45.80273438 39.73298645 -45.96875 40.66397095 C-55.37287489 93.45168846 -63.44798443 146.54530471 -70.5435791 199.68859863 C-70.98270074 202.97476558 -71.42395634 206.26063394 -71.86610413 209.54639435 C-76.02926523 240.494637 -80.05508263 271.4556657 -83.54296875 302.48828125 C-83.66698059 303.57732758 -83.79099243 304.6663739 -83.91876221 305.78842163 C-85.45161881 319.32796386 -86.53864338 332.80805537 -87.04296875 346.42578125 C-86.15786621 346.18565308 -86.15786621 346.18565308 -85.25488281 345.94067383 C-78.44779986 344.35611114 -69.523686 344.19225772 -63.16796875 347.30078125 C-60.04296875 349.42578125 -60.04296875 349.42578125 -59.04296875 351.42578125 C-60.95916016 351.18021484 -60.95916016 351.18021484 -62.9140625 350.9296875 C-67.99265131 350.36539985 -73.0009361 350.31180032 -78.10546875 350.36328125 C-79.40387695 350.37004883 -79.40387695 350.37004883 -80.72851562 350.37695312 C-82.83336414 350.38858212 -84.93817633 350.40651052 -87.04296875 350.42578125 C-87.65487303 373.1185441 -87.65487303 373.1185441 -84.04296875 395.42578125 C-71.59383101 383.71553118 -61.34396873 366.27988137 -56.01953125 350.09619141 C-55.76339554 349.31947397 -55.50725983 348.54275654 -55.24336243 347.74250221 C-52.50652524 339.15377642 -50.82655869 330.43271895 -49.23046875 321.57421875 C-48.89750533 319.78045811 -48.56347957 317.9868944 -48.22848511 316.19351196 C-47.33622182 311.39727112 -46.46046252 306.59816199 -45.58870697 301.79815674 C-44.84954107 297.73841222 -44.10132614 293.68035432 -43.35338402 289.62221909 C-40.88578046 276.22895288 -38.45671397 262.8288474 -36.04296875 249.42578125 C-35.87864853 248.51395584 -35.71432831 247.60213043 -35.54502869 246.66267395 C-25.6049428 191.48507362 -16.3829772 136.18597223 -7.43344879 80.83979797 C-7.05771482 78.51694406 -6.68137268 76.19418948 -6.30487061 73.87145996 C-5.06053618 66.18998924 -3.82834044 58.50673674 -2.62030029 50.81945801 C-2.2840776 48.68477273 -1.94489351 46.5505512 -1.60235596 44.41687012 C1.76405872 27.06411317 1.76405872 27.06411317 -0.23046875 9.86328125 C-3.38508582 5.62086519 -6.94244369 2.88307413 -12.04296875 1.42578125 C-20.2828491 0.58497713 -30.58664049 2.36035916 -36.53295898 8.53564453 Z " fill="#000000" transform="translate(419.04296875,102.57421875)"/>
<path d="M0 0 C13.55288586 9.98633695 15.2863481 29.07218109 18.515625 44.40625 C18.92311488 46.31557247 19.33061183 48.22489345 19.73840809 50.13415051 C33.2014098 113.26905389 45.64457936 176.64466175 57.44852066 240.10892105 C58.00277581 243.087205 58.55878617 246.0651569 59.11508179 249.0430603 C78.7753114 354.43210377 78.7753114 354.43210377 70.078125 377.53125 C69.72411621 378.47581055 69.37010742 379.42037109 69.00537109 380.39355469 C66.45051839 387.1418682 63.79903428 393.84829965 61.078125 400.53125 C60.088125 400.53125 59.098125 400.53125 58.078125 400.53125 C56.51428452 398.55717129 55.20411067 396.66534499 53.890625 394.53125 C53.49770264 393.90404053 53.10478027 393.27683105 52.69995117 392.63061523 C36.46713859 366.21276419 28.90239902 336.37852501 21.140625 306.65625 C20.82342499 305.44527649 20.50622498 304.23430298 20.17941284 302.9866333 C0.88434677 229.23959542 -16.1979563 154.99536026 -31.17462158 80.25201416 C-31.9282274 76.49961977 -32.68782312 72.74847863 -33.44873047 68.99755859 C-34.66943611 62.97221444 -35.87352617 56.94378011 -37.06427002 50.91244507 C-37.50291108 48.6991635 -37.94589919 46.48673794 -38.39373779 44.27529907 C-44.51046923 13.98234094 -44.51046923 13.98234094 -40.02270508 6.265625 C-31.1187494 -5.3234864 -12.32499821 -7.34602542 0 0 Z M-34.921875 9.53125 C-40.32508906 18.40249782 -36.08343851 31.31772341 -34.09765625 40.74609375 C-33.79628345 42.21978223 -33.49591027 43.69367542 -33.19645691 45.16775513 C-32.3910744 49.11629106 -31.57088003 53.06160774 -30.7472229 57.00636673 C-30.0555004 60.32759686 -29.37198678 63.65049491 -28.68847084 66.97342205 C-26.77919227 76.25471642 -24.84873473 85.53149677 -22.90924072 94.80651855 C-21.99517875 99.17792612 -21.08575356 103.55028691 -20.17724609 107.92285156 C-8.77314595 162.76409111 3.7652799 217.35884733 17.36846924 271.6965332 C17.84479414 273.59921091 18.32049391 275.50204521 18.79559326 277.4050293 C24.75116481 301.25964704 30.98639567 324.98692119 38.078125 348.53125 C38.7481958 348.31686279 39.4182666 348.10247559 40.10864258 347.8815918 C46.83105982 345.86926036 52.77289807 345.13977367 59.765625 345.34375 C60.66990234 345.35728516 61.57417969 345.37082031 62.50585938 345.38476562 C64.69688266 345.41954377 66.88759152 345.47332208 69.078125 345.53125 C68.50188373 334.41309862 66.55114361 323.54176722 64.640625 312.59375 C64.45239166 311.50949738 64.26415833 310.42524475 64.07022095 309.30813599 C49.08337236 223.35300851 31.59531111 137.67778433 13.23461914 52.38452148 C12.84774627 50.58579038 12.4609424 48.78704444 12.07421875 46.98828125 C11.89712875 46.16634277 11.72003876 45.3444043 11.5375824 44.49755859 C10.14375466 37.97304926 8.91761741 31.42551757 7.76147461 24.85498047 C6.23209406 17.41625708 4.05619514 11.46315787 -1.921875 6.53125 C-2.52 5.974375 -3.118125 5.4175 -3.734375 4.84375 C-14.01963644 -1.32740686 -27.27932026 0.31522811 -34.921875 9.53125 Z M39.078125 350.53125 C44.30616996 366.00473105 49.67269558 381.0377464 59.078125 394.53125 C67.40303836 382.04387997 69.23988663 364.19186804 70.078125 349.53125 C65.84897283 349.50216367 61.61984648 349.48442208 57.390625 349.46875 C56.19244141 349.46037109 54.99425781 349.45199219 53.75976562 349.44335938 C52.60283203 349.44013672 51.44589844 349.43691406 50.25390625 349.43359375 C48.65929565 349.42573853 48.65929565 349.42573853 47.0324707 349.41772461 C44.2646741 349.52408156 41.77019603 349.90230212 39.078125 350.53125 Z " fill="#000000" transform="translate(102.921875,103.46875)"/>
<path d="M0 0 C5.53413232 4.88848355 7.54742679 10.91976687 8.24957657 18.17127037 C8.32701189 20.85816028 8.30638622 23.52446172 8.24267578 26.21166992 C8.23051592 27.20587291 8.21835606 28.20007589 8.20582771 29.22440624 C8.15906968 32.34843362 8.08505468 35.4705437 8 38.59375 C7.97366234 39.56444553 7.94732468 40.53514107 7.9201889 41.53525162 C7.71297486 48.59517309 7.42082782 55.65070365 7.1171875 62.70703125 C7.0213685 65.00726325 6.92579993 67.30750568 6.83045959 69.60775757 C6.57340035 75.76266203 6.30879293 81.91721749 6.0414238 88.07168198 C5.87367106 91.93687002 5.70749839 95.80212369 5.54153442 99.66738892 C3.21511092 153.67190308 0.32541087 207.6414592 -3 261.59375 C-3.07822746 262.86320717 -3.07822746 262.86320717 -3.15803528 264.15830994 C-3.80660325 274.65955286 -4.48218373 285.15865088 -5.1875 295.65625 C-5.26018097 296.75947601 -5.33286194 297.86270203 -5.40774536 298.99935913 C-6.16543461 310.37387533 -7.16048009 321.69382809 -8.5 333.015625 C-8.68123665 334.55096642 -8.68123665 334.55096642 -8.86613464 336.11732483 C-11.49094249 357.38478722 -18.38116173 373.93514895 -30.55908203 391.47167969 C-32.80735368 394.78275681 -34.91183382 398.18010234 -37 401.59375 C-40.23513593 400.21865115 -40.88022852 399.82850209 -42.5625 396.53125 C-43.06066686 395.22584327 -43.53857067 393.91259037 -44 392.59375 C-44.25491211 391.88387939 -44.50982422 391.17400879 -44.77246094 390.44262695 C-48.57248452 379.47263455 -50.87857007 368.2321771 -52.07104492 356.69458008 C-52.19816124 355.46557968 -52.19816124 355.46557968 -52.32784557 354.21175098 C-53.18668393 345.41254429 -53.45382156 336.62833905 -53.61328125 327.79296875 C-53.65094991 325.98491848 -53.68865562 324.17686899 -53.72639465 322.36882019 C-54.19668952 298.38431535 -54.19791867 274.39441963 -54.1875 250.40625 C-54.18738041 249.17980648 -54.18726082 247.95336296 -54.1871376 246.68975449 C-54.18164379 201.96380998 -53.63159157 157.29031985 -52 112.59375 C-51.97128059 111.80518867 -51.94256119 111.01662735 -51.9129715 110.20417023 C-51.47426759 98.20768465 -51.00087982 86.21279393 -50.5 74.21875 C-50.46990719 73.49264652 -50.43981438 72.76654305 -50.40880966 72.01843643 C-49.80800818 57.56276161 -49.13110395 43.11153114 -48.09375 28.6796875 C-48.02933716 27.68393707 -47.96492432 26.68818665 -47.89855957 25.66226196 C-47.10718912 15.51082512 -44.82577117 7.47047139 -37 0.59375 C-26.54985956 -6.26725302 -10.45920587 -7.35412913 0 0 Z M-36 6.59375 C-45.44733699 17.01758493 -43.65717678 34.78370995 -44.0625 48.03125 C-44.1379033 50.19405749 -44.21467007 52.35681782 -44.29272461 54.51953125 C-44.45346479 58.98928068 -44.60901835 63.45916852 -44.76171875 67.92919922 C-45.08981274 77.3296048 -45.51351932 86.72565298 -45.93139648 96.12240601 C-46.72455883 114.09872152 -47.44528249 132.07469535 -47.88671875 150.06347656 C-47.96359931 153.19584439 -48.04785313 156.32791067 -48.13671875 159.45996094 C-49.05426384 192.28357349 -49.10785978 225.10885525 -49.12293625 257.94293213 C-49.12497697 261.42940509 -49.12873059 264.91587267 -49.13284302 268.40234375 C-49.17747664 299.72393317 -49.17747664 299.72393317 -48.6171875 331.0390625 C-48.58682404 332.28823456 -48.55646057 333.53740662 -48.525177 334.82443237 C-48.48705902 335.94471832 -48.44894104 337.06500427 -48.40966797 338.21923828 C-48.37904266 339.17162384 -48.34841736 340.1240094 -48.31686401 341.10525513 C-47.98956743 343.67568228 -47.30122418 345.3714927 -46 347.59375 C-45.21625 346.954375 -44.4325 346.315 -43.625 345.65625 C-39.54482898 342.45040134 -37.30060632 342.43315024 -32.125 342.40625 C-30.89007813 342.39207031 -29.65515625 342.37789063 -28.3828125 342.36328125 C-25.24479731 342.57707212 -23.55725495 342.83332087 -21 344.59375 C-20.67 345.25375 -20.34 345.91375 -20 346.59375 C-20.969375 346.42875 -21.93875 346.26375 -22.9375 346.09375 C-30.05210392 345.10201733 -36.12470533 345.30198511 -43 347.59375 C-44.3309358 347.93653098 -45.66381863 348.27202303 -47 348.59375 C-46.7583768 357.92040533 -45.96490711 366.93563825 -44.125 376.09375 C-43.96354492 376.90489258 -43.80208984 377.71603516 -43.63574219 378.55175781 C-42.49493016 383.96341563 -41.27036133 389.53074434 -39 394.59375 C-38.34 394.92375 -37.68 395.25375 -37 395.59375 C-21.26330298 369.00001208 -13.92037367 347.38440444 -12.21875 316.4921875 C-12.07962308 314.15977483 -11.93927755 311.82743458 -11.79780579 309.49516296 C-11.42453531 303.27672666 -11.06974986 297.05737061 -10.7194252 290.83760452 C-10.4238088 285.62536434 -10.11801755 280.41373994 -9.812356 275.20208073 C-8.84321748 258.66771387 -7.91359933 242.13126846 -7 225.59375 C-6.91450268 224.05134266 -6.91450268 224.05134266 -6.82727814 222.47777557 C-4.48963794 180.30176186 -2.62293246 138.10669025 -0.88671494 95.90195847 C-0.752486 92.65390594 -0.61629947 89.40594078 -0.47964478 86.1579895 C0.72820659 57.64106677 0.72820659 57.64106677 1.28044891 29.10562134 C1.29629037 27.10507976 1.3244535 25.1046474 1.35308838 23.10424805 C1.35355164 21.92386963 1.35401489 20.74349121 1.35449219 19.52734375 C1.35906433 18.51728271 1.36363647 17.50722168 1.36834717 16.46655273 C0.77144603 11.81121841 -0.98792034 8.55256231 -4.375 5.34375 C-13.98320498 -1.06171999 -27.0469036 -1.04913717 -36 6.59375 Z " fill="#000000" transform="translate(287,103.40625)"/>
<path d="M0 0 C2.41602504 4.22804382 2.87326127 8.84199393 3.5 13.625 C10.08097428 12.36244624 10.08097428 12.36244624 16.6015625 10.82421875 C24.06039362 8.90960395 31.80743663 7.25094156 39.5 8.625 C41.81543707 10.4076123 43.1537695 11.74924049 44.23046875 14.47265625 C44.59034288 17.34643369 44.74887441 20.16586121 44.8125 23.0625 C44.86857422 24.73119141 44.86857422 24.73119141 44.92578125 26.43359375 C44.39951454 30.37818002 43.38574991 31.91297417 40.5 34.625 C37.80078125 35.69921875 37.80078125 35.69921875 34.8125 36.3125 C33.75160156 36.54195312 32.69070312 36.77140625 31.59765625 37.0078125 C30.57542969 37.21148437 29.55320313 37.41515625 28.5 37.625 C26.91594269 37.97591441 25.33251919 38.32971305 23.75 38.6875 C23.03972656 38.84089844 22.32945312 38.99429688 21.59765625 39.15234375 C19.44643559 39.63706945 17.31982147 40.18844941 15.1875 40.75 C11.5 41.625 11.5 41.625 7.5 41.625 C7.83 42.285 8.16 42.945 8.5 43.625 C8.55334357 50.15425337 8.08854021 55.66441598 3.5 60.625 C-1.44989896 64.16064211 -6.61404134 64.50522645 -12.5 63.625 C-14.8984375 62.58203125 -14.8984375 62.58203125 -17.1875 61.375 C-20.22232183 59.76032174 -20.22232183 59.76032174 -23.4765625 60.21484375 C-25.2136367 61.25339237 -26.86184336 62.43653342 -28.5 63.625 C-33.79028453 65.6088567 -38.88143968 64.96776742 -44 62.875 C-46.26027774 61.97970965 -46.26027774 61.97970965 -48.5 61.625 C-51.71648568 63.16315651 -51.71648568 63.16315651 -53.62890625 64.5546875 C-59.59037713 67.96479819 -66.32948789 66.57547945 -72.59375 64.91015625 C-74.66611382 64.40271044 -74.66611382 64.40271044 -76.875 65.9375 C-77.41125 66.494375 -77.9475 67.05125 -78.5 67.625 C-84.04885563 69.47461854 -89.4415324 69.42397602 -94.8125 67 C-99.52622937 64.36143834 -101.80822627 60.7003212 -103.5 55.625 C-104.59441406 55.73328125 -104.59441406 55.73328125 -105.7109375 55.84375 C-112.4848577 56.44587624 -119.26442197 56.82890975 -126.0625 57 C-126.83577637 57.03802734 -127.60905273 57.07605469 -128.40576172 57.11523438 C-132.29000512 57.17324636 -134.06448666 57.0327294 -136.94921875 54.33203125 C-140.54937744 48.04762326 -141.45633946 40.76168325 -140.5 33.625 C-138.1105098 28.57030919 -135.69147778 26.54407191 -130.5 24.625 C-126.20126002 24.26411355 -121.93487972 24.34264373 -117.625 24.4375 C-115.87703125 24.45780273 -115.87703125 24.45780273 -114.09375 24.47851562 C-111.22868882 24.51374179 -108.36458623 24.56300285 -105.5 24.625 C-105.36078125 23.52542969 -105.2215625 22.42585938 -105.078125 21.29296875 C-104.30481066 16.38660275 -102.78257653 13.8719494 -99.25 10.4375 C-93.23629643 6.47392265 -88.31177616 6.37617437 -81.5 7.625 C-80.51 7.955 -79.52 8.285 -78.5 8.625 C-77.06854456 7.39328252 -75.63888054 6.15935655 -74.22265625 4.91015625 C-69.06385497 1.06152672 -62.95821624 1.38591015 -56.890625 2.12109375 C-54.57565498 2.60905312 -52.79218659 3.3180813 -50.6875 4.375 C-49.635625 4.7875 -48.58375 5.2 -47.5 5.625 C-45.03188648 4.37822937 -45.03188648 4.37822937 -42.5 2.625 C-35.89451842 0.8376344 -30.69904302 2.0310742 -24.5 4.625 C-24.2628125 4.00238281 -24.025625 3.37976563 -23.78125 2.73828125 C-21.72995726 -0.64510098 -18.98514159 -0.92765106 -15.3046875 -1.8984375 C-9.90205351 -2.8164338 -4.8578853 -2.67183691 0 0 Z M-22.5 7.625 C-23.37822312 9.71033633 -23.37822312 9.71033633 -23.5 11.625 C-30.04495814 10.86981252 -30.04495814 10.86981252 -32.453125 9.57421875 C-36.05230739 7.90513226 -39.73059303 8.73519575 -43.5 9.625 C-44.551875 10.429375 -44.551875 10.429375 -45.625 11.25 C-47.5 12.625 -47.5 12.625 -50.9375 12.4375 C-54.5 11.625 -54.5 11.625 -56.875 10.5625 C-63.65076626 8.14258348 -69.41225695 9.58387045 -75.75 12.5546875 C-77.66502999 13.51364939 -77.66502999 13.51364939 -78.5 15.625 C-79.38042969 15.44582031 -80.26085937 15.26664063 -81.16796875 15.08203125 C-82.32941406 14.86933594 -83.49085938 14.65664063 -84.6875 14.4375 C-85.83605469 14.21707031 -86.98460937 13.99664062 -88.16796875 13.76953125 C-92.08140973 13.59978059 -93.46835994 14.21120714 -96.5 16.625 C-98.93122275 19.02451115 -99.45804875 20.23645151 -99.828125 23.6640625 C-99.80234375 24.84742187 -99.7765625 26.03078125 -99.75 27.25 C-99.73614258 27.89517578 -99.72228516 28.54035156 -99.70800781 29.20507812 C-99.67278282 30.6021148 -99.62916377 31.99895945 -99.578125 33.39550781 C-99.49669509 35.71931392 -99.45174069 38.04242371 -99.40625 40.3671875 C-99.35655597 41.95320166 -99.30451482 43.53914422 -99.25 45.125 C-99.23614258 45.86572754 -99.22228516 46.60645508 -99.20800781 47.36962891 C-98.96000075 52.80491238 -97.54842075 56.10711367 -94.5 60.625 C-91.84951275 62.81850669 -90.60707403 62.63094856 -87.125 62.4375 C-83.47968872 61.62044747 -80.7032752 60.53171143 -77.5 58.625 C-75.42529483 54.47558967 -76.33455678 50.20740896 -77.55859375 45.8984375 C-78.01225841 44.59686184 -78.47209834 43.29742519 -78.9375 42 C-81.34552361 34.88367633 -82.35794556 28.16679928 -82.5 20.625 C-81.18 20.625 -79.86 20.625 -78.5 20.625 C-78.31824219 21.60597656 -78.13648438 22.58695313 -77.94921875 23.59765625 C-76.64119317 30.63323508 -75.3139178 37.66496021 -73.9375 44.6875 C-73.59525391 46.43740234 -73.59525391 46.43740234 -73.24609375 48.22265625 C-72.24382838 55.03909733 -72.24382838 55.03909733 -68.3125 60.0625 C-63.54162005 61.01667599 -60.04734392 61.48463551 -55.6875 59.0625 C-52.90289867 55.95965852 -52.32502268 53.70865496 -51.5 49.625 C-51.83082583 46.84382011 -52.25138557 44.33194622 -52.875 41.625 C-54.54698817 33.50404297 -54.82539629 25.90452784 -54.5 17.625 C-51.09351026 21.03148974 -50.61772505 25.85973348 -49.4375 30.4375 C-49.16728027 31.47527588 -48.89706055 32.51305176 -48.61865234 33.58227539 C-46.76289825 40.96324644 -45.52931363 47.98879877 -45.5 55.625 C-40.73815416 57.71249932 -36.66095387 58.55995541 -31.5 57.625 C-28.21824682 55.09531526 -26.80756223 53.54768669 -25.5 49.625 C-24.93179252 39.99889688 -25.83180497 30.24536014 -26.40820312 20.6328125 C-26.49967701 18.63206457 -26.5 16.62783792 -26.5 14.625 C-25.51 14.625 -24.52 14.625 -23.5 14.625 C-22.14185154 21.86364233 -21.15808945 29.11753226 -20.375 36.4375 C-20.28750488 37.23712158 -20.20000977 38.03674316 -20.10986328 38.8605957 C-19.63240487 43.47714782 -19.41325541 47.98416419 -19.5 52.625 C-14.45788695 55.55859305 -10.49544556 57.52997291 -4.5 56.625 C-1.11060444 54.48820715 0.22582557 53.4475233 1.5 49.625 C1.62838859 45.77334234 1.60848933 42.30305833 1 38.5 C0.35392791 33.49294133 0.47758049 28.58115847 0.5625 23.5390625 C0.83845042 20.73285647 0.83845042 20.73285647 -0.5 19.625 C-0.91670699 16.59028603 -1.27190946 13.55233854 -1.609375 10.5078125 C-2.25546448 7.47730146 -2.25546448 7.47730146 -4.765625 5.765625 C-10.54004371 3.35686748 -17.67201028 3.26423509 -22.5 7.625 Z M24.80859375 15.68359375 C23.14473633 16.01520508 23.14473633 16.01520508 21.44726562 16.35351562 C20.28904297 16.58748047 19.13082031 16.82144531 17.9375 17.0625 C16.19436523 17.40764648 16.19436523 17.40764648 14.41601562 17.75976562 C12.7540918 18.09331055 12.7540918 18.09331055 11.05859375 18.43359375 C10.04079834 18.63782959 9.02300293 18.84206543 7.97436523 19.05249023 C5.51551545 19.51970887 5.51551545 19.51970887 3.5 20.625 C3.80947671 22.56298521 4.12268834 24.50037426 4.4375 26.4375 C4.61152344 27.51644531 4.78554687 28.59539063 4.96484375 29.70703125 C5.43871921 32.67433356 5.43871921 32.67433356 6.5 35.625 C7.07105469 35.50382812 7.64210937 35.38265625 8.23046875 35.2578125 C13.22813303 34.22490891 18.18732795 33.40099801 23.25 32.75 C29.64355232 31.80113358 32.93500315 30.18999685 37.5 25.625 C37.74253813 23.41427023 37.74253813 23.41427023 37.625 21 C37.60695312 20.18273437 37.58890625 19.36546875 37.5703125 18.5234375 C37.54710937 17.89695312 37.52390625 17.27046875 37.5 16.625 C32.93380295 14.10571887 29.8140385 14.68582936 24.80859375 15.68359375 Z M-132.3112793 33.95581055 C-134.51147323 37.04530036 -134.68436878 39.94965185 -134.75 43.625 C-134.77578125 44.49125 -134.8015625 45.3575 -134.828125 46.25 C-134.69146018 48.66940128 -134.69146018 48.66940128 -133.171875 50.375 C-127.32299831 54.74799192 -117.19230238 52.89226024 -110.3125 52.1875 C-106.70579974 51.85784684 -106.70579974 51.85784684 -104.5 50.625 C-104.5 44.685 -104.5 38.745 -104.5 32.625 C-108.7712088 32.54429836 -113.0409033 32.48463796 -117.3125 32.4375 C-118.52744141 32.41236328 -119.74238281 32.38722656 -120.99414062 32.36132812 C-122.15751953 32.35166016 -123.32089844 32.34199219 -124.51953125 32.33203125 C-125.59307861 32.3163208 -126.66662598 32.30061035 -127.77270508 32.28442383 C-130.50256523 32.40019071 -130.50256523 32.40019071 -132.3112793 33.95581055 Z " fill="#000000" transform="translate(214.5,13.375)"/>
<path d="M0 0 C1.2684375 0.99 1.2684375 0.99 2.5625 2 C3.5525 2.495 3.5525 2.495 4.5625 3 C5.46548828 2.54560547 5.46548828 2.54560547 6.38671875 2.08203125 C11.32801766 -0.3753113 17.14936135 0.56887295 22.25 2.125 C25.0897988 3.73243328 26.53721461 4.93748024 28.75 7.1875 C31.98385204 10.16643127 34.1580019 10.29409792 38.5 10.125 C39.52738281 10.06828125 40.55476563 10.0115625 41.61328125 9.953125 C46.86151537 10.03654064 50.85530668 12.29280668 54.5625 16 C56.23306149 15.68676972 57.89855325 15.34665557 59.5625 15 C66.45681221 14.33708536 72.77626899 14.87035865 78.5625 19 C81.00425587 22.00198558 81.58725464 23.42930528 81.41796875 27.33203125 C81.08732422 29.05486328 81.08732422 29.05486328 80.75 30.8125 C80.53730469 31.97394531 80.32460938 33.13539062 80.10546875 34.33203125 C79.92628906 35.21246094 79.74710938 36.09289063 79.5625 37 C80.69945312 37.03738281 81.83640625 37.07476562 83.0078125 37.11328125 C109.73656121 38.17406121 109.73656121 38.17406121 116.5625 45 C118.63507904 51.50094667 115.30555106 59.14348588 112.5625 65 C109.4568491 68.1056509 105.76400494 67.96314469 101.5625 68 C98.6517618 67.62576223 95.79631537 67.09800346 92.9140625 66.546875 C86.83934147 65.55566178 80.70457228 65.31885075 74.5625 65 C74.33175781 65.67546875 74.10101563 66.3509375 73.86328125 67.046875 C71.58959332 73.26581591 69.67729677 76.94260162 63.5625 80 C56.91810219 80.87922088 52.21903194 79.86336906 46.47265625 76.484375 C44.5625 75 44.5625 75 43.09375 72.80078125 C42.5884375 72.20652344 42.083125 71.61226563 41.5625 71 C39.36720887 70.84870157 39.36720887 70.84870157 37 71.4375 C30.46148443 72.35251093 24.83909872 71.30944525 19.37890625 67.4609375 C17.69706467 66.03289495 16.10403355 64.57726446 14.5625 63 C13.5725 63.495 13.5725 63.495 12.5625 64 C5.70400934 64.79086565 -0.67051998 64.02694294 -6.4375 60 C-7.6875 57.859375 -7.6875 57.859375 -8.4375 56 C-9.4275 56.495 -9.4275 56.495 -10.4375 57 C-16.0433164 58.86860547 -20.49213171 58.71011695 -25.75 56.1875 C-29.51224327 54.19572415 -31.88586952 52.24842687 -33.625 48.3125 C-34.59369765 44.36319422 -34.57737828 41.05647013 -34.4375 37 C-35.54480469 37.06832031 -36.65210938 37.13664062 -37.79296875 37.20703125 C-43.16832389 37.20347847 -47.75058175 35.52123496 -52.75 33.6875 C-53.64267578 33.37876953 -54.53535156 33.07003906 -55.45507812 32.75195312 C-62.92218107 30.08312401 -62.92218107 30.08312401 -65.4375 27 C-67.38732675 20.45415306 -65.73497945 14.3071489 -63.4375 8 C-61.60944094 4.96278589 -59.66806218 2.61528109 -56.4375 1 C-49.50124174 0.44163907 -44.06095927 2.12502598 -37.5625 4.4375 C-36.61375 4.76298828 -35.665 5.08847656 -34.6875 5.42382812 C-27.9015337 7.76798315 -27.9015337 7.76798315 -25.4375 9 C-25.355 8.443125 -25.2725 7.88625 -25.1875 7.3125 C-23.97738972 3.58132664 -22.13359851 1.00154234 -18.7109375 -1.01953125 C-12.11806439 -3.89570498 -6.20614676 -3.61084902 0 0 Z M-20.4375 9 C-22.16171973 12.80123048 -23.42769084 16.71183301 -24.6875 20.6875 C-25.038125 21.72583984 -25.38875 22.76417969 -25.75 23.83398438 C-29.47912882 35.0633715 -29.47912882 35.0633715 -28.25 46.5 C-26.33009316 49.14814737 -25.55766819 50.13328661 -22.4375 51 C-18.19330734 51.47157696 -15.95502778 51.26364623 -12.125 49.3125 C-7.27758791 45.14147099 -7.17094737 40.50410294 -6.69726562 34.4375 C-6.5663194 32.5705439 -6.43868591 30.70335234 -6.31445312 28.8359375 C-5.87230245 23.25926235 -4.96714957 19.00415692 -2.4375 14 C-1.4475 14 -0.4575 14 0.5625 14 C0.253125 15.11246094 -0.05625 16.22492187 -0.375 17.37109375 C-1.80065772 23.07246967 -2.17510729 28.82389366 -2.6484375 34.66601562 C-3.0949862 39.70508676 -3.95098516 44.16882678 -5.4375 49 C-5.61528312 51.69628579 -5.61528312 51.69628579 -4.4375 54 C-0.6561716 57.16576331 2.59883939 58.8965904 7.5625 59 C10.84505956 58.15049156 10.84505956 58.15049156 13.5625 56 C16.35162563 50.64845108 17.24662168 45.62798583 18 39.6875 C18.97144648 32.83652391 19.95369546 26.0487655 23.5625 20 C24.2225 19.67 24.8825 19.34 25.5625 19 C23.65496575 45.72260274 23.65496575 45.72260274 19.5625 58 C22.89749555 61.31472202 25.5560199 63.69982172 30.125 65.0625 C34.36956472 64.9853261 36.18745449 64.6250354 39.5625 62 C42.92235037 55.462917 44.80410397 48.18076846 46.75 41.125 C47.00974609 40.20203125 47.26949219 39.2790625 47.53710938 38.328125 C48.59307407 34.56266948 49.62850892 30.79776059 50.5625 27 C51.5525 27 52.5425 27 53.5625 27 C52.57450252 36.16497659 51.01757958 44.71163924 48.515625 53.58984375 C47.36671522 57.70049228 46.44153782 61.82457035 45.5625 66 C49.85248064 70.14654664 53.42894366 73.20490936 59.5625 74 C62.62791546 73.07324649 63.96486741 71.96178148 65.65234375 69.24609375 C68.32550359 63.76863792 69.5831631 58.06880073 70.75390625 52.11328125 C71.5625 49 71.5625 49 73.09375 46.11328125 C74.85660636 42.37658837 75.26261238 38.93696602 75.5 34.875 C75.60151367 33.82119141 75.60151367 33.82119141 75.70507812 32.74609375 C75.93623816 29.20163986 75.89744558 27.42856391 73.67578125 24.5859375 C68.77507259 20.90814136 65.64026725 20.71058251 59.5625 21 C56.44464887 21.64644661 56.44464887 21.64644661 55.5625 24 C51.75355993 23.7759447 50.10291728 22.73290085 47.625 20 C45.55401368 17.80811853 44.69341605 17.04363868 41.75 16.0625 C38.73418186 15.87540493 38.73418186 15.87540493 36.53515625 16.4609375 C32.58570203 17.30774491 30.51592497 17.61229127 27.0078125 15.359375 C25.29149645 13.90911402 23.59083027 12.44013104 21.90625 10.953125 C18.36748927 8.00415772 15.13491652 6.89116699 10.53125 7.0859375 C7.59172715 7.4040202 4.85510196 7.89758931 2.0625 8.875 C-1.00724073 9.02848704 -1.81054873 8.26401859 -4.3125 6.5625 C-10.59543419 2.33838041 -15.98935263 2.59961494 -20.4375 9 Z M-56.5625 10.5625 C-59.6148195 14.53051535 -61.29417882 18.17265491 -61.6875 23.1875 C-60.28338971 26.34674815 -59.8019406 26.67540333 -56.8125 28.125 C-49.70491856 30.85339417 -41.08362339 34 -33.4375 34 C-32.57225247 31.56592995 -31.72007135 29.12856816 -30.875 26.6875 C-30.62814453 25.99720703 -30.38128906 25.30691406 -30.12695312 24.59570312 C-28.60755349 20.34686995 -28.60755349 20.34686995 -29.4375 16 C-31.35379304 14.93296769 -31.35379304 14.93296769 -33.734375 14.17578125 C-34.6109375 13.86962891 -35.4875 13.56347656 -36.390625 13.24804688 C-37.77507812 12.78495117 -37.77507812 12.78495117 -39.1875 12.3125 C-40.54875 11.83200195 -40.54875 11.83200195 -41.9375 11.34179688 C-49.40683699 8.41615591 -49.40683699 8.41615591 -56.5625 10.5625 Z M77.5625 42 C75.97087921 47.57067277 75.35575056 52.21101581 75.5625 58 C78.70788695 58.48212636 81.85388596 58.96014325 85 59.4375 C85.87849609 59.57220703 86.75699219 59.70691406 87.66210938 59.84570312 C90.2938427 60.24386204 92.9270918 60.62696712 95.5625 61 C96.41408691 61.12181641 97.26567383 61.24363281 98.14306641 61.36914062 C98.94276855 61.47291016 99.7424707 61.57667969 100.56640625 61.68359375 C101.63290405 61.82559204 101.63290405 61.82559204 102.72094727 61.97045898 C104.76900094 62.15555932 104.76900094 62.15555932 107.0625 60.625 C109.20262675 56.87977819 109.38059602 53.25655302 109.5625 49 C105.76386286 46.41915215 102.70188851 45.45517662 98.16796875 44.83203125 C96.96591797 44.66123047 95.76386719 44.49042969 94.52539062 44.31445312 C92.65657227 44.06598633 92.65657227 44.06598633 90.75 43.8125 C89.48478516 43.63525391 88.21957031 43.45800781 86.91601562 43.27539062 C83.79941939 42.84024323 80.68176603 42.41550007 77.5625 42 Z " fill="#000000" transform="translate(334.4375,10)"/>
<path d="M0 0 C2.375 1.8125 2.375 1.8125 3.25 4.5 C3.29125 5.263125 3.3325 6.02625 3.375 6.8125 C-0.3191883 6.22920711 -3.96834385 5.52883462 -7.625 4.75 C-11.35696893 3.98894893 -14.8004492 3.61120785 -18.625 3.8125 C-18.3125 1.875 -18.3125 1.875 -17.625 -0.1875 C-11.86616271 -2.10711243 -5.73396286 -1.87836714 0 0 Z " fill="#000000" transform="translate(276.625,114.1875)"/>
<path d="M0 0 C-0.23046875 1.88671875 -0.23046875 1.88671875 -1 4 C-2.92578125 5.08203125 -2.92578125 5.08203125 -5.3125 5.8125 C-6.48232422 6.19341797 -6.48232422 6.19341797 -7.67578125 6.58203125 C-10.15528491 7.02792519 -11.63492369 6.79557487 -14 6 C-13.1059808 2.91157003 -12.58228792 1.36600955 -9.8125 -0.375 C-6.29482705 -1.1567051 -3.51152719 -0.68853474 0 0 Z " fill="#000000" transform="translate(88,116)"/>
<path d="M0 0 C7.90069513 -0.45580933 7.90069513 -0.45580933 11.5625 1.0625 C13.7214109 3.97233643 13.26484554 6.4907966 13 10 C12.34 10 11.68 10 11 10 C10.62875 9.21625 10.2575 8.4325 9.875 7.625 C7.12941008 3.78117411 4.56368802 3.82296013 0 3 C0 2.01 0 1.02 0 0 Z " fill="#000000" transform="translate(393,114)"/>
</svg>
