<svg width="250" height="250" viewBox="0 0 250 250" fill="none" xmlns="http://www.w3.org/2000/svg">
<g clip-path="url(#clip0_1657_4094)">
<path d="M250 57.5263C250 56.8356 249.726 56.1733 249.237 55.6849C248.749 55.1965 248.087 54.9221 247.396 54.9221H237.318C236.779 46.632 233.665 38.7169 228.412 32.2812C223.158 25.8455 216.027 21.2104 208.013 19.0226C199.998 16.8348 191.501 17.2034 183.706 20.077C175.911 22.9506 169.208 28.1859 164.531 35.0524C159.855 28.1859 153.151 22.9506 145.357 20.077C137.562 17.2034 129.064 16.8348 121.05 19.0226C113.036 21.2104 105.904 25.8455 100.651 32.2812C95.3971 38.7169 92.2837 46.632 91.7448 54.9221H2.60417C1.9135 54.9221 1.25112 55.1965 0.762743 55.6849C0.274367 56.1733 0 56.8356 0 57.5263L0 229.792C0 230.483 0.274367 231.145 0.762743 231.633C1.25112 232.122 1.9135 232.396 2.60417 232.396H247.396C248.087 232.396 248.749 232.122 249.237 231.633C249.726 231.145 250 230.483 250 229.792V57.5263ZM231.042 167.344C219.505 167.344 219.01 152.5 204.505 152.5C190 152.5 189.349 167.344 177.969 167.344C168.516 167.344 167.24 158.229 158.698 154.115C156.449 153.003 153.966 152.45 151.458 152.5C137.135 152.5 136.25 167.344 124.948 167.344C114.531 167.344 113.307 155.339 102.188 152.917C99.4896 152.304 96.683 152.358 94.0104 153.073C83.3073 155.86 82.1354 167.344 71.849 167.344C60.2604 167.344 59.8958 152.5 45.3125 152.5C30.7292 152.5 30.1563 167.344 18.776 167.344C11.901 167.344 9.24479 162.396 5.20833 158.36V127.11C6.70182 128.941 8.54777 130.454 10.6368 131.559C12.7258 132.664 15.0154 133.338 17.3698 133.542C33.2552 134.479 33.5417 118.75 45.3125 118.75C57.0833 118.75 57.3177 133.594 71.849 133.594C86.3802 133.594 86.875 118.75 98.4115 118.75C109.948 118.75 110.495 133.594 124.948 133.594C139.401 133.594 140 118.75 151.458 118.75C162.917 118.75 163.255 133.594 177.969 133.594C192.682 133.594 192.995 118.75 204.505 118.75C216.016 118.75 216.51 133.594 231.042 133.594C233.671 133.616 236.272 133.047 238.652 131.929C241.031 130.812 243.13 129.173 244.792 127.136V158.386C240.156 163.021 237.63 167.344 231.042 167.344ZM157.552 60.1305V65.7815H112.474V60.1305H157.552ZM112.682 54.9221C113.164 51.4052 114.619 48.0927 116.882 45.3579C119.146 42.6231 122.127 40.5745 125.492 39.443C128.857 38.3115 132.471 38.142 135.926 38.9537C139.382 39.7653 142.543 41.5257 145.052 44.0367C148.019 46.9582 149.917 50.7919 150.443 54.9221H112.682ZM112.474 111.589H157.552V114.74C156.053 114.188 154.484 113.846 152.891 113.724C145.078 113.282 141.25 116.328 136.25 121.953C133.125 125.469 130.417 128.516 124.948 128.516C118.776 128.516 116.224 124.688 112.474 120.703V111.589ZM112.474 83.9065H157.552V93.4378H112.474V83.9065ZM109.87 70.8857H157.552V78.6982H109.375C108.869 78.6657 108.374 78.5338 107.919 78.3101C107.464 78.0864 107.057 77.7753 106.722 77.3944C106.387 77.0135 106.131 76.5704 105.967 76.0904C105.803 75.6103 105.736 75.1028 105.768 74.5966C105.801 74.0905 105.933 73.5957 106.156 73.1405C106.38 72.6854 106.691 72.2787 107.072 71.9438C107.453 71.6089 107.896 71.3522 108.376 71.1886C108.856 71.0249 109.364 70.9574 109.87 70.9899V70.8857ZM109.87 98.5419H157.552V106.354H109.375C108.621 106.333 107.89 106.091 107.273 105.658C106.655 105.225 106.178 104.62 105.901 103.919C105.624 103.217 105.559 102.45 105.713 101.712C105.868 100.974 106.235 100.297 106.771 99.7659C107.176 99.3662 107.662 99.0591 108.197 98.8657C108.732 98.6724 109.303 98.5975 109.87 98.6461V98.5419ZM244.74 119.375C240.339 123.776 237.865 128.438 231.042 128.438C219.531 128.438 219.141 113.594 204.505 113.594C189.87 113.594 189.661 127.891 178.464 128.438V60.1305H244.792L244.74 119.375ZM178.594 54.9221C179.089 51.4158 180.549 48.1161 182.812 45.3922C185.074 42.6683 188.05 40.6274 191.406 39.4979C194.762 38.3684 198.367 38.1947 201.816 38.9962C205.265 39.7978 208.423 41.543 210.938 44.0367C213.896 46.9642 215.793 50.7949 216.328 54.9221H178.594ZM166.823 41.2763C166.837 41.2076 166.837 41.1367 166.823 41.068C170.398 34.4926 176.002 29.2487 182.8 26.1179C189.598 22.9872 197.226 22.1374 204.546 23.6951C211.866 25.2529 218.487 29.1349 223.422 34.7622C228.356 40.3896 231.339 47.461 231.927 54.9221H221.51C220.81 48.7618 217.783 43.1016 213.049 39.0982C208.314 35.0948 202.23 33.0505 196.039 33.383C189.848 33.7155 184.017 36.3997 179.739 40.8871C175.461 45.3746 173.058 51.3264 173.021 57.5263V127.604C172.614 127.428 172.222 127.219 171.849 126.979C168.698 125 165.625 120.261 162.76 117.969V68.4899C162.76 57.4221 161.953 50.3909 166.823 41.2763ZM131.563 22.8128C137.643 22.8152 143.616 24.4136 148.885 27.448C154.154 30.4824 158.535 34.8466 161.589 40.1044C159.338 44.7467 157.994 49.776 157.63 54.9221H155.729C155.085 48.7211 152.082 43.0048 147.341 38.9561C142.6 34.9074 136.484 32.836 130.259 33.1706C124.033 33.5051 118.174 36.2199 113.895 40.7533C109.615 45.2868 107.242 51.2919 107.266 57.5263V66.0419C106.824 66.1542 106.389 66.2934 105.964 66.4586C104.194 67.1861 102.7 68.455 101.695 70.0837C100.691 71.7124 100.228 73.6172 100.372 75.5253C100.517 77.4333 101.262 79.2466 102.5 80.7054C103.738 82.1642 105.406 83.1936 107.266 83.6461V93.7503C106.824 93.8626 106.389 94.0017 105.964 94.1669C104.198 94.9012 102.708 96.1738 101.708 97.8036C100.707 99.4335 100.246 101.337 100.39 103.245C100.534 105.152 101.277 106.965 102.511 108.425C103.745 109.886 105.409 110.92 107.266 111.38V116.146C104.241 114.262 100.685 113.412 97.1354 113.724C96.7188 113.724 96.849 117.891 96.849 60.1305V54.9221C97.513 46.1764 101.461 38.0055 107.899 32.0497C114.338 26.094 122.792 22.7942 131.563 22.8128ZM5.20833 60.1305H91.6406V115.026C82.8906 118.854 81.4583 128.516 71.849 128.516C60.4167 128.516 59.8177 113.672 45.3125 113.672C30.8073 113.672 30.1823 128.516 18.776 128.516C11.9531 128.516 9.45312 123.802 5.41667 119.766C5.20833 119.297 5.20833 124.245 5.20833 60.1305ZM5.20833 166.068C6.84451 168.091 8.91169 169.722 11.259 170.844C13.6063 171.966 16.1744 172.55 18.776 172.552C33.3333 172.552 33.8281 157.709 45.3125 157.709C56.7969 157.709 57.3177 172.552 71.849 172.552C84.8698 172.552 86.849 160.547 95 158.177C97.5077 157.475 100.17 157.557 102.63 158.412C110 161.224 112.396 172.552 124.948 172.552C139.479 172.552 139.922 157.709 151.458 157.709C162.995 157.709 163.49 172.552 177.969 172.552C192.448 172.552 193.021 157.709 204.505 157.709C214.323 157.709 215.599 167.839 224.948 171.433C228.806 172.851 233.043 172.851 236.901 171.433C239.934 170.251 242.62 168.326 244.714 165.834V227.188H5.20833V166.068Z" fill="#727272"/>
</g>
<defs>
<clipPath id="clip0_1657_4094">
<rect width="250" height="250" fill="white"/>
</clipPath>
</defs>
</svg>
