<svg width="58" height="58" viewBox="0 0 58 58" fill="none" xmlns="http://www.w3.org/2000/svg">
<path d="M44.1814 36.0234C44.2998 36.0247 44.4173 36.0025 44.5271 35.9581C44.6368 35.9137 44.7367 35.848 44.821 35.7648C44.9052 35.6816 44.9722 35.5825 45.018 35.4733C45.0637 35.3641 45.0874 35.2469 45.0877 35.1285V29.8662C45.0868 29.7492 45.0625 29.6337 45.0162 29.5263C44.9698 29.419 44.9024 29.322 44.8179 29.2412C44.7334 29.1605 44.6335 29.0975 44.5241 29.056C44.4148 29.0146 44.2983 28.9955 44.1814 29H31.4939V14.5H44.3513C44.5415 14.4988 44.7265 14.4381 44.8805 14.3265C45.0345 14.2149 45.1498 14.058 45.2101 13.8777C45.2705 13.6973 45.273 13.5026 45.2173 13.3208C45.1615 13.139 45.0504 12.9792 44.8993 12.8637L29.3797 1.08105C29.2222 0.961312 29.0298 0.896424 28.8319 0.896301C28.634 0.896179 28.4416 0.960827 28.2839 1.08037L12.7643 12.8616C12.6132 12.9773 12.5021 13.1373 12.4463 13.3192C12.3906 13.5012 12.3931 13.696 12.4534 13.8764C12.5138 14.0569 12.629 14.214 12.783 14.3258C12.9369 14.4376 13.122 14.4985 13.3123 14.5H26.1697V29H13.822C13.7052 28.9955 13.5887 29.0146 13.4793 29.056C13.37 29.0975 13.2701 29.1605 13.1856 29.2412C13.101 29.322 13.0336 29.419 12.9873 29.5263C12.9409 29.6337 12.9166 29.7492 12.9158 29.8662V35.1285C12.916 35.2469 12.9397 35.3641 12.9855 35.4733C13.0313 35.5825 13.0982 35.6816 13.1825 35.7648C13.2667 35.848 13.3666 35.9137 13.4764 35.9581C13.5862 36.0025 13.7036 36.0247 13.822 36.0234H23.6775V56.1988C23.6778 56.3172 23.7014 56.4344 23.7472 56.5436C23.793 56.6528 23.8599 56.7519 23.9442 56.8351C24.0284 56.9183 24.1283 56.984 24.2381 57.0284C24.3479 57.0728 24.4654 57.095 24.5838 57.0938H33.4197C33.5381 57.095 33.6556 57.0728 33.7653 57.0284C33.8751 56.984 33.975 56.9183 34.0593 56.8351C34.1435 56.7519 34.2105 56.6528 34.2562 56.5436C34.302 56.4344 34.3257 56.3172 34.3259 56.1988V36.0234H44.1814ZM28.8318 2.95031L41.6586 12.6875H16.005L28.8318 2.95031ZM27.9822 14.5H29.6814V29H27.9822V14.5ZM14.7283 30.8125H43.2752V34.2109H14.7283V30.8125ZM32.5134 55.2813H25.49V36.0234H32.5134V55.2813Z" fill="#727272"/>
<path d="M17.7463 40.8311C17.7258 40.8106 17.7043 40.7858 17.682 40.7671C17.5203 40.6314 17.3165 40.5563 17.1055 40.5547H4.07812V26.7457C4.07812 26.5054 3.98265 26.2749 3.81269 26.1049C3.64274 25.935 3.41223 25.8395 3.17188 25.8395C2.93152 25.8395 2.70101 25.935 2.53106 26.1049C2.3611 26.2749 2.26563 26.5054 2.26562 26.7457V56.1989C2.26563 56.4392 2.3611 56.6697 2.53106 56.8397C2.70101 57.0096 2.93152 57.1051 3.17188 57.1051C3.41223 57.1051 3.64274 57.0096 3.81269 56.8397C3.98265 56.6697 4.07812 56.4392 4.07812 56.1989V46.4453H16.1992V56.1989C16.1992 56.4392 16.2947 56.6697 16.4647 56.8397C16.6346 57.0096 16.8651 57.1051 17.1055 57.1051C17.3458 57.1051 17.5763 57.0096 17.7463 56.8397C17.9162 56.6697 18.0117 56.4392 18.0117 56.1989V41.4723C18.0118 41.3533 17.9885 41.2354 17.9429 41.1254C17.8974 41.0154 17.8306 40.9155 17.7463 40.8315V40.8311ZM4.07812 44.6328V42.3672H16.1992V44.6328H4.07812Z" fill="#727272"/>
<path d="M54.8281 25.8395C54.5878 25.8395 54.3573 25.935 54.1873 26.1049C54.0174 26.2749 53.9219 26.5054 53.9219 26.7457V40.5547H40.8945C40.7159 40.5558 40.5415 40.6093 40.393 40.7087C40.2446 40.8081 40.1286 40.949 40.0595 41.1138C40.0123 41.2274 39.9881 41.3492 39.9883 41.4723V56.1989C39.9883 56.4392 40.0838 56.6697 40.2537 56.8397C40.4237 57.0096 40.6542 57.1051 40.8945 57.1051C41.1349 57.1051 41.3654 57.0096 41.5353 56.8397C41.7053 56.6697 41.8008 56.4392 41.8008 56.1989V46.4453H53.9219V56.1989C53.9219 56.4392 54.0174 56.6697 54.1873 56.8397C54.3573 57.0096 54.5878 57.1051 54.8281 57.1051C55.0685 57.1051 55.299 57.0096 55.4689 56.8397C55.6389 56.6697 55.7344 56.4392 55.7344 56.1989V26.7457C55.7344 26.5054 55.6389 26.2749 55.4689 26.1049C55.299 25.935 55.0685 25.8395 54.8281 25.8395ZM41.8008 44.6328V42.3672H53.9219V44.6328H41.8008Z" fill="#727272"/>
</svg>
