<svg width="250" height="250" viewBox="0 0 250 250" fill="none" xmlns="http://www.w3.org/2000/svg">
<path d="M78.125 114.805L67.9297 29.5315C67.7359 27.8818 67.895 26.2097 68.3965 24.6261C68.8979 23.0425 69.7303 21.5837 70.8385 20.3463C71.9466 19.1088 73.3052 18.1211 74.8241 17.4486C76.3429 16.7761 77.9874 16.4342 79.6484 16.4456H170.43C172.091 16.4342 173.735 16.7761 175.254 17.4486C176.773 18.1211 178.131 19.1088 179.24 20.3463C180.348 21.5837 181.18 23.0425 181.682 24.6261C182.183 26.2097 182.342 27.8818 182.148 29.5315L171.875 114.805H78.125ZM83.125 228.438L92.1094 201.094H157.813L166.797 228.438C166.994 229.04 167.042 229.681 166.936 230.306C166.83 230.93 166.574 231.52 166.19 232.024C165.805 232.527 165.304 232.93 164.729 233.197C164.154 233.463 163.523 233.586 162.891 233.555H86.8359C86.2194 233.555 85.6117 233.408 85.0626 233.128C84.5135 232.847 84.0385 232.441 83.6766 231.942C83.3146 231.443 83.0759 230.865 82.9801 230.256C82.8842 229.647 82.9339 229.024 83.125 228.438ZM157.813 200.977C179.688 194.141 195.703 169.922 195.703 140.625H54.2969C54.2969 169.766 70.3906 193.985 92.1875 200.821L157.813 200.977Z" stroke="#727272" stroke-width="6.25" stroke-miterlimit="10"/>
<path d="M191.25 114.805H58.7109C51.5269 114.805 45.7031 120.62 45.7031 127.793C45.7031 134.966 51.5269 140.781 58.7109 140.781H191.25C198.434 140.781 204.258 134.966 204.258 127.793C204.258 120.62 198.434 114.805 191.25 114.805Z" stroke="#727272" stroke-width="6.25" stroke-miterlimit="10"/>
</svg>
