<svg width="59" height="58" viewBox="0 0 59 58" fill="none" xmlns="http://www.w3.org/2000/svg">
<path d="M9.5625 38.0588C10.5635 38.0588 11.375 37.2474 11.375 36.2463C11.375 35.2453 10.5635 34.4338 9.5625 34.4338C8.56148 34.4338 7.75 35.2453 7.75 36.2463C7.75 37.2474 8.56148 38.0588 9.5625 38.0588Z" fill="#727272"/>
<path d="M9.5625 43.4963C10.5635 43.4963 11.375 42.6849 11.375 41.6838C11.375 40.6828 10.5635 39.8713 9.5625 39.8713C8.56148 39.8713 7.75 40.6828 7.75 41.6838C7.75 42.6849 8.56148 43.4963 9.5625 43.4963Z" fill="#727272"/>
<path d="M14.0938 30.8125H5.03125C4.531 30.8125 4.125 31.2185 4.125 31.7188V46.2188C4.125 46.719 4.531 47.125 5.03125 47.125H8.65625V48.9375H5.03125C4.531 48.9375 4.125 49.3435 4.125 49.8438C4.125 50.344 4.531 50.75 5.03125 50.75H14.0938C14.594 50.75 15 50.344 15 49.8438C15 49.3435 14.594 48.9375 14.0938 48.9375H10.4688V47.125H14.0938C14.594 47.125 15 46.719 15 46.2188V31.7188C15 31.2185 14.594 30.8125 14.0938 30.8125ZM13.1875 45.3125H5.9375V32.625H13.1875V45.3125Z" fill="#727272"/>
<path d="M49.4375 38.0588C50.4385 38.0588 51.25 37.2474 51.25 36.2463C51.25 35.2453 50.4385 34.4338 49.4375 34.4338C48.4365 34.4338 47.625 35.2453 47.625 36.2463C47.625 37.2474 48.4365 38.0588 49.4375 38.0588Z" fill="#727272"/>
<path d="M49.4375 43.4963C50.4385 43.4963 51.25 42.6849 51.25 41.6838C51.25 40.6828 50.4385 39.8713 49.4375 39.8713C48.4365 39.8713 47.625 40.6828 47.625 41.6838C47.625 42.6849 48.4365 43.4963 49.4375 43.4963Z" fill="#727272"/>
<path d="M53.9688 47.125C54.469 47.125 54.875 46.719 54.875 46.2188V31.7188C54.875 31.2185 54.469 30.8125 53.9688 30.8125H44.9062C44.406 30.8125 44 31.2185 44 31.7188V46.2188C44 46.719 44.406 47.125 44.9062 47.125H48.5312V48.9375H44.9062C44.406 48.9375 44 49.3435 44 49.8438C44 50.344 44.406 50.75 44.9062 50.75H53.9688C54.469 50.75 54.875 50.344 54.875 49.8438C54.875 49.3435 54.469 48.9375 53.9688 48.9375H50.3438V47.125H53.9688ZM45.8125 32.625H53.0625V45.3125H45.8125V32.625ZM41.2812 30.8125H17.7188C17.2185 30.8125 16.8125 31.2185 16.8125 31.7188V46.2188C16.8125 46.719 17.2185 47.125 17.7188 47.125H25.875V48.9375H21.3438C20.8435 48.9375 20.4375 49.3435 20.4375 49.8438C20.4375 50.344 20.8435 50.75 21.3438 50.75H26.7812H32.2188H37.6562C38.1565 50.75 38.5625 50.344 38.5625 49.8438C38.5625 49.3435 38.1565 48.9375 37.6562 48.9375H33.125V47.125H41.2812C41.7815 47.125 42.1875 46.719 42.1875 46.2188V31.7188C42.1875 31.2185 41.7815 30.8125 41.2812 30.8125ZM31.3125 48.9375H27.6875V47.125H31.3125V48.9375ZM40.375 45.3125H32.2188H26.7812H18.625V32.625H40.375V45.3125ZM26.7812 12.6875H32.2188C32.719 12.6875 33.125 12.2815 33.125 11.7812C33.125 11.281 32.719 10.875 32.2188 10.875H26.7812C26.281 10.875 25.875 11.281 25.875 11.7812C25.875 12.2815 26.281 12.6875 26.7812 12.6875Z" fill="#727272"/>
<path d="M14.0938 21.75H44.9062C46.4052 21.75 47.625 20.5302 47.625 19.0312V15.4062V13.5938V9.96875C47.625 8.46981 46.4052 7.25 44.9062 7.25H14.0938C12.5948 7.25 11.375 8.46981 11.375 9.96875V13.5938V15.4062V19.0312C11.375 20.5302 12.5948 21.75 14.0938 21.75ZM44.9062 19.9375H14.0938C13.5953 19.9375 13.1875 19.5297 13.1875 19.0312V17.9583C13.4721 18.0597 13.7747 18.125 14.0938 18.125H44.9062C45.2253 18.125 45.5279 18.0597 45.8125 17.9583V19.0312C45.8125 19.5297 45.4047 19.9375 44.9062 19.9375ZM13.1875 9.96875C13.1875 9.47031 13.5953 9.0625 14.0938 9.0625H44.9062C45.4047 9.0625 45.8125 9.47031 45.8125 9.96875V13.5938V15.4062C45.8125 15.9047 45.4047 16.3125 44.9062 16.3125H14.0938C13.5953 16.3125 13.1875 15.9047 13.1875 15.4062V13.5938V9.96875ZM18.625 25.6777V24.4688C18.625 23.9685 18.219 23.5625 17.7188 23.5625C17.2185 23.5625 16.8125 23.9685 16.8125 24.4688V25.6777C16.8125 26.5096 16.1346 27.1875 15.3027 27.1875C14.8024 27.1875 14.3964 27.5935 14.3964 28.0938C14.3964 28.594 14.8024 29 15.3027 29C17.1351 29 18.625 27.5101 18.625 25.6777ZM22.25 24.4688V25.6777C22.25 26.5096 21.5721 27.1875 20.7402 27.1875C20.2399 27.1875 19.8339 27.5935 19.8339 28.0938C19.8339 28.594 20.2399 29 20.7402 29C22.5726 29 24.0625 27.5101 24.0625 25.6777V24.4688C24.0625 23.9685 23.6565 23.5625 23.1562 23.5625C22.656 23.5625 22.25 23.9685 22.25 24.4688ZM44.6072 28.0938C44.6072 27.5935 44.2012 27.1875 43.7009 27.1875C42.869 27.1875 42.1911 26.5096 42.1911 25.6777V24.4688C42.1911 23.9685 41.7851 23.5625 41.2849 23.5625C40.7846 23.5625 40.3786 23.9685 40.3786 24.4688V25.6777C40.3786 27.5101 41.8685 29 43.7009 29C44.2012 29 44.6072 28.594 44.6072 28.0938ZM35.8474 23.5625C35.3471 23.5625 34.9411 23.9685 34.9411 24.4688V25.6777C34.9411 27.5101 36.431 29 38.2634 29C38.7637 29 39.1697 28.594 39.1697 28.0938C39.1697 27.5935 38.7637 27.1875 38.2634 27.1875C37.4315 27.1875 36.7536 26.5096 36.7536 25.6777V24.4688C36.7536 23.9685 36.3476 23.5625 35.8474 23.5625Z" fill="#727272"/>
</svg>
