<svg width="250" height="250" viewBox="0 0 250 250" fill="none" xmlns="http://www.w3.org/2000/svg">
<path d="M243.383 240.442H58.4561C61.0296 237.133 62.8679 233.089 62.8679 228.309C62.8679 221.324 54.412 206.618 49.2649 198.53H78.3091C80.5149 198.53 81.9855 197.059 81.9855 194.854V168.383C81.9855 166.177 80.5149 164.706 78.3091 164.706H69.4855V134.559C69.4855 128.309 74.6326 123.53 80.5149 123.53H98.5296C105.515 140.074 122.059 151.104 140.441 151.104C158.456 151.104 175 140.074 182.353 123.53H207.721V143.015C207.721 145.221 209.191 146.692 211.397 146.692H241.177C243.383 146.692 244.853 145.221 244.853 143.015V50.3683C244.853 48.1624 243.383 46.6918 241.177 46.6918H211.397C209.191 46.6918 207.721 48.1624 207.721 50.3683V75.3683H174.265C171.324 72.0594 168.015 69.1183 164.338 66.9124V45.9565C164.338 43.7506 162.868 42.28 160.662 42.28H151.838V24.633H164.706C170.956 24.633 176.103 19.4859 176.103 13.2359C176.103 6.98593 170.956 1.83887 164.706 1.83887H116.177C109.927 1.83887 104.78 6.98593 104.78 13.2359C104.78 19.4859 109.927 24.633 116.177 24.633H129.044V42.28H120.588C118.383 42.28 116.912 43.7506 116.912 45.9565V66.9124C113.236 69.1183 109.927 72.0594 106.986 75.3683H51.4708C34.9267 75.3683 21.3238 88.9712 21.3238 105.515V164.706H10.662C8.45611 164.706 6.98552 166.177 6.98552 168.383V194.854C6.98552 197.059 8.45611 198.53 10.662 198.53H36.3973C31.9855 206.618 24.2649 221.324 24.2649 228.309C24.2649 232.721 26.1032 237.133 28.6767 240.442H6.61788C4.41199 240.442 2.94141 241.912 2.94141 244.118C2.94141 246.324 4.41199 247.795 6.61788 247.795H243.383C245.588 247.795 247.059 246.324 247.059 244.118C247.059 241.912 245.588 240.442 243.383 240.442ZM237.5 54.0447V138.971H215.074V54.0447H237.5ZM207.721 82.7212V116.177H184.559C185.294 113.236 185.662 108.824 185.662 105.515C185.662 97.7947 183.456 89.7065 179.412 82.7212H207.721ZM112.133 13.6036C112.133 11.3977 113.971 9.55945 116.177 9.55945H164.706C166.912 9.55945 168.75 11.3977 168.75 13.6036C168.75 15.8095 166.912 17.6477 164.706 17.6477H116.177C113.971 17.28 112.133 15.4418 112.133 13.6036ZM136.397 24.633H144.853V42.28H136.397V24.633ZM122.059 72.0595C123.162 71.3242 123.897 70.2212 123.897 68.7506V49.2653H156.986V68.7506C156.986 70.2212 157.721 71.3242 158.824 72.0595C171.324 79.0447 178.677 91.9124 178.677 105.515C178.677 126.839 161.397 143.751 140.441 143.751C119.853 143.751 102.206 127.207 102.206 105.515C102.574 91.5447 110.294 78.6771 122.059 72.0595ZM28.6767 105.515C28.6767 93.0153 38.9708 82.7212 51.4708 82.7212H101.103C97.0591 90.0742 94.8532 98.1624 94.8532 105.515C94.8532 108.824 95.2208 113.236 95.9561 116.177H80.1473C69.8532 116.177 61.7649 124.633 61.7649 134.559V164.339H28.6767V105.515ZM14.3385 172.059H74.6326V191.177H14.3385V172.059ZM31.6179 228.309C31.6179 223.53 37.5002 211.398 43.0149 201.839C49.2649 211.398 55.8826 223.898 55.8826 228.309C55.8826 234.927 50.3679 240.442 43.7502 240.442C36.7649 240.442 31.6179 234.927 31.6179 228.309Z" fill="#727272"/>
</svg>
