<svg width="59" height="58" viewBox="0 0 59 58" fill="none" xmlns="http://www.w3.org/2000/svg">
<path d="M44.9063 56.1875C43.8308 56.1875 42.7795 55.8686 41.8853 55.2711C40.9911 54.6736 40.2942 53.8244 39.8827 52.8308C39.4711 51.8373 39.3634 50.744 39.5732 49.6892C39.783 48.6344 40.3009 47.6656 41.0614 46.9051C41.8218 46.1447 42.7907 45.6268 43.8454 45.417C44.9002 45.2072 45.9935 45.3149 46.9871 45.7264C47.9807 46.138 48.8299 46.8349 49.4274 47.7291C50.0248 48.6233 50.3438 49.6746 50.3438 50.75C50.3438 52.1921 49.7709 53.5752 48.7511 54.5949C47.7314 55.6146 46.3484 56.1875 44.9063 56.1875ZM44.9063 47.125C44.1893 47.125 43.4884 47.3376 42.8923 47.7359C42.2962 48.1342 41.8316 48.7004 41.5572 49.3628C41.2828 50.0252 41.211 50.754 41.3509 51.4572C41.4908 52.1604 41.836 52.8063 42.343 53.3133C42.85 53.8202 43.4959 54.1655 44.1991 54.3053C44.9022 54.4452 45.6311 54.3734 46.2935 54.0991C46.9559 53.8247 47.522 53.3601 47.9203 52.7639C48.3186 52.1678 48.5313 51.467 48.5313 50.75C48.5313 49.7886 48.1493 48.8666 47.4695 48.1867C46.7897 47.5069 45.8677 47.125 44.9063 47.125Z" fill="#727272"/>
<path d="M44.9063 52.5625C44.5478 52.5625 44.1973 52.4562 43.8993 52.257C43.6012 52.0579 43.3689 51.7748 43.2317 51.4436C43.0945 51.1124 43.0586 50.748 43.1286 50.3964C43.1985 50.0448 43.3711 49.7219 43.6246 49.4684C43.8781 49.2149 44.2011 49.0423 44.5527 48.9723C44.9042 48.9024 45.2687 48.9383 45.5999 49.0755C45.9311 49.2127 46.2141 49.445 46.4133 49.743C46.6125 50.0411 46.7188 50.3915 46.7188 50.75C46.7188 51.2307 46.5278 51.6917 46.1879 52.0316C45.848 52.3715 45.387 52.5625 44.9063 52.5625ZM54.875 51.6563H49.4375C49.1972 51.6563 48.9666 51.5608 48.7967 51.3908C48.6267 51.2209 48.5313 50.9904 48.5313 50.75C48.5313 50.5097 48.6267 50.2791 48.7967 50.1092C48.9666 49.9392 49.1972 49.8438 49.4375 49.8438H54.875C55.1154 49.8438 55.3459 49.9392 55.5158 50.1092C55.6858 50.2791 55.7813 50.5097 55.7813 50.75C55.7813 50.9904 55.6858 51.2209 55.5158 51.3908C55.3459 51.5608 55.1154 51.6563 54.875 51.6563ZM18.625 56.1875C16.1157 56.1875 13.6627 55.4434 11.5762 54.0493C9.48976 52.6552 7.86357 50.6736 6.90328 48.3553C5.943 46.037 5.69174 43.4859 6.18129 41.0248C6.67084 38.5637 7.87921 36.303 9.65359 34.5286C11.428 32.7542 13.6887 31.5458 16.1498 31.0563C18.6109 30.5667 21.162 30.818 23.4803 31.7783C25.7986 32.7386 27.7802 34.3648 29.1743 36.4512C30.5684 38.5377 31.3125 40.9907 31.3125 43.5C31.3125 46.8649 29.9758 50.0921 27.5964 52.4714C25.2171 54.8508 21.9899 56.1875 18.625 56.1875ZM18.625 32.625C16.4741 32.625 14.3716 33.2628 12.5832 34.4578C10.7948 35.6527 9.40092 37.3512 8.57782 39.3383C7.75471 41.3255 7.53935 43.5121 7.95897 45.6216C8.37858 47.7312 9.41432 49.6689 10.9352 51.1898C12.4561 52.7107 14.3939 53.7464 16.5034 54.166C18.6129 54.5857 20.7995 54.3703 22.7867 53.5472C24.7738 52.7241 26.4723 51.3302 27.6672 49.5418C28.8622 47.7534 29.5 45.6509 29.5 43.5C29.5 40.6158 28.3542 37.8497 26.3148 35.8102C24.2753 33.7708 21.5092 32.625 18.625 32.625Z" fill="#727272"/>
<path d="M18.625 52.5625C16.8326 52.5625 15.0805 52.031 13.5901 51.0352C12.0998 50.0394 10.9383 48.624 10.2523 46.9681C9.56643 45.3121 9.38696 43.49 9.73664 41.732C10.0863 39.974 10.9494 38.3593 12.2168 37.0918C13.4843 35.8244 15.099 34.9613 16.857 34.6116C18.615 34.262 20.4371 34.4414 22.0931 35.1273C23.749 35.8133 25.1644 36.9748 26.1602 38.4651C27.156 39.9555 27.6875 41.7076 27.6875 43.5C27.6875 45.9035 26.7327 48.2086 25.0332 49.9082C23.3336 51.6077 21.0285 52.5625 18.625 52.5625ZM18.625 36.25C17.1911 36.25 15.7894 36.6752 14.5971 37.4719C13.4049 38.2685 12.4756 39.4008 11.9269 40.7256C11.3781 42.0503 11.2346 43.508 11.5143 44.9144C11.7941 46.3208 12.4845 47.6126 13.4985 48.6265C14.5124 49.6405 15.8042 50.331 17.2106 50.6107C18.617 50.8904 20.0747 50.7469 21.3995 50.1981C22.7242 49.6494 23.8565 48.7201 24.6532 47.5279C25.4498 46.3356 25.875 44.9339 25.875 43.5C25.875 41.5772 25.1112 39.7331 23.7515 38.3735C22.3919 37.0138 20.5478 36.25 18.625 36.25Z" fill="#727272"/>
<path d="M18.625 46.2188C18.0873 46.2188 17.5616 46.0593 17.1145 45.7606C16.6674 45.4618 16.319 45.0372 16.1132 44.5404C15.9074 44.0436 15.8536 43.497 15.9585 42.9696C16.0634 42.4422 16.3223 41.9578 16.7026 41.5776C17.0828 41.1973 17.5672 40.9384 18.0946 40.8335C18.622 40.7286 19.1686 40.7824 19.6654 40.9882C20.1622 41.194 20.5868 41.5424 20.8856 41.9895C21.1843 42.4366 21.3438 42.9623 21.3438 43.5C21.3438 44.2211 21.0573 44.9126 20.5474 45.4224C20.0376 45.9323 19.3461 46.2188 18.625 46.2188ZM18.625 42.5938C18.4458 42.5938 18.2705 42.6469 18.1215 42.7465C17.9725 42.8461 17.8563 42.9876 17.7877 43.1532C17.7191 43.3188 17.7012 43.501 17.7362 43.6768C17.7711 43.8526 17.8574 44.0141 17.9842 44.1408C18.1109 44.2676 18.2724 44.3539 18.4482 44.3888C18.624 44.4238 18.8062 44.4059 18.9718 44.3373C19.1374 44.2687 19.2789 44.1525 19.3785 44.0035C19.4781 43.8545 19.5313 43.6792 19.5313 43.5C19.5313 43.2596 19.4358 43.0291 19.2658 42.8592C19.0959 42.6892 18.8654 42.5938 18.625 42.5938ZM44.9062 47.125C44.6659 47.125 44.4354 47.0295 44.2654 46.8596C44.0955 46.6896 44 46.4591 44 46.2188V35.6428C44 34.9903 43.5831 34.4375 43.0938 34.4375H24.9688C24.7284 34.4375 24.4979 34.342 24.3279 34.1721C24.158 34.0021 24.0625 33.7716 24.0625 33.5312C24.0625 33.2909 24.158 33.0604 24.3279 32.8904C24.4979 32.7205 24.7284 32.625 24.9688 32.625H43.0938C43.8527 32.6695 44.5636 33.0111 45.0724 33.576C45.5813 34.1408 45.8472 34.8834 45.8125 35.6428V46.2188C45.8125 46.4591 45.717 46.6896 45.5471 46.8596C45.3771 47.0295 45.1466 47.125 44.9062 47.125Z" fill="#727272"/>
<path d="M44.9062 44.4062H30.4062C30.1659 44.4062 29.9354 44.3108 29.7654 44.1408C29.5955 43.9709 29.5 43.7404 29.5 43.5C29.5 43.2596 29.5955 43.0291 29.7654 42.8592C29.9354 42.6892 30.1659 42.5938 30.4062 42.5938H44.9062C45.1466 42.5938 45.3771 42.6892 45.5471 42.8592C45.717 43.0291 45.8125 43.2596 45.8125 43.5C45.8125 43.7404 45.717 43.9709 45.5471 44.1408C45.3771 44.3108 45.1466 44.4062 44.9062 44.4062ZM44 39.875H39.4688C39.2284 39.875 38.9979 39.7795 38.8279 39.6096C38.658 39.4396 38.5625 39.2091 38.5625 38.9688C38.5625 38.7284 38.658 38.4979 38.8279 38.3279C38.9979 38.158 39.2284 38.0625 39.4688 38.0625H44C44.2404 38.0625 44.4709 38.158 44.6408 38.3279C44.8108 38.4979 44.9062 38.7284 44.9062 38.9688C44.9062 39.2091 44.8108 39.4396 44.6408 39.6096C44.4709 39.7795 44.2404 39.875 44 39.875ZM34.9375 39.875H30.4062C30.1659 39.875 29.9354 39.7795 29.7654 39.6096C29.5955 39.4396 29.5 39.2091 29.5 38.9688C29.5 38.7284 29.5955 38.4979 29.7654 38.3279C29.9354 38.158 30.1659 38.0625 30.4062 38.0625H34.9375C35.1779 38.0625 35.4084 38.158 35.5783 38.3279C35.7483 38.4979 35.8438 38.7284 35.8438 38.9688C35.8438 39.2091 35.7483 39.4396 35.5783 39.6096C35.4084 39.7795 35.1779 39.875 34.9375 39.875ZM41.2812 34.4375C41.0409 34.4375 40.8104 34.342 40.6404 34.1721C40.4705 34.0021 40.375 33.7716 40.375 33.5312V31.7188C40.375 29.5556 39.5157 27.481 37.9861 25.9514C36.4565 24.4218 34.3819 23.5625 32.2188 23.5625C31.9784 23.5625 31.7479 23.467 31.5779 23.2971C31.408 23.1271 31.3125 22.8966 31.3125 22.6562C31.3125 22.4159 31.408 22.1854 31.5779 22.0154C31.7479 21.8455 31.9784 21.75 32.2188 21.75C34.8626 21.75 37.3982 22.8003 39.2677 24.6698C41.1372 26.5393 42.1875 29.0749 42.1875 31.7188V33.5312C42.1875 33.7716 42.092 34.0021 41.9221 34.1721C41.7521 34.342 41.5216 34.4375 41.2812 34.4375Z" fill="#727272"/>
<path d="M30.4062 25.375H9.5625C8.84144 25.375 8.14992 25.0886 7.64005 24.5787C7.13019 24.0688 6.84375 23.3773 6.84375 22.6562C6.84375 21.9352 7.13019 21.2437 7.64005 20.7338C8.14992 20.2239 8.84144 19.9375 9.5625 19.9375H30.4062C31.1273 19.9375 31.8188 20.2239 32.3287 20.7338C32.8386 21.2437 33.125 21.9352 33.125 22.6562C33.125 23.3773 32.8386 24.0688 32.3287 24.5787C31.8188 25.0886 31.1273 25.375 30.4062 25.375ZM9.5625 21.75C9.32215 21.75 9.09164 21.8455 8.92168 22.0154C8.75173 22.1854 8.65625 22.4159 8.65625 22.6562C8.65625 22.8966 8.75173 23.1271 8.92168 23.2971C9.09164 23.467 9.32215 23.5625 9.5625 23.5625H30.4062C30.6466 23.5625 30.8771 23.467 31.0471 23.2971C31.217 23.1271 31.3125 22.8966 31.3125 22.6562C31.3125 22.4159 31.217 22.1854 31.0471 22.0154C30.8771 21.8455 30.6466 21.75 30.4062 21.75H9.5625Z" fill="#727272"/>
<path d="M14.0938 33.1226C13.9026 33.1225 13.7165 33.062 13.5618 32.9496C13.4072 32.8373 13.2921 32.679 13.2328 32.4973L10.6953 24.7489C10.6532 24.6345 10.6346 24.5129 10.6406 24.3911C10.6466 24.2694 10.6771 24.1502 10.7302 24.0405C10.7833 23.9308 10.8581 23.833 10.9499 23.7529C11.0417 23.6728 11.1487 23.612 11.2646 23.5742C11.3805 23.5364 11.5027 23.5223 11.6241 23.5329C11.7456 23.5434 11.8636 23.5783 11.9712 23.6355C12.0788 23.6928 12.1737 23.7711 12.2504 23.8658C12.327 23.9606 12.3837 24.0698 12.4172 24.187L15 31.9355C15.0743 32.1638 15.055 32.4123 14.9463 32.6264C14.8375 32.8405 14.6482 33.0027 14.42 33.0773C14.3144 33.1101 14.2042 33.1254 14.0938 33.1226ZM17.5466 31.9898C17.3555 31.9897 17.1693 31.9291 17.0147 31.8168C16.86 31.7045 16.7449 31.5462 16.6856 31.3645L14.5197 24.7489C14.4776 24.6345 14.459 24.5129 14.465 24.3911C14.4709 24.2694 14.5014 24.1502 14.5546 24.0405C14.6077 23.9308 14.6824 23.833 14.7743 23.7529C14.8661 23.6728 14.9731 23.612 15.089 23.5742C15.2048 23.5364 15.3271 23.5223 15.4485 23.5329C15.5699 23.5434 15.688 23.5783 15.7956 23.6355C15.9032 23.6928 15.9981 23.7711 16.0748 23.8658C16.1514 23.9606 16.2081 24.0698 16.2416 24.187L18.4075 30.8117C18.4818 31.04 18.4625 31.2885 18.3538 31.5026C18.245 31.7167 18.0557 31.8789 17.8275 31.9536C17.736 31.9787 17.6414 31.9909 17.5466 31.9898ZM10.3691 21.7492C10.1703 21.7589 9.97388 21.703 9.81009 21.59C9.6463 21.4769 9.52426 21.3132 9.46281 21.1239L5.62031 9.26108C5.52995 8.98617 5.48406 8.69859 5.48438 8.40921C5.48367 7.7624 5.71359 7.13654 6.13284 6.64401C6.55208 6.15148 7.13319 5.82455 7.7718 5.72194C8.41041 5.61932 9.06468 5.74775 9.61712 6.08414C10.1696 6.42054 10.584 6.94287 10.7859 7.55733L15.0453 20.562C15.0892 20.6778 15.1089 20.8013 15.1032 20.925C15.0975 21.0487 15.0665 21.1699 15.0122 21.2811C14.9578 21.3924 14.8813 21.4913 14.7872 21.5718C14.6932 21.6523 14.5836 21.7127 14.4653 21.7492C14.237 21.8235 13.9885 21.8042 13.7744 21.6955C13.5603 21.5867 13.3981 21.3974 13.3234 21.1692L9.06406 8.15546C8.99682 7.95088 8.85894 7.77693 8.6751 7.66478C8.49127 7.55263 8.27351 7.50961 8.06084 7.54341C7.84817 7.57722 7.65449 7.68566 7.5145 7.84929C7.37451 8.01292 7.29736 8.22105 7.29688 8.43639C7.28312 8.53257 7.28312 8.63022 7.29688 8.72639L11.1847 20.5892C11.2668 20.814 11.2566 21.0621 11.1564 21.2794C11.0563 21.4967 10.8742 21.6656 10.65 21.7492C10.5568 21.7622 10.4623 21.7622 10.3691 21.7492Z" fill="#727272"/>
</svg>
