<svg width="58" height="58" viewBox="0 0 58 58" fill="none" xmlns="http://www.w3.org/2000/svg">
<path d="M2.45508 54.5148H54.8889C55.1293 54.5148 55.3596 54.4194 55.5297 54.2494C55.6998 54.0795 55.7951 53.8489 55.7951 53.6086V48.212C55.7951 47.9717 55.6998 47.7411 55.5297 47.571C55.3596 47.4012 55.1293 47.3056 54.8889 47.3056H53.4779V45.2376H55.5469C55.7872 45.2376 56.0176 45.1422 56.1877 44.9721C56.3577 44.8023 56.4531 44.5717 56.4531 44.3314V5.17772C56.4531 4.93737 56.3577 4.70686 56.1877 4.53692C56.0176 4.36695 55.7872 4.27148 55.5469 4.27148H4.77418C4.53383 4.27148 4.30331 4.36695 4.13335 4.53692C3.96341 4.70686 3.86792 4.93737 3.86792 5.17772C3.86792 5.41807 3.96341 5.64859 4.13335 5.81853C4.30331 5.98849 4.53383 6.08398 4.77418 6.08398H43.3307V9.63648H4.77418C4.53383 9.63648 4.30331 9.73195 4.13335 9.90192C3.96341 10.0719 3.86792 10.3024 3.86792 10.5427V47.3056H2.45508C2.21473 47.3056 1.98422 47.4012 1.81426 47.571C1.64431 47.7411 1.54883 47.9717 1.54883 48.212V53.6123C1.54979 53.852 1.64569 54.0816 1.81554 54.2508C1.98539 54.4199 2.21535 54.5148 2.45508 54.5148ZM50.4347 6.08398V12.2338C50.4347 12.4741 50.5301 12.7046 50.7002 12.8746C50.87 13.0446 51.1006 13.14 51.3409 13.14C51.5813 13.14 51.8117 13.0446 51.9817 12.8746C52.1518 12.7046 52.2471 12.4741 52.2471 12.2338V6.08398H54.6407V43.4215H50.7981V27.5142C50.7981 27.2738 50.7027 27.0432 50.5326 26.8734C50.3626 26.7033 50.1322 26.6077 49.8919 26.6077C49.6515 26.6077 49.4209 26.7033 49.2511 26.8734C49.081 27.0432 48.9857 27.2738 48.9857 27.5142V43.4252H45.1431V6.08398H50.4347ZM33.4551 43.4215V15.3277H43.3332V43.4252L33.4551 43.4215ZM43.3332 13.5152H32.5489C32.3086 13.5152 32.078 13.6107 31.9082 13.7807C31.7381 13.9506 31.6427 14.1811 31.6427 14.4215V44.3277C31.6427 44.568 31.7381 44.7986 31.9082 44.9684C32.078 45.1385 32.3086 45.2341 32.5489 45.2341H51.6653V47.3056H29.5791V11.449H43.3307L43.3332 13.5152ZM5.68042 11.449H27.7667V47.3056H5.68042V11.449ZM3.36132 49.1182H53.9827V52.7061H3.36132V49.1182Z" fill="#727272"/>
<path d="M24.7943 13.5156H8.6504C8.41005 13.5156 8.17954 13.6111 8.00957 13.7811C7.83963 13.951 7.74414 14.1815 7.74414 14.4219V44.328C7.74414 44.5684 7.83963 44.799 8.00957 44.969C8.17954 45.1389 8.41005 45.2345 8.6504 45.2345H24.7943C25.0347 45.2345 25.2653 45.1389 25.4351 44.969C25.6052 44.799 25.7005 44.5684 25.7005 44.328V14.4219C25.7005 14.1815 25.6052 13.951 25.4351 13.7811C25.2653 13.6111 25.0347 13.5156 24.7943 13.5156ZM23.8881 43.4218H9.55664V15.3281H23.8881V43.4218Z" fill="#727272"/>
<path d="M13.1287 31.8467C13.2478 31.8469 13.3657 31.8237 13.4757 31.778C13.5857 31.7325 13.6855 31.6655 13.7694 31.581L19.3927 25.9622C19.4793 25.8787 19.5483 25.7787 19.5958 25.668C19.6433 25.5576 19.6683 25.4386 19.6693 25.3184C19.6704 25.198 19.6475 25.0788 19.6019 24.9674C19.5563 24.8558 19.489 24.7547 19.4039 24.6697C19.3188 24.5846 19.2177 24.5173 19.1063 24.4716C18.9949 24.4261 18.8756 24.4032 18.7553 24.4043C18.6349 24.4053 18.516 24.4303 18.4054 24.4779C18.2949 24.5252 18.1949 24.5943 18.1113 24.6809L12.488 30.2997C12.3613 30.4264 12.275 30.5878 12.2401 30.7637C12.2051 30.9393 12.2231 31.1217 12.2916 31.2871C12.3602 31.4527 12.4763 31.5942 12.6253 31.6938C12.7743 31.7933 12.9495 31.8467 13.1287 31.8467ZM16.5471 33.1461C16.717 33.3162 16.9475 33.4115 17.1878 33.4115C17.4281 33.4115 17.6586 33.3162 17.8285 33.1461L20.9578 30.0169C21.1229 29.8459 21.2142 29.6171 21.2122 29.3793C21.2101 29.1418 21.1148 28.9144 20.9468 28.7464C20.7787 28.5785 20.5514 28.4831 20.3138 28.481C20.0762 28.479 19.8473 28.5704 19.6764 28.7355L16.5471 31.8648C16.3772 32.0346 16.2817 32.2652 16.2817 32.5055C16.2817 32.7457 16.3772 32.9763 16.5471 33.1461Z" fill="#727272"/>
</svg>
