<svg width="250" height="250" viewBox="0 0 250 250" fill="none" xmlns="http://www.w3.org/2000/svg">
<path d="M10.5801 234.98H236.588C237.624 234.98 238.617 234.569 239.35 233.836C240.083 233.104 240.494 232.11 240.494 231.074V207.813C240.494 206.777 240.083 205.783 239.35 205.05C238.617 204.318 237.624 203.906 236.588 203.906H230.506V194.992H239.424C240.46 194.992 241.453 194.581 242.186 193.848C242.919 193.116 243.33 192.122 243.33 191.086V22.3203C243.33 21.2843 242.919 20.2907 242.186 19.5582C241.453 18.8256 240.46 18.4141 239.424 18.4141H20.5762C19.5402 18.4141 18.5466 18.8256 17.814 19.5582C17.0815 20.2907 16.6699 21.2843 16.6699 22.3203C16.6699 23.3563 17.0815 24.3499 17.814 25.0824C18.5466 25.815 19.5402 26.2266 20.5762 26.2266H186.768V41.5391H20.5762C19.5402 41.5391 18.5466 41.9506 17.814 42.6832C17.0815 43.4157 16.6699 44.4093 16.6699 45.4453V203.906H10.5801C9.54408 203.906 8.55051 204.318 7.81794 205.05C7.08538 205.783 6.67383 206.777 6.67383 207.813V231.09C6.67796 232.123 7.09134 233.113 7.82345 233.842C8.55557 234.571 9.54678 234.98 10.5801 234.98ZM217.389 26.2266V52.7344C217.389 53.7704 217.8 54.7639 218.533 55.4965C219.265 56.2291 220.259 56.6406 221.295 56.6406C222.331 56.6406 223.324 56.2291 224.057 55.4965C224.79 54.7639 225.201 53.7704 225.201 52.7344V26.2266H235.518V187.164H218.955V118.598C218.955 117.562 218.544 116.568 217.811 115.836C217.078 115.103 216.085 114.691 215.049 114.691C214.013 114.691 213.019 115.103 212.287 115.836C211.554 116.568 211.143 117.562 211.143 118.598V187.18H194.58V26.2266H217.389ZM144.201 187.164V66.0703H186.779V187.18L144.201 187.164ZM186.779 58.2578H140.295C139.259 58.2578 138.265 58.6694 137.533 59.4019C136.8 60.1345 136.389 61.1281 136.389 62.1641V191.07C136.389 192.106 136.8 193.1 137.533 193.832C138.265 194.565 139.259 194.977 140.295 194.977H222.693V203.906H127.494V49.3516H186.768L186.779 58.2578ZM24.4824 49.3516H119.682V203.906H24.4824V49.3516ZM14.4863 211.719H232.682V227.184H14.4863V211.719Z" fill="#727272"/>
<path d="M106.871 58.2539H37.2852C36.2492 58.2539 35.2556 58.6655 34.523 59.398C33.7905 60.1306 33.3789 61.1242 33.3789 62.1602V191.066C33.3789 192.102 33.7905 193.096 34.523 193.829C35.2556 194.561 36.2492 194.973 37.2852 194.973H106.871C107.907 194.973 108.901 194.561 109.633 193.829C110.366 193.096 110.777 192.102 110.777 191.066V62.1602C110.777 61.1242 110.366 60.1306 109.633 59.398C108.901 58.6655 107.907 58.2539 106.871 58.2539ZM102.965 187.16H41.1914V66.0664H102.965V187.16Z" fill="#727272"/>
<path d="M56.5871 137.27C57.1002 137.271 57.6085 137.171 58.0826 136.974C58.5567 136.778 58.987 136.489 59.3488 136.125L83.5871 111.906C83.9601 111.546 84.2577 111.115 84.4625 110.638C84.6672 110.162 84.7749 109.649 84.7794 109.131C84.784 108.612 84.6851 108.098 84.4887 107.618C84.2923 107.137 84.0022 106.701 83.6355 106.335C83.2687 105.968 82.8326 105.678 82.3525 105.481C81.8724 105.285 81.3581 105.186 80.8394 105.191C80.3207 105.195 79.8081 105.303 79.3316 105.508C78.855 105.712 78.424 106.01 78.0636 106.383L53.8253 130.602C53.2792 131.148 52.9073 131.844 52.7567 132.602C52.606 133.359 52.6834 134.145 52.9789 134.858C53.2745 135.572 53.7751 136.182 54.4173 136.611C55.0595 137.04 55.8146 137.27 56.5871 137.27ZM71.3214 142.871C72.054 143.604 73.0474 144.015 74.0832 144.015C75.1189 144.015 76.1123 143.604 76.8449 142.871L90.3332 129.383C91.0447 128.646 91.4384 127.66 91.4295 126.635C91.4206 125.611 91.0098 124.631 90.2856 123.907C89.5613 123.183 88.5816 122.772 87.5574 122.763C86.5332 122.754 85.5464 123.148 84.8097 123.86L71.3214 137.348C70.5891 138.08 70.1777 139.074 70.1777 140.11C70.1777 141.145 70.5891 142.139 71.3214 142.871Z" fill="#727272"/>
</svg>
