<svg width="250" height="250" viewBox="0 0 250 250" fill="none" xmlns="http://www.w3.org/2000/svg">
<path d="M124.114 90.177C114.198 89.2992 108.373 81.4191 104.736 72.8801C104.034 71.2313 103.432 69.4672 102.558 67.9039C100.829 64.8094 97.8433 63.4082 101.771 59.3535L100.862 52.8566C99.9601 38.6321 113.557 28.8259 126.657 28.0056C130.79 27.8557 135.541 28.5995 138.908 31.1888C139.368 31.5432 142.317 35.0287 143.105 35.872C149.211 42.4008 150.4 51.2176 147.922 59.6895C152.823 63.1691 149.262 64.8461 147.647 67.8848C147.023 69.059 146.586 70.4066 146.06 71.634C141.887 81.3641 136 90.4563 124.114 90.177ZM127.154 33.9905C118.081 34.5655 108.619 40.2328 106.752 49.6211C111.724 45.1344 117.483 44.9039 123.758 45.2215L124.545 45.2691L129.529 45.8809C132.737 46.1156 131.98 45.8543 134.545 44.2918C137.131 42.7164 140.275 45.3691 141.8 47.282L143.343 49.468C142.992 48.1344 142.676 46.7586 142.168 45.4754C141.178 42.9758 136.741 36.9757 134.225 35.4932C132.276 34.3446 129.387 33.8406 127.154 33.9905ZM135.907 50.6668C133.827 51.2941 131.834 51.9391 129.637 51.9824C123.679 52.0996 114.12 48.6813 110.476 55.5227C109.191 57.934 109.683 60.616 109.409 63.232C109.177 65.4418 108.791 66.2277 109.475 68.4332C110.932 73.1316 113.485 77.8824 117.291 81.0926C128.156 89.923 138.259 78.4746 140.968 67.652C141.66 64.8871 140.866 65.5133 140.58 63.2328C140.355 61.4434 140.728 59.5715 140.417 57.8008C140.117 56.093 138.294 50.4227 135.907 50.6668Z" fill="#727272"/>
<path d="M172.5 204.598L172.242 204.96C167.319 211.242 158.437 209.495 151.709 208.275L140.393 206.27C133.544 205.224 127.234 204.974 120.303 205.118C114.81 205.232 107.651 208.114 101.676 208.83C96.0901 209.499 84.3069 209.335 80.3101 206.097C78.5441 204.666 76.9073 201.987 76.6523 199.702L76.6343 199.524C76.528 198.555 76.6023 197.642 76.6878 196.673C75.0694 196.213 73.4003 195.812 71.8374 195.187C63.2652 191.756 58.1929 184.066 58.3484 174.787C55.2202 176.181 51.2319 178.029 47.7171 177.142C43.8788 176.173 41.798 173.121 41.8425 169.262C41.9273 161.896 49.2226 155.942 54.4523 151.67L61.1749 146.109C67.7437 140.445 72.4245 134.464 74.8878 126.042L76.898 118.07C78.3144 112.727 80.2941 107.45 83.6515 103.005C89.4046 95.39 99.5249 90.0845 109.069 89.9072C113.085 89.8329 115.101 89.6329 117.565 92.8404C121.226 97.6056 127.291 99.0767 131.728 94.1509C134.164 91.447 133.813 90.7911 137.994 90.2099L141.803 89.7728C145.179 89.6388 145.626 89.6888 148.744 90.9232L155.273 93.6431C165.164 98.4954 170.451 106.85 173.324 117.193C174.378 120.991 175.071 124.907 176.321 128.646C182.439 146.945 202.645 151.793 207.518 165.07C209.167 169.562 208.726 175.007 203.616 176.819C200.873 177.792 197.637 176.747 195.039 175.783L191.258 174.261C191.496 181.354 187.864 187.913 182.589 192.472C180.426 194.341 174.05 198.452 174.054 192.677C174.057 189.122 185.626 187.441 185.289 172.129C182.223 167.999 165.688 167.926 160.167 168.641C153.092 169.556 146.881 172.678 140.444 175.526L133.183 178.485C137.3 179.24 141.256 181.843 144.926 183.759C149.433 186.112 154.183 187.89 159.057 189.322C163.292 190.566 172.381 192.341 173.627 197.55C174.193 199.917 173.74 202.529 172.5 204.598ZM109.164 95.8779C101.835 96.3704 94.5827 99.5314 89.6655 105.101C81.3562 114.513 82.7269 127.836 76.3167 138.173C72.13 144.924 66.1917 149.943 60.071 154.872C56.3323 157.883 47.5378 164.224 47.9609 169.74C48.2749 173.83 56.1265 169.009 57.7023 168.251L67.5038 163.498C71.2304 161.752 75.0769 160.516 78.5663 158.264C89.5144 151.2 91.6948 141.188 93.0233 128.777C93.2097 127.037 92.9745 124.901 93.5101 123.253C94.4538 120.35 98.9648 120.278 99.3476 123.441C99.5034 124.728 99.3847 126.155 99.3831 127.456L99.3796 166.818C99.4273 168.594 100.204 168.568 101.609 169.5C105.411 172.022 110.032 174.505 114.623 175.059L114.868 175.09C123.99 176.21 133.528 172.074 141.631 168.458L150.844 164.611L150.787 127.874C150.787 126.471 150.647 124.935 150.826 123.552C151.26 120.185 156.039 120.254 156.815 123.829C157.259 125.874 157.208 128.136 157.408 130.224C157.941 135.784 159.059 141.65 161.351 146.767C165.635 156.335 173.683 159.352 182.446 163.431C186.993 165.549 191.439 167.907 196.097 169.776C197.863 170.485 202.591 172.946 202.394 169.192C202.169 164.921 197.382 160.885 194.375 158.3C183.07 148.585 174.096 142.995 169.799 128.052L167.326 117.836C165.323 110.497 161.409 104.247 154.847 100.207C151.156 97.9349 147.008 95.9724 142.601 96.07C137.78 96.1775 138.396 96.8044 135.049 99.431C127.35 105.472 118.937 104.068 112.892 96.7169C111.903 95.5138 110.642 95.7775 109.164 95.8779ZM156.721 150.848L157.043 162.909C159.866 162.178 163.769 162.204 166.655 162.224L167.154 162.171C166.844 161.849 166.384 161.655 166.015 161.397C162.13 158.677 159.137 154.889 156.721 150.848ZM93.4476 151.307C89.9085 156.442 88.4394 158.486 82.9089 162.275L84.746 162.283C86.4448 162.387 91.9116 162.921 93.2667 164.06L93.4659 152.604C93.4933 152.231 93.5886 151.649 93.4476 151.307ZM79.1913 168.472C71.8187 168.65 62.3234 168.559 64.6109 178.956C67.1237 190.377 81.5382 191.786 90.93 194.042L106.283 197.628C112.02 198.683 117.593 198.84 123.403 198.929L126.914 199.117C129.061 199.148 131.209 199.111 133.347 199.334L154.148 202.747C157.874 203.503 162.95 204.581 166.351 202.311C167.692 201.417 168.538 199.956 167.173 198.613L167.028 198.481C165.317 197.029 161.63 196.535 159.507 195.878L147.662 191.7C146.131 191.075 144.603 190.414 143.145 189.629L138.321 186.848C129.305 182.055 118.791 183.324 109.336 180.045C106.135 178.934 103.087 177.347 100.176 175.622L94.2808 171.775C92.2882 170.455 90.1366 168.896 87.7077 168.615L79.1913 168.472ZM82.8874 198.426C81.3601 201.046 87.3964 202.333 88.9237 202.583C93.1089 203.267 97.1843 202.839 101.378 202.977L101.492 202.834C98.7159 201.945 95.7405 201.399 92.9023 200.701L86.2933 199.12C85.1898 198.87 84.0132 198.518 82.8874 198.426Z" fill="#727272"/>
</svg>
